<?xml version="1.0" encoding="UTF-8"?>
<svg id="Layer_2" data-name="Layer 2" xmlns="http://www.w3.org/2000/svg" xmlns:xlink="http://www.w3.org/1999/xlink" viewBox="0 0 120.27 261.11">
  <defs>
    <style>
      .cls-1, .cls-2, .cls-3, .cls-4 {
        fill: #fff;
      }

      .cls-5, .cls-6, .cls-7 {
        fill: #a3008c;
      }

      .cls-5, .cls-8 {
        opacity: .6;
      }

      .cls-2 {
        font-family: KristenITC-Regular, 'Kristen ITC';
        font-size: 16px;
      }

      .cls-9 {
        fill: #87007a;
      }

      .cls-10 {
        clip-path: url(#clippath);
      }

      .cls-3 {
        font-size: 9.62px;
      }

      .cls-3, .cls-4, .cls-8 {
        font-family: OpenSans, 'Open Sans';
      }

      .cls-4 {
        font-size: 6.77px;
      }

      .cls-6 {
        opacity: .8;
      }

      .cls-8 {
        fill: #1c1c1c;
        font-size: 7.48px;
      }

      .cls-11 {
        fill: #bc6cbc;
      }
    </style>
    <clipPath id="clippath">
      <path class="cls-6" d="m34.21,170.91c3.74.91,22.01.73,23.14.75,0,0,.52.01,1.41.01.89,0,1.41,0,1.41,0,0,0,19.4.16,23.14-.75,18.15-4.44,21.14-19.24,20.67-26.78-.55-8.79-1.36-18.89-2.43-28.88-2.37-22.19-5.98-43.88-10.68-49.76-3.86-4.83-23.71-7.08-37.7-6.53-8.64.36-22.67,1.7-26.52,6.53-4.69,5.88-8.31,27.58-10.68,49.76-1.07,9.99-1.88,20.09-2.43,28.88-.47,7.55,2.52,22.35,20.67,26.78Z"/>
    </clipPath>
  </defs>
  <g id="OBJECTS">
    <g>
      <path class="cls-7" d="m106.52,42.05s-7.83-22.92-12.79-35.65c-1.48-3.81-6.03-2.84-8.16-3.46-12.66-3.67-38.19-4.16-51.61,0-2.12.66-6.67-.35-8.16,3.46-4.96,12.73-12.79,35.65-12.79,35.65h93.5Z"/>
      <path class="cls-11" d="m109.39,46.8c-.16-1.37-2.19-3.49-3.28-4.16-6.71-4.18-30.37-5.83-30.37-5.83l-15.61.27-15.61-.27s-23.66,1.65-30.37,5.83c-1.09.68-3.12,2.8-3.28,4.16C6.09,88.72-1.6,154.83.29,202.82c1.51,38.31,12.6,48.03,19.41,53.58,1.73,1.41,5.94,2.97,8.07,3.33,7.98,1.36,32.26,1.39,32.26,1.39h.21s24.29-.03,32.26-1.39c2.13-.36,6.33-1.92,8.07-3.33,6.81-5.55,17.89-15.27,19.41-53.58,1.89-47.98-5.8-114.1-10.59-156.02Z"/>
      <g>
        <path class="cls-6" d="m34.21,170.91c3.74.91,22.01.73,23.14.75,0,0,.52.01,1.41.01.89,0,1.41,0,1.41,0,0,0,19.4.16,23.14-.75,18.15-4.44,21.14-19.24,20.67-26.78-.55-8.79-1.36-18.89-2.43-28.88-2.37-22.19-5.98-43.88-10.68-49.76-3.86-4.83-23.71-7.08-37.7-6.53-8.64.36-22.67,1.7-26.52,6.53-4.69,5.88-8.31,27.58-10.68,49.76-1.07,9.99-1.88,20.09-2.43,28.88-.47,7.55,2.52,22.35,20.67,26.78Z"/>
        <g class="cls-10">
          <path class="cls-5" d="m47.23,176.15c4.07,1,23.98.8,25.22.81,0,0,.57.02,1.53.01.97,0,1.53,0,1.53,0,0,0,21.14.18,25.22-.82,19.77-4.83,23.03-20.96,22.52-29.19-.6-9.58-1.49-20.58-2.65-31.47-2.58-24.18-6.52-47.82-11.63-54.23-4.2-5.27-25.84-7.71-41.08-7.12-9.41.39-24.7,1.85-28.9,7.12-5.11,6.41-9.05,30.05-11.63,54.23-1.16,10.89-2.05,21.89-2.65,31.47-.51,8.22,2.75,24.35,22.52,29.19Z"/>
        </g>
      </g>
      <text class="cls-2" transform="translate(21.67 133.79)"><tspan x="0" y="0">BOUNCY</tspan></text>
      <text class="cls-3" transform="translate(37.8 111.34)"><tspan x="0" y="0">Shampoo</tspan></text>
      <text class="cls-8" transform="translate(45.9 216.12)"><tspan x="0" y="0">100 ml</tspan></text>
      <text class="cls-4" transform="translate(37.27 157.91)"><tspan x="0" y="0">100% natural</tspan></text>
      <path class="cls-9" d="m61.12,29.01c12.24,0,22.16-3.71,22.16-8.28,0-.03,0-.06,0-.08h-44.31s0,.06,0,.08c0,4.57,9.92,8.28,22.16,8.28Z"/>
      <path class="cls-1" d="m68.28,81.6c0-.2-.14-.4-.34-.45-2.63-.6-5.69-.54-8.2.46-3.66,1.46-5.37,5.06-5.95,8.75-.15.95-.26,1.93-.25,2.9-.71.6-1.41,1.19-2.12,1.79-.38-.31-.83-.51-1.29-.6,0-.92.01-1.83.02-2.75,2.78-2.29,5.15-5.85,5.2-9.52-.05-3.73-2.49-7.33-5.32-9.62-.21-.17-.44-.17-.66,0-2.01,1.63-3.74,3.9-4.67,6.31-1.47,3.79-.09,7.54,2.35,10.56.65.8,1.37,1.58,2.17,2.25,0,.91-.01,1.83-.02,2.74-.48.06-.94.26-1.35.58-.69-.58-1.38-1.16-2.06-1.74.02-2.44-.51-5.03-1.57-7.22-.86-1.77-2.2-3.26-3.98-4.12-1.69-.81-3.58-1.11-5.44-1.1-1.14,0-2.32.1-3.44.36-.2.05-.34.25-.34.45-.09,3.64.97,7.94,3.78,10.41,2.79,2.32,6.94,2.7,10.42,1.95.67.57,1.35,1.13,2.02,1.7-.73,1.14-.64,2.72.32,3.73,1.05,1.11,2.83,1.2,3.97.15,1.1-1.02,1.2-2.58.49-3.81.7-.59,1.39-1.18,2.09-1.77,3.48.74,7.63.36,10.42-1.97,2.8-2.48,3.85-6.78,3.76-10.42Zm-22.65,3.74c-1.48-3.67-.05-7.28,2.4-10.14.52-.6,1.07-1.19,1.67-1.71,2.51,2.14,4.67,5.35,4.72,8.69-.04,3.14-1.96,6.16-4.26,8.29.02-2.52.04-5.04.06-7.56.24-.15.4-.41.4-.73,0-.47-.38-.87-.86-.88-.47,0-.84.4-.86.85-.01.32.15.59.39.75-.02,2.52-.04,5.04-.06,7.55-1.53-1.42-2.84-3.21-3.6-5.11Zm-10.18,6.05c-2.54-2.23-3.52-6.06-3.51-9.38,2.3-.47,4.9-.39,7.09.41,3.57,1.29,5.1,4.85,5.63,8.36.08.56.15,1.13.18,1.7-1.88-1.58-3.75-3.16-5.63-4.74.03-.28-.07-.57-.27-.76-.37-.33-.95-.29-1.25.11-.27.35-.24.87.08,1.18.23.22.56.28.85.19,1.89,1.6,3.79,3.19,5.68,4.79-3,.5-6.51.11-8.86-1.83Zm12.76,7.38c-.74-.81-.71-2.12.06-2.89.82-.82,2.04-.68,2.8.13,1.52,1.92-1.11,4.69-2.87,2.77Zm15.66-7.4c-2.34,1.95-5.85,2.34-8.85,1.85,1.89-1.6,3.78-3.2,5.67-4.8.28.09.61.02.84-.18.34-.3.37-.84.1-1.19-.29-.38-.83-.43-1.2-.14-.24.19-.35.5-.32.79-1.88,1.59-3.75,3.17-5.63,4.76.08-1.95.51-3.95,1.3-5.7.77-1.72,1.97-3.16,3.67-4.01,1.61-.8,3.46-1.05,5.24-1.02.89.01,1.81.08,2.69.25.01,3.32-.96,7.15-3.49,9.39Z"/>
    </g>
  </g>
</svg>