<?xml version="1.0" encoding="UTF-8"?>
<svg id="Layer_2" data-name="Layer 2" xmlns="http://www.w3.org/2000/svg" xmlns:xlink="http://www.w3.org/1999/xlink" viewBox="0 0 292 292">
  <defs>
    <style>
      .cls-1 {
        fill: #517348;
      }

      .cls-2, .cls-3 {
        fill: #fff;
      }

      .cls-4 {
        fill: #cc883e;
      }

      .cls-5 {
        fill: #f9ead9;
      }

      .cls-6 {
        fill: #759c7b;
      }

      .cls-3 {
        filter: url(#drop-shadow-1);
      }

      .cls-7 {
        fill: #eea489;
      }

      .cls-8 {
        clip-path: url(#clippath);
      }

      .cls-9 {
        fill: none;
      }

      .cls-10 {
        fill: #fed0b9;
      }

      .cls-11 {
        fill: #feb553;
      }

      .cls-12 {
        fill: #35231f;
      }

      .cls-13 {
        fill: #db8a75;
      }
    </style>
    <filter id="drop-shadow-1" filterUnits="userSpaceOnUse">
      <feOffset dx="3" dy="3"/>
      <feGaussianBlur result="blur" stdDeviation="5"/>
      <feFlood flood-color="#000" flood-opacity=".42"/>
      <feComposite in2="blur" operator="in"/>
      <feComposite in="SourceGraphic"/>
    </filter>
    <clipPath id="clippath">
      <circle class="cls-9" cx="142.6" cy="142.81" r="112.77" transform="translate(-59.21 142.66) rotate(-45)"/>
    </clipPath>
  </defs>
  <g id="diverse_portrait_people_icons" data-name="diverse portrait people icons">
    <g>
      <circle class="cls-3" cx="142.75" cy="142.74" r="130.7"/>
      <g>
        <circle class="cls-5" cx="142.6" cy="143" r="112.77" transform="translate(-59.35 142.72) rotate(-45)"/>
        <g class="cls-8">
          <g>
            <g>
              <path class="cls-6" d="m103.88,221.74s0,.07,0,.19c-.05,1.41-.36,10.51-.82,23.63-.41,11.86-.94,26.99-1.48,42.67-4.17-1.19-8.16-2.53-11.96-4-2.9-1.11-5.69-2.3-8.38-3.53-.19-.08-.36-.16-.55-.25-5.11-2.36-9.81-4.9-14.1-7.48,4.14-17.5,8.01-34.48,8.44-37.57.91-6.37,8.19-8.49,11.53-8.49,3.07,0,15.17-4.37,17.07-5.05,0,0,.03-.02.03-.02.14-.06.22-.08.22-.08Z"/>
              <path class="cls-6" d="m224.48,229.31l-5.5,46.76c-5.74,2.37-11.83,4.68-18.2,6.78-3.52,1.17-7.13,2.27-10.8,3.29-5.13,1.44-10.41,2.72-15.8,3.79-10.42,2.09-21.26,3.4-32.26,3.58-14.84.24-28.34-1.87-40.34-5.29-4.17-1.19-8.16-2.53-11.96-4-2.9-1.11-5.69-2.3-8.38-3.53.06-.15.11-.3.16-.45.98-2.74,2.07-6.39,3.18-10.44,4.04-14.75,8.34-34.72,8.34-34.72.93-3.29,2.47-5.89,4.12-7.87,2.15-2.6,4.46-4.17,5.76-4.92h.02c.35-.22.63-.36.81-.45,0,0,.03-.02.03-.02.11-.06.17-.08.17-.08l1.51-.3,4.81-.95,68.25-13.59,46.08,22.43Z"/>
              <path class="cls-12" d="m110.35,219.77l-.19.71-5.89,21.56s-.44,1.28-1.21,3.52c-2.41,7.04-8.06,23.47-13.44,38.66-2.9-1.11-5.69-2.3-8.38-3.53-.19-.08-.36-.16-.55-.25,1.32-3.61,2.63-7.2,3.89-10.64,4.71-12.88,8.63-23.63,9.09-25.78,1.55-7.13,2.72-13.27,3.37-16.81.37-2.03.57-3.2.57-3.2l5.18-1.72h.02s1.06-.36,1.06-.36l1.47-.49,5.01-1.66Z"/>
              <path class="cls-6" d="m252.18,259.8c-8.61,4.91-19.97,10.79-33.19,16.27-5.74,2.37-11.83,4.68-18.2,6.78,2.7-9.81,7.26-24.4,10.36-31.71,4.25-10,13.34-21.83,13.34-21.83,0,0,9.09,1.22,14.24.91,5.16-.3,10.31,4.55,12.13,10.61.69,2.31,1.12,9.84,1.33,18.96Z"/>
              <path class="cls-12" d="m215.84,225.22s-20.01,26.98-23.65,49.11c-.6,3.68-1.37,7.68-2.21,11.81-5.13,1.44-10.41,2.72-15.8,3.79,1.87-8.47,3.78-16.14,5.33-21.1,4.5-14.51,15.11-39.97,24.81-49.07l11.53,5.45Z"/>
            </g>
            <g>
              <path class="cls-11" d="m225.39,187.78s-6.86,13.72-20.25,21.24c-3.03,1.7-6.38,3.09-10.07,3.92-20.01,4.55-34.26-8.49-34.26-8.49l-5.91-88.28-2.39-35.73s3.16-18.77,6.79-21.5c3.64-2.73,34.26-10.31,39.41-9.09,5.15,1.21,22.13,27.28,22.74,36.98s-9.7,57.6-10.61,61.84c-.9,4.21,10.44,27.83,10.61,28.19-.25-.18-11.54-8.54-13.94-13.64,0,0,4.85,16.07,7.28,17.89,2.43,1.82,10.61,6.67,10.61,6.67Z"/>
              <path class="cls-4" d="m205.14,209.02c-3.03,1.7-6.38,3.09-10.07,3.92-20.01,4.55-34.26-8.49-34.26-8.49l-5.91-88.28,1.37-9.33s16.37-27.89,26.98-12.43c0,0,9.4,6.06,11.52,7.88,2.12,1.82,1.21,17.58.3,21.83-.91,4.24-10.61,40.32-11.22,46.38-.61,6.06,12.13,28.5,13.94,32.13,1.06,2.12,4.58,4.64,7.34,6.38Z"/>
            </g>
            <path class="cls-6" d="m117.17,255.38l-12.43-39.11s7.35-9.63,15.8-16.94c8.45-7.31-3.37,56.05-3.37,56.05Z"/>
            <g>
              <path class="cls-10" d="m168.7,202.33l-51.53,53.05-4.85-14.55s6.37-14.55,7.28-22.43c.24-2.05.39-5.06.49-8.4.04-1.15.06-2.33.08-3.52.16-8.72.03-18.09.03-18.09l40.92-41.53s0,4.92.08,10.81c.05,4.35.15,9.23.32,13.05.13,2.86.29,5.12.51,6.14.91,4.24,6.67,25.46,6.67,25.46Z"/>
              <path class="cls-7" d="m161.52,170.72c-1.68,2.76-14.75,24.05-22.68,30.85-6.32,5.42-14.83,7.64-18.76,8.42.04-1.15.06-2.33.08-3.52.16-8.72.03-18.09.03-18.09l40.92-41.53s0,4.92.08,10.81c.05,4.35.15,9.23.32,13.05Z"/>
            </g>
            <path class="cls-6" d="m162.08,85.04s1.16-3.66,3.28-4.87c2.12-1.21,5.76-1.21,5.76-1.21,0,0,11.52,11.52,12.13,15.46.61,3.94.3,7.58.3,7.58,0,0-2.83,1.09-4.15.85-1.31-.24-17.33-17.81-17.33-17.81Z"/>
            <g>
              <path class="cls-11" d="m183.56,124.73c0,3.03-6.67,11.82-6.67,11.82l-15.76,9.09-61.23-26.26-11.33-4.86s-5.8,1.28-9.72.85c-.62-.07-1.19-.18-1.69-.34-3.64-1.21-12.13-11.82-12.43-13.04-.3-1.21,8.49-27.28,13.04-30.62,4.55-3.33,28.5-14.85,62.75.61,0,0,29.21,18.15,34.26,22.13,5.76,4.55,8.79,27.59,8.79,30.62Z"/>
              <path class="cls-4" d="m144.75,107.15l-44.86,12.23-11.33-4.86s-5.8,1.28-9.72.85c-.06-.31-.12-.62-.17-.95-1.21-6.97,1.52-20.31,4.24-22.43,2.73-2.12,16.67-7.58,28.5-5.46,11.82,2.12,33.35,20.61,33.35,20.61Z"/>
            </g>
            <g>
              <path class="cls-1" d="m139.3,211.73l-22.13,43.65s21.83-15.76,27.89-20.01l-5.76-23.65Z"/>
              <path class="cls-6" d="m139.3,211.73s1.52,25.46,9.4,30.62c7.88,5.15,26.98-16.37,29.71-35.47l-10.61-19.1s-9.4,12.73-28.5,23.95Z"/>
              <path class="cls-1" d="m151.43,243.88c-1.18,0-2.24-.3-3.15-.89-8.11-5.3-9.39-29.58-9.44-30.61-.02-.42.3-.77.72-.79.42-.02.77.3.79.72.01.24,1.28,24.53,8.75,29.41,1.45.94,3.41.87,5.83-.23,8.78-3.97,20.61-20,22.71-34.71.06-.41.45-.7.86-.64.41.06.7.44.64.86-2.17,15.18-14.46,31.75-23.59,35.88-1.49.67-2.87,1.01-4.13,1.01Z"/>
            </g>
            <g>
              <path class="cls-1" d="m104.74,216.28s-5.76,21.22-6.67,25.16,7.7,6.61,13.85-2.76l-7.18-22.4Z"/>
              <path class="cls-1" d="m117.32,256.29c-.32,0-.62-.21-.72-.53l-11.97-38.65c-.12-.4.1-.82.5-.95.4-.13.82.1.95.5l11.97,38.65c.12.4-.1.82-.5.95-.07.02-.15.03-.22.03Z"/>
            </g>
            <g>
              <path class="cls-10" d="m156.73,126.7s-6.37-4.55-11.82-19.4c0,0-26.07-19.7-41.83-15.46-15.76,4.24-14.55,13.94-14.55,13.94,0,0-.61,49.72,1.82,58.2,2.43,8.49,14.55,25.46,17.28,26.68,2.73,1.21,18.64,1.97,20.46.45,1.82-1.52,20.31-17.89,24.55-25.16,5.89-10.1,8.34-20.16,8.34-20.16l-4.24-19.1Z"/>
              <path class="cls-4" d="m138.99,121.31s-2.57-3.85-4.5-3.85-19.91,2.89-19.91,2.89c0,0,.64,3.85,5.46,3.53,4.82-.32,14.13-3.21,14.13-3.21,0,0,2.89,0,4.82.64Z"/>
              <path class="cls-4" d="m98.07,120.79l-9.6-.71-.1,3.14s5.15,1.21,7.58.61c1.58-.4,2.12-3.03,2.12-3.03Z"/>
              <path class="cls-12" d="m130.18,134.86c0,2.6-1.49,4.7-3.33,4.7s-3.33-2.1-3.33-4.7,1.49-4.7,3.33-4.7,3.33,2.1,3.33,4.7Z"/>
              <path class="cls-12" d="m130.81,134.28c-.23,0-.45-.1-.6-.29-3.75-4.83-7.92-2.35-8.1-2.25-.36.22-.82.11-1.04-.25-.22-.35-.11-.82.24-1.04.05-.03,5.48-3.33,10.09,2.6.26.33.2.81-.13,1.06-.14.11-.3.16-.46.16Z"/>
              <path class="cls-12" d="m101.38,134.86c0,2.6-1.49,4.7-3.33,4.7s-3.33-2.1-3.33-4.7,1.49-4.7,3.33-4.7,3.33,2.1,3.33,4.7Z"/>
              <path class="cls-12" d="m102.01,134.28c-.23,0-.45-.1-.6-.29-3.78-4.86-7.92-2.36-8.09-2.25-.35.22-.82.11-1.04-.24-.22-.35-.11-.82.24-1.04.05-.03,5.48-3.33,10.09,2.6.26.33.2.81-.13,1.06-.14.11-.3.16-.46.16Z"/>
              <path class="cls-7" d="m143.24,152.77c-.19,0-.37-.07-.52-.21-.3-.29-.32-.77-.03-1.07l5.15-5.46c.29-.3.77-.32,1.07-.03.3.29.32.77.03,1.07l-5.15,5.46c-.15.16-.35.24-.55.24Z"/>
              <path class="cls-7" d="m143.84,155.8c-.19,0-.39-.07-.54-.22-.3-.3-.3-.78,0-1.07l6.97-6.97c.3-.3.78-.3,1.07,0,.3.3.3.78,0,1.07l-6.97,6.97c-.15.15-.34.22-.54.22Z"/>
              <path class="cls-2" d="m99.03,164.94l5.25,7.84s2.12,1.21,6.67,1.52c4.55.3,8.49-.91,8.49-.91l4.61-7.68s-2.79,1.01-8.24,1.01-11.16-.24-11.16-.24c0,0-3.9-.58-5.62-1.53Z"/>
              <path class="cls-13" d="m114.12,167.24c-5.08,0-10.9-.15-12.58-.52-3.06-.68-4.12-2.75-4.17-2.84-.19-.39-.04-.85.35-1.05.38-.19.85-.04,1.05.34.04.07.83,1.51,3.11,2.02,2.49.55,17.53.61,20.04.29,2.15-.27,4.71-2.51,4.73-2.54.32-.29.82-.26,1.1.07.29.32.26.82-.06,1.1-.12.11-2.94,2.59-5.58,2.92-1.04.13-4.32.21-7.99.21Z"/>
              <path class="cls-13" d="m106.86,159.16c-8.23,0-12.03-6.18-12.19-6.44l-.22-.37.19-.38c.07-.14,7.21-14.46,7.5-18.5.28-3.85-4.89-9.36-4.94-9.41-.3-.31-.28-.81.03-1.1.31-.3.81-.28,1.1.03.23.25,5.69,6.06,5.37,10.6-.29,3.99-6.25,16.24-7.46,18.68.88,1.24,4.27,5.34,10.62,5.34,1.66,0,3.61-2.18,4.22-3.01.25-.35.74-.42,1.09-.17.35.25.43.74.17,1.09-.27.37-2.74,3.66-5.48,3.66Z"/>
              <path class="cls-11" d="m145.81,107.72s.76,15.6,3.19,19.82c2.43,4.22,2.43,6.81,2.43,6.81l-2.17,9.02s6.23-7.66,6.32-10.45c.09-2.79-2.64-22.9-2.64-22.9l-7.13-2.3Z"/>
              <path class="cls-10" d="m155.78,129.26l5.91-.35c1.85-.11,3.52,1.07,4.04,2.85l2.49,8.54c.23.8.21,1.65-.07,2.44l-4.44,12.51c-.59,1.67-2.22,2.74-3.98,2.63l-5.55-.35,1.6-28.26Z"/>
              <path class="cls-7" d="m158.18,147.89s-.07,0-.11,0c-.41-.06-.7-.44-.64-.86.55-3.83,3.69-9.37,3.83-9.6.21-.36.67-.49,1.03-.28.36.21.49.67.28,1.03-.03.05-3.13,5.52-3.64,9.06-.05.38-.38.65-.75.65Z"/>
              <path class="cls-7" d="m158.71,145.75c-.33,0-.63-.21-.73-.54-.12-.4.11-.82.51-.94l4.53-1.33c.4-.12.82.11.94.51.12.4-.11.82-.51.94l-4.53,1.33c-.07.02-.14.03-.21.03Z"/>
            </g>
          </g>
        </g>
      </g>
    </g>
  </g>
</svg>