<?xml version="1.0" encoding="UTF-8"?>
<svg id="Layer_2" data-name="Layer 2" xmlns="http://www.w3.org/2000/svg" xmlns:xlink="http://www.w3.org/1999/xlink" viewBox="0 0 17.19 25.35">
  <defs>
    <style>
      .cls-1 {
        fill: #fff;
      }

      .cls-2 {
        fill: #bf0;
      }

      .cls-3 {
        fill: #85a500;
      }

      .cls-4 {
        filter: url(#outer-glow-1);
      }

      .cls-5 {
        fill: #495100;
      }
    </style>
    <filter id="outer-glow-1" filterUnits="userSpaceOnUse">
      <feOffset dx="0" dy="0"/>
      <feGaussianBlur result="blur" stdDeviation=".43"/>
      <feFlood flood-color="#d3c800" flood-opacity=".3"/>
      <feComposite in2="blur" operator="in"/>
      <feComposite in="SourceGraphic"/>
    </filter>
  </defs>
  <g id="Objects">
    <g class="cls-4">
      <g>
        <path class="cls-5" d="m1.16.52c0,.29-.26.52-.58.52s-.58-.23-.58-.52.26-.52.58-.52.58.23.58.52Z"/>
        <rect class="cls-2" x="1.8" y="2.86" width="13.46" height=".36" transform="translate(17.07 6.09) rotate(180)"/>
        <polygon class="cls-2" points="3.18 9.67 12.88 9.67 13.02 9.31 3.18 9.31 3.18 9.67"/>
        <rect class="cls-2" x="5.14" y="21.38" width="9.7" height=".36"/>
        <polygon class="cls-2" points="12.96 9.45 15.27 3.22 14.88 3.11 12.58 9.34 12.96 9.45"/>
        <polygon class="cls-2" points="3.18 9.67 1.8 3.22 2.2 3.15 3.57 9.6 3.18 9.67"/>
        <rect class="cls-2" x="12.6" y="2.86" width=".13" height="6.63" transform="translate(25.33 12.35) rotate(180)"/>
        <rect class="cls-2" x="9" y="2.86" width=".13" height="6.63" transform="translate(18.12 12.35) rotate(180)"/>
        <rect class="cls-2" x="5.39" y="2.86" width=".13" height="6.63" transform="translate(10.91 12.35) rotate(180)"/>
        <rect class="cls-2" x="3.59" y="2.86" width=".13" height="6.63" transform="translate(7.31 12.35) rotate(180)"/>
        <rect class="cls-2" x="5.14" y="18.46" width=".41" height="3.11" transform="translate(10.69 40.02) rotate(180)"/>
        <path class="cls-2" d="m1.9,3.35l.33-.14L.78.49c-.04-.08-.15-.12-.24-.08h0c-.09.04-.13.14-.09.22l1.46,2.72Z"/>
        <rect class="cls-2" x="8.29" y="-1.22" width=".12" height="12.02" transform="translate(13.14 -3.56) rotate(90)"/>
        <rect class="cls-2" x="8.19" y="2.74" width=".12" height="10.39" transform="translate(16.18 -.31) rotate(90)"/>
        <rect class="cls-5" x="4.14" y="-1.57" width="2.58" height="6.28" rx=".42" ry=".42" transform="translate(3.86 7.01) rotate(-90)"/>
        <rect class="cls-2" x="4.47" y="-1.38" width="1.93" height="5.74" rx=".32" ry=".32" transform="translate(3.95 6.92) rotate(-90)"/>
        <rect class="cls-2" x="7.19" y="2.9" width=".13" height="6.59" transform="translate(14.52 12.39) rotate(180)"/>
        <rect class="cls-2" x="10.8" y="2.86" width=".13" height="6.63" transform="translate(21.72 12.35) rotate(180)"/>
        <rect class="cls-2" x="8.2" y=".9" width=".12" height="10.93" transform="translate(14.62 -1.89) rotate(90)"/>
        <rect class="cls-2" x="3.83" y="12.17" width="13.36" height=".36" transform="translate(21.02 24.7) rotate(180)"/>
        <polygon class="cls-2" points="5.19 18.81 14.86 18.81 15 18.46 5.19 18.46 5.19 18.81"/>
        <polygon class="cls-2" points="14.88 18.77 17.19 12.51 16.81 12.4 14.5 18.66 14.88 18.77"/>
        <polygon class="cls-2" points="5.14 18.81 3.76 12.36 4.16 12.29 5.53 18.74 5.14 18.81"/>
        <polygon class="cls-2" points="4.16 14.27 2.79 7.82 3.18 7.75 4.56 14.2 4.16 14.27"/>
        <rect class="cls-2" x="14.6" y="12.18" width=".13" height="6.63" transform="translate(29.34 30.99) rotate(180)"/>
        <rect class="cls-2" x="11" y="12.18" width=".13" height="6.63" transform="translate(22.13 30.99) rotate(180)"/>
        <rect class="cls-2" x="7.4" y="12.18" width=".13" height="6.63" transform="translate(14.93 30.99) rotate(180)"/>
        <rect class="cls-2" x="5.55" y="12.32" width=".13" height="6.4" transform="translate(11.23 31.03) rotate(180)"/>
        <rect class="cls-2" x="10.25" y="7.91" width=".12" height="12.02" transform="translate(24.23 3.61) rotate(90)"/>
        <rect class="cls-2" x="10.12" y="12.13" width=".12" height="10.24" transform="translate(27.43 7.08) rotate(90)"/>
        <rect class="cls-2" x="9.2" y="12.18" width=".13" height="6.63" transform="translate(18.53 30.99) rotate(180)"/>
        <rect class="cls-2" x="12.8" y="12.18" width=".13" height="6.63" transform="translate(25.74 30.99) rotate(180)"/>
        <rect class="cls-2" x="10.2" y="10.21" width=".12" height="10.93" transform="translate(25.94 5.42) rotate(90)"/>
        <g>
          <path class="cls-5" d="m6.83,23.68c0,.92-.76,1.67-1.69,1.67s-1.69-.75-1.69-1.67.76-1.67,1.69-1.67,1.69.75,1.69,1.67Z"/>
          <path class="cls-3" d="m5.89,23.68c0,.42-.34.75-.76.75s-.76-.34-.76-.75.34-.75.76-.75.76.34.76.75Z"/>
          <path class="cls-2" d="m5.58,23.67c0,.24-.2.43-.44.43s-.44-.19-.44-.43.2-.43.44-.43.44.19.44.43Z"/>
          <polygon class="cls-2" points="5.58 23.67 6.16 21.74 5.14 21.74 4.7 23.67 5.58 23.67"/>
          <polygon class="cls-3" points="4.93 22.69 5.14 21.74 6.16 21.74 5.88 22.69 4.93 22.69"/>
        </g>
        <g>
          <path class="cls-5" d="m15.51,23.68c0,.92-.76,1.67-1.69,1.67s-1.69-.75-1.69-1.67.76-1.67,1.69-1.67,1.69.75,1.69,1.67Z"/>
          <path class="cls-3" d="m14.58,23.68c0,.42-.34.75-.76.75s-.76-.34-.76-.75.34-.75.76-.75.76.34.76.75Z"/>
          <path class="cls-2" d="m14.27,23.67c0,.24-.2.43-.44.43s-.44-.19-.44-.43.2-.43.44-.43.44.19.44.43Z"/>
          <polygon class="cls-2" points="14.27 23.67 14.84 21.74 13.83 21.74 13.39 23.67 14.27 23.67"/>
          <polygon class="cls-3" points="13.61 22.69 13.83 21.74 14.84 21.74 14.56 22.69 13.61 22.69"/>
        </g>
      </g>
      <g>
        <rect class="cls-1" x="7.05" y="4.4" width="4.03" height="4.03"/>
        <g>
          <polygon points="8.61 4.72 8.44 4.72 8.44 4.9 8.61 4.9 8.79 4.9 8.79 4.72 8.61 4.72"/>
          <rect x="9.51" y="4.72" width=".18" height=".18"/>
          <polygon points="9.33 4.9 9.15 4.9 9.15 4.72 8.97 4.72 8.97 4.9 8.79 4.9 8.79 5.07 8.79 5.25 8.61 5.25 8.61 5.43 8.79 5.43 8.79 5.61 8.97 5.61 9.15 5.61 9.15 5.43 8.97 5.43 8.97 5.25 8.97 5.07 9.15 5.07 9.33 5.07 9.51 5.07 9.51 4.9 9.33 4.9"/>
          <polygon points="9.68 5.25 9.68 5.07 9.51 5.07 9.51 5.25 9.51 5.43 9.68 5.43 9.68 5.25"/>
          <polygon points="8.44 5.61 8.44 5.79 8.61 5.79 8.61 5.61 8.61 5.43 8.44 5.43 8.44 5.61"/>
          <rect x="9.33" y="5.43" width=".18" height=".18"/>
          <rect x="8.61" y="6.68" width=".18" height=".18"/>
          <rect x="7.37" y="5.79" width=".18" height=".18"/>
          <polygon points="9.33 5.96 9.51 5.96 9.51 6.14 9.68 6.14 9.68 5.96 9.86 5.96 9.86 5.79 9.68 5.79 9.68 5.61 9.51 5.61 9.51 5.79 9.33 5.79 9.15 5.79 8.97 5.79 8.79 5.79 8.79 5.96 8.97 5.96 9.15 5.96 9.15 6.14 9.33 6.14 9.33 5.96"/>
          <polygon points="10.57 5.96 10.57 5.79 10.4 5.79 10.4 5.96 10.4 6.14 10.57 6.14 10.57 5.96"/>
          <rect x="7.37" y="6.14" width=".18" height=".18"/>
          <polygon points="8.26 6.32 8.44 6.32 8.44 6.14 8.61 6.14 8.61 5.96 8.44 5.96 8.26 5.96 8.26 5.79 8.08 5.79 8.08 5.96 8.08 6.14 8.26 6.14 8.26 6.32"/>
          <rect x="8.97" y="6.14" width=".18" height=".18"/>
          <polygon points="10.22 6.14 10.22 5.96 10.22 5.79 10.04 5.79 10.04 5.96 10.04 6.14 9.86 6.14 9.68 6.14 9.68 6.32 9.86 6.32 10.04 6.32 10.04 6.5 10.22 6.5 10.22 6.32 10.4 6.32 10.4 6.14 10.22 6.14"/>
          <polygon points="8.26 6.32 8.08 6.32 8.08 6.14 7.9 6.14 7.9 5.96 7.9 5.79 7.72 5.79 7.72 5.96 7.55 5.96 7.55 6.14 7.72 6.14 7.72 6.32 7.9 6.32 7.9 6.5 8.08 6.5 8.08 6.68 8.26 6.68 8.26 6.5 8.26 6.32"/>
          <polygon points="8.61 6.5 8.79 6.5 8.79 6.68 8.97 6.68 8.97 6.5 8.97 6.32 8.79 6.32 8.79 6.14 8.61 6.14 8.61 6.32 8.61 6.5"/>
          <polygon points="10.57 6.32 10.4 6.32 10.4 6.5 10.4 6.68 10.22 6.68 10.22 6.86 10.4 6.86 10.4 7.03 10.57 7.03 10.57 7.21 10.57 7.39 10.75 7.39 10.75 7.21 10.75 7.03 10.75 6.86 10.57 6.86 10.57 6.68 10.75 6.68 10.75 6.5 10.57 6.5 10.57 6.32"/>
          <polygon points="7.55 6.5 7.37 6.5 7.37 6.68 7.37 6.86 7.55 6.86 7.55 7.03 7.72 7.03 7.72 6.86 7.72 6.68 7.55 6.68 7.55 6.5"/>
          <rect x="7.72" y="6.5" width=".18" height=".18"/>
          <polygon points="9.68 6.5 9.68 6.32 9.51 6.32 9.33 6.32 9.15 6.32 9.15 6.5 9.15 6.68 9.33 6.68 9.33 6.5 9.51 6.5 9.51 6.68 9.68 6.68 9.68 6.86 9.86 6.86 9.86 6.68 10.04 6.68 10.04 6.5 9.86 6.5 9.68 6.5"/>
          <rect x="7.9" y="6.68" width=".18" height=".18"/>
          <polygon points="8.44 6.68 8.26 6.68 8.26 6.86 8.26 7.03 8.44 7.03 8.44 7.21 8.44 7.39 8.61 7.39 8.61 7.21 8.61 7.03 8.61 6.86 8.44 6.86 8.44 6.68"/>
          <rect x="8.97" y="6.68" width=".18" height=".18"/>
          <rect x="8.79" y="6.86" width=".18" height=".18"/>
          <polygon points="9.51 7.21 9.51 7.03 9.51 6.86 9.33 6.86 9.33 7.03 9.15 7.03 9.15 7.21 9.33 7.21 9.51 7.21"/>
          <rect x="8.79" y="7.21" width=".18" height=".18"/>
          <rect x="9.15" y="7.39" width=".18" height=".18"/>
          <path d="m10.22,7.39v-.53h-.72v.72h.18v.17h.18v-.17h.18v.17h.18v-.17h0s.17,0,.17,0v.18h.36v-.18h-.18v-.18h-.35Zm-.58-.4h.45v.45h-.45v-.45Z"/>
          <polygon points="8.61 7.75 8.61 7.93 8.79 7.93 8.79 7.75 8.79 7.57 8.79 7.39 8.61 7.39 8.61 7.57 8.61 7.75"/>
          <polygon points="9.33 7.75 9.33 7.93 9.51 7.93 9.68 7.93 9.68 7.75 9.51 7.75 9.33 7.75"/>
          <rect x="8.44" y="7.93" width=".18" height=".18"/>
          <polygon points="8.97 8.1 9.15 8.1 9.15 7.93 8.97 7.93 8.79 7.93 8.79 8.1 8.97 8.1"/>
          <polygon points="10.4 7.93 10.4 8.1 10.57 8.1 10.75 8.1 10.75 7.93 10.57 7.93 10.4 7.93"/>
          <rect x="9.78" y="7.13" width=".18" height=".18"/>
          <path d="m8.26,4.72h-.89v.89h.89v-.89Zm-.13.76h-.62v-.62h.62v.62Z"/>
          <rect x="7.63" y="4.98" width=".36" height=".36"/>
          <path d="m9.86,4.72v.89h.89v-.89h-.89Zm.76.76h-.62v-.62h.62v.62Z"/>
          <rect x="10.13" y="4.98" width=".36" height=".36"/>
          <path d="m7.37,8.11h.89v-.89h-.89v.89Zm.13-.76h.62v.62h-.62v-.62Z"/>
          <rect x="7.63" y="7.48" width=".36" height=".36"/>
        </g>
      </g>
    </g>
  </g>
</svg>