<?xml version="1.0" encoding="UTF-8"?>
<svg id="Layer_2" data-name="Layer 2" xmlns="http://www.w3.org/2000/svg" viewBox="0 0 105.97 151.92">
  <defs>
    <style>
      .cls-1 {
        fill: #495100;
      }

      .cls-1, .cls-2, .cls-3, .cls-4, .cls-5 {
        stroke-width: 0px;
      }

      .cls-2 {
        fill: #000;
      }

      .cls-3 {
        fill: #bf0;
      }

      .cls-4 {
        fill: #fff;
      }

      .cls-5 {
        fill: #85a500;
      }
    </style>
  </defs>
  <g id="names">
    <g>
      <g>
        <rect class="cls-3" x="11.92" y="19.57" width="82.29" height="2.3"/>
        <polygon class="cls-3" points="25.16 58.12 80.98 58.12 81.55 55.82 25.16 55.82 25.16 58.12"/>
        <polygon class="cls-3" points="80.98 58.12 94.21 21.87 91.91 21.29 78.67 56.97 80.98 58.12"/>
        <rect class="cls-3" x="78.67" y="20.14" width=".58" height="37.98"/>
        <rect class="cls-3" x="57.96" y="20.14" width=".58" height="37.98"/>
        <rect class="cls-3" x="37.24" y="20.14" width=".58" height="37.98"/>
        <rect class="cls-3" x="26.88" y="20.72" width=".58" height="36.83"/>
        <rect class="cls-3" x="15.95" y="29.35" width="73.08" height=".58"/>
        <rect class="cls-3" x="23.43" y="47.76" width="60.42" height=".58"/>
        <rect class="cls-3" x="47.6" y="20.14" width=".58" height="37.98"/>
        <rect class="cls-3" x="68.32" y="20.14" width=".58" height="37.98"/>
        <rect class="cls-3" x="19.98" y="38.56" width="66.18" height=".58"/>
        <polygon class="cls-3" points="25.16 58.12 11.92 21.87 14.22 21.29 27.46 56.97 25.16 58.12"/>
      </g>
      <rect class="cls-3" x="25.07" y="128.33" width="55.82" height="2.3"/>
      <g>
        <g>
          <path class="cls-1" d="M8.06,4.03c0,2.3-1.73,4.03-4.03,4.03S0,6.33,0,4.03,1.73,0,4.03,0s4.03,1.73,4.03,4.03Z"/>
          <path class="cls-3" d="M12.66,22.44l2.3-1.15L5.18,3.45s-1.15-.58-1.73,0h0c-.58,0-.58,1.15-.58,1.73l9.78,17.84h0v-.58Z"/>
        </g>
        <g>
          <path class="cls-1" d="M97.91,4.03c0,2.3,1.73,4.03,4.03,4.03s4.03-1.73,4.03-4.03-1.73-4.03-4.03-4.03-4.03,1.73-4.03,4.03Z"/>
          <path class="cls-3" d="M93.88,22.44l-2.3-1.15,9.78-17.84s1.15-.58,1.73,0h0c.58,0,.58,1.15.58,1.73l-9.78,17.84h0v-.58Z"/>
        </g>
      </g>
      <path class="cls-1" d="M27.03,16.58V3.34c0-1.73,1.73-2.88,3.45-2.88h45.46c1.73,0,3.45,1.15,3.45,2.88v13.24c0,1.73-1.73,2.88-3.45,2.88H30.48c-1.73,0-3.45-1.15-3.45-2.88Z"/>
      <path class="cls-3" d="M29.04,14.63V4.71c0-1.24,1.15-2.48,2.88-2.48h42.58c1.73,0,2.88,1.24,2.88,2.48v10.54c0,1.24-1.15,2.48-2.88,2.48H31.92c-1.73,0-2.88-1.24-2.88-2.48v-.62Z"/>
      <g>
        <g>
          <path class="cls-1" d="M71.11,142.14c0,5.18,4.6,9.78,9.78,9.78s9.78-4.6,9.78-9.78-4.6-9.78-9.78-9.78-9.78,4.6-9.78,9.78Z"/>
          <path class="cls-5" d="M76.29,142.14c0,2.3,1.73,4.6,4.6,4.6s4.6-1.73,4.6-4.6-1.73-4.6-4.6-4.6-4.6,1.73-4.6,4.6Z"/>
          <path class="cls-3" d="M78.59,142.14c0,1.15,1.15,2.3,2.3,2.3s2.3-1.15,2.3-2.3-1.15-2.3-2.3-2.3-2.3,1.15-2.3,2.3Z"/>
          <polygon class="cls-3" points="78.59 142.14 75.14 130.63 80.89 130.63 83.2 142.14 78.59 142.14"/>
          <polygon class="cls-5" points="82.05 136.39 80.89 130.63 75.14 130.63 76.87 136.39 82.05 136.39"/>
        </g>
        <g>
          <path class="cls-1" d="M34.86,142.14c0,5.18-4.6,9.78-9.78,9.78s-9.78-4.6-9.78-9.78,4.6-9.78,9.78-9.78,9.78,4.6,9.78,9.78Z"/>
          <path class="cls-5" d="M29.68,142.14c0,2.3-1.73,4.6-4.6,4.6s-4.6-1.73-4.6-4.6,1.73-4.6,4.6-4.6,4.6,1.73,4.6,4.6Z"/>
          <path class="cls-3" d="M27.38,142.14c0,1.15-1.15,2.3-2.3,2.3s-2.3-1.15-2.3-2.3,1.15-2.3,2.3-2.3,2.3,1.15,2.3,2.3Z"/>
          <polygon class="cls-3" points="27.38 142.14 30.83 130.63 25.07 130.63 22.77 142.14 27.38 142.14"/>
          <polygon class="cls-5" points="23.92 136.39 25.07 130.63 30.83 130.63 29.1 136.39 23.92 136.39"/>
        </g>
      </g>
      <g>
        <rect class="cls-4" x="43.78" y="58.27" width="17.42" height="17.42"/>
        <g>
          <polygon class="cls-2" points="50.45 59.39 49.71 59.39 49.71 60.13 50.45 60.13 51.19 60.13 51.19 59.39 50.45 59.39"/>
          <rect class="cls-2" x="54.53" y="59.39" width=".74" height=".74"/>
          <polygon class="cls-2" points="53.79 60.13 52.68 60.13 52.68 59.39 51.93 59.39 51.93 60.13 51.19 60.13 51.19 60.87 51.19 61.61 50.45 61.61 50.45 62.35 51.19 62.35 51.19 63.46 51.93 63.46 52.68 63.46 52.68 62.35 51.93 62.35 51.93 61.61 51.93 60.87 52.68 60.87 53.79 60.87 54.53 60.87 54.53 60.13 53.79 60.13"/>
          <polygon class="cls-2" points="55.27 61.61 55.27 60.87 54.53 60.87 54.53 61.61 54.53 62.35 55.27 62.35 55.27 61.61"/>
          <polygon class="cls-2" points="49.71 63.46 49.71 64.21 50.45 64.21 50.45 63.46 50.45 62.35 49.71 62.35 49.71 63.46"/>
          <rect class="cls-2" x="53.79" y="62.35" width=".74" height=".74"/>
          <rect class="cls-2" x="50.45" y="67.91" width=".74" height=".74"/>
          <rect class="cls-2" x="45.26" y="64.21" width=".74" height=".74"/>
          <polygon class="cls-2" points="53.79 64.95 54.53 64.95 54.53 65.69 55.27 65.69 55.27 64.95 56.01 64.95 56.01 64.21 55.27 64.21 55.27 63.46 54.53 63.46 54.53 64.21 53.79 64.21 52.68 64.21 51.93 64.21 51.19 64.21 51.19 64.95 51.93 64.95 52.68 64.95 52.68 65.69 53.79 65.69 53.79 64.95"/>
          <polygon class="cls-2" points="58.98 64.95 58.98 64.21 58.24 64.21 58.24 64.95 58.24 65.69 58.98 65.69 58.98 64.95"/>
          <rect class="cls-2" x="45.26" y="65.69" width=".74" height=".74"/>
          <polygon class="cls-2" points="48.97 66.43 49.71 66.43 49.71 65.69 50.45 65.69 50.45 64.95 49.71 64.95 48.97 64.95 48.97 64.21 48.23 64.21 48.23 64.95 48.23 65.69 48.97 65.69 48.97 66.43"/>
          <rect class="cls-2" x="51.93" y="65.69" width=".74" height=".74"/>
          <polygon class="cls-2" points="57.5 65.69 57.5 64.95 57.5 64.21 56.75 64.21 56.75 64.95 56.75 65.69 56.01 65.69 55.27 65.69 55.27 66.43 56.01 66.43 56.75 66.43 56.75 67.17 57.5 67.17 57.5 66.43 58.24 66.43 58.24 65.69 57.5 65.69"/>
          <polygon class="cls-2" points="48.97 66.43 48.23 66.43 48.23 65.69 47.49 65.69 47.49 64.95 47.49 64.21 46.75 64.21 46.75 64.95 46 64.95 46 65.69 46.75 65.69 46.75 66.43 47.49 66.43 47.49 67.17 48.23 67.17 48.23 67.91 48.97 67.91 48.97 67.17 48.97 66.43"/>
          <polygon class="cls-2" points="50.45 67.17 51.19 67.17 51.19 67.91 51.93 67.91 51.93 67.17 51.93 66.43 51.19 66.43 51.19 65.69 50.45 65.69 50.45 66.43 50.45 67.17"/>
          <polygon class="cls-2" points="58.98 66.43 58.24 66.43 58.24 67.17 58.24 67.91 57.5 67.91 57.5 68.65 58.24 68.65 58.24 69.39 58.98 69.39 58.98 70.14 58.98 70.88 59.72 70.88 59.72 70.14 59.72 69.39 59.72 68.65 58.98 68.65 58.98 67.91 59.72 67.91 59.72 67.17 58.98 67.17 58.98 66.43"/>
          <polygon class="cls-2" points="46 67.17 45.26 67.17 45.26 67.91 45.26 68.65 46 68.65 46 69.39 46.75 69.39 46.75 68.65 46.75 67.91 46 67.91 46 67.17"/>
          <rect class="cls-2" x="46.75" y="67.17" width=".74" height=".74"/>
          <polygon class="cls-2" points="55.27 67.17 55.27 66.43 54.53 66.43 53.79 66.43 52.68 66.43 52.68 67.17 52.68 67.91 53.79 67.91 53.79 67.17 54.53 67.17 54.53 67.91 55.27 67.91 55.27 68.65 56.01 68.65 56.01 67.91 56.75 67.91 56.75 67.17 56.01 67.17 55.27 67.17"/>
          <rect class="cls-2" x="47.49" y="67.91" width=".74" height=".74"/>
          <polygon class="cls-2" points="49.71 67.91 48.97 67.91 48.97 68.65 48.97 69.39 49.71 69.39 49.71 70.14 49.71 70.88 50.45 70.88 50.45 70.14 50.45 69.39 50.45 68.65 49.71 68.65 49.71 67.91"/>
          <rect class="cls-2" x="51.93" y="67.91" width=".74" height=".74"/>
          <rect class="cls-2" x="51.19" y="68.65" width=".74" height=".74"/>
          <polygon class="cls-2" points="54.53 70.14 54.53 69.39 54.53 68.65 53.79 68.65 53.79 69.39 52.68 69.39 52.68 70.14 53.79 70.14 54.53 70.14"/>
          <rect class="cls-2" x="51.19" y="70.14" width=".74" height=".74"/>
          <rect class="cls-2" x="52.68" y="70.88" width=".74" height=".74"/>
          <path class="cls-2" d="M57.5,70.88v-2.22h-2.97v2.97h.74v.74h.74v-.74h.74v.74h.74v-.74h.74v.74h1.48v-.74h-.74v-.74h-1.48ZM54.9,69.39h1.85v1.85h-1.85v-1.85Z"/>
          <polygon class="cls-2" points="50.45 72.36 50.45 73.1 51.19 73.1 51.19 72.36 51.19 71.62 51.19 70.88 50.45 70.88 50.45 71.62 50.45 72.36"/>
          <polygon class="cls-2" points="53.79 72.36 53.79 73.1 54.53 73.1 55.27 73.1 55.27 72.36 54.53 72.36 53.79 72.36"/>
          <rect class="cls-2" x="49.71" y="73.1" width=".74" height=".74"/>
          <polygon class="cls-2" points="51.93 73.84 52.68 73.84 52.68 73.1 51.93 73.1 51.19 73.1 51.19 73.84 51.93 73.84"/>
          <polygon class="cls-2" points="58.24 73.1 58.24 73.84 58.98 73.84 59.72 73.84 59.72 73.1 58.98 73.1 58.24 73.1"/>
          <rect class="cls-2" x="55.64" y="69.77" width=".74" height=".74"/>
          <path class="cls-2" d="M48.97,59.39h-3.71v3.71h3.71v-3.71ZM48.6,62.72h-2.59v-2.59h2.59v2.59Z"/>
          <rect class="cls-2" x="46.37" y="60.5" width="1.48" height="1.48"/>
          <path class="cls-2" d="M56.01,59.39v3.71h3.71v-3.71h-3.71ZM58.98,62.72h-2.59v-2.59h2.59v2.59Z"/>
          <rect class="cls-2" x="57.12" y="60.5" width="1.48" height="1.48"/>
          <path class="cls-2" d="M45.26,74.21h3.71v-3.71h-3.71v3.71ZM45.63,70.88h2.59v2.59h-2.59v-2.59Z"/>
          <rect class="cls-2" x="46.37" y="71.25" width="1.48" height="1.48"/>
        </g>
      </g>
      <g>
        <rect class="cls-3" x="11.92" y="75.39" width="82.29" height="2.3"/>
        <polygon class="cls-3" points="25.73 113.37 80.41 113.37 81.55 111.64 25.73 111.64 25.73 113.37"/>
        <polygon class="cls-3" points="80.98 113.37 94.21 77.11 91.91 76.54 78.67 112.79 80.98 113.37"/>
        <rect class="cls-3" x="78.67" y="75.39" width=".58" height="37.98"/>
        <rect class="cls-3" x="57.96" y="75.39" width=".58" height="37.98"/>
        <rect class="cls-3" x="37.82" y="75.39" width=".58" height="37.98"/>
        <rect class="cls-3" x="27.46" y="75.96" width=".58" height="36.83"/>
        <rect class="cls-3" x="16.52" y="85.17" width="73.08" height=".58"/>
        <rect class="cls-3" x="23.43" y="103.01" width="60.42" height=".58"/>
        <rect class="cls-3" x="47.6" y="75.39" width=".58" height="37.98"/>
        <rect class="cls-3" x="68.32" y="75.39" width=".58" height="37.98"/>
        <rect class="cls-3" x="19.98" y="93.8" width="66.18" height=".58"/>
        <polygon class="cls-3" points="25.16 113.37 11.92 77.11 14.22 76.54 27.46 112.79 25.16 113.37"/>
      </g>
      <g>
        <rect class="cls-3" x="25.16" y="111.64" width="2.3" height="17.84"/>
        <rect class="cls-3" x="78.67" y="111.64" width="2.3" height="17.84"/>
      </g>
      <g>
        <rect class="cls-3" x="41.27" y="57.55" width="2.3" height="17.84"/>
        <rect class="cls-3" x="61.41" y="57.55" width="2.3" height="17.84"/>
      </g>
    </g>
  </g>
</svg>