<?xml version="1.0" encoding="UTF-8"?>
<svg id="Layer_2" data-name="Layer 2" xmlns="http://www.w3.org/2000/svg" viewBox="0 0 54.97 74.36">
  <defs>
    <style>
      .cls-1 {
        fill: #9baece;
      }

      .cls-2 {
        fill: #adc2ea;
      }

      .cls-3 {
        fill: #3a4466;
      }

      .cls-4 {
        fill: #7a97c4;
      }

      .cls-5 {
        fill: #1c1c1c;
      }

      .cls-6 {
        fill: #252d52;
      }

      .cls-7 {
        fill: #ebf1ff;
      }
    </style>
  </defs>
  <g id="Objects">
    <g>
      <path class="cls-3" d="m3.7,1.65c0,.91-.83,1.65-1.85,1.65s-1.85-.74-1.85-1.65S.83,0,1.85,0s1.85.74,1.85,1.65Z"/>
      <g>
        <path class="cls-6" d="m43.49,72.31c0,1.13-.93,2.05-2.08,2.05s-2.08-.92-2.08-2.05.93-2.05,2.08-2.05,2.08.92,2.08,2.05Z"/>
        <path class="cls-7" d="m42.56,72.31c0,.62-.51,1.13-1.14,1.13s-1.14-.51-1.14-1.13.51-1.13,1.14-1.13,1.14.51,1.14,1.13Z"/>
        <path class="cls-2" d="m42.18,72.31c0,.42-.34.76-.77.76s-.77-.34-.77-.76.34-.76.77-.76.77.34.77.76Z"/>
        <polygon class="cls-2" points="42.18 72.31 43.19 68.94 41.42 68.94 40.65 72.31 42.18 72.31"/>
        <polygon class="cls-4" points="41.04 70.59 41.42 68.94 43.19 68.94 42.7 70.59 41.04 70.59"/>
      </g>
      <g>
        <path class="cls-6" d="m22.24,72.31c0,1.13-.93,2.05-2.08,2.05s-2.08-.92-2.08-2.05.93-2.05,2.08-2.05,2.08.92,2.08,2.05Z"/>
        <path class="cls-7" d="m21.3,72.31c0,.62-.51,1.13-1.14,1.13s-1.14-.51-1.14-1.13.51-1.13,1.14-1.13,1.14.51,1.14,1.13Z"/>
        <path class="cls-2" d="m20.93,72.31c0,.42-.34.76-.77.76s-.77-.34-.77-.76.34-.76.77-.76.77.34.77.76Z"/>
        <polygon class="cls-2" points="20.93 72.31 21.94 68.94 20.16 68.94 19.39 72.31 20.93 72.31"/>
        <polygon class="cls-4" points="19.78 70.59 20.16 68.94 21.94 68.94 21.44 70.59 19.78 70.59"/>
      </g>
      <rect class="cls-1" x="5.76" y="9.15" width="43.05" height="1.15" transform="translate(54.58 19.46) rotate(180)"/>
      <polygon class="cls-1" points="10.16 30.91 41.18 30.91 41.62 29.76 10.16 29.76 10.16 30.91"/>
      <rect class="cls-1" x="16.43" y="68.37" width="31.02" height="1.15"/>
      <polygon class="cls-1" points="41.44 30.22 48.81 10.3 47.59 9.93 40.22 29.86 41.44 30.22"/>
      <polygon class="cls-1" points="10.16 30.91 5.76 10.3 7.03 10.08 11.42 30.7 10.16 30.91"/>
      <rect class="cls-1" x="40.28" y="9.15" width=".42" height="21.18" transform="translate(80.98 39.49) rotate(180)"/>
      <rect class="cls-1" x="28.76" y="9.15" width=".42" height="21.18" transform="translate(57.94 39.49) rotate(180)"/>
      <rect class="cls-1" x="17.24" y="9.15" width=".42" height="21.18" transform="translate(34.9 39.49) rotate(180)"/>
      <rect class="cls-1" x="11.48" y="9.15" width=".42" height="21.18" transform="translate(23.38 39.49) rotate(180)"/>
      <rect class="cls-1" x="16.43" y="59" width="1.32" height="9.94" transform="translate(34.18 127.95) rotate(180)"/>
      <path class="cls-1" d="m6.09,10.7l1.06-.45L2.49,1.55c-.14-.26-.49-.37-.78-.25h0c-.29.13-.42.44-.28.7l4.66,8.69Z"/>
      <rect class="cls-1" x="26.51" y="-3.91" width=".37" height="38.43" transform="translate(42 -11.4) rotate(90)"/>
      <rect class="cls-1" x="26.17" y="8.76" width=".37" height="33.22" transform="translate(51.73 -.99) rotate(90)"/>
      <rect class="cls-3" x="13.25" y="-5.01" width="8.24" height="20.09" rx="1" ry="1" transform="translate(12.34 22.41) rotate(-90)"/>
      <rect class="cls-5" x="14.28" y="-4.42" width="6.18" height="18.34" rx=".5" ry=".5" transform="translate(12.63 22.12) rotate(-90)"/>
      <rect class="cls-3" x="28.53" y="49.4" width="8.16" height="29.68" transform="translate(-31.63 96.85) rotate(-90)"/>
      <rect class="cls-5" x="29.25" y="50.75" width="6.78" height="27.08" rx="1" ry="1" transform="translate(-31.65 96.93) rotate(-90)"/>
      <rect class="cls-1" x="23" y="9.15" width=".42" height="21.18" transform="translate(46.42 39.49) rotate(180)"/>
      <rect class="cls-1" x="34.52" y="9.15" width=".42" height="21.18" transform="translate(69.46 39.49) rotate(180)"/>
      <rect class="cls-1" x="26.21" y="2.86" width=".37" height="34.95" transform="translate(46.73 -6.06) rotate(90)"/>
      <rect class="cls-1" x="12.24" y="38.91" width="42.73" height="1.15" transform="translate(67.22 78.98) rotate(180)"/>
      <polygon class="cls-1" points="16.58 60.15 47.51 60.15 47.94 59 16.58 59 16.58 60.15"/>
      <polygon class="cls-1" points="47.58 60.01 54.97 40.01 53.75 39.65 46.36 59.65 47.58 60.01"/>
      <polygon class="cls-1" points="16.43 60.13 12.03 39.51 13.29 39.3 17.69 59.91 16.43 60.13"/>
      <polygon class="cls-1" points="13.32 45.62 8.92 25.01 10.18 24.79 14.58 45.41 13.32 45.62"/>
      <rect class="cls-1" x="46.69" y="38.94" width=".42" height="21.18" transform="translate(93.8 99.07) rotate(180)"/>
      <rect class="cls-1" x="35.17" y="38.94" width=".42" height="21.18" transform="translate(70.76 99.07) rotate(180)"/>
      <rect class="cls-1" x="23.65" y="38.94" width=".42" height="21.18" transform="translate(47.72 99.07) rotate(180)"/>
      <rect class="cls-1" x="17.75" y="39.38" width=".42" height="20.45" transform="translate(35.91 99.2) rotate(180)"/>
      <rect class="cls-1" x="32.78" y="25.3" width=".37" height="38.43" transform="translate(77.48 11.55) rotate(90)"/>
      <rect class="cls-1" x="32.34" y="38.79" width=".37" height="32.73" transform="translate(87.69 22.63) rotate(90)"/>
      <rect class="cls-1" x="29.41" y="38.94" width=".42" height="21.18" transform="translate(59.24 99.07) rotate(180)"/>
      <rect class="cls-1" x="40.93" y="38.94" width=".42" height="21.18" transform="translate(82.28 99.07) rotate(180)"/>
      <rect class="cls-1" x="32.62" y="32.65" width=".37" height="34.95" transform="translate(82.93 17.32) rotate(90)"/>
    </g>
  </g>
</svg>