<?xml version="1.0" encoding="UTF-8"?>
<svg id="Layer_2" data-name="Layer 2" xmlns="http://www.w3.org/2000/svg" viewBox="0 0 17.17 25.31">
  <defs>
    <style>
      .cls-1 {
        fill: #9baece;
      }

      .cls-2 {
        fill: #fff;
      }

      .cls-3 {
        fill: #adc2ea;
      }

      .cls-4 {
        fill: #3a4466;
      }

      .cls-5 {
        fill: #7a97c4;
      }

      .cls-6 {
        fill: #1c1c1c;
      }

      .cls-7 {
        fill: #252d52;
      }

      .cls-8 {
        fill: #ebf1ff;
      }
    </style>
  </defs>
  <g id="Objects">
    <g>
      <g>
        <path class="cls-4" d="m1.16.52c0,.29-.26.52-.58.52s-.58-.23-.58-.52.26-.52.58-.52.58.23.58.52Z"/>
        <rect class="cls-1" x="1.8" y="2.86" width="13.44" height=".36" transform="translate(17.04 6.08) rotate(180)"/>
        <polygon class="cls-1" points="3.17 9.65 12.86 9.65 12.99 9.29 3.17 9.29 3.17 9.65"/>
        <rect class="cls-1" x="5.13" y="21.35" width="9.69" height=".36"/>
        <polygon class="cls-1" points="12.94 9.44 15.24 3.21 14.86 3.1 12.56 9.32 12.94 9.44"/>
        <polygon class="cls-1" points="3.17 9.65 1.8 3.22 2.19 3.15 3.57 9.59 3.17 9.65"/>
        <rect class="cls-1" x="12.58" y="2.86" width=".13" height="6.61" transform="translate(25.28 12.33) rotate(180)"/>
        <rect class="cls-1" x="8.98" y="2.86" width=".13" height="6.61" transform="translate(18.09 12.33) rotate(180)"/>
        <rect class="cls-1" x="5.38" y="2.86" width=".13" height="6.61" transform="translate(10.9 12.33) rotate(180)"/>
        <rect class="cls-1" x="3.58" y="2.86" width=".13" height="6.61" transform="translate(7.3 12.33) rotate(180)"/>
        <rect class="cls-1" x="5.13" y="18.42" width=".41" height="3.1" transform="translate(10.67 39.95) rotate(180)"/>
        <path class="cls-1" d="m1.9,3.34l.33-.14L.78.49c-.04-.08-.15-.12-.24-.08h0c-.09.04-.13.14-.09.22l1.46,2.71Z"/>
        <rect class="cls-1" x="8.28" y="-1.22" width=".12" height="12" transform="translate(13.11 -3.56) rotate(90)"/>
        <rect class="cls-1" x="8.17" y="2.74" width=".12" height="10.37" transform="translate(16.15 -.31) rotate(90)"/>
        <rect class="cls-4" x="4.14" y="-1.57" width="2.57" height="6.27" rx=".42" ry=".42" transform="translate(3.85 7) rotate(-90)"/>
        <rect class="cls-6" x="4.46" y="-1.38" width="1.93" height="5.73" rx=".32" ry=".32" transform="translate(3.94 6.91) rotate(-90)"/>
        <rect class="cls-1" x="7.18" y="2.86" width=".13" height="6.61" transform="translate(14.49 12.33) rotate(180)"/>
        <rect class="cls-1" x="10.78" y="2.86" width=".13" height="6.61" transform="translate(21.69 12.33) rotate(180)"/>
        <rect class="cls-1" x="8.18" y=".89" width=".12" height="10.91" transform="translate(14.59 -1.89) rotate(90)"/>
        <rect class="cls-1" x="3.82" y="12.15" width="13.34" height=".36" transform="translate(20.99 24.66) rotate(180)"/>
        <polygon class="cls-1" points="5.18 18.78 14.84 18.78 14.97 18.42 5.18 18.42 5.18 18.78"/>
        <polygon class="cls-1" points="14.86 18.74 17.17 12.49 16.78 12.38 14.48 18.63 14.86 18.74"/>
        <polygon class="cls-1" points="5.13 18.77 3.76 12.34 4.15 12.27 5.52 18.71 5.13 18.77"/>
        <polygon class="cls-1" points="4.16 14.25 2.79 7.81 3.18 7.74 4.55 14.18 4.16 14.25"/>
        <rect class="cls-1" x="14.58" y="12.16" width=".13" height="6.61" transform="translate(29.29 30.94) rotate(180)"/>
        <rect class="cls-1" x="10.98" y="12.16" width=".13" height="6.61" transform="translate(22.1 30.94) rotate(180)"/>
        <rect class="cls-1" x="7.39" y="12.16" width=".13" height="6.61" transform="translate(14.9 30.94) rotate(180)"/>
        <rect class="cls-1" x="5.54" y="12.3" width=".13" height="6.38" transform="translate(11.21 30.98) rotate(180)"/>
        <rect class="cls-1" x="10.23" y="7.9" width=".12" height="12" transform="translate(24.19 3.61) rotate(90)"/>
        <rect class="cls-1" x="10.1" y="12.11" width=".12" height="10.22" transform="translate(27.38 7.07) rotate(90)"/>
        <rect class="cls-1" x="9.18" y="12.16" width=".13" height="6.61" transform="translate(18.5 30.94) rotate(180)"/>
        <rect class="cls-1" x="12.78" y="12.16" width=".13" height="6.61" transform="translate(25.69 30.94) rotate(180)"/>
        <rect class="cls-1" x="10.19" y="10.2" width=".12" height="10.91" transform="translate(25.9 5.41) rotate(90)"/>
        <g>
          <path class="cls-7" d="m6.82,23.64c0,.92-.76,1.67-1.69,1.67s-1.69-.75-1.69-1.67.76-1.67,1.69-1.67,1.69.75,1.69,1.67Z"/>
          <path class="cls-8" d="m5.88,23.64c0,.41-.34.75-.76.75s-.76-.34-.76-.75.34-.75.76-.75.76.34.76.75Z"/>
          <path class="cls-3" d="m5.57,23.63c0,.24-.2.43-.44.43s-.44-.19-.44-.43.2-.43.44-.43.44.19.44.43Z"/>
          <polygon class="cls-3" points="5.57 23.63 6.15 21.71 5.14 21.71 4.7 23.63 5.57 23.63"/>
          <polygon class="cls-5" points="4.92 22.65 5.14 21.71 6.15 21.71 5.87 22.65 4.92 22.65"/>
        </g>
        <g>
          <path class="cls-7" d="m15.48,23.64c0,.92-.76,1.67-1.69,1.67s-1.69-.75-1.69-1.67.76-1.67,1.69-1.67,1.69.75,1.69,1.67Z"/>
          <path class="cls-8" d="m14.55,23.64c0,.41-.34.75-.76.75s-.76-.34-.76-.75.34-.75.76-.75.76.34.76.75Z"/>
          <path class="cls-3" d="m14.24,23.63c0,.24-.2.43-.44.43s-.44-.19-.44-.43.2-.43.44-.43.44.19.44.43Z"/>
          <polygon class="cls-3" points="14.24 23.63 14.82 21.71 13.8 21.71 13.36 23.63 14.24 23.63"/>
          <polygon class="cls-5" points="13.59 22.65 13.8 21.71 14.82 21.71 14.54 22.65 13.59 22.65"/>
        </g>
      </g>
      <rect class="cls-2" x="7.03" y="4.39" width="4.02" height="4.02"/>
      <g>
        <polygon points="8.6 4.71 8.42 4.71 8.42 4.89 8.6 4.89 8.78 4.89 8.78 4.71 8.6 4.71"/>
        <rect x="9.49" y="4.71" width=".18" height=".18"/>
        <polygon points="9.31 4.89 9.13 4.89 9.13 4.71 8.96 4.71 8.96 4.89 8.78 4.89 8.78 5.06 8.78 5.24 8.6 5.24 8.6 5.42 8.78 5.42 8.78 5.6 8.96 5.6 9.13 5.6 9.13 5.42 8.96 5.42 8.96 5.24 8.96 5.06 9.13 5.06 9.31 5.06 9.49 5.06 9.49 4.89 9.31 4.89"/>
        <polygon points="9.67 5.24 9.67 5.06 9.49 5.06 9.49 5.24 9.49 5.42 9.67 5.42 9.67 5.24"/>
        <polygon points="8.42 5.6 8.42 5.78 8.6 5.78 8.6 5.6 8.6 5.42 8.42 5.42 8.42 5.6"/>
        <rect x="9.31" y="5.42" width=".18" height=".18"/>
        <rect x="8.6" y="6.67" width=".18" height=".18"/>
        <rect x="7.36" y="5.78" width=".18" height=".18"/>
        <polygon points="9.31 5.95 9.49 5.95 9.49 6.13 9.67 6.13 9.67 5.95 9.85 5.95 9.85 5.78 9.67 5.78 9.67 5.6 9.49 5.6 9.49 5.78 9.31 5.78 9.13 5.78 8.96 5.78 8.78 5.78 8.78 5.95 8.96 5.95 9.13 5.95 9.13 6.13 9.31 6.13 9.31 5.95"/>
        <polygon points="10.56 5.95 10.56 5.78 10.38 5.78 10.38 5.95 10.38 6.13 10.56 6.13 10.56 5.95"/>
        <rect x="7.36" y="6.13" width=".18" height=".18"/>
        <polygon points="8.24 6.31 8.42 6.31 8.42 6.13 8.6 6.13 8.6 5.95 8.42 5.95 8.24 5.95 8.24 5.78 8.07 5.78 8.07 5.95 8.07 6.13 8.24 6.13 8.24 6.31"/>
        <rect x="8.96" y="6.13" width=".18" height=".18"/>
        <polygon points="10.2 6.13 10.2 5.95 10.2 5.78 10.02 5.78 10.02 5.95 10.02 6.13 9.85 6.13 9.67 6.13 9.67 6.31 9.85 6.31 10.02 6.31 10.02 6.49 10.2 6.49 10.2 6.31 10.38 6.31 10.38 6.13 10.2 6.13"/>
        <polygon points="8.24 6.31 8.07 6.31 8.07 6.13 7.89 6.13 7.89 5.95 7.89 5.78 7.71 5.78 7.71 5.95 7.53 5.95 7.53 6.13 7.71 6.13 7.71 6.31 7.89 6.31 7.89 6.49 8.07 6.49 8.07 6.67 8.24 6.67 8.24 6.49 8.24 6.31"/>
        <polygon points="8.6 6.49 8.78 6.49 8.78 6.67 8.96 6.67 8.96 6.49 8.96 6.31 8.78 6.31 8.78 6.13 8.6 6.13 8.6 6.31 8.6 6.49"/>
        <polygon points="10.56 6.31 10.38 6.31 10.38 6.49 10.38 6.67 10.2 6.67 10.2 6.84 10.38 6.84 10.38 7.02 10.56 7.02 10.56 7.2 10.56 7.38 10.74 7.38 10.74 7.2 10.74 7.02 10.74 6.84 10.56 6.84 10.56 6.67 10.74 6.67 10.74 6.49 10.56 6.49 10.56 6.31"/>
        <polygon points="7.53 6.49 7.36 6.49 7.36 6.67 7.36 6.84 7.53 6.84 7.53 7.02 7.71 7.02 7.71 6.84 7.71 6.67 7.53 6.67 7.53 6.49"/>
        <rect x="7.71" y="6.49" width=".18" height=".18"/>
        <polygon points="9.67 6.49 9.67 6.31 9.49 6.31 9.31 6.31 9.13 6.31 9.13 6.49 9.13 6.67 9.31 6.67 9.31 6.49 9.49 6.49 9.49 6.67 9.67 6.67 9.67 6.84 9.85 6.84 9.85 6.67 10.02 6.67 10.02 6.49 9.85 6.49 9.67 6.49"/>
        <rect x="7.89" y="6.67" width=".18" height=".18"/>
        <polygon points="8.42 6.67 8.24 6.67 8.24 6.84 8.24 7.02 8.42 7.02 8.42 7.2 8.42 7.38 8.6 7.38 8.6 7.2 8.6 7.02 8.6 6.84 8.42 6.84 8.42 6.67"/>
        <rect x="8.96" y="6.67" width=".18" height=".18"/>
        <rect x="8.78" y="6.84" width=".18" height=".18"/>
        <polygon points="9.49 7.2 9.49 7.02 9.49 6.84 9.31 6.84 9.31 7.02 9.13 7.02 9.13 7.2 9.31 7.2 9.49 7.2"/>
        <rect x="8.78" y="7.2" width=".18" height=".18"/>
        <rect x="9.13" y="7.38" width=".18" height=".18"/>
        <path d="m10.2,7.38v-.53h-.72v.72h.18v.17h.18v-.17h.18v.17h.18v-.17h0s.17,0,.17,0v.18h.36v-.18h-.18v-.18h-.35Zm-.58-.4h.44v.44h-.44v-.44Z"/>
        <polygon points="8.6 7.73 8.6 7.91 8.78 7.91 8.78 7.73 8.78 7.56 8.78 7.38 8.6 7.38 8.6 7.56 8.6 7.73"/>
        <polygon points="9.31 7.73 9.31 7.91 9.49 7.91 9.67 7.91 9.67 7.73 9.49 7.73 9.31 7.73"/>
        <rect x="8.42" y="7.91" width=".18" height=".18"/>
        <polygon points="8.96 8.09 9.13 8.09 9.13 7.91 8.96 7.91 8.78 7.91 8.78 8.09 8.96 8.09"/>
        <polygon points="10.38 7.91 10.38 8.09 10.56 8.09 10.74 8.09 10.74 7.91 10.56 7.91 10.38 7.91"/>
        <rect x="9.76" y="7.11" width=".18" height=".18"/>
        <path d="m8.24,4.71h-.89v.89h.89v-.89Zm-.13.76h-.62v-.62h.62v.62Z"/>
        <rect x="7.62" y="4.98" width=".36" height=".36"/>
        <path d="m9.85,4.71v.89h.89v-.89h-.89Zm.76.76h-.62v-.62h.62v.62Z"/>
        <rect x="10.11" y="4.98" width=".36" height=".36"/>
        <path d="m7.36,8.09h.89v-.89h-.89v.89Zm.13-.76h.62v.62h-.62v-.62Z"/>
        <rect x="7.62" y="7.47" width=".36" height=".36"/>
      </g>
    </g>
  </g>
</svg>