<?xml version="1.0" encoding="UTF-8"?>
<svg id="Layer_2" data-name="Layer 2" xmlns="http://www.w3.org/2000/svg" xmlns:xlink="http://www.w3.org/1999/xlink" viewBox="0 0 99.39 277.1">
  <defs>
    <style>
      .cls-1, .cls-2, .cls-3, .cls-4, .cls-5 {
        fill: #fff;
      }

      .cls-2 {
        font-size: 9px;
      }

      .cls-2, .cls-3 {
        font-family: OpenSans, 'Open Sans';
      }

      .cls-3 {
        font-size: 7px;
      }

      .cls-6 {
        opacity: .5;
      }

      .cls-6, .cls-7, .cls-8 {
        fill: #44784e;
      }

      .cls-4 {
        font-family: OpenSans-Extrabold, 'Open Sans';
        font-size: 32px;
      }

      .cls-4, .cls-5 {
        font-weight: 700;
      }

      .cls-9 {
        fill: #e55a6b;
      }

      .cls-10 {
        fill: #d84d5d;
      }

      .cls-11 {
        clip-path: url(#clippath-2);
      }

      .cls-12 {
        fill: #d8485a;
      }

      .cls-7 {
        opacity: .6;
      }

      .cls-13 {
        clip-path: url(#clippath-1);
      }

      .cls-5 {
        font-family: OpenSans-Bold, 'Open Sans';
        font-size: 12px;
      }

      .cls-14 {
        clip-path: url(#clippath-4);
      }

      .cls-15 {
        fill: #8bc396;
      }

      .cls-16 {
        fill: #d99196;
      }

      .cls-17 {
        fill: #84bf8f;
      }

      .cls-18 {
        clip-path: url(#clippath);
      }

      .cls-19 {
        clip-path: url(#clippath-3);
      }

      .cls-20 {
        clip-path: url(#clippath-5);
      }

      .cls-8 {
        opacity: .7;
      }
    </style>
    <clipPath id="clippath">
      <path class="cls-9" d="m99.17,271.07V81.2c0-14.15-11.47-25.61-25.61-25.61H25.61c-14.15,0-25.61,11.47-25.61,25.61v190.47h.02c.4,3,22.48,5.42,49.68,5.42s49.7-2.46,49.7-5.5c0-.17-.08-.35-.23-.52Z"/>
    </clipPath>
    <clipPath id="clippath-1">
      <path class="cls-12" d="m145.56,236.68c-65.1,37.05-195.42,9.34-195.42,9.34l2.16-122.2s78.02,26.09,203.31,1.91c40.52-7.82,22.99,92.15-10.05,110.95Z"/>
    </clipPath>
    <clipPath id="clippath-2">
      <path class="cls-17" d="m46.35,269.85c-7.12-22.62-58.82-45.62-58.82-45.62,0,0,44.58,7.84,54.37,15.26,1.31.99.76,4.16,2.16,5.1,1.29.87,5.68.02,7.23.67,1.32.55,1.35,3.12,2.48,3.83.95.6,3.89.44,5.03.87,2.18.83,7.19,4.7,7.19,4.7l20.61,17.07s-38.16,4.77-40.25-1.88Z"/>
    </clipPath>
    <clipPath id="clippath-3">
      <path class="cls-15" d="m133.49,227.87c-24.71-59.12-86.23-81.85-86.23-81.85,0,0,31.85,1.75,57.75,17.24,1.39.83,6-.05,7.39.78,1.43.85-.36,4.21.91,5.16,1.27.95,6.14-.69,7.66.07,1.58.79-.5,4.31.73,5.35,1.13.96,5.77-.2,7.29.46,1.8.78,1.42,4.32,2.52,5.56,26.99,30.56,67.07,55.43,67.07,55.43,0,0-56.03,13.5-65.1-8.21Z"/>
    </clipPath>
    <clipPath id="clippath-4">
      <path class="cls-17" d="m107.99,259.31C91.09,199.84-2.06,177.16-2.06,177.16c0,0,55.2-9.69,100.05,17.98,1.35.84,5.86.44,7.08,1.36,1.26.94-1.04,4.08.05,5.12,1.08,1.03,6.1-.18,7.46.69,1.41.9-1.19,4.18-.16,5.29.94,1.03,5.66.27,7.04,1.05,1.62.91.87,4.28,1.55,5.64,6.02,12.04,51.94,42.95,51.94,42.95,0,0-62.15,11.94-64.95,2.08Z"/>
    </clipPath>
    <clipPath id="clippath-5">
      <path class="cls-15" d="m95.84,284.39c-24.19-55.59-82.58-76.55-82.58-76.55,0,0,30.08,1.4,54.75,15.81,1.32.77,5.66-.09,6.99.68,1.36.79-.28,3.97.94,4.86,1.21.89,5.78-.7,7.23,0,1.5.73-.4,4.07.77,5.05,1.08.9,5.44-.24,6.89.38,1.71.73,1.41,4.06,2.46,5.23,25.92,28.62,64.11,51.77,64.11,51.77,0,0-52.66,13.18-61.55-7.23Z"/>
    </clipPath>
  </defs>
  <g id="OBJECTS">
    <g>
      <g>
        <path class="cls-9" d="m99.17,271.07V81.2c0-14.15-11.47-25.61-25.61-25.61H25.61c-14.15,0-25.61,11.47-25.61,25.61v190.47h.02c.4,3,22.48,5.42,49.68,5.42s49.7-2.46,49.7-5.5c0-.17-.08-.35-.23-.52Z"/>
        <g class="cls-18">
          <g>
            <path class="cls-12" d="m145.56,236.68c-65.1,37.05-195.42,9.34-195.42,9.34l2.16-122.2s78.02,26.09,203.31,1.91c40.52-7.82,22.99,92.15-10.05,110.95Z"/>
            <g class="cls-13">
              <g>
                <g>
                  <path class="cls-17" d="m46.35,269.85c-7.12-22.62-58.82-45.62-58.82-45.62,0,0,44.58,7.84,54.37,15.26,1.31.99.76,4.16,2.16,5.1,1.29.87,5.68.02,7.23.67,1.32.55,1.35,3.12,2.48,3.83.95.6,3.89.44,5.03.87,2.18.83,7.19,4.7,7.19,4.7l20.61,17.07s-38.16,4.77-40.25-1.88Z"/>
                  <g class="cls-11">
                    <path class="cls-6" d="m-33.23,224.29c25.58-10.74,103.72,37.87,115.07,61.79,5.7,12.01-84.41-6.6-84.41-6.6,0,0-49.57-47.25-30.66-55.19Z"/>
                  </g>
                </g>
                <g>
                  <path class="cls-15" d="m133.49,227.87c-24.71-59.12-86.23-81.85-86.23-81.85,0,0,31.85,1.75,57.75,17.24,1.39.83,6-.05,7.39.78,1.43.85-.36,4.21.91,5.16,1.27.95,6.14-.69,7.66.07,1.58.79-.5,4.31.73,5.35,1.13.96,5.77-.2,7.29.46,1.8.78,1.42,4.32,2.52,5.56,26.99,30.56,67.07,55.43,67.07,55.43,0,0-56.03,13.5-65.1-8.21Z"/>
                  <g class="cls-19">
                    <path class="cls-7" d="m30.75,147.57c31.48-17.01,148.2,75.88,149.84,120.17.27,7.26-98.74-25.2-98.74-25.2,0,0-80.33-79.18-51.1-94.97Z"/>
                  </g>
                </g>
                <g>
                  <path class="cls-17" d="m107.99,259.31C91.09,199.84-2.06,177.16-2.06,177.16c0,0,55.2-9.69,100.05,17.98,1.35.84,5.86.44,7.08,1.36,1.26.94-1.04,4.08.05,5.12,1.08,1.03,6.1-.18,7.46.69,1.41.9-1.19,4.18-.16,5.29.94,1.03,5.66.27,7.04,1.05,1.62.91.87,4.28,1.55,5.64,6.02,12.04,51.94,42.95,51.94,42.95,0,0-62.15,11.94-64.95,2.08Z"/>
                  <g class="cls-14">
                    <path class="cls-8" d="m-9.85,177.99c56.8-9.6,132.4,52.07,147.35,88.28,2.83,6.84-75.04,4.48-75.04,4.48,0,0-107.7-86.78-72.31-92.76Z"/>
                  </g>
                </g>
                <g>
                  <path class="cls-15" d="m95.84,284.39c-24.19-55.59-82.58-76.55-82.58-76.55,0,0,30.08,1.4,54.75,15.81,1.32.77,5.66-.09,6.99.68,1.36.79-.28,3.97.94,4.86,1.21.89,5.78-.7,7.23,0,1.5.73-.4,4.07.77,5.05,1.08.9,5.44-.24,6.89.38,1.71.73,1.41,4.06,2.46,5.23,25.92,28.62,64.11,51.77,64.11,51.77,0,0-52.66,13.18-61.55-7.23Z"/>
                  <g class="cls-20">
                    <path class="cls-7" d="m-2.29,209.43c29.45-16.3,140.95,70.43,143.16,112.21.36,6.85-93.54-23-93.54-23,0,0-76.97-74.08-49.62-89.21Z"/>
                  </g>
                </g>
              </g>
            </g>
          </g>
        </g>
      </g>
      <text class="cls-4" transform="translate(46.42 241.32) rotate(-90)"><tspan x="0" y="0">Silky</tspan></text>
      <text class="cls-5" transform="translate(70.72 239.9) rotate(-90)"><tspan x="0" y="0">Organic</tspan></text>
      <rect class="cls-1" x="58.27" y="142.15" width=".98" height="110.2"/>
      <text class="cls-2" transform="translate(31.31 131.26)"><tspan x="0" y="0">Shampoo</tspan></text>
      <text class="cls-3" transform="translate(30.66 268.13)"><tspan x="0" y="0">100 ml</tspan></text>
      <path class="cls-10" d="m28.99,25.06v30.62s6.92.15,21.37.25c12.95.09,21.37-.25,21.37-.25v-30.62H28.99Z"/>
      <path class="cls-10" d="m36.55,17.32v8.15c0,.82,6.28,1.49,14.02,1.49s14.02-.67,14.02-1.49v-8.15h-28.03Z"/>
      <path class="cls-16" d="m90.47.09C90.24.04,89.99,0,89.74,0h-52.59c-1.59,0-3.05,1.07-3.33,2.63-.37,2.05,1.19,3.83,3.18,3.83h5.72v10.79c0,.5,3.64.91,8.14.91s8.14-.41,8.14-.91h.03v-3.15c5.02-1.12,21.41-6.17,29.85-5.14.92.11,3.66-.79,6.16-1.72,1.93-.72,2.15-4.37.36-5.4-2.31-1.33-4.72-1.71-4.92-1.75Z"/>
      <g>
        <g>
          <path class="cls-1" d="m41.08,78.47c.35.06.97.37,1.77.95.4.29.84.63,1.28,1.03.44.39.88.84,1.28,1.31.81.94,1.48,2,1.94,3.07.46,1.08.72,2.18.85,3.26.13,1.09.13,2.15.11,3.17-.02,1.01-.04,1.96.05,2.79.09.82.31,1.5.73,1.94.41.45,1.01.64,1.68.65-.71.07-1.35-.07-1.8-.47-.23-.2-.41-.47-.55-.78-.14-.32-.23-.69-.28-1.1-.11-.82-.08-1.78-.06-2.79.03-1.02.04-2.09-.06-3.18-.1-1.09-.33-2.19-.75-3.26-.42-1.07-1.03-2.11-1.8-3.06-.76-.94-1.67-1.77-2.48-2.38-.81-.61-1.48-.98-1.93-1.14Z"/>
          <path class="cls-1" d="m42.5,80.2c.13.02.3.08.48.17.19.1.4.23.62.4.15.11.3.23.45.36.32.28.66.62.99,1,.33.38.65.8.93,1.25.57.9.99,1.9,1.25,2.92.26,1.06.34,2.15.33,3.22-.01.72-.07,1.42-.14,2.11-.04.34-.07.69-.11,1.02-.06.51-.11,1-.15,1.47-.03.39-.04.77-.04,1.12,0,.06,0,.13,0,.19.01.28.04.55.09.8.06.3.14.58.26.82.07.14.15.26.23.37.07.08.14.16.21.23.18.16.39.29.62.38.12.04.24.08.37.1.13.02.27.04.41.04-.26.03-.52.03-.75,0-.24-.04-.46-.1-.65-.21-.13-.07-.24-.15-.35-.24-.22-.2-.39-.45-.51-.76-.13-.3-.2-.66-.24-1.05-.08-.78,0-1.69.1-2.65.1-.84.22-1.71.3-2.6.01-.18.03-.36.04-.53.05-.72.05-1.44,0-2.15-.03-.36-.07-.71-.13-1.06-.09-.54-.23-1.06-.4-1.58-.17-.5-.39-.99-.64-1.46-.18-.32-.37-.63-.57-.93-.25-.36-.52-.7-.79-1-.16-.17-.31-.34-.47-.49-.12-.11-.23-.22-.35-.32-.26-.23-.52-.43-.75-.59-.12-.08-.23-.15-.33-.2-.11-.06-.21-.1-.3-.14Z"/>
          <path class="cls-1" d="m43.4,81.93c.14.01.29.07.46.17.17.1.35.23.53.39.12.11.24.23.36.36.25.27.5.6.74.96.23.36.45.77.63,1.2.36.85.59,1.8.68,2.77.09,1.05.02,2.13-.12,3.19-.1.71-.23,1.41-.36,2.09-.07.34-.13.68-.19,1.01-.1.5-.18.99-.24,1.46-.05.39-.09.77-.1,1.12,0,.06,0,.13,0,.19,0,.29.01.56.04.81.04.31.11.59.22.84.06.14.13.27.21.39.06.09.12.17.19.25.16.18.36.32.58.43.11.05.23.09.36.12.13.03.27.04.41.04-.26.04-.51.04-.74,0-.23-.04-.44-.11-.63-.21-.12-.07-.23-.15-.34-.24-.21-.19-.38-.44-.5-.73-.12-.29-.19-.63-.23-1-.07-.74.03-1.61.18-2.52.15-.83.35-1.7.52-2.57.03-.18.07-.35.1-.53.13-.71.24-1.42.3-2.13.03-.35.05-.7.05-1.05,0-.53-.02-1.05-.09-1.56-.07-.5-.17-.99-.31-1.45-.1-.32-.21-.64-.34-.94-.16-.36-.34-.71-.54-1.02-.11-.18-.23-.35-.35-.51-.09-.12-.18-.23-.27-.34-.21-.25-.42-.46-.63-.64-.1-.09-.2-.16-.3-.23-.1-.06-.2-.11-.28-.14Z"/>
          <path class="cls-1" d="m43.85,83.68c.14,0,.28.06.43.16.15.1.3.23.45.39.09.11.19.22.28.35.19.27.37.58.52.93.15.35.28.73.38,1.14.2.81.26,1.71.23,2.62-.06,1.04-.26,2.11-.5,3.16-.16.7-.35,1.4-.52,2.08-.09.34-.17.68-.25,1.01-.12.5-.23.99-.31,1.46-.07.39-.12.77-.14,1.13,0,.07,0,.13-.01.19-.01.29,0,.57.02.83.03.32.09.61.19.87.05.15.12.29.19.42.05.1.12.19.18.27.15.2.34.36.56.48.11.06.22.11.35.14.13.03.27.05.42.04-.25.04-.5.04-.72,0-.22-.04-.43-.11-.62-.21-.12-.07-.23-.15-.33-.24-.21-.19-.37-.43-.49-.72-.12-.28-.2-.61-.24-.96-.08-.7,0-1.53.17-2.38.17-.82.41-1.68.65-2.55.05-.17.1-.35.14-.52.19-.7.38-1.4.52-2.11.07-.35.14-.7.2-1.04.08-.53.14-1.04.17-1.55.02-.5.02-.98-.03-1.45-.03-.32-.08-.64-.14-.94-.08-.37-.18-.72-.3-1.04-.07-.18-.15-.36-.23-.53-.06-.13-.12-.25-.19-.36-.15-.27-.32-.5-.49-.69-.09-.1-.17-.18-.26-.25-.09-.07-.18-.13-.27-.15Z"/>
          <path class="cls-1" d="m43.9,85.43c.14,0,.28.06.41.15.13.1.25.23.37.39.07.1.14.22.21.35.13.26.24.57.33.9.09.33.14.7.18,1.09.06.77,0,1.62-.12,2.47-.19,1.04-.48,2.09-.8,3.13-.21.7-.44,1.39-.64,2.06-.1.34-.2.67-.29,1-.14.5-.26.99-.35,1.46-.08.39-.13.77-.16,1.14,0,.07,0,.13-.01.2-.02.29-.01.58.01.84.03.33.09.63.18.91.05.16.11.31.19.45.05.1.11.2.18.3.15.22.34.4.55.54.11.07.23.13.36.17.13.04.27.06.43.05-.24.05-.48.05-.7.01-.22-.04-.42-.11-.61-.22-.12-.07-.23-.15-.33-.24-.21-.19-.38-.43-.51-.7-.13-.27-.22-.58-.27-.92-.1-.67-.05-1.45.09-2.26.17-.82.42-1.67.7-2.53.05-.17.11-.35.17-.52.23-.69.46-1.39.67-2.09.11-.35.21-.69.3-1.03.14-.52.27-1.04.37-1.54.1-.5.17-.98.2-1.45.03-.33.04-.64.03-.95,0-.37-.04-.73-.09-1.06-.03-.19-.07-.37-.11-.55-.03-.13-.07-.26-.11-.38-.09-.28-.21-.54-.34-.75-.07-.11-.14-.2-.21-.28-.08-.08-.16-.14-.25-.16Z"/>
          <path class="cls-1" d="m43.6,87.19c.14,0,.27.05.38.15.11.1.21.23.29.39.05.1.1.22.14.34.08.26.14.56.17.88.03.32.03.67.01,1.04-.04.73-.18,1.52-.38,2.33-.28,1.03-.65,2.07-1.02,3.11-.25.69-.5,1.38-.72,2.05-.11.34-.22.67-.31,1-.14.5-.27.99-.36,1.46-.08.39-.13.78-.15,1.15,0,.07,0,.13-.01.2-.01.3,0,.59.02.86.03.34.1.65.19.95.05.17.12.33.2.48.06.11.12.22.19.32.16.24.35.44.57.61.11.08.24.15.37.19.13.05.28.07.44.05-.23.05-.46.05-.68.01-.22-.04-.42-.12-.6-.23-.12-.07-.23-.15-.33-.24-.21-.19-.39-.42-.54-.69-.14-.27-.25-.56-.32-.89-.14-.64-.14-1.37-.04-2.13.14-.81.37-1.66.65-2.51.06-.17.11-.34.17-.51.24-.69.5-1.38.75-2.07.13-.34.25-.68.37-1.02.18-.52.36-1.03.51-1.54.15-.49.28-.98.39-1.45.07-.33.13-.65.18-.96.06-.38.09-.74.1-1.09,0-.2,0-.39,0-.57,0-.14-.02-.27-.03-.4-.04-.3-.1-.57-.19-.81-.05-.12-.1-.22-.16-.31-.06-.09-.14-.15-.23-.17Z"/>
          <path class="cls-1" d="m43.01,88.96c.14,0,.25.05.35.15.09.1.16.24.21.4.03.1.06.22.08.34.04.25.05.54.04.85-.01.31-.05.64-.11.99-.12.69-.32,1.44-.56,2.19-.36,1.02-.78,2.06-1.18,3.09-.27.69-.52,1.37-.75,2.04-.11.34-.22.67-.31,1-.14.5-.25.99-.33,1.47-.07.4-.11.79-.12,1.17,0,.07,0,.14,0,.2,0,.31.02.6.05.89.05.35.13.68.24.99.06.18.14.35.22.51.06.12.13.24.21.35.17.26.38.49.62.68.12.09.25.17.4.22.14.05.3.08.46.06-.22.05-.44.05-.65,0-.21-.04-.42-.13-.61-.24-.12-.07-.23-.15-.34-.25-.22-.19-.42-.42-.58-.68-.16-.26-.29-.55-.39-.85-.2-.61-.26-1.3-.22-2.02.07-.81.27-1.65.52-2.5.05-.17.1-.34.16-.51.22-.68.48-1.37.75-2.06.13-.34.27-.68.4-1.02.21-.52.41-1.03.6-1.53.19-.49.37-.98.52-1.46.11-.33.21-.65.3-.97.11-.39.19-.76.26-1.12.04-.2.07-.4.09-.59.02-.14.03-.29.04-.42.02-.32,0-.61-.03-.87-.02-.13-.06-.24-.11-.33-.05-.09-.12-.16-.21-.18Z"/>
          <path class="cls-1" d="m42.19,90.74c.14,0,.24.05.31.15.07.1.12.24.15.4.02.1.02.22.03.34,0,.25-.02.53-.07.83-.05.3-.12.61-.21.94-.17.65-.41,1.35-.68,2.05-.41,1.02-.86,2.05-1.26,3.08-.27.68-.52,1.36-.73,2.03-.11.34-.2.67-.28,1-.12.5-.22.99-.28,1.48-.05.4-.07.8-.06,1.18,0,.07,0,.14,0,.21.02.31.05.62.11.91.07.36.17.71.31,1.04.08.19.17.37.27.55.07.13.16.26.24.38.2.29.44.54.72.76.14.1.29.19.44.25.16.06.32.09.48.07-.2.05-.42.05-.63,0-.21-.05-.42-.14-.62-.25-.13-.08-.25-.16-.36-.25-.24-.2-.46-.43-.64-.68-.18-.25-.34-.53-.47-.82-.26-.58-.39-1.23-.43-1.9-.02-.81.1-1.65.3-2.49.04-.17.08-.34.13-.51.19-.68.42-1.36.67-2.05.13-.34.26-.68.4-1.02.21-.51.42-1.02.64-1.53.21-.5.42-.99.61-1.47.13-.33.26-.66.38-.99.15-.39.28-.78.39-1.15.06-.21.12-.42.17-.62.04-.15.07-.3.1-.44.07-.34.11-.65.11-.93,0-.14-.02-.26-.05-.36-.04-.1-.1-.17-.19-.19Z"/>
          <path class="cls-1" d="m41.19,92.53c.13-.01.22.04.28.15.06.1.08.25.08.41,0,.11,0,.22-.02.34-.03.25-.09.52-.16.81-.08.29-.17.59-.27.89-.21.61-.47,1.27-.73,1.92-.44,1.01-.89,2.04-1.28,3.07-.26.68-.49,1.36-.67,2.03-.09.34-.17.67-.24,1-.1.5-.16,1-.19,1.49-.02.41-.02.81.02,1.21,0,.07.02.14.02.21.04.32.1.64.19.95.1.38.24.74.42,1.09.1.2.21.4.33.58.09.14.19.28.3.41.25.31.53.6.85.84.16.12.33.22.51.29.18.07.36.1.52.08-.18.06-.4.05-.61,0-.22-.06-.44-.15-.65-.27-.13-.08-.26-.17-.39-.26-.26-.2-.5-.43-.72-.68-.21-.25-.4-.52-.56-.8-.32-.56-.54-1.17-.66-1.8-.13-.81-.12-1.65,0-2.49.02-.17.05-.34.08-.51.12-.68.31-1.36.53-2.04.11-.34.23-.68.36-1.02.19-.51.4-1.02.62-1.53.21-.5.43-.99.64-1.48.15-.34.29-.67.44-1,.17-.4.34-.8.49-1.18.09-.22.17-.44.24-.65.06-.16.11-.32.16-.47.11-.36.2-.7.24-1,.02-.15.02-.28,0-.39-.02-.11-.08-.18-.17-.19Z"/>
          <path class="cls-1" d="m40.06,94.32c.12-.01.21.04.24.15.04.11.04.25.02.41-.01.11-.03.22-.06.34-.06.25-.14.52-.23.79-.09.28-.2.56-.31.85-.23.58-.48,1.18-.74,1.79-.44,1.01-.87,2.04-1.22,3.06-.23.68-.43,1.36-.57,2.03-.07.34-.13.67-.17,1.01-.06.51-.09,1.01-.07,1.51.01.41.06.82.14,1.23.01.07.03.15.05.22.08.33.17.66.29.98.15.39.34.78.56,1.15.13.21.27.42.43.63.12.15.24.3.37.45.31.34.66.66,1.05.93.19.13.4.24.6.32.2.08.4.12.57.09-.16.05-.37.04-.6-.02-.23-.06-.46-.17-.69-.3-.15-.08-.29-.18-.43-.28-.29-.21-.56-.44-.81-.69-.24-.25-.46-.51-.66-.78-.39-.54-.69-1.11-.9-1.7-.28-.81-.39-1.65-.39-2.49,0-.17,0-.34.02-.51.04-.68.15-1.36.32-2.04.08-.34.18-.68.28-1.02.16-.51.34-1.03.54-1.54.2-.5.41-1,.62-1.49.15-.34.3-.68.46-1.02.19-.41.37-.82.55-1.22.1-.23.2-.45.29-.68.07-.17.14-.33.2-.49.15-.38.28-.74.35-1.06.03-.16.05-.3.04-.42-.01-.12-.06-.19-.16-.2Z"/>
          <path class="cls-1" d="m38.86,96.12c.12-.02.19.04.21.15.02.11,0,.26-.03.42-.08.34-.22.72-.37,1.12-.32.8-.7,1.64-1.05,2.48-.68,1.73-1.16,3.24-1.52,5.1-.11.85-.11,1.7,0,2.54.06.42.15.84.28,1.26.13.42.3.83.51,1.24.21.41.46.82.75,1.22.29.4.64.79,1.03,1.16.39.37.83.73,1.31,1.03.24.14.49.27.72.36.24.09.46.13.62.1-.14.05-.35.04-.59-.03-.24-.07-.5-.19-.75-.33-.5-.28-.97-.63-1.39-1-.83-.74-1.46-1.54-1.91-2.36-.45-.82-.72-1.66-.87-2.5-.14-.85-.14-1.7-.04-2.55.11-.86.31-1.71.59-2.57.28-.86.62-1.71.99-2.55.19-.42.38-.84.57-1.26.19-.42.38-.83.56-1.23.18-.4.33-.79.44-1.14.05-.17.08-.33.08-.45,0-.12-.05-.2-.15-.21Z"/>
        </g>
        <g>
          <path class="cls-1" d="m60.36,78.47c-.35.06-.97.37-1.77.95-.4.29-.84.63-1.28,1.03-.44.39-.88.84-1.28,1.31-.81.94-1.48,2-1.94,3.07-.46,1.08-.72,2.18-.85,3.26-.13,1.09-.13,2.15-.11,3.17.02,1.01.04,1.96-.05,2.79-.09.82-.31,1.5-.73,1.94-.41.45-1.01.64-1.68.65.71.07,1.35-.07,1.8-.47.23-.2.41-.47.55-.78.14-.32.23-.69.28-1.1.11-.82.08-1.78.06-2.79-.03-1.02-.04-2.09.06-3.18.1-1.09.33-2.19.75-3.26.42-1.07,1.03-2.11,1.8-3.06.76-.94,1.67-1.77,2.48-2.38.81-.61,1.48-.98,1.93-1.14Z"/>
          <path class="cls-1" d="m58.94,80.2c-.13.02-.3.08-.48.17-.19.1-.4.23-.62.4-.15.11-.3.23-.45.36-.32.28-.66.62-.99,1-.33.38-.65.8-.93,1.25-.57.9-.99,1.9-1.25,2.92-.26,1.06-.34,2.15-.33,3.22.01.72.07,1.42.14,2.11.04.34.07.69.11,1.02.06.51.11,1,.15,1.47.03.39.04.77.04,1.12,0,.06,0,.13,0,.19-.01.28-.04.55-.09.8-.06.3-.14.58-.26.82-.07.14-.15.26-.23.37-.07.08-.14.16-.21.23-.18.16-.39.29-.62.38-.12.04-.24.08-.37.1-.13.02-.27.04-.41.04.26.03.52.03.75,0,.24-.04.46-.1.65-.21.13-.07.24-.15.35-.24.22-.2.39-.45.51-.76.13-.3.2-.66.24-1.05.08-.78,0-1.69-.1-2.65-.1-.84-.22-1.71-.3-2.6-.01-.18-.03-.36-.04-.53-.05-.72-.05-1.44,0-2.15.03-.36.07-.71.13-1.06.09-.54.23-1.06.4-1.58.17-.5.39-.99.64-1.46.18-.32.37-.63.57-.93.25-.36.52-.7.79-1,.16-.17.31-.34.47-.49.12-.11.23-.22.35-.32.26-.23.52-.43.75-.59.12-.08.23-.15.33-.2.11-.06.21-.1.3-.14Z"/>
          <path class="cls-1" d="m58.04,81.93c-.14.01-.29.07-.46.17-.17.1-.35.23-.53.39-.12.11-.24.23-.36.36-.25.27-.5.6-.74.96-.23.36-.45.77-.63,1.2-.36.85-.59,1.8-.68,2.77-.09,1.05-.02,2.13.12,3.19.1.71.23,1.41.36,2.09.07.34.13.68.19,1.01.1.5.18.99.24,1.46.05.39.09.77.1,1.12,0,.06,0,.13,0,.19,0,.29-.01.56-.04.81-.04.31-.11.59-.22.84-.06.14-.13.27-.21.39-.06.09-.12.17-.19.25-.16.18-.36.32-.58.43-.11.05-.23.09-.36.12-.13.03-.27.04-.41.04.26.04.51.04.74,0,.23-.04.44-.11.63-.21.12-.07.23-.15.34-.24.21-.19.38-.44.5-.73.12-.29.19-.63.23-1,.07-.74-.03-1.61-.18-2.52-.15-.83-.35-1.7-.52-2.57-.03-.18-.07-.35-.1-.53-.13-.71-.24-1.42-.3-2.13-.03-.35-.05-.7-.05-1.05,0-.53.02-1.05.09-1.56.07-.5.17-.99.31-1.45.1-.32.21-.64.34-.94.16-.36.34-.71.54-1.02.11-.18.23-.35.35-.51.09-.12.18-.23.27-.34.21-.25.42-.46.63-.64.1-.09.2-.16.3-.23.1-.06.2-.11.28-.14Z"/>
          <path class="cls-1" d="m57.59,83.68c-.14,0-.28.06-.43.16-.15.1-.3.23-.45.39-.09.11-.19.22-.28.35-.19.27-.37.58-.52.93-.15.35-.28.73-.38,1.14-.2.81-.26,1.71-.23,2.62.06,1.04.26,2.11.5,3.16.16.7.35,1.4.52,2.08.09.34.17.68.25,1.01.12.5.23.99.31,1.46.07.39.12.77.14,1.13,0,.07,0,.13.01.19.01.29,0,.57-.02.83-.03.32-.09.61-.19.87-.05.15-.12.29-.19.42-.05.1-.12.19-.18.27-.15.2-.34.36-.56.48-.11.06-.22.11-.35.14-.13.03-.27.05-.42.04.25.04.5.04.72,0,.22-.04.43-.11.62-.21.12-.07.23-.15.33-.24.21-.19.37-.43.49-.72.12-.28.2-.61.24-.96.08-.7,0-1.53-.17-2.38-.17-.82-.41-1.68-.65-2.55-.05-.17-.1-.35-.14-.52-.19-.7-.38-1.4-.52-2.11-.07-.35-.14-.7-.2-1.04-.08-.53-.14-1.04-.17-1.55-.02-.5-.02-.98.03-1.45.03-.32.08-.64.14-.94.08-.37.18-.72.3-1.04.07-.18.15-.36.23-.53.06-.13.12-.25.19-.36.15-.27.32-.5.49-.69.09-.1.17-.18.26-.25.09-.07.18-.13.27-.15Z"/>
          <path class="cls-1" d="m57.54,85.43c-.14,0-.28.06-.41.15-.13.1-.25.23-.37.39-.07.1-.14.22-.21.35-.13.26-.24.57-.33.9-.09.33-.14.7-.18,1.09-.06.77,0,1.62.12,2.47.19,1.04.48,2.09.8,3.13.21.7.44,1.39.64,2.06.1.34.2.67.29,1,.14.5.26.99.35,1.46.08.39.13.77.16,1.14,0,.07,0,.13.01.2.02.29.01.58-.01.84-.03.33-.09.63-.18.91-.05.16-.11.31-.19.45-.05.1-.11.2-.18.3-.15.22-.34.4-.55.54-.11.07-.23.13-.36.17-.13.04-.27.06-.43.05.24.05.48.05.7.01.22-.04.42-.11.61-.22.12-.07.23-.15.33-.24.21-.19.38-.43.51-.7.13-.27.22-.58.27-.92.1-.67.05-1.45-.09-2.26-.17-.82-.42-1.67-.7-2.53-.05-.17-.11-.35-.17-.52-.23-.69-.46-1.39-.67-2.09-.11-.35-.21-.69-.3-1.03-.14-.52-.27-1.04-.37-1.54-.1-.5-.17-.98-.2-1.45-.03-.33-.04-.64-.03-.95,0-.37.04-.73.09-1.06.03-.19.07-.37.11-.55.03-.13.07-.26.11-.38.09-.28.21-.54.34-.75.07-.11.14-.2.21-.28.08-.08.16-.14.25-.16Z"/>
          <path class="cls-1" d="m57.84,87.19c-.14,0-.27.05-.38.15-.11.1-.21.23-.29.39-.05.1-.1.22-.14.34-.08.26-.14.56-.17.88-.03.32-.03.67-.01,1.04.04.73.18,1.52.38,2.33.28,1.03.65,2.07,1.02,3.11.25.69.5,1.38.72,2.05.11.34.22.67.31,1,.14.5.27.99.36,1.46.08.39.13.78.15,1.15,0,.07,0,.13.01.2.01.3,0,.59-.02.86-.03.34-.1.65-.19.95-.05.17-.12.33-.2.48-.06.11-.12.22-.19.32-.16.24-.35.44-.57.61-.11.08-.24.15-.37.19-.13.05-.28.07-.44.05.23.05.46.05.68.01.22-.04.42-.12.6-.23.12-.07.23-.15.33-.24.21-.19.39-.42.54-.69.14-.27.25-.56.32-.89.14-.64.14-1.37.04-2.13-.14-.81-.37-1.66-.65-2.51-.06-.17-.11-.34-.17-.51-.24-.69-.5-1.38-.75-2.07-.13-.34-.25-.68-.37-1.02-.18-.52-.36-1.03-.51-1.54-.15-.49-.28-.98-.39-1.45-.07-.33-.13-.65-.18-.96-.06-.38-.09-.74-.1-1.09,0-.2,0-.39,0-.57,0-.14.02-.27.03-.4.04-.3.1-.57.19-.81.05-.12.1-.22.16-.31.06-.09.14-.15.23-.17Z"/>
          <path class="cls-1" d="m58.43,88.96c-.14,0-.25.05-.35.15-.09.1-.16.24-.21.4-.03.1-.06.22-.08.34-.04.25-.05.54-.04.85.01.31.05.64.11.99.12.69.32,1.44.56,2.19.36,1.02.78,2.06,1.18,3.09.27.69.52,1.37.75,2.04.11.34.22.67.31,1,.14.5.25.99.33,1.47.07.4.11.79.12,1.17,0,.07,0,.14,0,.2,0,.31-.02.6-.05.89-.05.35-.13.68-.24.99-.06.18-.14.35-.22.51-.06.12-.13.24-.21.35-.17.26-.38.49-.62.68-.12.09-.25.17-.4.22-.14.05-.3.08-.46.06.22.05.44.05.65,0,.21-.04.42-.13.61-.24.12-.07.23-.15.34-.25.22-.19.42-.42.58-.68.16-.26.29-.55.39-.85.2-.61.26-1.3.22-2.02-.07-.81-.27-1.65-.52-2.5-.05-.17-.1-.34-.16-.51-.22-.68-.48-1.37-.75-2.06-.13-.34-.27-.68-.4-1.02-.21-.52-.41-1.03-.6-1.53-.19-.49-.37-.98-.52-1.46-.11-.33-.21-.65-.3-.97-.11-.39-.19-.76-.26-1.12-.04-.2-.07-.4-.09-.59-.02-.14-.03-.29-.04-.42-.02-.32,0-.61.03-.87.02-.13.06-.24.11-.33.05-.09.12-.16.21-.18Z"/>
          <path class="cls-1" d="m59.25,90.74c-.14,0-.24.05-.31.15-.07.1-.12.24-.15.4-.02.1-.02.22-.03.34,0,.25.02.53.07.83.05.3.12.61.21.94.17.65.41,1.35.68,2.05.41,1.02.86,2.05,1.26,3.08.27.68.52,1.36.73,2.03.11.34.2.67.28,1,.12.5.22.99.28,1.48.05.4.07.8.06,1.18,0,.07,0,.14,0,.21-.02.31-.05.62-.11.91-.07.36-.17.71-.31,1.04-.08.19-.17.37-.27.55-.07.13-.16.26-.24.38-.2.29-.44.54-.72.76-.14.1-.29.19-.44.25-.16.06-.32.09-.48.07.2.05.42.05.63,0,.21-.05.42-.14.62-.25.13-.08.25-.16.36-.25.24-.2.46-.43.64-.68.18-.25.34-.53.47-.82.26-.58.39-1.23.43-1.9.02-.81-.1-1.65-.3-2.49-.04-.17-.08-.34-.13-.51-.19-.68-.42-1.36-.67-2.05-.13-.34-.26-.68-.4-1.02-.21-.51-.42-1.02-.64-1.53-.21-.5-.42-.99-.61-1.47-.13-.33-.26-.66-.38-.99-.15-.39-.28-.78-.39-1.15-.06-.21-.12-.42-.17-.62-.04-.15-.07-.3-.1-.44-.07-.34-.11-.65-.11-.93,0-.14.02-.26.05-.36.04-.1.1-.17.19-.19Z"/>
          <path class="cls-1" d="m60.25,92.53c-.13-.01-.22.04-.28.15-.06.1-.08.25-.08.41,0,.11,0,.22.02.34.03.25.09.52.16.81.08.29.17.59.27.89.21.61.47,1.27.73,1.92.44,1.01.89,2.04,1.28,3.07.26.68.49,1.36.67,2.03.09.34.17.67.24,1,.1.5.16,1,.19,1.49.02.41.02.81-.02,1.21,0,.07-.02.14-.02.21-.04.32-.1.64-.19.95-.1.38-.24.74-.42,1.09-.1.2-.21.4-.33.58-.09.14-.19.28-.3.41-.25.31-.53.6-.85.84-.16.12-.33.22-.51.29-.18.07-.36.1-.52.08.18.06.4.05.61,0,.22-.06.44-.15.65-.27.13-.08.26-.17.39-.26.26-.2.5-.43.72-.68.21-.25.4-.52.56-.8.32-.56.54-1.17.66-1.8.13-.81.12-1.65,0-2.49-.02-.17-.05-.34-.08-.51-.12-.68-.31-1.36-.53-2.04-.11-.34-.23-.68-.36-1.02-.19-.51-.4-1.02-.62-1.53-.21-.5-.43-.99-.64-1.48-.15-.34-.29-.67-.44-1-.17-.4-.34-.8-.49-1.18-.09-.22-.17-.44-.24-.65-.06-.16-.11-.32-.16-.47-.11-.36-.2-.7-.24-1-.02-.15-.02-.28,0-.39.02-.11.08-.18.17-.19Z"/>
          <path class="cls-1" d="m61.38,94.32c-.12-.01-.21.04-.24.15-.04.11-.04.25-.02.41.01.11.03.22.06.34.06.25.14.52.23.79.09.28.2.56.31.85.23.58.48,1.18.74,1.79.44,1.01.87,2.04,1.22,3.06.23.68.43,1.36.57,2.03.07.34.13.67.17,1.01.06.51.09,1.01.07,1.51-.01.41-.06.82-.14,1.23-.01.07-.03.15-.05.22-.08.33-.17.66-.29.98-.15.39-.34.78-.56,1.15-.13.21-.27.42-.43.63-.12.15-.24.3-.37.45-.31.34-.66.66-1.05.93-.19.13-.4.24-.6.32-.2.08-.4.12-.57.09.16.05.37.04.6-.02.23-.06.46-.17.69-.3.15-.08.29-.18.43-.28.29-.21.56-.44.81-.69.24-.25.46-.51.66-.78.39-.54.69-1.11.9-1.7.28-.81.39-1.65.39-2.49,0-.17,0-.34-.02-.51-.04-.68-.15-1.36-.32-2.04-.08-.34-.18-.68-.28-1.02-.16-.51-.34-1.03-.54-1.54-.2-.5-.41-1-.62-1.49-.15-.34-.3-.68-.46-1.02-.19-.41-.37-.82-.55-1.22-.1-.23-.2-.45-.29-.68-.07-.17-.14-.33-.2-.49-.15-.38-.28-.74-.35-1.06-.03-.16-.05-.3-.04-.42.01-.12.06-.19.16-.2Z"/>
          <path class="cls-1" d="m62.58,96.12c-.12-.02-.19.04-.21.15-.02.11,0,.26.03.42.08.34.22.72.37,1.12.32.8.7,1.64,1.05,2.48.68,1.73,1.16,3.24,1.52,5.1.11.85.11,1.7,0,2.54-.06.42-.15.84-.28,1.26-.13.42-.3.83-.51,1.24-.21.41-.46.82-.75,1.22-.29.4-.64.79-1.03,1.16-.39.37-.83.73-1.31,1.03-.24.14-.49.27-.72.36-.24.09-.46.13-.62.1.14.05.35.04.59-.03.24-.07.5-.19.75-.33.5-.28.97-.63,1.39-1,.83-.74,1.46-1.54,1.91-2.36.45-.82.72-1.66.87-2.5.14-.85.14-1.7.04-2.55-.11-.86-.31-1.71-.59-2.57-.28-.86-.62-1.71-.99-2.55-.19-.42-.38-.84-.57-1.26-.19-.42-.38-.83-.56-1.23-.18-.4-.33-.79-.44-1.14-.05-.17-.08-.33-.08-.45,0-.12.05-.2.15-.21Z"/>
        </g>
      </g>
    </g>
  </g>
</svg>