<?xml version="1.0" encoding="UTF-8"?>
<svg id="Layer_2" data-name="Layer 2" xmlns="http://www.w3.org/2000/svg" xmlns:xlink="http://www.w3.org/1999/xlink" viewBox="0 0 103.71 269.39">
  <defs>
    <style>
      .cls-1, .cls-2, .cls-3, .cls-4, .cls-5 {
        fill: #633cce;
      }

      .cls-1, .cls-6 {
        opacity: .2;
      }

      .cls-7, .cls-8, .cls-9 {
        fill: #fff;
      }

      .cls-8 {
        font-size: 7px;
      }

      .cls-8, .cls-2, .cls-10 {
        font-family: OpenSans, 'Open Sans';
      }

      .cls-11, .cls-6 {
        fill: #866fdd;
      }

      .cls-2 {
        font-size: 9px;
      }

      .cls-9 {
        opacity: .8;
      }

      .cls-12 {
        clip-path: url(#clippath-1);
      }

      .cls-3 {
        opacity: .5;
      }

      .cls-4 {
        font-family: Broadway, Broadway;
        font-size: 19px;
      }

      .cls-13 {
        clip-path: url(#clippath);
      }

      .cls-10 {
        fill: #606060;
        font-size: 6.33px;
      }
    </style>
    <clipPath id="clippath">
      <rect class="cls-9" x="16.86" y="84.92" width="70" height="113.33" rx="6" ry="6"/>
    </clipPath>
    <clipPath id="clippath-1">
      <path class="cls-11" d="m85.86,235.78c0,2.93-2.69,5.3-6,5.3H23.86c-3.31,0-6-2.37-6-5.3v-19.89c0-2.93,2.69-5.3,6-5.3h56c3.31,0,6,2.37,6,5.3v19.89Z"/>
    </clipPath>
  </defs>
  <g id="OBJECTS">
    <g>
      <path class="cls-11" d="m93.53,37.51s-6.98-21.88-11.4-34.04c-1.32-3.64-7.27-3.3-7.27-3.3L53.48.02v-.02s-1.62.01-1.62.01h-1.62s0,.01,0,.01l-21.38.14s-5.95-.33-7.27,3.3c-4.42,12.16-11.4,34.04-11.4,34.04h83.35Z"/>
      <path class="cls-5" d="m93.59,38.06c-.74-2.54-30.71-2.84-40.28-2.86h0s-.52,0-1.45,0c-.93,0-1.45,0-1.45,0h0c-9.57.03-39.54.32-40.28,2.86C-5.76,92.66,0,194.06,7.48,264.13c.19,1.73,4.02,3.62,5.73,3.97,8.66,1.73,68.64,1.73,77.29,0,1.71-.34,5.54-2.23,5.73-3.97,7.49-70.07,13.24-171.47-2.64-226.06Z"/>
      <polygon class="cls-5" points="87.21 18.18 16.5 18.18 17.04 16.58 86.68 16.58 87.21 18.18"/>
      <path class="cls-3" d="m50.97,6.83c-9.64,0-17.47,4.34-17.56,9.72h35.13c-.1-5.38-7.92-9.72-17.56-9.72Z"/>
      <path class="cls-1" d="m51.01,26.08c9.7,0,17.57-3.47,17.57-7.74,0-.03,0-.05,0-.08h-35.13s0,.05,0,.08c0,4.28,7.87,7.74,17.57,7.74Z"/>
      <g>
        <rect class="cls-9" x="16.86" y="84.92" width="70" height="113.33" rx="6" ry="6"/>
        <g class="cls-13">
          <ellipse class="cls-7" cx="100.86" cy="137.92" rx="67.67" ry="92.33"/>
        </g>
      </g>
      <g>
        <path class="cls-11" d="m85.86,235.78c0,2.93-2.69,5.3-6,5.3H23.86c-3.31,0-6-2.37-6-5.3v-19.89c0-2.93,2.69-5.3,6-5.3h56c3.31,0,6,2.37,6,5.3v19.89Z"/>
        <g class="cls-12">
          <ellipse class="cls-6" cx="84.19" cy="230.58" rx="39.67" ry="30.33"/>
        </g>
      </g>
      <text class="cls-4" transform="translate(23.13 125.08)"><tspan x="0" y="0">Spiky</tspan></text>
      <text class="cls-2" transform="translate(31.7 142.08)"><tspan x="0" y="0">Shampoo</tspan></text>
      <rect class="cls-5" x="24.98" y="129.33" width="53.75" height="1"/>
      <text class="cls-8" transform="translate(39.27 229.08)"><tspan x="0" y="0">100 ml</tspan></text>
      <text class="cls-10" transform="translate(31.21 174.64)"><tspan x="0" y="0">100% natural</tspan></text>
      <g>
        <g>
          <g>
            <path class="cls-5" d="m49.9,99.44c-.19.31-.35.62-.49.94-.45-.25-.92-.46-1.41-.58-1.26-.31-2.34.16-3.3,1.15.79-1.26,1.81-2.27,3.19-2.19.7.04,1.37.32,2.01.68Z"/>
            <path class="cls-5" d="m52.51,102.41c-.35-.21-.7-.44-1.03-.67-.07-.05-.14-.1-.21-.15-.3-.21-.61-.42-.92-.63,0,0,0,0-.01,0,0,0,0,0,0,0,.13-.32.29-.63.47-.94.1.07.2.13.29.2.06.04.12.08.17.12.28.19.56.39.85.59.02.02.05.03.07.05,0,0,.02.01.03.02.08.21.15.41.2.63.07.28.1.54.1.8Z"/>
            <path class="cls-5" d="m57.83,100.96c-.79,1.26-1.81,2.27-3.19,2.19-.46-.03-.91-.16-1.35-.35.13-.34.2-.7.17-1.09,0,0,0,0,0,0,.35.17.7.31,1.07.4,1.26.32,2.34-.16,3.3-1.15Z"/>
          </g>
          <g>
            <path class="cls-5" d="m52.11,100.91l.09.04s-.01,0-.02.01c-.02-.02-.05-.03-.07-.05Z"/>
            <path class="cls-5" d="m57.83,100.96c-.96-.99-2.04-1.47-3.3-1.15-.49.12-.95.33-1.41.58-.31.17-.62.36-.92.56l-.78-.73c.1-.07.21-.14.31-.21.29-.2.59-.39.89-.56.17-.09.34-.18.51-.26.48-.23.98-.38,1.5-.41,1.38-.08,2.4.93,3.19,2.19Z"/>
            <path class="cls-5" d="m51.1,101.7c-.35.24-.71.49-1.09.7-.25.15-.51.28-.77.4-.44.19-.89.32-1.35.35-1.38.08-2.4-.93-3.19-2.19.96.99,2.04,1.47,3.3,1.15.2-.05.4-.12.59-.19.16-.06.32-.13.48-.21.42-.2.82-.45,1.22-.72,0,0,.02-.01.02-.02,0,0,.01-.01.02-.02l.76.74Z"/>
          </g>
        </g>
        <g>
          <g>
            <path class="cls-5" d="m50.29,100.99l.03-.04s0,.02-.01.03c0,0-.02.01-.02.02Z"/>
            <path class="cls-5" d="m51.26,99.26c-.16.24-.32.49-.47.74-.18.31-.34.62-.47.94h0s-.71.33-1.23.51c.05-.37.16-.73.31-1.08.14-.32.31-.63.49-.94.23-.38.48-.75.73-1.1.21.3.43.61.63.92Z"/>
            <path class="cls-5" d="m51.26,104.9c-.91-.57-1.68-1.25-2.02-2.1.26-.11.52-.25.77-.4.01.93.47,1.75,1.25,2.5Z"/>
            <path class="cls-5" d="m53.45,94.97c-.07,1.22-.85,2.34-1.56,3.37-.21-.3-.42-.61-.63-.92.5-.74.95-1.51,1.15-2.34.32-1.26-.16-2.34-1.15-3.3,1.26.79,2.27,1.81,2.19,3.19Z"/>
          </g>
          <g>
            <path class="cls-5" d="m52.46,99.18c-.24.19-.55.48-.79.72-.13-.22-.27-.43-.41-.64-.21-.31-.42-.62-.63-.92-.71-1.03-1.48-2.15-1.56-3.37-.08-1.38.93-2.4,2.19-3.19-.99.96-1.47,2.04-1.15,3.3.21.83.66,1.6,1.15,2.34.21.31.42.62.63.92.19.27.38.55.56.84Z"/>
            <path class="cls-5" d="m53.28,102.8c-.34.85-1.11,1.54-2.02,2.1.77-.75,1.23-1.57,1.25-2.5,0-.26-.03-.53-.1-.8-.05-.21-.12-.42-.2-.63,0-.01,0-.02-.01-.03.3-.2.61-.39.92-.56.18.43.31.87.34,1.33,0,0,0,0,0,0,.02.39-.04.75-.17,1.09Z"/>
          </g>
        </g>
      </g>
    </g>
  </g>
</svg>