<?xml version="1.0" encoding="UTF-8"?>
<svg id="Layer_2" data-name="Layer 2" xmlns="http://www.w3.org/2000/svg" viewBox="0 0 112.02 265.86">
  <defs>
    <style>
      .cls-1, .cls-2 {
        fill: #99c29f;
      }

      .cls-3, .cls-4, .cls-5, .cls-6 {
        fill: #fff;
      }

      .cls-7 {
        opacity: .5;
      }

      .cls-7, .cls-8 {
        fill: #344930;
      }

      .cls-4 {
        font-size: 9px;
      }

      .cls-4, .cls-5, .cls-9 {
        font-family: OpenSans, 'Open Sans';
      }

      .cls-5 {
        font-size: 7px;
      }

      .cls-2 {
        opacity: .8;
      }

      .cls-10 {
        fill: #739277;
        opacity: .4;
      }

      .cls-6 {
        font-family: ScriptMTBold, 'Script MT Bold';
        font-size: 25px;
      }

      .cls-9 {
        fill: #304432;
        font-size: 6.33px;
      }

      .cls-11 {
        letter-spacing: -.02em;
      }
    </style>
  </defs>
  <g id="OBJECTS">
    <g>
      <path class="cls-8" d="m93.91,261.55c-.28,1.42-3.82,2.96-5.38,3.24-7.98,1.42-67.76,1.46-77.16-.12-1.89-.31-6.12-2.06-6.27-3.66C0,207.6-3.55,128.77,5.91,69.77c1.18-7.38,7.31-12.8,14.51-12.8h75.36c7.52,0,13.8,5.89,14.62,13.65,6.02,57.05-5.86,137.31-16.48,190.93Z"/>
      <rect class="cls-2" x="17.27" y="81.38" width="70" height="113.33" rx="35" ry="35"/>
      <text class="cls-6" transform="translate(21.08 143.94)"><tspan class="cls-11" x="0" y="0">W</tspan><tspan x="23.45" y="0">avy</tspan></text>
      <text class="cls-4" transform="translate(32.12 161.55)"><tspan x="0" y="0">Shampoo</tspan></text>
      <text class="cls-5" transform="translate(39.69 225.55)"><tspan x="0" y="0">100 ml</tspan></text>
      <text class="cls-9" transform="translate(31.62 175.11)"><tspan x="0" y="0">100% natural</tspan></text>
      <g>
        <path class="cls-1" d="m108.52,64.9s-5.36-25.89-8.82-39.74c-1.05-4.21-7.19-6.03-7.19-6.03l-22.88-8.24v-.02s-1.79-.62-1.79-.62l-1.8-.65v.02S41.34,1.05,41.34,1.05c0,0-6.9-2.77-8.95.67C17.27,26.97,9.17,61.68,9.17,61.68l99.35,3.21Z"/>
        <path class="cls-10" d="m68.23,38.42c11.03.12,18.96-3.27,17.99-7.58,0-.03-.01-.93-.02-.96h-40.82s0,.07.02.1c1.11,4.55,11.48,8.32,22.83,8.44Z"/>
        <polygon class="cls-7" points="101.18 31.38 18.6 31.38 19.31 29.82 100.86 29.9 101.18 31.38"/>
      </g>
      <path class="cls-3" d="m54.99,116.3c-1.1.34-2.28.53-3.5.53-.64,0-1.26-.05-1.87-.15.44-1.83-.12-4.51-2.29-4.68-.68-.05-1.34.08-2.01.15-.46.05-.92.06-1.38,0-.32-.04-.64-.13-.92-.31-.27-.18-.49-.46-.53-.78-.05-.36.12-.71.25-1.04.14-.34.25-.72.1-1.05-.06-.14-.17-.25-.27-.37-.1-.11-.2-.23-.25-.38-.05-.14-.05-.31.04-.44.06-.08.22-.15.34-.16-.18-.06-.36-.13-.49-.27-.1-.1-.16-.24-.17-.38-.01-.19.05-.37.15-.53.1-.16.23-.29.34-.45,0,0-.28-.08-.31-.09-.09-.03-.19-.08-.27-.13-.19-.11-.35-.26-.48-.43-.13-.18-.24-.41-.21-.64.03-.2.25-.36.4-.48.46-.38,1-.74,1.36-1.22.18-.24.32-.5.42-.78-.04,0-.08-.01-.12-.02-.19-.05-.37-.15-.46-.32.12.08.27.13.42.13.08,0,.16-.01.23-.04,0-.03.01-.05.02-.08-.16,0-.32-.04-.46-.12-.19-.11-.34-.29-.37-.5.11.19.31.32.53.36.12.02.25,0,.37-.04.01-.08.02-.16.03-.25.11-1.29-.31-2.61-.11-3.89,0,0,0-.01,0-.02.15-.89.66-1.69,1.4-2.21-.09,2.07.61,4.14,1.93,5.7.41.49.89.93,1.41,1.3.51.37,1.05.68,1.58.98.53.3,1.06.58,1.57.9.51.31.98.65,1.42,1.04,1.75,1.57,2.9,3.84,3.09,6.22.13,1.67-.21,3.38-.95,4.9Zm-.56-14.09c.66-.11,1.31-.27,1.97-.41.66-.14,1.32-.28,2-.36.67-.08,1.36-.11,2.04-.04.68.07,1.34.26,1.95.57.2.1.38.22.56.35-.09-.39-.21-.78-.34-1.16-.66-.36-1.37-.63-2.09-.82-1.75-.46-3.57-.49-5.38-.66-.91-.09-1.81-.21-2.71-.43-.89-.22-1.77-.55-2.57-1.03-.8-.49-1.5-1.15-2.01-1.95-.26-.4-.46-.83-.6-1.29-.08-.27-.14-.56-.17-.84-.33.13-.65.28-.96.44-.18.91-.18,1.86,0,2.78.23,1.11.69,2.19,1.41,3.09.35.45.76.85,1.21,1.21,0,0,0,0,0,0,.37.29.8.47,1.25.55.8.15,1.63.22,2.45.21.66-.01,1.32-.08,1.98-.19Zm-4.35-4.36c.74.48,1.57.81,2.43,1.05.86.24,1.75.38,2.65.49,1.79.22,3.63.3,5.39.81.7.2,1.38.48,2.01.84-.47-1.31-1.17-2.51-2.05-3.55-.96-.31-1.95-.53-2.91-.87-.54-.19-1.07-.41-1.56-.71-.5-.29-.96-.66-1.36-1.08-.38-.4-.7-.85-.95-1.34-.16-.03-.32-.06-.49-.08-.57-.09-1.16-.13-1.75-.13-1.36,0-2.66.23-3.87.65.02.72.26,1.45.65,2.08.45.74,1.08,1.38,1.82,1.85Zm6.14-2.25c.46.3.96.54,1.48.74.85.34,1.73.59,2.61.9-1.55-1.75-3.61-3.04-5.96-3.63.18.33.4.63.64.92.35.41.77.77,1.23,1.07Zm3.87,8.93c-.48.04-.95.14-1.42.27-.93.25-1.85.62-2.85.79-.5.08-1.01.12-1.52.06-.11-.01-.22-.03-.32-.05,1.34,1.64,2.14,3.69,2.22,5.78.06,1.69-.33,3.39-1.11,4.88.09-.03.18-.06.27-.09.17-.16.32-.34.45-.53.17-.24.31-.5.43-.78.24-.55.39-1.14.49-1.75.11-.61.18-1.23.28-1.85.1-.62.24-1.25.47-1.85.23-.6.56-1.16,1.03-1.61.46-.45,1.03-.77,1.65-.95.97-.28,2.03-.13,2.89.35.12-.65.19-1.32.2-2.01-.54-.29-1.13-.49-1.73-.6-.48-.09-.96-.11-1.44-.07Zm2.86-2.16c-.19-.13-.4-.25-.61-.35-.61-.29-1.27-.44-1.93-.49-.67-.05-1.34,0-1.99.11-.66.1-1.31.26-1.96.43-.65.17-1.3.34-1.97.48-.67.14-1.35.24-2.03.27-.67.03-1.35.02-2.02-.06.44.27.89.54,1.32.83.39.26.76.54,1.11.85.42.37.93.62,1.49.71,0,0,0,0,.01,0,.45.07.93.06,1.4.01.94-.11,1.87-.43,2.84-.64.48-.11.97-.19,1.47-.21.5-.02,1,.03,1.48.14.6.13,1.17.36,1.7.67,0,0,0,0,0,0,0-.95-.1-1.87-.3-2.76Zm-2.75,4.61c-.58.19-1.12.52-1.54.96-.42.44-.71.99-.91,1.56-.4,1.16-.43,2.41-.6,3.67-.09.63-.22,1.26-.46,1.87-.1.24-.21.48-.35.72.58-.26,1.13-.57,1.66-.92,2.58-1.72,4.45-4.44,5.04-7.61-.88-.45-1.92-.56-2.85-.25Z"/>
    </g>
  </g>
</svg>