<?xml version="1.0" encoding="UTF-8"?>
<svg id="Layer_2" data-name="Layer 2" xmlns="http://www.w3.org/2000/svg" xmlns:xlink="http://www.w3.org/1999/xlink" viewBox="0 0 120.27 261.11">
  <defs>
    <style>
      .cls-1 {
        font-size: 6.77px;
      }

      .cls-1, .cls-2, .cls-3 {
        font-family: OpenSans, 'Open Sans';
      }

      .cls-1, .cls-4 {
        fill: #bc6cbc;
      }

      .cls-5, .cls-6, .cls-7 {
        fill: #a3008c;
      }

      .cls-5, .cls-3 {
        opacity: .6;
      }

      .cls-8 {
        font-family: KristenITC-Regular, 'Kristen ITC';
        font-size: 16px;
      }

      .cls-8, .cls-2 {
        fill: #fff;
      }

      .cls-9 {
        fill: #87007a;
      }

      .cls-10 {
        clip-path: url(#clippath);
      }

      .cls-2 {
        font-size: 9.62px;
      }

      .cls-6 {
        opacity: .8;
      }

      .cls-3 {
        fill: #1c1c1c;
        font-size: 7.48px;
      }
    </style>
    <clipPath id="clippath">
      <path class="cls-6" d="m34.21,170.91c3.74.91,22.01.73,23.14.75,0,0,.52.01,1.41.01.89,0,1.41,0,1.41,0,0,0,19.4.16,23.14-.75,18.15-4.44,21.14-19.24,20.67-26.78-.55-8.79-1.36-18.89-2.43-28.88-2.37-22.19-5.98-43.88-10.68-49.76-3.86-4.83-23.71-7.08-37.7-6.53-8.64.36-22.67,1.7-26.52,6.53-4.69,5.88-8.31,27.58-10.68,49.76-1.07,9.99-1.88,20.09-2.43,28.88-.47,7.55,2.52,22.35,20.67,26.78Z"/>
    </clipPath>
  </defs>
  <g id="OBJECTS">
    <g>
      <path class="cls-7" d="m106.52,42.05s-7.83-22.92-12.79-35.65c-1.48-3.81-6.03-2.84-8.16-3.46-12.66-3.67-38.19-4.16-51.61,0-2.12.66-6.67-.35-8.16,3.46-4.96,12.73-12.79,35.65-12.79,35.65h93.5Z"/>
      <path class="cls-4" d="m109.39,46.8c-.16-1.37-2.19-3.49-3.28-4.16-6.71-4.18-30.37-5.83-30.37-5.83l-15.61.27-15.61-.27s-23.66,1.65-30.37,5.83c-1.09.68-3.12,2.8-3.28,4.16C6.09,88.72-1.6,154.83.29,202.82c1.51,38.31,12.6,48.03,19.41,53.58,1.73,1.41,5.94,2.97,8.07,3.33,7.98,1.36,32.26,1.39,32.26,1.39h.21s24.29-.03,32.26-1.39c2.13-.36,6.33-1.92,8.07-3.33,6.81-5.55,17.89-15.27,19.41-53.58,1.89-47.98-5.8-114.1-10.59-156.02Z"/>
      <g>
        <path class="cls-6" d="m34.21,170.91c3.74.91,22.01.73,23.14.75,0,0,.52.01,1.41.01.89,0,1.41,0,1.41,0,0,0,19.4.16,23.14-.75,18.15-4.44,21.14-19.24,20.67-26.78-.55-8.79-1.36-18.89-2.43-28.88-2.37-22.19-5.98-43.88-10.68-49.76-3.86-4.83-23.71-7.08-37.7-6.53-8.64.36-22.67,1.7-26.52,6.53-4.69,5.88-8.31,27.58-10.68,49.76-1.07,9.99-1.88,20.09-2.43,28.88-.47,7.55,2.52,22.35,20.67,26.78Z"/>
        <g class="cls-10">
          <path class="cls-5" d="m47.23,176.15c4.07,1,23.98.8,25.22.81,0,0,.57.02,1.53.01.97,0,1.53,0,1.53,0,0,0,21.14.18,25.22-.82,19.77-4.83,23.03-20.96,22.52-29.19-.6-9.58-1.49-20.58-2.65-31.47-2.58-24.18-6.52-47.82-11.63-54.23-4.2-5.27-25.84-7.71-41.08-7.12-9.41.39-24.7,1.85-28.9,7.12-5.11,6.41-9.05,30.05-11.63,54.23-1.16,10.89-2.05,21.89-2.65,31.47-.51,8.22,2.75,24.35,22.52,29.19Z"/>
        </g>
      </g>
      <text class="cls-8" transform="translate(21.67 133.79)"><tspan x="0" y="0">BOUNCY</tspan></text>
      <text class="cls-2" transform="translate(37.8 111.34)"><tspan x="0" y="0">Shampoo</tspan></text>
      <text class="cls-3" transform="translate(45.9 216.12)"><tspan x="0" y="0">100 ml</tspan></text>
      <text class="cls-1" transform="translate(37.27 157.91)"><tspan x="0" y="0">100% natural</tspan></text>
      <path class="cls-9" d="m61.12,29.01c12.24,0,22.16-3.71,22.16-8.28,0-.03,0-.06,0-.08h-44.31s0,.06,0,.08c0,4.57,9.92,8.28,22.16,8.28Z"/>
    </g>
  </g>
</svg>