<?xml version="1.0" encoding="UTF-8"?>
<svg id="Layer_2" data-name="Layer 2" xmlns="http://www.w3.org/2000/svg" xmlns:xlink="http://www.w3.org/1999/xlink" viewBox="0 0 126.5 270.29">
  <defs>
    <style>
      .cls-1 {
        font-size: 9px;
      }

      .cls-1, .cls-2 {
        fill: #fff;
      }

      .cls-1, .cls-2, .cls-3 {
        font-family: OpenSans, 'Open Sans';
      }

      .cls-2 {
        font-size: 7px;
      }

      .cls-4 {
        fill: #bfbc4b;
      }

      .cls-5, .cls-6, .cls-7 {
        fill: #1c1c1c;
      }

      .cls-6 {
        opacity: .6;
      }

      .cls-8, .cls-9, .cls-3 {
        fill: #dddd6b;
      }

      .cls-10 {
        clip-path: url(#clippath);
      }

      .cls-9 {
        font-family: Harrington, Harrington;
        font-size: 28px;
      }

      .cls-3 {
        font-size: 6.33px;
      }

      .cls-7 {
        opacity: .8;
      }
    </style>
    <clipPath id="clippath">
      <path class="cls-7" d="m35.98,251.27c3.93,1.42,23.15,1.14,24.34,1.16,0,0,.55.02,1.48.02.94,0,1.48,0,1.48,0,0,0,20.41.25,24.34-1.17,19.09-6.89,22.23-29.89,21.74-41.62-.58-13.67-1.43-29.35-2.56-44.88-2.49-34.48-6.29-68.19-11.23-77.33-4.06-7.51-24.94-11-39.66-10.15-9.09.56-23.84,2.64-27.9,10.15-4.93,9.14-8.74,42.85-11.23,77.33-1.12,15.53-1.98,31.21-2.56,44.88-.49,11.73,2.65,34.73,21.74,41.62Z"/>
    </clipPath>
  </defs>
  <g id="OBJECTS">
    <g>
      <path class="cls-8" d="m115.05,65.64c-.16-1.31-2.3-3.33-3.45-3.98-7.06-3.99-31.94-5.57-31.94-5.57l-16.41.26-16.41-.26s-24.89,1.58-31.94,5.57c-1.15.65-3.28,2.67-3.45,3.98C6.41,105.67-1.68,168.8.31,214.62c1.59,36.58,13.25,45.86,20.41,51.16,1.82,1.35,6.24,2.83,8.48,3.18,8.39,1.3,33.93,1.33,33.93,1.33h.22s25.54-.03,33.93-1.33c2.24-.35,6.66-1.83,8.48-3.18,7.16-5.3,18.82-14.58,20.41-51.16,1.99-45.82-6.1-108.95-11.13-148.98Z"/>
      <g>
        <path class="cls-7" d="m35.98,251.27c3.93,1.42,23.15,1.14,24.34,1.16,0,0,.55.02,1.48.02.94,0,1.48,0,1.48,0,0,0,20.41.25,24.34-1.17,19.09-6.89,22.23-29.89,21.74-41.62-.58-13.67-1.43-29.35-2.56-44.88-2.49-34.48-6.29-68.19-11.23-77.33-4.06-7.51-24.94-11-39.66-10.15-9.09.56-23.84,2.64-27.9,10.15-4.93,9.14-8.74,42.85-11.23,77.33-1.12,15.53-1.98,31.21-2.56,44.88-.49,11.73,2.65,34.73,21.74,41.62Z"/>
        <g class="cls-10">
          <path class="cls-6" d="m49.68,259.41c4.28,1.55,25.22,1.24,26.53,1.26,0,0,.59.02,1.61.02,1.02,0,1.61,0,1.61,0,0,0,22.24.27,26.53-1.27,20.8-7.51,24.23-32.57,23.69-45.35-.63-14.89-1.56-31.98-2.79-48.91-2.72-37.57-6.86-74.31-12.24-84.27-4.42-8.19-27.18-11.99-43.21-11.06-9.9.61-25.98,2.87-30.4,11.06-5.38,9.96-9.52,46.69-12.24,84.27-1.22,16.92-2.16,34.01-2.79,48.91-.54,12.78,2.89,37.84,23.69,45.35Z"/>
        </g>
      </g>
      <path class="cls-5" d="m84.7,28.06v30.62s-6.92,3.15-21.37,3.25c-12.95.09-21.37-3.25-21.37-3.25v-30.62h42.75Z"/>
      <ellipse class="cls-8" cx="63.33" cy="28.06" rx="21.37" ry="2.58"/>
      <path class="cls-4" d="m77.15,18.32v8.15c0,.82-6.28,1.49-14.02,1.49s-14.02-.67-14.02-1.49v-8.15h28.03Z"/>
      <ellipse class="cls-8" cx="63.13" cy="18.21" rx="14.02" ry="1.66"/>
      <path class="cls-8" d="m16.23.09c.23-.05.48-.09.73-.09h59.75c1.78,0,3.23,1.45,3.23,3.23s-1.45,3.23-3.23,3.23h-5.72v10.79c0,.5-3.64.91-8.14.91s-8.14-.41-8.14-.91h-.03v-3.15c-5.02-1.12-28.41-6.17-36.85-5.14-1.83.22-6.82,2.76-6.82,2.76l-4.05-6.35S15.83.18,16.23.09Z"/>
      <path class="cls-8" d="m8.13,9.11c1.14,1.74,2.46,2.89,2.97,2.57s0-2.01-1.14-3.75c-1.14-1.74-2.46-2.89-2.97-2.57s0,2.01,1.14,3.75Z"/>
      <text class="cls-9" transform="translate(26.98 147.67)"><tspan x="0" y="0">Shiny</tspan></text>
      <text class="cls-1" transform="translate(41.76 118.67)"><tspan x="0" y="0">Shampoo</tspan></text>
      <text class="cls-2" transform="translate(50.82 225.67)"><tspan x="0" y="0">100 ml</tspan></text>
      <text class="cls-3" transform="translate(42.38 179.23)"><tspan x="0" y="0">100% natural</tspan></text>
    </g>
  </g>
</svg>