<?xml version="1.0" encoding="UTF-8"?>
<svg id="Layer_2" data-name="Layer 2" xmlns="http://www.w3.org/2000/svg" xmlns:xlink="http://www.w3.org/1999/xlink" viewBox="0 0 88.76 282.1">
  <defs>
    <style>
      .cls-1, .cls-2, .cls-3, .cls-4, .cls-5 {
        fill: #fff;
      }

      .cls-2 {
        font-size: 9px;
      }

      .cls-2, .cls-3 {
        font-family: OpenSans, 'Open Sans';
      }

      .cls-3 {
        font-size: 7px;
      }

      .cls-6 {
        opacity: .5;
      }

      .cls-6, .cls-7, .cls-8 {
        fill: #44784e;
      }

      .cls-4 {
        font-family: OpenSans-Extrabold, 'Open Sans';
        font-size: 32px;
      }

      .cls-4, .cls-5 {
        font-weight: 700;
      }

      .cls-9 {
        fill: #e55a6b;
      }

      .cls-10 {
        fill: #d84d5d;
      }

      .cls-11 {
        clip-path: url(#clippath-2);
      }

      .cls-12 {
        fill: #d8485a;
      }

      .cls-7 {
        opacity: .6;
      }

      .cls-13 {
        clip-path: url(#clippath-1);
      }

      .cls-5 {
        font-family: OpenSans-Bold, 'Open Sans';
        font-size: 12px;
      }

      .cls-14 {
        clip-path: url(#clippath-4);
      }

      .cls-15 {
        fill: #8bc396;
      }

      .cls-16 {
        fill: #d99196;
      }

      .cls-17 {
        fill: #84bf8f;
      }

      .cls-18 {
        clip-path: url(#clippath);
      }

      .cls-19 {
        clip-path: url(#clippath-3);
      }

      .cls-20 {
        clip-path: url(#clippath-5);
      }

      .cls-8 {
        opacity: .7;
      }
    </style>
    <clipPath id="clippath">
      <path class="cls-9" d="m72.28,276.07V60.59H0v216.09h.01c.29,3,16.39,5.42,36.21,5.42s36.22-2.46,36.22-5.5c0-.17-.06-.35-.16-.52Z"/>
    </clipPath>
    <clipPath id="clippath-1">
      <path class="cls-12" d="m106.1,241.68c-47.45,37.05-142.44,9.34-142.44,9.34l1.57-122.2s56.87,26.09,148.2,1.91c29.53-7.82,16.76,92.15-7.33,110.95Z"/>
    </clipPath>
    <clipPath id="clippath-2">
      <path class="cls-17" d="m33.79,274.85c-5.19-22.62-42.88-45.62-42.88-45.62,0,0,32.5,7.84,39.63,15.26.95.99.56,4.16,1.57,5.1.94.87,4.14.02,5.27.67.96.55.98,3.12,1.81,3.83.69.6,2.84.44,3.66.87,1.59.83,5.24,4.7,5.24,4.7l15.03,17.07s-27.81,4.77-29.34-1.88Z"/>
    </clipPath>
    <clipPath id="clippath-3">
      <path class="cls-15" d="m97.3,232.87c-18.01-59.12-62.86-81.85-62.86-81.85,0,0,23.22,1.75,42.1,17.24,1.01.83,4.37-.05,5.39.78,1.04.85-.26,4.21.67,5.16.93.95,4.47-.69,5.58.07,1.15.79-.36,4.31.53,5.35.82.96,4.2-.2,5.32.46,1.31.78,1.04,4.32,1.84,5.56,19.67,30.56,48.89,55.43,48.89,55.43,0,0-40.84,13.5-47.45-8.21Z"/>
    </clipPath>
    <clipPath id="clippath-4">
      <path class="cls-17" d="m78.72,264.31C66.4,204.84-1.5,182.16-1.5,182.16c0,0,40.24-9.69,72.93,17.98.99.84,4.27.44,5.16,1.36.92.94-.76,4.08.03,5.12.79,1.03,4.45-.18,5.44.69,1.03.9-.87,4.18-.12,5.29.69,1.03,4.12.27,5.13,1.05,1.18.91.64,4.28,1.13,5.64,4.39,12.04,37.86,42.95,37.86,42.95,0,0-45.3,11.94-47.35,2.08Z"/>
    </clipPath>
    <clipPath id="clippath-5">
      <path class="cls-15" d="m69.86,289.39c-17.63-55.59-60.19-76.55-60.19-76.55,0,0,21.92,1.4,39.91,15.81.96.77,4.12-.09,5.09.68.99.79-.2,3.97.68,4.86.88.89,4.21-.7,5.27,0,1.1.73-.29,4.07.56,5.05.79.9,3.97-.24,5.02.38,1.24.73,1.02,4.06,1.79,5.23,18.89,28.62,46.73,51.77,46.73,51.77,0,0-38.39,13.18-44.86-7.23Z"/>
    </clipPath>
  </defs>
  <g id="OBJECTS">
    <g>
      <g>
        <path class="cls-9" d="m72.28,276.07V60.59H0v216.09h.01c.29,3,16.39,5.42,36.21,5.42s36.22-2.46,36.22-5.5c0-.17-.06-.35-.16-.52Z"/>
        <g class="cls-18">
          <g>
            <path class="cls-12" d="m106.1,241.68c-47.45,37.05-142.44,9.34-142.44,9.34l1.57-122.2s56.87,26.09,148.2,1.91c29.53-7.82,16.76,92.15-7.33,110.95Z"/>
            <g class="cls-13">
              <g>
                <g>
                  <path class="cls-17" d="m33.79,274.85c-5.19-22.62-42.88-45.62-42.88-45.62,0,0,32.5,7.84,39.63,15.26.95.99.56,4.16,1.57,5.1.94.87,4.14.02,5.27.67.96.55.98,3.12,1.81,3.83.69.6,2.84.44,3.66.87,1.59.83,5.24,4.7,5.24,4.7l15.03,17.07s-27.81,4.77-29.34-1.88Z"/>
                  <g class="cls-11">
                    <path class="cls-6" d="m-24.22,229.29c18.64-10.74,75.6,37.87,83.88,61.79,4.15,12.01-61.53-6.6-61.53-6.6,0,0-36.14-47.25-22.35-55.19Z"/>
                  </g>
                </g>
                <g>
                  <path class="cls-15" d="m97.3,232.87c-18.01-59.12-62.86-81.85-62.86-81.85,0,0,23.22,1.75,42.1,17.24,1.01.83,4.37-.05,5.39.78,1.04.85-.26,4.21.67,5.16.93.95,4.47-.69,5.58.07,1.15.79-.36,4.31.53,5.35.82.96,4.2-.2,5.32.46,1.31.78,1.04,4.32,1.84,5.56,19.67,30.56,48.89,55.43,48.89,55.43,0,0-40.84,13.5-47.45-8.21Z"/>
                  <g class="cls-19">
                    <path class="cls-7" d="m22.41,152.57c22.94-17.01,108.02,75.88,109.22,120.17.2,7.26-71.97-25.2-71.97-25.2,0,0-58.55-79.18-37.25-94.97Z"/>
                  </g>
                </g>
                <g>
                  <path class="cls-17" d="m78.72,264.31C66.4,204.84-1.5,182.16-1.5,182.16c0,0,40.24-9.69,72.93,17.98.99.84,4.27.44,5.16,1.36.92.94-.76,4.08.03,5.12.79,1.03,4.45-.18,5.44.69,1.03.9-.87,4.18-.12,5.29.69,1.03,4.12.27,5.13,1.05,1.18.91.64,4.28,1.13,5.64,4.39,12.04,37.86,42.95,37.86,42.95,0,0-45.3,11.94-47.35,2.08Z"/>
                  <g class="cls-14">
                    <path class="cls-8" d="m-7.18,182.99c41.4-9.6,96.51,52.07,107.41,88.28,2.06,6.84-54.7,4.48-54.7,4.48,0,0-78.51-86.78-52.71-92.76Z"/>
                  </g>
                </g>
                <g>
                  <path class="cls-15" d="m69.86,289.39c-17.63-55.59-60.19-76.55-60.19-76.55,0,0,21.92,1.4,39.91,15.81.96.77,4.12-.09,5.09.68.99.79-.2,3.97.68,4.86.88.89,4.21-.7,5.27,0,1.1.73-.29,4.07.56,5.05.79.9,3.97-.24,5.02.38,1.24.73,1.02,4.06,1.79,5.23,18.89,28.62,46.73,51.77,46.73,51.77,0,0-38.39,13.18-44.86-7.23Z"/>
                  <g class="cls-20">
                    <path class="cls-7" d="m-1.67,214.43c21.46-16.3,102.74,70.43,104.35,112.21.26,6.85-68.18-23-68.18-23,0,0-56.1-74.08-36.17-89.21Z"/>
                  </g>
                </g>
              </g>
            </g>
          </g>
        </g>
      </g>
      <path class="cls-16" d="m72.28,60.4c0,3.4-16.18,6.16-36.14,6.16S0,63.8,0,60.4s16.18-6.16,36.14-6.16,36.14,2.76,36.14,6.16Z"/>
      <text class="cls-4" transform="translate(31.58 246.32) rotate(-90)"><tspan x="0" y="0">Silky</tspan></text>
      <text class="cls-5" transform="translate(55.87 244.9) rotate(-90)"><tspan x="0" y="0">Organic</tspan></text>
      <rect class="cls-1" x="43.42" y="147.15" width=".98" height="110.2"/>
      <text class="cls-2" transform="translate(15.25 91.13)"><tspan x="0" y="0">Shampoo</tspan></text>
      <text class="cls-3" transform="translate(15.82 273.13)"><tspan x="0" y="0">100 ml</tspan></text>
      <path class="cls-10" d="m14.15,28.06v30.62s6.92,3.15,21.37,3.25c12.95.09,21.37-3.25,21.37-3.25v-30.62H14.15Z"/>
      <ellipse class="cls-16" cx="35.52" cy="28.06" rx="21.37" ry="2.58"/>
      <path class="cls-10" d="m21.7,18.32v8.15c0,.82,6.28,1.49,14.02,1.49s14.02-.67,14.02-1.49v-8.15h-28.03Z"/>
      <ellipse class="cls-16" cx="35.72" cy="18.21" rx="14.02" ry="1.66"/>
      <path class="cls-16" d="m82.62.09C82.39.04,82.15,0,81.9,0H22.31c-1.59,0-3.05,1.07-3.33,2.63-.37,2.05,1.19,3.83,3.18,3.83h5.72v10.79c0,.5,3.64.91,8.14.91s8.14-.41,8.14-.91h.03v-3.15c5.02-1.12,28.41-6.17,36.85-5.14.92.11,3.66-.79,6.16-1.72,1.93-.72,2.15-4.37.36-5.4-2.31-1.33-4.72-1.71-4.92-1.75Z"/>
    </g>
  </g>
</svg>