<?xml version="1.0" encoding="UTF-8"?>
<svg id="Layer_2" data-name="Layer 2" xmlns="http://www.w3.org/2000/svg" viewBox="0 0 112.02 265.92">
  <defs>
    <style>
      .cls-1, .cls-2 {
        fill: #99c29f;
      }

      .cls-3 {
        opacity: .5;
      }

      .cls-3, .cls-4 {
        fill: #344930;
      }

      .cls-5 {
        font-size: 9px;
      }

      .cls-5, .cls-6, .cls-7 {
        fill: #fff;
      }

      .cls-5, .cls-6, .cls-8 {
        font-family: OpenSans, 'Open Sans';
      }

      .cls-6 {
        font-size: 7px;
      }

      .cls-2 {
        opacity: .8;
      }

      .cls-7 {
        font-family: KunstlerScript, 'Kunstler Script';
        font-size: 39px;
      }

      .cls-9 {
        fill: #739277;
        opacity: .4;
      }

      .cls-8 {
        fill: #304432;
        font-size: 6.33px;
      }
    </style>
  </defs>
  <g id="OBJECTS">
    <g>
      <path class="cls-1" d="m108.23,62.88s-5.07-23.8-8.53-37.66c-1.05-4.21-7.19-6.03-7.19-6.03l-22.88-8.24v-.02s-1.79-.62-1.79-.62l-1.8-.65v.02S41.34,1.12,41.34,1.12c0,0-7.15-2.91-8.95.67-6.02,11.97-15.65,33.89-15.65,33.89l91.49,27.2Z"/>
      <path class="cls-4" d="m108.24,63.43c-.51-2.7-30.86-12.11-41.14-15.23h0s-.57-.18-1.59-.48c-1.02-.31-1.6-.48-1.6-.48h0c-10.68-3.18-46.24-13.54-47.27-10.97C-5.35,91.24-1.37,195.97,5.1,261.25c.15,1.54,4.39,3.23,6.27,3.53,9.41,1.51,69.18,1.48,77.16.11,1.56-.27,5.1-1.75,5.38-3.11,11.61-56.37,24.72-143.35,14.32-198.35Z"/>
      <path class="cls-9" d="m68.23,38.48c11.03.12,18.96-3.27,17.99-7.58,0-.03-.01-.93-.02-.96h-40.82s0,.07.02.1c1.11,4.55,11.48,8.32,22.83,8.44Z"/>
      <rect class="cls-2" x="17.27" y="81.45" width="70" height="113.33" rx="35" ry="35"/>
      <text class="cls-7" transform="translate(8.54 138.61)"><tspan x="0" y="0">Wavy</tspan></text>
      <text class="cls-5" transform="translate(32.12 158.61)"><tspan x="0" y="0">Shampoo</tspan></text>
      <text class="cls-6" transform="translate(39.69 225.61)"><tspan x="0" y="0">100 ml</tspan></text>
      <text class="cls-8" transform="translate(31.62 171.17)"><tspan x="0" y="0">100% natural</tspan></text>
      <polygon class="cls-3" points="101.17 31.44 18.6 31.44 19.31 29.88 100.86 29.96 101.17 31.44"/>
    </g>
  </g>
</svg>