<?xml version="1.0" encoding="UTF-8"?>
<svg id="Layer_2" data-name="Layer 2" xmlns="http://www.w3.org/2000/svg" xmlns:xlink="http://www.w3.org/1999/xlink" viewBox="0 0 171.03 269.39">
  <defs>
    <style>
      .cls-1 {
        fill: #cfcce5;
      }

      .cls-2, .cls-3 {
        fill: #fff;
      }

      .cls-4 {
        fill: #e9e7f2;
      }

      .cls-5 {
        font-size: 9px;
      }

      .cls-5, .cls-6, .cls-7, .cls-8 {
        fill: #c2bfdd;
      }

      .cls-5, .cls-6, .cls-9 {
        font-family: OpenSans, 'Open Sans';
      }

      .cls-6 {
        font-size: 6.33px;
      }

      .cls-7 {
        font-family: Broadway, Broadway;
        font-size: 19px;
      }

      .cls-10 {
        clip-path: url(#clippath);
      }

      .cls-3 {
        opacity: .2;
      }

      .cls-9 {
        fill: #606060;
        font-size: 7px;
      }
    </style>
    <clipPath id="clippath">
      <path class="cls-2" d="m119.52,235.78c0,2.93-2.69,5.3-6,5.3h-56c-3.31,0-6-2.37-6-5.3v-19.89c0-2.93,2.69-5.3,6-5.3h56c3.31,0,6,2.37,6,5.3v19.89Z"/>
    </clipPath>
  </defs>
  <g id="OBJECTS">
    <g>
      <path class="cls-4" d="m154.33,38.06c-1.22-2.54-50.64-4.84-66.42-4.86h-4.8c-15.78.03-65.2,2.32-66.42,4.86C-9.5,92.66-.02,194.06,12.34,264.13c.31,1.73,6.63,3.62,9.45,3.97,14.28,1.73,113.19,1.73,127.46,0,2.82-.34,9.14-2.23,9.45-3.97,12.35-70.07,21.83-171.47-4.36-226.06Z"/>
      <ellipse class="cls-2" cx="85.52" cy="128.94" rx="58.96" ry="73.83"/>
      <path class="cls-2" d="m110.99,37.51c8.02,0,13.69-7.84,11.17-15.45-2.09-6.32-4.47-13.35-6.37-18.59-1.32-3.64-7.27-3.3-7.27-3.3L87.14.02v-.02s-1.62.01-1.62.01h-1.62s0,.01,0,.01l-21.38.14s-5.95-.33-7.27,3.3c-1.9,5.23-4.28,12.27-6.37,18.59-2.52,7.61,3.15,15.45,11.17,15.45h50.95Z"/>
      <polygon class="cls-4" points="120.87 18.18 50.16 18.18 50.7 16.58 120.34 16.58 120.87 18.18"/>
      <path class="cls-1" d="m85.52,6.83c-9.64,0-17.47,4.34-17.56,9.72h35.13c-.1-5.38-7.92-9.72-17.56-9.72Z"/>
      <path class="cls-4" d="m85.52,26.08c9.7,0,17.57-3.47,17.57-7.74,0-.03,0-.05,0-.08h-35.13s0,.05,0,.08c0,4.28,7.87,7.74,17.57,7.74Z"/>
      <g>
        <path class="cls-2" d="m119.52,235.78c0,2.93-2.69,5.3-6,5.3h-56c-3.31,0-6-2.37-6-5.3v-19.89c0-2.93,2.69-5.3,6-5.3h56c3.31,0,6,2.37,6,5.3v19.89Z"/>
        <g class="cls-10">
          <ellipse class="cls-3" cx="117.85" cy="230.58" rx="39.67" ry="30.33"/>
        </g>
      </g>
      <text class="cls-7" transform="translate(78.69 125.08)"><tspan x="0" y="0">x</tspan></text>
      <text class="cls-5" transform="translate(65.4 142.08)"><tspan x="0" y="0">Shampoo</tspan></text>
      <rect class="cls-8" x="58.64" y="129.33" width="53.75" height="1"/>
      <text class="cls-9" transform="translate(79.97 229.08)"><tspan x="0" y="0">1ltr</tspan></text>
      <text class="cls-6" transform="translate(66.03 174.64)"><tspan x="0" y="0">100% natural</tspan></text>
    </g>
  </g>
</svg>