<?xml version="1.0" encoding="UTF-8"?>
<svg id="Layer_2" data-name="Layer 2" xmlns="http://www.w3.org/2000/svg" xmlns:xlink="http://www.w3.org/1999/xlink" viewBox="0 0 293 292">
  <defs>
    <style>
      .cls-1 {
        fill: #287056;
      }

      .cls-2, .cls-3 {
        fill: #fff;
      }

      .cls-4 {
        fill: #f9ead9;
      }

      .cls-5 {
        fill: #6d2931;
      }

      .cls-3 {
        filter: url(#drop-shadow-1);
      }

      .cls-6 {
        fill: #591e26;
      }

      .cls-7 {
        fill: #99a6d6;
      }

      .cls-8 {
        fill: #eea489;
      }

      .cls-9 {
        clip-path: url(#clippath);
      }

      .cls-10 {
        fill: none;
      }

      .cls-11 {
        fill: #fed0b9;
      }

      .cls-12 {
        fill: #3e8a72;
      }

      .cls-13 {
        fill: #35231f;
      }

      .cls-14 {
        fill: #db8a75;
      }
    </style>
    <filter id="drop-shadow-1" filterUnits="userSpaceOnUse">
      <feOffset dx="3" dy="3"/>
      <feGaussianBlur result="blur" stdDeviation="5"/>
      <feFlood flood-color="#000" flood-opacity=".42"/>
      <feComposite in2="blur" operator="in"/>
      <feComposite in="SourceGraphic"/>
    </filter>
    <clipPath id="clippath">
      <circle class="cls-10" cx="143.4" cy="143.22" r="112.77" transform="translate(-59.27 143.35) rotate(-45)"/>
    </clipPath>
  </defs>
  <g id="diverse_portrait_people_icons" data-name="diverse portrait people icons">
    <g>
      <circle class="cls-3" cx="143.44" cy="143.27" r="130.7"/>
      <g>
        <circle class="cls-4" cx="143.4" cy="143.4" r="112.77" transform="translate(-59.4 143.4) rotate(-45)"/>
        <g class="cls-9">
          <g>
            <path class="cls-7" d="m194.99,204.25l-.02,7.27-.02,5.03-.1,36.18v1.9l-.07,23.38v.55c-.11.06-.23.12-.35.18-6.75,3.44-13.81,6.41-21.14,8.66-11.1,3.42-22.76,5.18-34.71,4.42-6.94-.45-13.65-1.53-20.09-3.11-1.35-.33-2.7-.68-4.03-1.06-5.85-1.65-11.48-3.69-16.85-6.03-4.75-2.06-9.31-4.35-13.65-6.79.38-14.08.73-26.83,1.01-36.81.26-9.87.46-17.02.55-20.03.03-1.04.04-1.59.04-1.59l2.14-1.37,16.86-10.83,2.51-1.61,2.04-1.31h.02s19.71-.62,19.71-.62l41.21-1.28,2.74.54,6.95,1.36h.05l2.92.57,12.26,2.4Z"/>
            <g>
              <path class="cls-5" d="m144.54,44.99s-8.1-6.89-12.97-5.67c-4.86,1.22-26.34,19.45-30.8,28.77-4.46,9.32-18.24,50.65-22.69,55.11-4.46,4.46-22.42,13.78-21.61,24.58.49,6.58,12.26,9.12,13.07,15.2.81,6.08-16.58,25.87-15.77,31.54.81,5.67,14.18,23.71,14.18,23.71l157.91-2.09s9.86-24.85,6.21-30.93c-3.65-6.08-18.64-21.88-19.86-25.93-1.22-4.05,8.1-13.37,6.89-18.64s-11.35-14.18-13.78-20.67c-2.43-6.48-8.1-42.95-12.97-51.87-4.86-8.92-29.18-29.58-34.04-29.58s-13.78,6.48-13.78,6.48Z"/>
              <path class="cls-6" d="m208.57,209.51s-113.06,17.83-120.76,5.68c-7.7-12.16-2.43-24.32,4.86-32.02,7.3-7.7,10.13-16.61,9.32-20.26-.81-3.64-10.95-5.27-11.35-10.54-.31-4.07,6.62-5.96,10.54-8.29,1.16-.69,2.06-1.41,2.43-2.25,1.62-3.64,0-9.32-1.62-14.99-.36-1.25-.28-2.9.06-4.71,1.19-6.38,5.61-14.74,5.61-14.74l73.34-7.3s1.29,10.43,2.48,20.4c.93,7.72,1.8,15.16,1.98,17.29.1,1.2.37,2.35.81,3.52,1.32,3.56,4.14,7.3,8.1,13.09,5.27,7.7-.4,14.99,1.22,19.45,1.62,4.45,2.43,6.88,8.91,13.78,6.49,6.89,4.06,21.88,4.06,21.88Z"/>
              <path class="cls-5" d="m63.08,227.45c-.46-.73-11.33-18.1-14.69-28.17-2.01-6.04,4.18-15.27,9.64-23.42,2.29-3.42,4.46-6.65,5.56-9.03,3.39-7.35-2.5-17.93-2.56-18.03l1.67-.95c.27.47,6.45,11.53,2.64,19.79-1.17,2.52-3.37,5.82-5.71,9.3-4.96,7.39-11.13,16.6-9.42,21.74,3.28,9.85,14.38,27.58,14.49,27.75l-1.63,1.02Z"/>
            </g>
            <g>
              <path class="cls-11" d="m182.9,201.28s-4.72,15.93-8.37,26.48c-3.64,10.54-20.26,33.63-20.26,33.63-30.39-13.98-48.9-57.41-48.9-57.41,0,0,9.46-7.02,10.54-13.24.15-.9.35-2.14.57-3.61.89-5.93,2.19-15.57,2.93-21.08.34-2.55.56-4.22.56-4.22l45.38,1.35s.44,5.58,1.26,11.95c.88,6.85,2.19,14.6,3.88,17.26,1.14,1.8,2.53,3.42,3.85,4.75,2.44,2.45,8.58,4.13,8.58,4.13Z"/>
              <path class="cls-8" d="m174.32,197.15v.41s-8.91,14.39-12.16,14.8c-3.24.4-19.04-.81-23.1-2.43-3.88-1.55-21.15-21.15-22.59-22.79.89-5.93,2.19-15.57,2.93-21.08.34-2.55.56-4.22.56-4.22l45.38,1.35s.44,5.58,1.26,11.95c.88,6.85,2.19,14.6,3.88,17.26,1.14,1.8,2.53,3.42,3.85,4.75Z"/>
            </g>
            <g>
              <path class="cls-12" d="m114.47,287.65c-5.85-1.65-11.48-3.69-16.85-6.03-4.75-2.06-9.31-4.35-13.65-6.79-19.23-10.82-34.35-24.61-44.06-34.81,4.14-6.61,10.61-13.49,17.09-17.94.79-.54,1.78-1.12,2.93-1.72,1.98-1.04,4.43-2.15,7.17-3.28,4.63-1.92,10.05-3.9,15.34-5.73.41-.14.81-.28,1.22-.41.58-.2,1.16-.4,1.73-.59,8.81-2.97,16.72-5.38,19.18-6.12.52-.15.79-.23.79-.23.95,2.74,1.98,7.6,2.97,13.72.09.56.19,1.13.28,1.71,2.31,14.81,4.47,36.03,5.39,52.63.33,5.97.51,11.35.46,15.6Z"/>
              <path class="cls-1" d="m120.22,280.83c-.16,1.36-.79,4.13-1.72,7.88-1.35-.33-2.7-.68-4.03-1.06-5.85-1.65-11.48-3.69-16.85-6.03-4.26-14.69-9.41-29.55-9.41-29.55l6.08-10.93-9.31-3.11-4.07-1.36c0-7.73.39-14.12.79-18.62.3-3.36.59-5.67.74-6.71.06-.42.09-.63.09-.63.87-.3,1.76-.61,2.66-.93,10.89-3.88,23.68-9.2,23.68-9.2.03.11.08.22.11.33.04.13.08.25.14.39,1.17,3.56,2.55,9.37,3.95,16.35.12.58.24,1.17.35,1.78,0,.03.02.07.02.1,4.07,20.81,8.07,50.46,6.77,61.32Z"/>
            </g>
            <g>
              <path class="cls-12" d="m249.31,237.03c-11.92,12.24-31.24,29.62-54.52,41.53-.11.06-.23.12-.35.18-6.75,3.44-13.81,6.41-21.14,8.66.03-.23.07-.46.1-.7.31-1.98.64-4,1-6.1.14-.8.28-1.6.41-2.43.04-.18.07-.35.1-.52.31-1.8.65-3.66,1.01-5.56.03-.18.07-.35.1-.54.17-.89.34-1.77.51-2.68.14-.73.29-1.47.43-2.21.18-.87.35-1.76.53-2.65.14-.67.27-1.34.41-2.03.23-1.12.46-2.28.72-3.45.12-.59.24-1.17.37-1.76.23-1.07.46-2.17.7-3.28.42-1.92.85-3.88,1.3-5.89.1-.38.2-.76.29-1.14.15-.62.3-1.25.42-1.87.1-.52.21-1.06.31-1.6.13-.74.25-1.5.35-2.25.12-.81.22-1.61.31-2.42.08-.76.16-1.51.21-2.27,0-.03,0-.05,0-.08.09-1.15.15-2.3.19-3.44.22-5.6-.1-11.04-.62-15.82-.14-1.19-.28-2.33-.43-3.43-.3-2.21-.64-4.22-.97-5.98-.5-2.69-.97-4.77-1.27-6.02-.14-.57-.24-.97-.3-1.17-.03-.09-.04-.14-.04-.14,0,0,11.58,3.39,22.31,5.69,2.25.49,4.5.99,6.65,1.49.14.03.26.06.39.09,5.86,1.34,10.98,2.66,13.52,3.68,1.44.58,2.97,1.42,4.55,2.45,8.68,5.69,18.66,17.24,22.42,23.65Z"/>
              <path class="cls-1" d="m194.86,252.73l-1.69.14,1.69,1.76,7.62,7.97s-3.51,6.79-7.69,15.41c-.12.25-.24.48-.35.73-6.75,3.44-13.81,6.41-21.14,8.66.03-.23.07-.46.1-.7.31-1.98.64-4,1-6.1.14-.8.28-1.6.41-2.43.04-.18.07-.35.1-.52.31-1.8.65-3.66,1.01-5.56.03-.18.07-.35.1-.54.17-.89.34-1.77.51-2.68.14-.73.29-1.47.43-2.21.18-.87.35-1.76.53-2.65.14-.67.27-1.34.41-2.03.23-1.13.47-2.28.72-3.45.12-.59.24-1.17.37-1.76.23-1.07.46-2.17.7-3.28.42-1.92.85-3.88,1.3-5.89.1-.38.2-.76.29-1.14.15-.62.3-1.25.42-1.87.1-.52.21-1.06.31-1.6.13-.74.25-1.5.35-2.25.12-.81.22-1.61.31-2.42.08-.76.16-1.51.21-2.27,0-.03,0-.05,0-.08.09-1.15.15-2.3.19-3.44.2-5.59-.13-11.04-.67-15.82-.14-1.19-.28-2.33-.43-3.43-.3-2.17-.63-4.15-.95-5.89-.51-2.71-.99-4.82-1.3-6.1-.13-.55-.24-.95-.3-1.18-.03-.12-.05-.19-.06-.22.57.13,28.06,6.45,29.03,7.27.02,0,.03.03.03.03.08.44.15.88.23,1.32.46,2.75.86,5.34,1.19,7.84,1.58,12.28,1.22,22.08-3.48,35.45l-11.55.94Z"/>
            </g>
            <g>
              <path class="cls-11" d="m181.55,105.75c-.03.64-.09,1.7-.17,3.1-.63,11.07-2.62,42.92-3.34,46.77-.81,4.34-14.59,20.06-17.83,21.69-3.24,1.62-16.21,1.9-19.99.81-3.78-1.08-20.8-13.28-24.45-18.56-3.46-5-7.63-47.17-8.07-51.65-.03-.25-.04-.39-.04-.39,1.21-4.47,9.73-7.32,13.37-11.79,3.64-4.47,8.91-16.87,13.37-21.34,4.46-4.47,13.37,3.66,13.37,3.66,0,0,5.68-4.2,10.27-4.47,4.59-.27,13.51,9.96,17.56,15.38,4.06,5.43,6.22,11.12,5.94,16.81Z"/>
              <path class="cls-8" d="m147.78,78.02s-10.13-2.84-11.34-1.01c-1.22,1.82-10.54,22.29-16.41,24.11-4.33,1.34-9.77,4.89-12.32,6.67-.03-.25-.04-.38-.04-.38,1.21-4.46,9.73-7.3,13.37-11.75,3.64-4.46,8.91-16.82,13.37-21.28,4.46-4.45,13.37,3.65,13.37,3.65Z"/>
              <path class="cls-8" d="m181.55,105.64c-.03.64-.09,1.69-.17,3.09-4.78-5.77-21.7-26.25-23.26-28.68-1.82-2.84-10.34-2.03-10.34-2.03,0,0,5.68-4.19,10.27-4.46,4.59-.27,13.51,9.93,17.56,15.33,4.06,5.41,6.22,11.08,5.94,16.75Z"/>
              <path class="cls-14" d="m157.91,140.37c-.42,0-.8-.28-.92-.7-.17-.58-4.08-14.29-4.49-17.57-.45-3.58,3.07-8.39,3.22-8.59.32-.43.92-.52,1.35-.2.43.32.52.92.2,1.35-.89,1.21-3.15,4.87-2.86,7.21.39,3.13,4.39,17.14,4.43,17.28.15.51-.15,1.04-.66,1.19-.09.03-.18.04-.26.04Z"/>
              <path class="cls-14" d="m150.42,144.02c-4.26,0-8.6-2.45-8.78-2.56-.46-.26-.62-.85-.36-1.31.26-.46.85-.62,1.31-.36.04.02,4.09,2.3,7.83,2.3s7.1-2.43,7.14-2.45c.43-.31,1.03-.21,1.34.22.31.43.21,1.03-.22,1.34-.16.12-3.95,2.82-8.26,2.82Z"/>
              <path class="cls-6" d="m139.68,107.2s-.61,3.34-3.24,3.95c-2.63.61-7.77.17-12.36-.64-3.24-.57-6.28-.47-6.28-.47,0,0,2.23-4.05,8.71-4.05s13.17,1.22,13.17,1.22Z"/>
              <path class="cls-6" d="m159.94,107.2s.55,3.34,2.94,3.95,7.05.17,11.22-.64c2.94-.57,5.7-.47,5.7-.47,0,0-2.02-4.05-7.91-4.05s-11.95,1.22-11.95,1.22Z"/>
              <path class="cls-13" d="m134,122.92c0,3.07-1.59,5.55-3.55,5.55s-3.55-2.49-3.55-5.55,1.59-5.55,3.55-5.55,3.55,2.48,3.55,5.55Z"/>
              <path class="cls-13" d="m127.18,129.03c-.45,0-.86-.32-.94-.79-.1-.52.25-1.03.77-1.12.52-.1,5.18-.93,7.47-.17.5.17.78.71.61,1.22-.17.5-.71.78-1.22.61-1.55-.52-5.22,0-6.51.24-.06.01-.12.02-.18.02Z"/>
              <path class="cls-13" d="m171.28,122.6c0,2.8-1.45,5.07-3.24,5.07s-3.24-2.27-3.24-5.07,1.45-5.07,3.24-5.07,3.24,2.27,3.24,5.07Z"/>
              <path class="cls-13" d="m164.63,128.18c-.45,0-.86-.32-.94-.79-.1-.52.25-1.03.77-1.12.52-.1,5.18-.93,7.47-.17.5.17.78.71.61,1.22-.17.5-.71.78-1.22.61-1.55-.52-5.22,0-6.51.24-.06.01-.12.02-.18.02Z"/>
              <path class="cls-14" d="m131.88,154.96c-.4,0-.77-.28-.85-.7-.45-2.25,1.26-3.99,1.33-4.06.34-.34.89-.34,1.22,0,.34.34.34.88,0,1.22-.03.03-1.12,1.18-.86,2.5.09.47-.21.93-.68,1.02-.06.01-.11.02-.17.02Z"/>
              <path class="cls-2" d="m163.62,151.79s-3.89,1.09-5.84,1.34c-1.95.24-14.71,0-16.41-.12-1.7-.12-9.24-.85-9.24-.85,0,0,6.44,5.96,8.39,6.93,1.95.97,14.47,1.46,17.39-.12s5.71-7.17,5.71-7.17Z"/>
              <path class="cls-8" d="m122.05,139.36c-.17,0-.35-.05-.51-.14l-4.25-2.63c-.45-.28-.59-.87-.31-1.33.28-.45.87-.59,1.32-.31l4.25,2.63c.45.28.59.87.31,1.33-.18.29-.5.46-.82.46Z"/>
              <path class="cls-8" d="m122.25,143.01c-.16,0-.33-.04-.48-.13l-7.29-4.25c-.46-.27-.61-.86-.35-1.32.27-.46.86-.61,1.32-.35l7.29,4.25c.46.27.61.86.35,1.32-.18.31-.5.48-.83.48Z"/>
              <path class="cls-8" d="m174.53,139.97c-.26,0-.53-.11-.72-.32-.35-.4-.32-1,.08-1.36l3.85-3.44c.4-.35,1-.32,1.36.08.35.4.32,1-.08,1.36l-3.85,3.44c-.18.16-.41.25-.64.25Z"/>
              <path class="cls-8" d="m173.72,144.22c-.25,0-.49-.09-.68-.28-.38-.38-.38-.99,0-1.36l5.27-5.27c.38-.38.99-.38,1.36,0,.38.38.38.99,0,1.36l-5.27,5.27c-.19.19-.43.28-.68.28Z"/>
              <path class="cls-14" d="m164.31,153.5s-.03,0-.04,0c-.48-.02-.85-.43-.82-.91.05-1-1.21-1.46-1.26-1.48-.45-.16-.69-.65-.53-1.1.16-.45.64-.69,1.1-.54.94.32,2.52,1.36,2.43,3.2-.02.46-.41.82-.86.82Z"/>
              <path class="cls-14" d="m143.59,166.44c-.43,0-.82-.29-.93-.72-.14-.51.17-1.04.69-1.18.33-.09,8.03-2.07,14.16-.26.51.15.8.69.65,1.2-.15.51-.69.8-1.2.65-5.62-1.66-13.05.26-13.12.28-.08.02-.16.03-.25.03Z"/>
              <path class="cls-14" d="m140.51,153.99c-3.05,0-7.91-.83-8.14-.87-.52-.09-.88-.59-.79-1.11.09-.52.59-.88,1.11-.79.06.01,5.98,1.02,8.59.81,2.69-.21,16.77-.4,18.14-.42l4-.78c.52-.1,1.03.24,1.13.76.1.52-.24,1.03-.76,1.13l-4.25.81c-.15,0-15.4.2-18.1.42-.28.02-.6.03-.93.03Z"/>
              <path class="cls-5" d="m185.14,106.8c-.21-.26-21.39-25.53-24.56-28.71-2.34-2.34-9.87-1.2-12.57-.55l-.44-1.87c1.1-.26,10.86-2.45,14.38,1.07,3.23,3.23,23.8,27.79,24.68,28.83l-1.48,1.24Z"/>
              <path class="cls-11" d="m112.66,148.33s-4.06.27-6.76,0c-1.37-.13-3.23-2.22-4.72-4.24,1.16-.69,2.06-1.41,2.43-2.25,1.62-3.64,0-9.32-1.62-14.99-.36-1.25-.28-2.9.06-4.71l4.82.52,2.54.28,3.25,25.4Z"/>
              <polygon class="cls-8" points="112.66 148.33 109.28 148.33 106.88 122.66 109.42 122.93 112.66 148.33"/>
              <path class="cls-8" d="m109.99,140.27c-.42,0-.81-.28-.93-.7-.81-2.86-4.75-5.62-4.79-5.65-.44-.3-.55-.9-.24-1.34.3-.44.9-.55,1.34-.25.19.13,4.55,3.18,5.55,6.71.14.51-.15,1.04-.67,1.19-.09.02-.17.04-.26.04Z"/>
              <path class="cls-8" d="m105.33,142.91c-.18,0-.36-.05-.53-.16-.44-.29-.57-.89-.28-1.33.08-.13,2.09-3.17,4.33-4.28.48-.24,1.05-.04,1.29.43.24.48.04,1.05-.43,1.29-1.47.74-3.08,2.86-3.58,3.62-.19.28-.49.44-.81.44Z"/>
              <path class="cls-8" d="m186.28,141.32c-2.39,1.46-7.09,2.55-7.09,2.55l1.42-22.35,2.89-1.01c.93,7.72,1.8,15.16,1.98,17.29.1,1.2.37,2.35.81,3.52Z"/>
            </g>
          </g>
        </g>
      </g>
    </g>
  </g>
</svg>