<?xml version="1.0" encoding="UTF-8"?>
<svg id="Layer_2" data-name="Layer 2" xmlns="http://www.w3.org/2000/svg" xmlns:xlink="http://www.w3.org/1999/xlink" viewBox="0 0 292 292">
  <defs>
    <style>
      .cls-1 {
        fill: #65639d;
      }

      .cls-2 {
        fill: #f9ead9;
      }

      .cls-3 {
        fill: #f66d51;
      }

      .cls-4 {
        fill: #fff;
        filter: url(#drop-shadow-1);
      }

      .cls-5 {
        fill: #eea489;
      }

      .cls-6 {
        clip-path: url(#clippath);
      }

      .cls-7 {
        fill: none;
      }

      .cls-8 {
        fill: #fed0b9;
      }

      .cls-9 {
        fill: #7783bc;
      }

      .cls-10 {
        fill: #d1572c;
      }

      .cls-11 {
        fill: #35231f;
      }

      .cls-12 {
        fill: #db8a75;
      }
    </style>
    <filter id="drop-shadow-1" filterUnits="userSpaceOnUse">
      <feOffset dx="3" dy="3"/>
      <feGaussianBlur result="blur" stdDeviation="5"/>
      <feFlood flood-color="#000" flood-opacity=".42"/>
      <feComposite in2="blur" operator="in"/>
      <feComposite in="SourceGraphic"/>
    </filter>
    <clipPath id="clippath">
      <circle class="cls-7" cx="142.99" cy="143.22" r="112.77" transform="translate(-59.39 143.05) rotate(-45)"/>
    </clipPath>
  </defs>
  <g id="diverse_portrait_people_icons" data-name="diverse portrait people icons">
    <g>
      <circle class="cls-4" cx="143.11" cy="143.12" r="130.7"/>
      <g>
        <circle class="cls-2" cx="142.99" cy="143.22" r="112.77" transform="translate(-59.39 143.05) rotate(-45)"/>
        <g class="cls-6">
          <g>
            <g>
              <path class="cls-9" d="m126.5,275.23c-28-3.04-59.6-24.22-79.22-39.53,7.99-4.44,17.97-9.77,23.14-12.84.49-.3.95-.57,1.36-.82.78-.46,1.4-.83,1.84-1.08.48-.29.75-.45.75-.45l.84.06,9.34.62,15.2,1.01,70.91,4.72,8.13.55,3.95.26s.05.03.14.06c.02.02.03.02.05.03.08.04.18.09.32.15.1.05.22.1.35.16.32.14.72.33,1.19.55.47.22,1.02.48,1.62.76,1.07.5,2.33,1.11,3.73,1.79,7.6,3.64,19.41,9.45,27.35,13.98-16.18,10.53-56.37,33.77-91,30.01Z"/>
              <path class="cls-1" d="m188.16,230.38s-16.76,18.01-22.24,20.2c-5.48,2.2-34.36,6.95-38.34,5.75-3.97-1.2-34.92-7.67-38.8-10.77-3.34-2.67-13.59-19.79-16.84-23.39-.04-.05-.09-.09-.15-.12.77-.46,1.4-.83,1.84-1.09l1.58-.39,5.83-1.43,3.52,2.05,22.28,12.97,32.08,10.18,25.13-3.48,14.76-13.39,3.94.26c.17.08.92.44,3.64,1.74l1.78.9Z"/>
              <path class="cls-9" d="m74.38,220.52s1.72-4.44,3.19-5.52c1.47-1.08,8.36-2.43,9.41-2.11,1.05.32,3.28,1.75,3.28,1.75,0,0,26.35,21.31,29.84,22.36,3.49,1.06,39.47-1.38,42.06-2.92,5.83-3.47,11.59-10.6,11.59-10.6l3.57-.45s7.72,3.48,8.07,3.58c.35.11,1.04,2.87,1.04,2.87,0,0-16.39,13.84-19.12,15.31s-32.8,7.62-36.4,6.92c-3.6-.71-33.22-11.18-36.26-12.48-3.04-1.3-20.27-18.71-20.27-18.71Z"/>
            </g>
            <g>
              <path class="cls-8" d="m172.47,225.47s-7.83,6.7-10.31,8.62c-2.49,1.92-36.12,4.71-42.06,2.92-5.94-1.79-29.84-22.36-29.84-22.36,0,0,13.57-5.81,17.36-10.76,2.28-2.99,5.22-14.16,7.19-22.55,1.07-4.55,1.85-8.28,2.1-9.45.05-.25.08-.38.08-.38l39.9,23.25v.11c-.13.84-.91,6.58-1.29,11.59-.26,3.36-.33,6.39.1,7.39,1.11,2.62,16.77,11.63,16.77,11.63Z"/>
              <path class="cls-5" d="m155.28,209.32s-10.34-.26-14.18-1.42c-3.84-1.16-17-13.14-21.28-17.87-2.98-3.28-4.41-6.83-5-8.69,1.07-4.55,1.85-8.28,2.1-9.45l.07-.25,39.9,23.12v.11s-1.29,11.59-1.29,11.59l-.32,2.87Z"/>
            </g>
            <g>
              <path class="cls-3" d="m102.07,86.5c-1.64,0-5.96-.09-7.91-.95-2.82-1.25-4.39-9.84-4.44-11.81-.08-2.82,3.1-4.82,3.24-4.9.34-.21.79-.11,1,.24.21.34.11.79-.23,1-.03.02-2.6,1.65-2.55,3.62.08,2.82,1.86,9.76,3.58,10.52,1.74.77,6.31.86,7.93.82.4,0,.74.31.74.72,0,.4-.31.74-.72.74-.05,0-.28,0-.64,0Z"/>
              <path class="cls-3" d="m146.72,59.39l-42.45,25.67-9.19-2.4s-4.27-9.51-4.06-11.7c0-.07.02-.14.03-.19.53-1.75,11.76-8.64,13.44-10.42,1.68-1.78,5.43-7.89,6.84-11.28s8.97-4.87,13.71-5c1.15-.03,4.82,2.98,7.26,3.72,2.45.74,8.87,3.44,10.76,4.78.78.55,1.53,1.8,2.15,3.08.89,1.84,1.5,3.74,1.5,3.74Z"/>
              <path class="cls-10" d="m146.72,59.39l-42.45,25.67-9.19-2.4s-4.27-9.51-4.06-11.7c2.27,2.88,5.01,5.93,6.24,5.72,2.28-.39,6.21-8.6,8.13-10.18,1.92-1.58,11.94-3.25,17.88-4.59,2.22-2.58,3.55-7.35,7.59-7.58,2.88-.16,11.57.88,14.36,1.31.89,1.84,1.5,3.74,1.5,3.74Z"/>
            </g>
            <g>
              <path class="cls-3" d="m179.5,80.6l-75.96,68.67s-7.26-3.72-8.83-6.1c-1.38-2.09,0-10.4.49-16.22.07-.81.12-1.57.14-2.26.19-5.66-2.62-15.28-2.75-19.89-.13-4.61,4.33-14.32,6.29-18.3,1.97-3.98,3.17-10.48,5.73-13.9,2.56-3.42,18.16-7.09,21.13-8.1,2.97-1.01,8.85-5.33,13.47-5.46,4.61-.13,25.82,2.85,30.37,4.22,2.76.84,5.84,7.07,7.82,11.83,1.28,3.06,2.11,5.52,2.11,5.52Z"/>
              <path class="cls-10" d="m179.5,80.6l-75.96,68.67s-7.26-3.72-8.83-6.1c-1.38-2.09,0-10.4.49-16.22,2.85.9,4.71,1.97,4.48,1.04-2.72-10.93,6.89-15.98,9.4-20.75,3.95-7.48,10.16-22.45,10.16-22.45,0,0,10.13-8.01,14.9-9.46,4.77-1.45,18.84,6.18,18.84,6.18,0,0,6.15-4.4,9.73-6.69,2.22-1.42,9.47-.57,14.68.28,1.28,3.06,2.11,5.52,2.11,5.52Z"/>
            </g>
            <g>
              <path class="cls-8" d="m102.15,149.57s4.32,11.84,6.09,13.25c1.77,1.41,7.58,2.16,7.58,2.16l-3.17-23.21-8.38-2.09-2.11,9.89Z"/>
              <polygon class="cls-5" points="109.24 140.99 113.82 164.61 115.99 164.86 112.68 141.74 109.24 140.99"/>
              <path class="cls-5" d="m113.52,159.88c-.31,0-.59-.19-.69-.5-1.3-3.95-6.72-7.82-6.77-7.86-.33-.23-.41-.69-.17-1.02.23-.33.69-.41,1.02-.17.24.17,5.87,4.19,7.32,8.6.13.38-.08.8-.47.92-.08.02-.15.04-.23.04Z"/>
              <path class="cls-5" d="m109.46,159.42c-.1,0-.21-.02-.31-.07-.36-.17-.52-.61-.35-.97.38-.81,1.76-2.23,4.22-1.76.4.08.66.46.58.85-.08.4-.46.66-.85.58-1.98-.38-2.62.93-2.62.94-.12.26-.39.42-.66.42Z"/>
              <path class="cls-8" d="m172.4,182.35l-8.77,13.25-.09.14c-1.42,2.15-3.74,3.54-6.31,3.78l-10.02.95c-2.09.2-4.17-.38-5.86-1.62-6.13-4.5-20.86-15.79-22.94-21.83-2.64-7.66-6.04-38.04-6.04-38.04,0,0-.43-11.19,7.72-16.73s16.45-26.67,19.88-27.92c3.43-1.25,15.49,4.87,15.49,4.87,0,0,9.3-3.84,17.37-2.64,5.46.81,10.35,3.93,11.42,12.1l-1.02,29.24-6.02,32.56c-.78,4.24-2.42,8.29-4.8,11.88Z"/>
              <path class="cls-12" d="m158.71,171.62c-3.24,0-7.54-1.63-7.73-1.7l-.67-.26.54-4.77c.06-.51.52-.88,1.03-.82.51.06.88.52.82,1.03l-.38,3.32c1.39.47,4.62,1.47,6.83,1.32,1.98-.13,4.43-2.23,5.58-3.41-.56-1.61-2.17-6.36-2.53-8.43-.42-2.44-1.2-18.11-1.23-18.78-.03-.51.37-.95.88-.97.52-.03.95.37.97.88,0,.16.81,16.23,1.21,18.56.4,2.31,2.61,8.6,2.63,8.66l.18.52-.36.41c-.15.17-3.76,4.2-7.21,4.42-.18.01-.37.02-.56.02Z"/>
              <path class="cls-10" d="m150.87,132.7s-2.7,2.62-6.4,2.26c-3.7-.36-11.07-3.73-15.52-1.64,0,0,3.57-4.26,11.33-3.44,6.62.7,10.59,2.82,10.59,2.82Z"/>
              <path class="cls-12" d="m149.34,179.13c-1.22,0-2.22-.08-2.89-.28l-7.68-2.32.54-1.78,7.68,2.32c1.48.45,5.91.07,9.82-.26,1.13-.1,2.26-.19,3.33-.27,4.57-.34,6.77-2.99,6.87-3.1.32-.4.91-.46,1.31-.14.4.32.46.9.14,1.3-.11.14-2.77,3.39-8.18,3.79-1.07.08-2.19.17-3.31.27-2.82.24-5.54.47-7.63.47Z"/>
              <path class="cls-12" d="m138.61,177.96c-.44,0-.84-.32-.91-.77-.37-2.15,2.21-3.92,2.51-4.11.43-.28,1-.16,1.29.26.28.43.17,1-.26,1.29-.76.5-1.82,1.56-1.7,2.24.09.51-.25.99-.76,1.07-.05,0-.11.01-.16.01Z"/>
              <path class="cls-11" d="m144.46,147.28c-.2,3.12-1.91,5.55-3.82,5.43-1.91-.12-3.3-2.75-3.1-5.86.2-3.12,1.91-5.55,3.82-5.43s3.3,2.75,3.1,5.86Z"/>
              <path class="cls-11" d="m174.99,146.73c-.19,2.93-1.79,5.21-3.59,5.1-1.79-.11-3.1-2.58-2.91-5.51.19-2.93,1.79-5.21,3.59-5.1s3.1,2.58,2.91,5.51Z"/>
              <path class="cls-12" d="m152.93,186.71c-2.63,0-6.09-1.93-6.51-2.18-.45-.26-.6-.82-.34-1.27.26-.45.82-.6,1.27-.35,1.1.63,4.32,2.19,6.02,1.9.42-.07.97-.16,1.59-.26,2.07-.34,6.87-1.12,7.71-1.53l2.18-2.31,1.35,1.28-2.24,2.37c-.5.53-1.89.92-8.7,2.02-.62.1-1.16.19-1.58.26-.24.04-.49.06-.75.06Z"/>
              <path class="cls-5" d="m130.01,163.34c-.11,0-.22-.02-.32-.07l-8.31-4.04c-.36-.18-.51-.61-.34-.98.18-.36.61-.51.98-.34l8.31,4.04c.36.18.51.61.34.98-.13.26-.39.41-.66.41Z"/>
              <path class="cls-5" d="m128.36,166.28c-.1,0-.21-.02-.31-.07l-6.67-3.16c-.36-.17-.52-.61-.35-.97.17-.36.61-.52.97-.35l6.67,3.16c.36.17.52.61.35.97-.12.26-.39.42-.66.42Z"/>
              <path class="cls-5" d="m172.4,182.35l-8.77,13.25h-.13s8.98-17.1,9.76-22.2c.78-5.1,4.34-38.34,4.5-45.15.15-6.82-7.7-30.75-7.7-30.75l2.77-.92c5.46.81,10.35,3.93,11.42,12.1l-1.02,29.24-6.02,32.56c-.78,4.24-2.42,8.29-4.8,11.88Z"/>
              <path class="cls-10" d="m178.67,129.28c-2.75-.06-7.09.51-11.51,3.77,0,0,4.01,3.12,8.11.93,4.09-2.19,7.54-1.89,7.54-1.89l-.11-.23c-.75-1.54-2.3-2.53-4.02-2.57Z"/>
              <path class="cls-11" d="m136.38,145.67c-.17,0-.34-.06-.47-.17-.31-.26-.34-.72-.08-1.03,4.58-5.39,10.08-2.22,10.13-2.19.35.21.46.65.26,1-.2.35-.65.46-1,.26-.19-.11-4.51-2.55-8.28,1.88-.14.17-.35.26-.56.26Z"/>
              <path class="cls-11" d="m167.48,145.28c-.15,0-.3-.05-.43-.14-.32-.24-.39-.7-.15-1.02,1.56-2.11,3.31-3.3,5.22-3.54,2.46-.31,4.22,1.09,4.29,1.15.31.25.36.71.11,1.03-.25.31-.71.36-1.02.11-.02-.01-1.39-1.08-3.21-.84-1.49.2-2.91,1.19-4.21,2.96-.14.19-.36.3-.59.3Z"/>
            </g>
            <g>
              <path class="cls-3" d="m157.05,102.16s-6.5-1.06-15.23-3.84c-3.22,4.36-11.56,23.84-15.72,27.54-4.17,3.7-8.91,3.52-9.83,7.82-.92,4.3-3.07,13.94-12.83,19.76-9.76,5.82-.09,25.52-.09,25.52,0,0-13.11-14.64-9.88-22.81,3.23-8.17,10.33-10.22,9.41-18.51-.93-8.29-2.91-13.08,1.33-18.28,4.24-5.2,14.31-8.25,15.86-14.65,1.55-6.39,7.24-21.89,13.51-24.51,7.42-3.1,21.24,7.94,21.24,7.94l2.24,14.02Z"/>
              <path class="cls-3" d="m157.05,102.16s9.73-6.97,13.96-4.55c4.22,2.42,13.01,11.18,8.97,23.3-2.7,8.08,8.91,17.18,8.77,20.19-.15,3.01-8.57,13.75-8.57,13.75l-2.01,10.23s2.61,4.88,8.9,6.78c0,0-2.36-9.86-1.48-11.5.88-1.64,16.35-13.74,16.01-17.65-.34-3.92-8.91-17.18-9.39-21.9-.48-4.72,3.65-22.15,1.42-27.4-2.23-5.25-16.43-17.55-21.25-16.72s-17.57,11.46-17.57,11.46l2.24,14.02Z"/>
            </g>
          </g>
        </g>
      </g>
    </g>
  </g>
</svg>