<?xml version="1.0" encoding="UTF-8"?>
<svg id="Layer_2" data-name="Layer 2" xmlns="http://www.w3.org/2000/svg" xmlns:xlink="http://www.w3.org/1999/xlink" viewBox="0 0 293 292">
  <defs>
    <style>
      .cls-1, .cls-2 {
        fill: #fff;
      }

      .cls-3 {
        fill: #f9ead9;
      }

      .cls-4 {
        fill: #6d2931;
      }

      .cls-2 {
        filter: url(#drop-shadow-1);
      }

      .cls-5 {
        fill: #591e26;
      }

      .cls-6 {
        fill: #fcb552;
      }

      .cls-7 {
        fill: #eea489;
      }

      .cls-8 {
        clip-path: url(#clippath);
      }

      .cls-9 {
        fill: #c05a4c;
      }

      .cls-10 {
        fill: #fed0b9;
      }

      .cls-11 {
        fill: #8e9dbe;
      }

      .cls-12 {
        fill: #be5746;
      }

      .cls-13 {
        fill: #f67e66;
      }

      .cls-14 {
        fill: #778bad;
      }
    </style>
    <filter id="drop-shadow-1" filterUnits="userSpaceOnUse">
      <feOffset dx="3" dy="3"/>
      <feGaussianBlur result="blur" stdDeviation="5"/>
      <feFlood flood-color="#000" flood-opacity=".42"/>
      <feComposite in2="blur" operator="in"/>
      <feComposite in="SourceGraphic"/>
    </filter>
    <clipPath id="clippath">
      <circle class="cls-3" cx="143.05" cy="143.22" r="112.77" transform="translate(-59.37 143.1) rotate(-45)"/>
    </clipPath>
  </defs>
  <g id="diverse_portrait_people_icons" data-name="diverse portrait people icons">
    <g>
      <circle class="cls-2" cx="143.42" cy="143.27" r="130.7"/>
      <g>
        <circle class="cls-3" cx="143.05" cy="143.22" r="112.77" transform="translate(-59.37 143.1) rotate(-45)"/>
        <g>
          <circle class="cls-3" cx="143.05" cy="143.22" r="112.77" transform="translate(-59.37 143.1) rotate(-45)"/>
          <g class="cls-8">
            <g>
              <g>
                <path class="cls-11" d="m232.78,232.35c-4.36,5.66-10.5,12.43-18.5,18.58-2,1.55-4.11,3.05-6.35,4.47-1.43.93-2.92,1.83-4.47,2.69-1.4.78-2.84,1.55-4.32,2.26-12.65,6.17-28.3,9.86-47.1,7.62-21.52-2.56-40.89-8.55-56.96-15.25-3.46-1.43-6.76-2.91-9.9-4.39-1.59-.74-3.14-1.49-4.64-2.24-.76-.38-1.52-.76-2.26-1.13-5.15-2.63-9.74-5.2-13.71-7.56,1.7-.6,3.24-1.08,4.51-1.41,2.32-.6,6.86-1.86,11.55-3.17l2.69-.76,2.68-.75,2.14-.61c.76-.21,1.49-.42,2.17-.61l1.93-.54c1.48-.43,2.64-.75,3.31-.95.1-.03.21-.06.29-.08.12-.03.2-.06.25-.07.02-.01.03-.01.05-.01.01-.01.02-.01.02-.01l92.58-5.77s7.82,1.78,17.14,3.95l5.15,1.2.47.1c9.13,2.14,15.38,2.11,21.27,4.44Z"/>
                <path class="cls-14" d="m86.01,231.31l-.82,17.02c-1.59-.74-3.14-1.49-4.64-2.24-.76-.38-1.52-.76-2.26-1.13,1.32-6.84,2.35-12.14,2.35-12.14l2.69-.76,2.68-.75Z"/>
                <path class="cls-14" d="m207.94,255.4c-1.43.93-2.92,1.83-4.47,2.69-1.4.78-2.84,1.55-4.32,2.26,3.55-16.31,6.74-33.75,6.74-33.75,0,0,1.1,17.08,2.04,28.8Z"/>
              </g>
              <g>
                <path class="cls-14" d="m126.95,258.92c-2.29,0-3.88-.07-4.46-.22-3.57-.89-26.39-15.88-27.36-16.52l.76-1.16c6.55,4.31,24.17,15.64,26.94,16.34,4.17,1.04,51.84-1.56,57.23-5.98,5.65-4.63,14.21-27.31,14.29-27.54l1.3.49c-.36.95-8.77,23.26-14.71,28.12-5.09,4.17-40.96,6.47-53.98,6.47Z"/>
                <path class="cls-14" d="m98.15,242.99c-.29,0-.57-.19-.66-.48-.39-1.21.09-2.64,1.29-3.93.24-.26.5-.51.77-.76.6-.57,1.17-1.11,1.5-1.77.17-.34.59-.48.93-.31.34.17.48.59.31.93-.44.87-1.12,1.52-1.78,2.15-.24.23-.49.46-.71.7-.4.43-1.31,1.54-.98,2.56.12.36-.09.75-.45.87-.07.02-.14.03-.21.03Z"/>
                <path class="cls-14" d="m102.32,246.95c-.06,0-.12,0-.19-.03-.37-.1-.58-.48-.48-.85.41-1.48,1.35-2.65,2.27-3.79l.39-.49c.88-1.11,1.77-2.44,1.72-3.86-.01-.38.29-.7.67-.72.37-.01.7.29.71.67.06,1.87-1.04,3.53-2.02,4.77l-.4.5c-.86,1.07-1.68,2.09-2.01,3.29-.09.31-.36.51-.67.51Z"/>
                <path class="cls-14" d="m107.63,246.81c-.35,0-.65-.26-.69-.62-.11-.95.75-1.48,1.26-1.79l.14-.09c1.26-.79,1.72-2.51,2.09-4.19.08-.37.45-.61.82-.53.37.08.61.45.53.82-.43,1.97-.99,3.99-2.7,5.07l-.15.09c-.18.11-.57.35-.61.47.04.38-.23.72-.61.76-.03,0-.05,0-.08,0Z"/>
                <path class="cls-14" d="m109.83,251.17c-.19,0-.38-.08-.52-.23-.25-.29-.23-.72.06-.98.46-.41.72-1.03.99-1.69.2-.48.4-.97.7-1.43.15-.24.33-.47.51-.7.32-.41.62-.8.7-1.21.07-.38.43-.62.81-.55.37.07.62.43.55.81-.14.73-.58,1.3-.97,1.8-.15.19-.3.39-.43.59-.23.36-.4.78-.59,1.22-.32.78-.66,1.58-1.35,2.2-.13.12-.3.18-.46.18Z"/>
                <path class="cls-14" d="m116.31,252.19c-.36,0-.66-.28-.69-.64-.05-.7.17-1.42.65-2.16.21-.32.45-.62.69-.91.15-.19.31-.38.45-.57.52-.71.9-1.54,1.1-2.39.09-.37.46-.6.83-.52.37.09.6.46.52.83-.24,1.04-.7,2.04-1.33,2.89-.16.22-.33.42-.5.63-.21.26-.43.52-.61.8-.32.48-.46.91-.43,1.29.03.38-.25.71-.64.74-.02,0-.04,0-.05,0Z"/>
                <path class="cls-14" d="m118.79,256.73c-.31,0-.59-.21-.67-.53-.23-.95.18-1.77.54-2.5.15-.3.29-.58.38-.86.13-.39.17-.83.21-1.3.03-.32.06-.63.12-.95.17-.96.58-1.88,1.18-2.65.23-.3.67-.36.97-.12.3.23.36.67.12.97-.46.6-.77,1.3-.91,2.05-.05.28-.07.56-.1.83-.05.52-.1,1.06-.28,1.6-.12.37-.29.71-.46,1.04-.3.59-.55,1.1-.44,1.56.09.37-.14.75-.51.84-.06.01-.11.02-.17.02Z"/>
                <path class="cls-14" d="m124.72,256.74c-.07,0-.14-.01-.21-.03-.36-.12-.57-.5-.45-.87.82-2.58,1.13-5.38.9-8.08-.03-.38.25-.72.63-.75.38-.03.72.25.75.63.25,2.88-.09,5.86-.96,8.62-.09.29-.37.48-.66.48Z"/>
                <path class="cls-14" d="m128.57,257.97c-.3,0-.57-.19-.66-.49-.37-1.25-.54-2.54-.51-3.84v-.19c.02-.43.04-.83-.09-1.13-.15-.35.02-.76.37-.91.35-.15.76.02.91.37.25.59.23,1.19.21,1.72v.18c-.04,1.15.11,2.3.44,3.4.11.37-.1.75-.46.86-.07.02-.13.03-.2.03Z"/>
                <path class="cls-14" d="m132.1,258.17c-.23,0-.46-.12-.59-.33-1.41-2.3-1.33-5.14-1.26-7.43l.05-1.68c.01-.38.35-.68.71-.67.38.01.68.33.67.71l-.05,1.68c-.06,2.1-.14,4.71,1.05,6.66.2.33.1.75-.23.95-.11.07-.24.1-.36.1Z"/>
                <path class="cls-14" d="m136.34,254.4c-.05,0-.11,0-.17-.02-.37-.09-.6-.47-.51-.84.42-1.72.18-3.6-.67-5.15-.18-.34-.06-.76.28-.94.33-.18.76-.06.94.28,1.01,1.85,1.3,4.09.8,6.14-.08.32-.36.53-.67.53Z"/>
                <path class="cls-14" d="m138.37,258.19c-.23,0-.45-.11-.58-.32-.59-.93-.66-2.2-.19-3.67.1-.32.22-.63.33-.95.25-.68.49-1.31.55-1.96.05-.55-.03-1.12-.11-1.65-.06-.38.2-.73.58-.79.37-.05.73.2.79.58.09.59.18,1.29.12,1.99-.08.83-.35,1.59-.63,2.32-.11.29-.22.59-.31.88-.23.74-.42,1.78.04,2.51.2.32.11.75-.21.95-.12.07-.24.11-.37.11Z"/>
                <path class="cls-14" d="m144.7,257.89c-.36,0-.66-.27-.69-.64-.06-.79,0-1.57.05-2.34.09-1.24.18-2.41-.26-3.42-.07-.17-.16-.34-.25-.51-.3-.59-.64-1.25-.53-2.04.05-.38.4-.64.78-.59.38.05.64.4.59.78-.05.36.16.76.39,1.22.1.2.2.39.29.59.57,1.33.47,2.72.37,4.07-.05.74-.11,1.44-.05,2.12.03.38-.25.71-.63.74-.02,0-.04,0-.06,0Z"/>
                <path class="cls-14" d="m147.06,254.98c-.33,0-.62-.23-.68-.57-.42-2.29-1.03-4.57-1.8-6.77-.13-.36.06-.75.43-.88.36-.13.75.06.88.43.79,2.27,1.41,4.61,1.85,6.97.07.38-.18.74-.55.81-.04,0-.08.01-.13.01Z"/>
                <path class="cls-14" d="m149.13,256.83h0c-.38,0-.69-.31-.69-.7.01-2.29.18-4.61.5-6.88.05-.38.41-.64.78-.59.38.05.64.4.59.78-.31,2.21-.47,4.46-.48,6.69,0,.38-.31.69-.69.69Z"/>
                <path class="cls-14" d="m156.44,255.86s-.02,0-.04,0c-.38-.02-.67-.35-.65-.73.14-2.63-.33-5.31-1.35-7.74-.15-.35.02-.76.37-.91.36-.15.76.02.91.37,1.1,2.62,1.6,5.51,1.45,8.34-.02.37-.32.66-.69.66Z"/>
                <path class="cls-14" d="m158.62,257.3c-.32,0-.6-.22-.67-.54l-.46-2.01c-.13-.57-.28-1.21-.27-1.88,0-.81.24-1.6.67-2.29.2-.32.63-.42.95-.22.32.2.42.63.22.95-.29.46-.45,1.02-.46,1.57,0,.5.12,1.04.24,1.56l.46,2.01c.09.37-.15.74-.52.83-.05.01-.1.02-.15.02Z"/>
                <path class="cls-14" d="m161.27,254.9c-.3,0-.58-.2-.67-.51-.22-.78-.3-1.57-.39-2.34-.04-.4-.09-.81-.15-1.21-.2-1.28-.6-2.18-1.21-2.75-.28-.26-.29-.7-.03-.98.26-.28.7-.29.98-.03.84.79,1.37,1.94,1.63,3.54.07.42.11.85.16,1.27.08.74.16,1.45.35,2.12.1.37-.11.75-.48.85-.06.02-.12.03-.18.03Z"/>
                <path class="cls-14" d="m166.43,255.47c-.26,0-.51-.15-.63-.4-1.24-2.65-1.96-5.48-2.15-8.41-.02-.38.26-.71.65-.73.38-.02.71.26.73.65.18,2.75.86,5.41,2.03,7.91.16.35.01.76-.33.92-.09.04-.19.07-.29.07Z"/>
                <path class="cls-14" d="m170.66,252.32c-.17,0-.34-.06-.48-.19-.63-.61-1.15-1.29-1.66-1.96l-2.57-3.4c-.23-.3-.17-.74.13-.97.31-.23.74-.17.97.14l2.57,3.4c.47.62.95,1.26,1.51,1.79.28.26.29.7.02.98-.14.14-.32.21-.5.21Z"/>
                <path class="cls-14" d="m179.12,251.99c-.25,0-.49-.14-.62-.38-.97-1.89-2.42-3.49-4.22-4.63-.29-.18-.59-.36-.88-.41-.38-.07-.62-.43-.55-.81.07-.38.43-.62.81-.55.52.1.97.35,1.37.6,2,1.27,3.63,3.06,4.71,5.17.17.34.04.76-.3.93-.1.05-.21.08-.31.08Z"/>
                <path class="cls-14" d="m181.4,245.86c-.37,0-.67-.29-.69-.66-.04-.77-.3-1.54-.75-2.17-.22-.31-.15-.74.16-.96.31-.22.74-.15.96.16.6.84.96,1.87,1.01,2.9.02.38-.28.71-.66.72-.01,0-.02,0-.03,0Z"/>
                <path class="cls-14" d="m185.89,245.08c-.73,0-1.32-.48-1.75-.92-1.31-1.32-2.44-2.81-3.35-4.44-.19-.33-.07-.75.27-.94.33-.19.75-.07.94.27.85,1.51,1.9,2.91,3.12,4.14.13.14.54.55.81.51.38-.05.73.21.78.59.05.38-.21.73-.59.78-.08.01-.16.02-.24.02Z"/>
                <path class="cls-14" d="m186.23,239.56c-.22,0-.44-.11-.57-.3-.45-.67-1.15-1.17-1.93-1.39-.37-.1-.58-.48-.48-.85.1-.37.48-.58.85-.48,1.09.3,2.08,1.01,2.71,1.95.21.32.13.75-.19.96-.12.08-.25.12-.39.12Z"/>
                <path class="cls-14" d="m189.35,237.05c-1.64,0-3.26-.7-4.39-1.91-.26-.28-.24-.72.04-.98.28-.26.72-.24.98.03.92.99,2.27,1.53,3.62,1.46.39-.02.71.27.73.65.02.38-.27.71-.65.73-.11,0-.21,0-.32,0Z"/>
                <path class="cls-14" d="m189.14,234.17s-.04,0-.06,0c-1.57-.12-3.08-.86-4.14-2.03-.26-.28-.24-.72.05-.98.28-.26.72-.24.98.05.83.91,2,1.48,3.23,1.58.38.03.67.36.63.74-.03.36-.33.64-.69.64Z"/>
                <path class="cls-14" d="m192.84,229.92c-.09,0-.17-.02-.26-.05-1.24-.5-2.43-1.13-3.54-1.89-.32-.21-.4-.65-.18-.96.21-.32.65-.4.96-.18,1.03.7,2.13,1.28,3.28,1.74.35.14.53.54.39.9-.11.27-.37.43-.64.43Z"/>
                <path class="cls-14" d="m193.7,226.26s-.06,0-.09,0l-4.46-.59c-.38-.05-.64-.4-.6-.78.05-.38.4-.65.78-.6l4.46.59c.38.05.65.4.6.78-.05.35-.34.6-.68.6Z"/>
              </g>
              <g>
                <path class="cls-6" d="m96.15,228.44s.02-.01.02-.01c0,0-.32,5.36-.66,13.17-.14,3.34-.29,7.12-.42,11.13-3.46-1.43-6.76-2.91-9.9-4.39-1.59-.74-3.14-1.49-4.64-2.24.7-5.39,1.62-10.23,2.78-14.03l2.68-.75,2.14-.61c.75-.21,1.48-.42,2.17-.61l1.93-.54c1.48-.43,2.64-.75,3.31-.95.1-.03.21-.06.29-.08.12-.03.2-.06.25-.07.02-.01.03-.01.05-.01Z"/>
                <path class="cls-6" d="m214.28,250.93c-2,1.55-4.11,3.05-6.35,4.47-1.43.93-2.92,1.83-4.47,2.69,1.4-16.17,2.42-31.48,2.42-31.48l5.15,1.2.47.1,1.15.28s.75,9.84,1.62,22.75Z"/>
              </g>
              <g>
                <path class="cls-13" d="m165.04,65.41h0l-33-.4-13.87-.17s-4.43-12.32-2.7-15.42c1.09-1.95,14.02-6.34,24.58-9.05h0c6.27-1.62,11.71-2.64,13.32-2.2,4.32,1.16,17.81,12.81,18.56,15.14.76,2.33-6.9,12.11-6.9,12.11Z"/>
                <path class="cls-13" d="m165.58,69.3l-1-.95c5.53-5.85,11.47-12.96,11.42-14.24-.3-1.99-15.12-13.23-20.45-14.91-4.24-1.34-20.23,4.44-26.03,6.78l-.52-1.28c.87-.35,21.38-8.57,26.96-6.81,5.33,1.68,21.25,13.24,21.41,16.15.14,2.44-9,12.3-11.8,15.27Z"/>
                <path class="cls-4" d="m163.28,60.62v3.94h-40.62l1.33-3.17s5.17-1.55,13-3.51h0c5.68-1.42,11.3-2.61,13.75-2.49,5.82.3,12.52,5.24,12.52,5.24Z"/>
                <path class="cls-13" d="m182.81,133.81c-.95,4.5-1.63,7.41-1.63,7.41l-74.83-6.17-.4-.03-4.68-3.05s-4.52-27.3-5.1-34.25c-.58-6.85,1.95-26.82,22-32.87.33-.1.66-.19,1-.29l25.85-1.35s18.92,1.65,20.02,2.2h0c4.25,2.13,15.18,8.04,20.68,15.05,1.5,1.92,2.6,3.92,3.04,5.94,1.83,8.42-3.21,34.5-5.94,47.42Z"/>
                <path class="cls-9" d="m111.5,77.33c-11.32,13.54-5.72,53.61-5.72,53.61l.58,4.11-.4-.03-4.68-3.05s-4.52-27.3-5.1-34.25c-.58-6.85,1.95-26.82,22-32.87,0,0-4.43-12.32-2.7-15.42,1.09-1.95,14.02-6.34,24.58-9.05-.23.06-15.33,4.43-14.47,8.47.87,4.08,5.76,15.72,5.76,15.72,0,0-14.6,6.51-19.84,12.77Z"/>
                <path class="cls-5" d="m163.28,63.2v1.36l-26.1-.58-14.65,1.42,1.47-4.02s5.17-1.55,13-3.51h0l7.39,3.77,18.88,1.55Z"/>
              </g>
              <path class="cls-9" d="m182.81,133.81l-6.13,4.7-3.44-10.93s6.32-5.23,7.25-9.3,5.22-37.82,5.22-37.82c1.5,1.92,2.6,3.92,3.04,5.94,1.83,8.42-3.21,34.5-5.94,47.42Z"/>
              <g>
                <path class="cls-10" d="m188.75,222.66s-6.41,14.85-9.61,18.34c-3.2,3.49-46.59,6.98-54.45,4.95-7.86-2.04-28.53-17.52-28.53-17.52,0,0,9.05-4.59,12.76-8.98.8-.95,1.36-1.84,1.51-2.62.88-4.37,5.97-33.27,5.97-33.27l47.9-5.74s1.14,5.28,2.62,11.87h0c2.27,10.1,5.35,23.28,6.4,25.37,1.75,3.47,15.43,7.6,15.43,7.6Z"/>
                <path class="cls-7" d="m166.92,189.69h0s-19.8,32.09-22.13,33.55-23.87,1.75-23.87,1.75l-11.99-5.53c.8-.95,1.36-1.84,1.51-2.62.88-4.37,5.97-33.27,5.97-33.27l47.9-5.74s1.14,5.28,2.62,11.87Z"/>
              </g>
              <g>
                <path class="cls-10" d="m107.76,159.86l-1.25.19-1.21.19c-2.98.45-5.84-1.31-6.78-4.17l-4.96-15.13c-.57-1.72-.34-3.61.61-5.15l1.62-2.6c1.15-1.87,3.62-2.42,5.47-1.21l.82.53.61.4,3.25,2.12,1.8,24.72v.11Z"/>
                <path class="cls-7" d="m104.32,151.29c-.33,0-.62-.24-.68-.57-.68-3.81-5.87-8.94-5.92-8.99-.27-.27-.28-.71,0-.98.27-.27.71-.28.98,0,.23.22,5.55,5.49,6.31,9.74.07.38-.18.74-.56.8-.04,0-.08.01-.12.01Z"/>
                <path class="cls-7" d="m100.51,151.29c-.11,0-.23-.03-.33-.09-.33-.19-.46-.61-.27-.94.06-.11,1.47-2.6,3.85-2.32.38.04.65.39.61.77-.04.38-.38.65-.77.61-1.45-.17-2.47,1.6-2.48,1.62-.13.23-.36.36-.61.36Z"/>
                <polygon class="cls-7" points="107.76 159.86 106.51 160.05 102.09 132.5 102.7 132.9 105.95 135.03 107.75 159.75 107.76 159.86"/>
              </g>
              <g>
                <path class="cls-10" d="m175.06,135.02l4.68-3.05c1.84-1.2,4.31-.65,5.47,1.21l1.62,2.6c.96,1.54,1.18,3.43.62,5.16l-4.96,15.13c-.94,2.86-3.8,4.62-6.78,4.16l-2.46-.38,1.81-24.83Z"/>
                <path class="cls-7" d="m176.69,151.29s-.08,0-.12-.01c-.38-.07-.63-.43-.56-.8.76-4.24,6.08-9.51,6.31-9.74.27-.27.71-.26.98,0,.27.27.26.71,0,.98-.05.05-5.24,5.18-5.92,8.99-.06.33-.35.57-.68.57Z"/>
                <path class="cls-7" d="m180.5,151.29c-.24,0-.48-.13-.6-.36-.03-.05-1.03-1.78-2.48-1.62-.37.04-.72-.23-.77-.61-.04-.38.23-.72.61-.77,2.37-.27,3.79,2.22,3.85,2.32.19.33.06.75-.27.94-.11.06-.22.09-.33.09Z"/>
                <polygon class="cls-7" points="178.91 132.5 175.71 160.24 173.25 159.86 176.91 133.81 178.91 132.5"/>
              </g>
              <g>
                <path class="cls-10" d="m105.78,130.94s1.16,31.83,3.78,38.82c2.62,6.99,10.97,22.67,19.34,26.84,4.37,2.18,20.07,3.76,24.41.67,6.63-4.73,16.93-21.46,18.68-28.78,1.75-7.32,5.27-37.55,5.27-37.55,0,0-13.83-10.68-16.74-18.59,0,0,.87,6.08,2.91,9.86,0,0-13.39-13.4-16.01-22.71-2.62-9.32-1.47-1.47-1.47-1.47,0,0,.6,22.43,3.51,29.42,0,0-14.27-17.47-13.1-35.52,0,0-24.75,20.73-30.57,39.01Z"/>
                <path class="cls-7" d="m139,155.36s-.06,0-.08,0c-.38-.05-.65-.39-.6-.77.64-5.37,1.63-14.23,1.53-15.13-.09-.81-1.79-4.07-2.97-6.14-.19-.33-.07-.75.26-.94.33-.19.75-.07.94.26.5.87,2.99,5.29,3.14,6.67.15,1.35-1.36,14.01-1.53,15.44-.04.35-.34.61-.69.61Z"/>
                <path class="cls-7" d="m142.84,166.43c-.13,0-.27,0-.4,0-4.39-.15-8.24-3.08-8.4-3.2-.3-.23-.36-.67-.13-.97s.67-.36.97-.13c.04.03,3.67,2.78,7.61,2.91,3.8.14,5.64-1.87,5.72-1.95.25-.28.69-.31.97-.06.28.25.31.69.06.97-.09.1-2.17,2.43-6.4,2.43Z"/>
                <path class="cls-7" d="m165.6,150.89c-.18,0-.35-.07-.49-.2-.99-.99-2.83-1.81-2.85-1.82l-1.87-.83,5.05-1.2c.37-.09.74.14.83.51.09.37-.14.74-.51.83l-1.28.31c.56.34,1.15.76,1.61,1.23.27.27.27.71,0,.98-.13.14-.31.2-.49.2Z"/>
                <path class="cls-7" d="m116.59,149.64c-.2,0-.4-.09-.54-.25-.24-.3-.2-.73.1-.97.51-.41,1.14-.77,1.73-1.06l-1.25-.43c-.36-.13-.55-.52-.43-.88.13-.36.52-.55.88-.43l4.9,1.7-1.94.64s-1.94.65-3.02,1.53c-.13.11-.28.16-.44.16Z"/>
                <path class="cls-12" d="m173.18,130.99s-3.93-1.16-8.15-.15c-4.22,1.02-8.3,1.15-11.65-.23,0,0,1.75-5.74,13.54-4,0,0,5.02,1.55,6.26,4.37Z"/>
                <path class="cls-12" d="m112.76,129.61s3.93-1.16,8.15-.15c4.22,1.02,8.3,1.15,11.65-.23,0,0-1.75-5.74-13.54-4,0,0-5.02,1.55-6.26,4.37Z"/>
                <path class="cls-1" d="m156.63,171.32s-5.2,10.2-7.43,10.82c-2.31.65-14.59.34-16.64-.51-2.01-.84-6.85-10.81-6.98-11.08.21.13,6.94,4.27,16.88,4.27s14.17-3.49,14.17-3.49Z"/>
                <path class="cls-7" d="m142.46,175.5c-9.38,0-15.94-3.6-17.08-4.27h-2.72c-.38,0-.69-.31-.69-.69s.31-.69.69-.69h3.18l.16.14c.67.41,7.07,4.13,16.47,4.13s13.68-3.3,13.72-3.33l.19-.16h4.65c.38,0,.69.31.69.69s-.31.69-.69.69h-4.16c-.98.72-5.32,3.49-14.4,3.49Z"/>
                <path d="m152.46,144.61c-.24,0-.48-.09-.67-.28-.37-.37-.37-.96,0-1.33.24-.24,2.41-2.39,3.94-3.09.13-.06.23-.1.33-.13.36-.12,1.23-.4,7.01.38,1.88.25,3.41.5,3.41.5.51.08.86.57.78,1.08-.08.51-.57.86-1.08.78,0,0-1.51-.25-3.36-.49-5.15-.69-6.06-.49-6.15-.46-.04.01-.11.05-.19.08-1.01.46-2.77,2.1-3.36,2.7-.18.18-.42.28-.67.28Z"/>
                <path d="m130.95,142.63c-.23,0-.46-.08-.63-.26-1.19-1.15-2.9-2.43-3.6-2.48-2.13-.32-7.46.52-9.34.87-.5.09-.97-.23-1.06-.73-.09-.49.23-.97.73-1.06.29-.05,7.08-1.3,9.88-.89,1.64.13,4.17,2.51,4.66,2.98.36.35.37.93.02,1.29-.18.18-.42.28-.65.28Z"/>
                <path d="m127.43,142.63c0,2.76-1.77,4.99-3.94,4.99s-3.94-2.23-3.94-4.99c0-.9.19-1.74.51-2.46,2.35-.36,4.87-.66,5.78-.48.34.06.7.23,1.07.46.34.73.53,1.58.53,2.49Z"/>
                <path d="m155.46,143.61c0,2.76,1.77,4.99,3.94,4.99s3.94-2.23,3.94-4.99c0-.9-.19-1.74-.51-2.46-2.35-.36-4.87-.66-5.78-.48-.34.06-.7.23-1.07.46-.34.73-.53,1.58-.53,2.49Z"/>
              </g>
            </g>
          </g>
        </g>
      </g>
    </g>
  </g>
</svg>