<?xml version="1.0" encoding="UTF-8"?>
<svg id="Layer_2" data-name="Layer 2" xmlns="http://www.w3.org/2000/svg" xmlns:xlink="http://www.w3.org/1999/xlink" viewBox="0 0 293 292">
  <defs>
    <style>
      .cls-1, .cls-2 {
        fill: #fff;
      }

      .cls-3 {
        fill: #82345d;
      }

      .cls-4 {
        fill: #f9ead9;
      }

      .cls-5 {
        fill: #e6e6e6;
      }

      .cls-6 {
        fill: #6d2931;
      }

      .cls-2 {
        filter: url(#drop-shadow-1);
      }

      .cls-7 {
        fill: #591e26;
      }

      .cls-8 {
        fill: #eea489;
      }

      .cls-9 {
        clip-path: url(#clippath);
      }

      .cls-10 {
        fill: #c05a4c;
      }

      .cls-11 {
        fill: #fed0b9;
      }

      .cls-12 {
        fill: #f67e66;
      }

      .cls-13 {
        fill: #35231f;
      }
    </style>
    <filter id="drop-shadow-1" filterUnits="userSpaceOnUse">
      <feOffset dx="3" dy="3"/>
      <feGaussianBlur result="blur" stdDeviation="5"/>
      <feFlood flood-color="#000" flood-opacity=".42"/>
      <feComposite in2="blur" operator="in"/>
      <feComposite in="SourceGraphic"/>
    </filter>
    <clipPath id="clippath">
      <circle class="cls-4" cx="143.16" cy="142.85" r="112.77" transform="translate(-59.08 143.07) rotate(-45)"/>
    </clipPath>
  </defs>
  <g id="diverse_portrait_people_icons" data-name="diverse portrait people icons">
    <g>
      <circle class="cls-2" cx="143.53" cy="142.76" r="130.7"/>
      <g>
        <circle class="cls-4" cx="143.16" cy="142.85" r="112.77" transform="translate(-59.08 143.07) rotate(-45)"/>
        <g class="cls-9">
          <g>
            <g>
              <path class="cls-6" d="m211.49,177.55c-8.47-13.46-12.68-25.85-12.68-25.85,1.68,11.03,6.34,28.17,6.34,28.17-3.46,1.19-7.65,2.51-12.48,3.82-7.54,2.05-16.64,4.07-26.93,5.52-6.73.95-13.97,1.65-21.63,1.95h-.05c-2.55.1-5.05.14-7.49.13-21.6-.08-39.04-4.19-50.18-7.77-8.68-2.79-13.54-5.27-13.54-5.27,9.54-14.59,14.59-52.7,14.59-52.7l-2.81-42.7c12.35-19.08,43.21-31.42,43.21-31.42l6.17,2.24s34.79-7.85,41.24-4.49c6.45,3.36,25.53,37.03,26.65,42.08,1.12,5.05-1.68,38.72,0,47.14,1.68,8.41,14.59,37.03,14.59,37.03,0,0-1.75.82-5,2.1Z"/>
              <path class="cls-7" d="m192.67,183.69c-7.54,2.05-16.64,4.07-26.93,5.52l-9.85-28.68,8.25-23.52,11.11-1.68s8.69,21.69,12.35,29.18c3.59,7.37,4.95,18.97,5.08,19.18Z"/>
              <path class="cls-7" d="m168.65,94.39c-4.95,0-19.85-.6-31.65-3.95-14-3.97-20.42-14.92-20.69-15.38-.18-.32-.07-.73.25-.91.32-.18.73-.07.91.25.06.11,6.44,10.95,19.9,14.76,12.67,3.59,28.96,3.99,32.31,3.89.37-.01.67.28.69.65.01.37-.28.67-.65.69-.27,0-.63.01-1.06.01Z"/>
              <path class="cls-12" d="m179.36,96.41c-1.69-3.97-5.94-12.48-13.24-17.74-1.22-.88-2.88-.81-4.01.18l-3.67,3.25c-1.37,1.22-1.45,3.34-.16,4.64,3.28,3.31,9.23,9.5,13.36,14.86,1.13,1.47,3.26,1.67,4.64.44l2.25-1.99c1.03-.91,1.36-2.38.82-3.64Zm-4.47.31c-.97.88-2.48.77-3.31-.25-1.67-2.07-4.1-4.62-5.72-6.27-.92-.94-.86-2.46.14-3.32l.85-.73c.92-.79,2.31-.72,3.14.17,2.07,2.25,4.16,5.59,5.31,7.56.21.36.32.76.32,1.16,0,.62-.25,1.24-.74,1.68Z"/>
              <path class="cls-6" d="m220.28,173.6c-.23,0-.46-.12-.58-.33-12.79-22.24-20.59-43.36-20.67-43.57-.13-.35.05-.73.4-.86.35-.13.73.05.86.4.08.21,7.85,21.23,20.57,43.37.18.32.07.73-.25.91-.1.06-.22.09-.33.09Z"/>
            </g>
            <path class="cls-7" d="m139.58,169.37l-3.02,21.92c-21.6-.08-39.04-4.19-50.18-7.77-8.68-2.79-13.54-5.27-13.54-5.27,9.54-14.59,14.59-52.7,14.59-52.7l.93-36.52s12.91-15.53,18.71-17.02,9.2,2.99,9.2,2.99l23.32,94.37Z"/>
            <g>
              <path class="cls-11" d="m216.49,219.21c-6.73,20.89-36.29,24.7-36.29,24.7,0,0-3.85-1.06-9.64-2.71-12.61-3.61-34.43-10.07-45.68-14.68-16.41-6.73-12.35-25-12.35-25h0s15.71.31,15.71.31l.2-1.59,1.08-8.36,2.3-17.83,3.06-3.42,27.45-30.67,4.5,6.9s.36,6.99.92,14.81h0c.52,7.36,1.22,15.43,1.94,19.11,1.49,7.6.22,15.71,13.69,24.98,2.71,1.86,5.88,3.72,9.28,5.59l.15.08c.75.41,1.51.83,2.29,1.24,7.04,3.78,12.64,4.03,21.38,6.54Z"/>
              <path class="cls-8" d="m195.11,212.67l-14.9,31.24s-3.85-1.06-9.64-2.71c4.19-11.13,22.11-29.85,22.11-29.85l.15.08,2.29,1.24Z"/>
              <path class="cls-8" d="m167.75,161.68h0c-.89,4.5-2.43,10.67-4.7,14.58-3.17,5.44-12.92,19.34-19.15,23.87-1.54,1.12-3.41,1.72-5.33,1.72l-10.31-.02,1.28-9.95,2.3-17.83,3.06-3.42,27.45-30.67,4.5,6.9s.36,6.99.92,14.81Z"/>
            </g>
            <g>
              <path class="cls-11" d="m175.24,135.33l-2.29,7.93c-.76,2.63-3.45,4.22-6.12,3.6l-1.14-.26-1.56-.36c1.05-5.06,3.26-28.59,3.26-28.59,1.2,1.64,2.33,3.7,3.35,5.85,2.68,5.66,4.51,11.83,4.51,11.83Z"/>
              <path class="cls-8" d="m170.74,123.5l-5.04,23.1-.08.4-1.48-.76,3.26-28.59c1.2,1.64,2.33,3.7,3.35,5.85Z"/>
              <path class="cls-8" d="m167.9,134.64l-1.02-.86c.11-.13,2.7-3.17,6.05-4.91l.61,1.18c-3.11,1.62-5.62,4.56-5.64,4.59Z"/>
              <path class="cls-8" d="m170.65,136.06s-.1-2.17-1.75-3.16l.69-1.14c2.28,1.37,2.39,4.14,2.4,4.26l-1.33.04.67-.02-.67.02Z"/>
              <path class="cls-3" d="m167.41,168.42c-.35,0-.71-.01-1.06-.04-3.5-.28-6.68-1.9-8.96-4.57-2.28-2.67-3.38-6.07-3.1-9.57.28-3.5,1.9-6.68,4.57-8.96,2.67-2.28,6.07-3.38,9.57-3.1.53.04.93.51.89,1.04-.04.53-.51.92-1.04.89-2.99-.24-5.89.7-8.17,2.65s-3.66,4.66-3.9,7.65c-.24,2.99.7,5.89,2.65,8.16,1.94,2.28,4.66,3.66,7.65,3.9,6.16.49,11.58-4.13,12.07-10.29.34-4.32-1.87-8.49-5.63-10.64-.46-.26-.62-.85-.36-1.32.26-.46.85-.63,1.32-.36,4.41,2.51,7,7.41,6.6,12.47-.28,3.5-1.9,6.68-4.57,8.96-2.4,2.05-5.39,3.15-8.51,3.15Z"/>
            </g>
            <path class="cls-13" d="m204.83,216.05s-7.44,14.17-12.98,25.14c-2.68,5.31-4.93,9.87-5.66,11.7-.22.55-.46,1.78-.7,3.54-3.76,1.27-7.62,2.4-11.54,3.35.43-3,.85-5.69,1.3-8.01.58-3,1.37-5.92,2.31-8.71,5.9-17.58,17.55-30.39,17.55-30.39l9.72,3.38Z"/>
            <path class="cls-13" d="m122.78,201.72s-4.39,6.29-8.59,13.1c-3.04,4.92-5.97,10.1-7.09,13.39-1.06,3.09-2.24,14.23-3.3,26.82-5.09-1.65-9.9-3.47-14.43-5.37,1.33-10.17,2.89-19.82,4.21-24.07,2.52-8.07,14.47-22.84,15.47-24.06.05-.06.07-.08.07-.08l13.65.28Z"/>
            <g>
              <path class="cls-12" d="m238.39,227.95c-11.75,8.7-30.8,21.03-52.9,28.48-3.76,1.27-7.62,2.4-11.54,3.35-10.43,2.52-21.35,3.74-32.35,2.87-2.7-.21-5.37-.5-7.99-.83-1.34-.17-2.65-.37-3.97-.58-9.19-1.44-17.84-3.62-25.83-6.22-5.09-1.65-9.9-3.47-14.43-5.37-12.06-5.09-22.02-10.76-29.29-15.44,3.65-9.3,7.41-18.02,9.91-21.36,6.31-8.41,16.93-11.77,16.93-11.77l22.12.44,4.25.08s-.45,2.01-.45,4.93c0,2.35.29,5.31,1.34,8.29,1.57,4.5,4.86,9.08,11.46,11.8,13.46,5.52,42.06,13.69,51.9,16.45,2.16.6,3.42.95,3.42.95,0,0,4.77-.65,10.87-2.82,8.9-3.17,20.65-9.58,24.64-21.97,8.84,1.89,18.03,4.29,21.64,8.41.09.1.18.22.27.32Z"/>
              <path class="cls-10" d="m141.48,232.42s-5.79,22.16-7.48,27.77c-.14.46-.27,1.02-.39,1.64-1.34-.17-2.65-.37-3.97-.58.06-.75.14-1.48.24-2.18,1.48-10.11,4.12-29.15,4.12-29.15l7.48,2.5Z"/>
            </g>
            <g>
              <path class="cls-11" d="m167.39,117.66l-2.53,23.99s-1.68,13.47-5.47,20.2c-3.06,5.44-19.01,17.74-25.05,22.27-1.48,1.12-3.29,1.72-5.15,1.72h-10.43c-2.87,0-5.56-1.44-7.15-3.84-13.13-19.8-15.35-40.77-15.35-40.77v-45.87c3.06-11.2,14.61-17.75,18.95-19.86l.09-.04c.38-.19.7-.33.96-.44l.05-.03c.36-.16.57-.24.57-.24.42.78.88,1.53,1.38,2.24,9.35,13.54,30.61,15.44,30.61,15.44l18.52,25.25Z"/>
              <path class="cls-8" d="m167.39,117.66l-.5,4.36-18.44-22.69c-23.52-3.51-33.24-23.84-33.24-23.84l.09-.04.96-.44.05-.03c.17.52.87,1.19,1.95,1.99,9.35,13.54,30.61,15.44,30.61,15.44l18.52,25.25Z"/>
              <path class="cls-8" d="m136.43,152s-8.64-.32-12.68-1.78c-4.05-1.46-11.53-2.27-15.75,2.43l3.8,3.57s22.61-1.46,24.63-4.22Z"/>
              <path class="cls-8" d="m116.2,145.35c-7.05,0-9.6-4.44-9.72-4.65l-.21-.38.26-.35c5.43-7.33,6.59-20.85,6.61-20.98.03-.37.35-.64.72-.61.37.03.64.35.61.72-.05.56-1.17,13.59-6.59,21.29.78,1.07,3.64,4.19,10.07,3.53.36-.04.69.23.73.59.04.37-.23.69-.59.73-.66.07-1.28.1-1.88.1Z"/>
              <path class="cls-6" d="m124.88,110.08s2.53,4.21,8.42,3.51,7.44-3.51,11.78-3.51,7.15.98,7.15.98c0,0-5.05-4.35-11.22-4.35s-16.13,3.37-16.13,3.37Z"/>
              <path class="cls-6" d="m112.54,110.19s-1.45,5.22-6.55,4.66c-5.1-.56-9.73-1.18-9.73-1.18v-3.48s5.47-1.67,16.27,0Z"/>
              <path class="cls-1" d="m136.43,152c-.06.11-1.11,1.83-2.62,4.03-.02.03-.03.05-.05.08-1.06,1.56-2.36,3.35-3.71,4.99-1.92,2.32-3.93,4.32-5.51,4.85-4.35,1.46-11.75.33-12.31,0-.16-.09-.56-1.18-1.06-2.71-.61-1.85-1.35-4.34-1.97-6.44-.19-.66-.37-1.28-.53-1.83-.4-1.38-.67-2.32-.67-2.32,0,0,2.26-1.3,8.53-1.3s16.65,1.94,19.9.65Z"/>
              <path class="cls-13" d="m134.61,154.85c-1.06,1.56-3.22,4.62-4.56,6.25-1.92,2.32-3.93,4.32-5.51,4.85-4.35,1.46-11.75.33-12.31,0-.16-.09-.56-1.18-1.06-2.71-.61-1.85-1.35-4.34-1.97-6.44-.19-.66-.37-1.28-.53-1.83,1.63.76,4.21.76,6.49.76,3.39,0,11.5.48,19.45-.89Z"/>
              <path class="cls-8" d="m144.66,142.45c-.22,0-.44-.11-.56-.31-.2-.31-.1-.72.21-.92l7.58-4.77c.31-.2.72-.1.92.21.2.31.1.72-.21.92l-7.58,4.77c-.11.07-.23.1-.35.1Z"/>
              <path class="cls-8" d="m145.65,145.35c-.21,0-.41-.1-.54-.28-.21-.3-.14-.72.16-.93l7.44-5.29c.3-.21.72-.14.93.16.21.3.14.72-.16.93l-7.44,5.29c-.12.08-.25.12-.39.12Z"/>
              <path class="cls-13" d="m141.28,125.56c0,3.36-1.83,6.09-4.1,6.09s-4.1-2.72-4.1-6.09,1.83-6.09,4.1-6.09,4.1,2.72,4.1,6.09Z"/>
              <path class="cls-13" d="m109.85,125.34c0,3.04-1.66,5.51-3.71,5.51s-3.71-2.47-3.71-5.51,1.66-5.51,3.71-5.51,3.71,2.47,3.71,5.51Z"/>
              <path class="cls-13" d="m142.16,122.32c-.12,0-.24-.03-.35-.1-6.1-3.79-10.5-.21-10.68-.06-.28.24-.7.2-.94-.08-.24-.28-.2-.7.08-.94.05-.04,5.3-4.38,12.24-.06.31.19.41.61.21.92-.13.2-.34.31-.57.31Z"/>
              <path class="cls-13" d="m110.13,122.32c-.14,0-.28-.04-.4-.13-4.66-3.46-9.28-.14-9.47,0-.3.22-.71.16-.93-.14-.22-.3-.16-.71.14-.93.06-.04,5.59-4.06,11.06,0,.3.22.36.64.14.93-.13.18-.33.27-.54.27Z"/>
            </g>
            <g>
              <path class="cls-1" d="m152.21,249.24c0,1.41-.69,2.66-1.75,3.42-.66.48-1.46.76-2.32.79-.04,0-.08,0-.13,0-2.32,0-4.21-1.88-4.21-4.21,0-1.26.55-2.39,1.43-3.16.46-.4,1-.71,1.61-.88.37-.11.76-.17,1.17-.17,2.32,0,4.21,1.88,4.21,4.21Z"/>
              <path class="cls-5" d="m150.45,252.66c-.66.48-1.46.76-2.32.79l-2.91-7.36c.46-.4,1-.71,1.61-.88l3.62,7.45Z"/>
            </g>
          </g>
        </g>
      </g>
    </g>
  </g>
</svg>