<?xml version="1.0" encoding="UTF-8"?>
<svg id="Layer_2" data-name="Layer 2" xmlns="http://www.w3.org/2000/svg" xmlns:xlink="http://www.w3.org/1999/xlink" viewBox="0 0 292 292">
  <defs>
    <style>
      .cls-1, .cls-2 {
        fill: #fff;
      }

      .cls-3 {
        fill: #b0775c;
      }

      .cls-4 {
        fill: #f9ead9;
      }

      .cls-5 {
        fill: #f66d51;
      }

      .cls-6 {
        fill: #844b36;
      }

      .cls-2 {
        filter: url(#drop-shadow-1);
      }

      .cls-7 {
        clip-path: url(#clippath);
      }

      .cls-8 {
        fill: none;
      }

      .cls-9 {
        fill: #39302b;
      }

      .cls-10 {
        fill: #35231f;
      }

      .cls-11 {
        fill: #965a42;
      }
    </style>
    <filter id="drop-shadow-1" filterUnits="userSpaceOnUse">
      <feOffset dx="3" dy="3"/>
      <feGaussianBlur result="blur" stdDeviation="5"/>
      <feFlood flood-color="#000" flood-opacity=".42"/>
      <feComposite in2="blur" operator="in"/>
      <feComposite in="SourceGraphic"/>
    </filter>
    <clipPath id="clippath">
      <circle class="cls-8" cx="142.49" cy="143.7" r="112.77" transform="translate(-59.88 142.84) rotate(-45)"/>
    </clipPath>
  </defs>
  <g id="diverse_portrait_people_icons" data-name="diverse portrait people icons">
    <g>
      <circle class="cls-2" cx="142.75" cy="143.21" r="130.7"/>
      <g>
        <circle class="cls-4" cx="142.49" cy="143.7" r="112.77" transform="translate(-59.88 142.84) rotate(-45)"/>
        <g class="cls-7">
          <g>
            <g>
              <path class="cls-9" d="m150.55,182.87s29.26-2.49,33.08-3.21c1.9-.36,7.57-3.33,12.8-6.23,1.53-.85,3.02-1.7,4.37-2.46l-2.95-6.15-5.37-13.09,11.65,17.31c1.48-.85,2.39-1.39,2.39-1.39,0,0-10.51-18.93-11.76-23.33-1.25-4.39-3.78-42.78-3.78-42.78l-29.12,6.84-3.46,7.9-14.48,33.04,6.64,33.56Z"/>
              <path class="cls-9" d="m66.12,164.9s3.86,3.02,8,6.19c4.05,3.09,8.37,6.33,9.66,7.05.91.51,5.45,1.14,10.99,1.73,10.33,1.12,24.12,2.16,24.12,2.16l-.45-50.31.97-.22,60.5-13.65s20.2-21.47,20.3-26.25c.09-4.78-27.25-40.48-28.94-42.56-1.69-2.08-37.27-5.1-40.99-4.03-3.71,1.06-18.6,12.97-18.6,12.97,0,0-9.95,1.01-12.7,2.89-2.75,1.88-14.65,24.27-15.37,28.14-.73,3.86,3.54,40.66,2.53,43.5-1.02,2.85-20.01,32.39-20.01,32.39Z"/>
              <path d="m154.18,71.82s30.2,7.84,33,9.97c2.8,2.13,5.74,11.16,5.79,12.61.05,1.45-14.06,18.63-14.06,18.63l-24.72-41.2Z"/>
              <path d="m94.77,179.87c10.33,1.12,24.12,2.16,24.12,2.16l-.45-50.31.97-.22-.34-3.98-9.75,4.24s-4.27,26.07-5.09,29.59c-.76,3.23-8.21,16.36-9.45,18.52Z"/>
              <path d="m66.12,164.9s3.86,3.02,8,6.19c5.96-10.49,18.26-32.3,18.96-34.71.92-3.19-2.63-38.73-2.38-44.28.24-5.55,8.85-24.08,9.62-26.5.78-2.41,11.35-7.62,11.35-7.62,0,0-9.95,1.01-12.7,2.89-2.75,1.88-14.65,24.27-15.37,28.14-.73,3.86,3.54,40.66,2.53,43.5-1.02,2.85-20.01,32.39-20.01,32.39Z"/>
              <path class="cls-9" d="m189.06,111.99l-1.15-1.21c4.16-3.99,14.98-15.26,15.04-19.48.05-3.72-16.48-19.24-26.92-28.15l1.08-1.27c2.82,2.41,27.58,23.71,27.51,29.44-.08,5.69-13.97,19.15-15.55,20.67Z"/>
              <path d="m63.08,161.48c-.16,0-.32-.05-.47-.14-.38-.26-.48-.78-.22-1.16.17-.25,17.24-25.53,19.72-29.48,1.97-3.13,2.91-16.65,3.11-21.59.02-.46.41-.82.87-.8.46.02.82.41.8.87-.03.74-.76,18.26-3.36,22.41-2.49,3.97-19.58,29.27-19.75,29.53-.16.24-.42.37-.69.37Z"/>
              <path d="m150.55,182.87s29.26-2.49,33.08-3.21c1.9-.36,7.57-3.33,12.8-6.23-3.02-8.35-8.62-24-9.74-27.91-1.54-5.41-2.63-33.61-2.63-33.61l-25.67,4.36-14.48,33.04,6.64,33.56Z"/>
            </g>
            <path class="cls-5" d="m222.71,229.66c-14.47,10.38-39.01,25.84-62.73,30.97-1.99.44-3.97.8-5.94,1.07-3.07.44-6.12.67-9.11.67-4.1,0-8.51-.39-13.12-1.1-3.59-.55-7.32-1.29-11.11-2.18-7.37-1.73-15.04-4.03-22.63-6.64l34.12-19.04,26.59-14.85,32.02-17.88s19.75,6.43,24.27,14.65c.89,1.6,3.69,6.89,7.65,14.33Z"/>
            <g>
              <path class="cls-3" d="m190.78,200.68s-5.62,18.78-9.53,24.27c-.89,1.27-4.74,4.47-10.27,8.68-3.17,2.42-6.89,5.18-10.93,8.1-4.51,3.27-9.43,6.74-14.39,10.16-4.66,3.23-9.38,6.43-13.85,9.38-3.59-.55-7.32-1.29-11.11-2.18-7.37-1.73-15.04-4.03-22.63-6.64-16.71-5.74-33.05-12.91-45.13-18.62,1.18-4.29,2.24-7.38,3.05-8.3,3.87-4.4,20.68-14.67,26.72-17.85,6.04-3.17,26.28-15.52,26.28-15.52l3.15-26.12-1.14-24.54.08-.02,4.56-1.66,34.65,29.23s1.77,10.8,3.5,17.62c.24.95.48,1.81.73,2.57.43,1.39.84,2.38,1.21,2.75,2.03,1.97,35.07,8.68,35.07,8.68Z"/>
              <path class="cls-11" d="m112.14,146.58c1.86,6.54,5.58,13.95,8.95,18.53,1.72,2.35,10.33,11.67,15.2,16.9,2.15,2.31,5.1,3.73,8.25,3.96l9.24.7c-1.74-6.82-3.5-17.62-3.5-17.62l-34.65-29.23-4.55,1.66c.19,1.58.56,3.31,1.07,5.1Z"/>
              <path class="cls-11" d="m173.83,231.25l-2.85,2.38c-3.17,2.42-6.89,5.18-10.93,8.1-4.51,3.27-9.43,6.74-14.39,10.16-4.66,3.23-9.38,6.43-13.85,9.38-3.59-.55-7.32-1.29-11.11-2.18,6.51-3.25,14.23-7.25,21.74-11.18,6.29-3.28,12.43-6.53,17.6-9.28,7.92-4.21,13.53-7.22,13.79-7.37Z"/>
            </g>
            <g>
              <path class="cls-3" d="m115.84,144.12c1.27,4.44,3.3,8.64,6.08,12.38,2.4,3.22,5.26,6.08,8.5,8.46l12.21,9c2.5,1.85,5.6,2.7,8.69,2.4l6.17-.6c.46-.04.91-.11,1.35-.2,3.17-.66,5.98-2.52,7.83-5.22l4.44-6.38c4.2-6.12,7.38-17.25,7.84-24.65,1.04-16.58,2.9-43.46,1.57-48.15-1.84-6.47-25.5-18.91-26.32-19.34h-.03s-.29,2.82-5.73,8.75c-5.44,5.94-28.19,18.45-28.19,18.45l-7.69,19.03,1.86,18.45c.23,2.59.7,5.14,1.41,7.61Z"/>
              <path class="cls-11" d="m158.85,175.56c3.17-.66,5.98-2.52,7.83-5.22l4.44-6.38c4.2-6.12,7.38-17.25,7.84-24.65,1.04-16.58,2.9-43.46,1.57-48.15-1.84-6.47-25.5-18.91-26.32-19.34h-.03s21.01,16.66,22.63,20.59c0,0-.26,49.54-.58,51.82-.32,2.28-8.48,20.69-11.06,23.62-2.24,2.54-5.5,6.67-6.31,7.7Z"/>
              <path class="cls-3" d="m101.3,129.12l4.39,11.76c.63,1.69,2.34,2.74,4.13,2.54l2.9-.33,2.84-.32-3.03-24.68-3.69-.98-1.67-.45c-2.25-.6-4.52.88-4.89,3.18l-1.18,7.29c-.11.67-.04,1.37.2,2Z"/>
              <path d="m153.52,107.34s-2.26,4.24-5.45,4.6c-3.19.36-9.85-1.21-12.36-1.05-2.51.17-5.07,1.45-5.07,1.45,0,0,3.62-3.96,5.94-4.8,2.32-.84,12.26-.57,12.26-.57l1.23,1.11,3.44-.74Z"/>
              <path class="cls-6" d="m164.7,147.07c-2.93,0-5.62-3.01-5.74-3.15-.3-.35-.27-.87.07-1.18.35-.3.87-.27,1.18.07.68.77,2.84,2.72,4.69,2.57,1.84-.15,5.78-2.09,7.74-3.14-.8-2.67-3.85-12.82-4.91-15.96-1.27-3.81-.68-8.75-.66-8.96.06-.46.48-.78.93-.73.46.06.78.47.73.93,0,.05-.57,4.79.58,8.23,1.22,3.64,5.08,16.53,5.11,16.66l.19.64-.58.33c-.25.14-6.18,3.44-9.01,3.67-.11,0-.22.01-.34.01Z"/>
              <path class="cls-1" d="m172.48,151.64l-5.02,1.19-10.33.51-10.4-1.42s6.95,6.43,9.81,7.07c2.86.65,8.05.02,9.36-.93.78-.57,6.58-6.41,6.58-6.41Z"/>
              <polygon class="cls-11" points="112.73 143.19 115.56 142.76 112.53 118.08 108.84 117.1 112.72 143.08 112.73 143.19"/>
              <path d="m169.77,107.94s.24,4.68,1.88,5.31c1.64.63,8.93.56,8.93.56l.12-4.06-6.93-1.86-1.23,1.45-2.78-1.4Z"/>
              <path class="cls-10" d="m142.88,124.3c.26,2.8,1.92,4.94,3.7,4.78,1.79-.16,3.03-2.57,2.77-5.37-.26-2.8-1.92-4.94-3.7-4.78-1.79.16-3.03,2.57-2.77,5.37Z"/>
              <path class="cls-10" d="m141.06,122.81c-.25,0-.49-.11-.66-.32-.29-.36-.22-.89.14-1.17,6.26-4.93,10.65-1.66,10.83-1.52.37.28.43.81.15,1.17-.28.36-.8.43-1.17.16h0c-.14-.11-3.59-2.59-8.78,1.51-.15.12-.33.18-.52.18Z"/>
              <path class="cls-10" d="m170.52,123.69c.1,2.81,1.63,5.04,3.43,4.98,1.79-.06,3.17-2.39,3.07-5.21-.1-2.81-1.63-5.04-3.43-4.98-1.79.06-3.17,2.39-3.07,5.21Z"/>
              <path class="cls-10" d="m168.84,122.1c-.26,0-.52-.12-.68-.36-.26-.38-.17-.9.21-1.16,6.53-4.57,10.72-1.06,10.9-.9.35.3.39.83.09,1.18-.3.35-.82.39-1.17.09-.14-.12-3.44-2.78-8.85,1.01-.15.1-.31.15-.48.15Z"/>
              <path class="cls-11" d="m112.49,134.79c-.36,0-.69-.23-.8-.6-1.7-5.68-6.77-6.69-6.82-6.7-.45-.09-.75-.52-.67-.97.09-.45.52-.75.97-.67.25.05,6.12,1.22,8.11,7.86.13.44-.12.91-.56,1.04-.08.02-.16.04-.24.04Z"/>
              <path class="cls-11" d="m108.14,136.21c-.34,0-.67-.22-.79-.56-.03-.08-.69-2.03.31-3.56.63-.97,1.73-1.52,3.26-1.65.46-.03.86.31.9.77.04.46-.31.86-.77.9-.99.08-1.66.38-2,.89-.54.83-.14,2.09-.13,2.1.15.44-.08.91-.51,1.06-.09.03-.18.05-.28.05Z"/>
            </g>
            <g>
              <path class="cls-10" d="m159.98,261.46s0,0,0,0c-.46,0-.83-.38-.83-.84.04-5.19.09-12.69.07-18.88,0-1.07,0-2.12-.01-3.1-.02-2.46-.05-4.62-.1-6.14-.08-2.51-.47-7.17-1.16-13.85-1.24-11.94-3.04-26.39-3.06-26.54-.06-.46.27-.87.73-.93.46-.06.87.27.93.73.02.14,1.82,14.62,3.06,26.57.69,6.72,1.09,11.42,1.17,13.97.06,1.54.08,3.71.1,6.18.01.98.01,2.04.01,3.11.02,6.2-.03,13.7-.07,18.9,0,.46-.38.83-.83.83Z"/>
              <path class="cls-10" d="m154.03,262.53c-.23,0-.46-.1-.63-.28-3.08-3.51-5.91-6.82-8.39-9.83-1.1-1.33-2.19-2.68-3.23-4-3.27-4.1-5.65-7.35-7.28-9.93-.78-1.25-1.77-2.75-3.02-4.62-.86-1.28-1.8-2.67-2.78-4.14-7.65-11.35-18.14-26.9-20.2-34.68-.31-1.17-.42-2.17-.35-2.97.04-.46.45-.79.91-.75.46.04.79.45.75.91-.06.6.05,1.42.3,2.38,1.99,7.51,12.39,22.92,19.97,34.18.99,1.47,1.93,2.86,2.79,4.14,1.26,1.89,2.26,3.4,3.05,4.66,1.57,2.49,3.98,5.78,7.17,9.78,1.04,1.31,2.12,2.65,3.21,3.97,2.48,3,5.29,6.29,8.36,9.79.3.35.27.87-.08,1.18-.16.14-.35.21-.55.21Z"/>
              <path class="cls-10" d="m133.05,214.37c-1.8,0-3.31-.2-4.31-.59-3.77-1.5-19.04-16.41-20.65-19.2-.23-.4-.09-.91.31-1.14.4-.23.91-.09,1.14.31,1.45,2.52,16.5,17.17,19.82,18.49,3.36,1.33,13.6.03,18.57-3.71,4.02-3.02,5.53-15.37,5.77-19.88.02-.46.42-.81.88-.79.46.02.81.42.79.88-.04.69-.96,17.01-6.43,21.12-4.05,3.04-11,4.52-15.88,4.52Z"/>
            </g>
          </g>
        </g>
      </g>
    </g>
  </g>
</svg>