<?xml version="1.0" encoding="UTF-8"?>
<svg id="Layer_2" data-name="Layer 2" xmlns="http://www.w3.org/2000/svg" xmlns:xlink="http://www.w3.org/1999/xlink" viewBox="0 0 292 292">
  <defs>
    <style>
      .cls-1, .cls-2 {
        fill: #fff;
      }

      .cls-3 {
        fill: #68234e;
      }

      .cls-4 {
        fill: #647360;
      }

      .cls-5 {
        fill: #82345d;
      }

      .cls-6 {
        fill: #7d9c81;
      }

      .cls-7 {
        fill: #f9ead9;
      }

      .cls-2 {
        filter: url(#drop-shadow-1);
      }

      .cls-8 {
        fill: #fcb552;
      }

      .cls-9 {
        fill: #eea489;
      }

      .cls-10 {
        fill: #e89d43;
      }

      .cls-11 {
        clip-path: url(#clippath);
      }

      .cls-12 {
        fill: #fed0b9;
      }

      .cls-13 {
        fill: #35231f;
      }
    </style>
    <filter id="drop-shadow-1" filterUnits="userSpaceOnUse">
      <feOffset dx="3" dy="3"/>
      <feGaussianBlur result="blur" stdDeviation="5"/>
      <feFlood flood-color="#000" flood-opacity=".42"/>
      <feComposite in2="blur" operator="in"/>
      <feComposite in="SourceGraphic"/>
    </filter>
    <clipPath id="clippath">
      <circle class="cls-7" cx="142.76" cy="143.22" r="112.77" transform="translate(-59.46 142.89) rotate(-45)"/>
    </clipPath>
  </defs>
  <g id="diverse_portrait_people_icons" data-name="diverse portrait people icons">
    <g>
      <circle class="cls-2" cx="143.27" cy="143.12" r="130.7"/>
      <g>
        <circle class="cls-7" cx="142.76" cy="143.22" r="112.77" transform="translate(-59.46 142.89) rotate(-45)"/>
        <g class="cls-11">
          <g>
            <g>
              <path class="cls-8" d="m101.32,107.54s-6.35,28.18-16.27,44.85c-9.92,16.67-13.5,29.37-13.5,29.37,0,0,10.19,19.45,21.76,27.39,11.58,7.94,59.71-11.91,59.71-11.91l-28.34-105.13s-10.66,2.72-23.37,15.42Z"/>
              <path class="cls-10" d="m100.78,109.79l2.02.39s2.54,5.37,2.82,6.58c.17.57,3.77,2.19,3.77,2.19l-1.96-16.72-6.12,5.31-.54,2.26Z"/>
              <path class="cls-8" d="m182.69,100.27s-14.29-11.52-29.51-11.79l5.23,124.24,47.3-3.57s1.59-17.47,4.37-25.01c2.78-7.54,2.38-13.5-5.56-26.6-7.94-13.1-20.24-34.44-20.64-38.26-.4-3.82-1.19-19.02-1.19-19.02Z"/>
              <path class="cls-10" d="m110.36,120.77s-1.9,9.79-9.04,19.71c-7.14,9.92-8.34,25.01-7.94,31.76.4,6.75,23.02,34.93,23.02,34.93l49.62,1.98s15.08-18.26,18.66-32.15c3.57-13.89,4.76-24.61,0-33.74-4.76-9.13-11.72-26.5-11.72-26.5l-62.6,4.01Z"/>
              <path class="cls-8" d="m86.9,213.35c-.2,0-.4-.1-.52-.28-.09-.13-9.06-13.48-13-20.83-4.12-7.68-1.76-10.75-1.65-10.88.22-.27.61-.31.88-.09.27.22.31.61.1.88-.04.06-1.87,2.7,1.78,9.5,3.91,7.29,12.84,20.59,12.93,20.72.19.29.12.68-.17.87-.11.07-.23.11-.35.11Z"/>
            </g>
            <g>
              <path class="cls-12" d="m103.52,137.18s1.68,6.97,3.09,8.02c1.41,1.06,4.74.71,4.74.71l-.75-19.02h-2.08s-2.81,6.99-5.01,10.29Z"/>
              <polygon class="cls-9" points="108.53 126.89 107.43 129.47 109.65 145.96 111.35 145.91 110.6 126.89 108.53 126.89"/>
              <path class="cls-9" d="m106.68,140.1c-.13,0-.26-.04-.38-.12-.28-.21-.33-.6-.13-.88.05-.06,1.19-1.58,2.99-2.3.32-.13.69.03.82.35.13.32-.03.69-.35.82-1.46.58-2.44,1.88-2.45,1.89-.12.16-.31.25-.5.25Z"/>
              <path class="cls-9" d="m109.65,140.1c-.23,0-.45-.12-.56-.34l-2.98-5.73c-.16-.31-.04-.69.27-.85s.69-.04.85.27l2.98,5.73c.16.31.04.69-.27.85-.09.05-.19.07-.29.07Z"/>
            </g>
            <g>
              <path class="cls-5" d="m230,234.58c-4.94,3.05-11.21,6.74-18.35,10.54-3.69,1.97-7.63,3.97-11.73,5.92-2.37,1.13-4.79,2.25-7.26,3.34-7.87,3.46-16.2,6.62-24.58,9.05-14.36,4.15-28.89,6.11-41.58,3.57-9.89-1.97-18.9-4.69-27.08-7.84-13.21-5.08-24.2-11.3-33.03-17.43-3.19-2.22-6.09-4.4-8.71-6.52,3.43-7.26,7.12-13.96,9.61-16.12,2.27-1.97,9.52-5.45,17.74-9.18,1.9-.87,3.87-1.74,5.83-2.62,4.39-1.96,8.79-3.91,12.65-5.66h.01s3.74,4.07,8.31,8.36c4.22,3.95,9.16,8.06,12.55,9.26.27.09.52.17.76.23,3.09.73,16.71,2.38,30.93,3.98,2.79.3,5.61.62,8.37.92,10.73,1.18,20.69,2.24,25.44,2.75,1.42.15,2.38.24,2.75.29.51.06,1.21.15,2.08.24,2.99.32,7.94.6,13.48-.85,4.28-1.13,8.92-3.31,13.28-7.33,2.03,3.14,5.32,9.08,8.54,15.11Z"/>
              <path class="cls-3" d="m100.29,259.23l-1.75-.17c1.05-11.03,1.24-23.44,1.24-23.57l1.76.03c0,.12-.2,12.6-1.25,23.71Z"/>
              <path class="cls-3" d="m103.5,201.63c-.31.21-5.02,3.42-10.49,7.31-6.45,4.61-13.98,10.17-16.54,12.88-2.48,2.62-6.64,11.54-10.09,19.91-3.19-2.22-6.09-4.4-8.71-6.52,3.43-7.26,7.12-13.96,9.61-16.12,2.27-1.97,9.52-5.45,17.74-9.18,1.9-.87,3.87-1.74,5.83-2.62,4.39-1.96,8.79-3.91,12.65-5.66Z"/>
            </g>
            <g>
              <path class="cls-12" d="m221.46,219.47c-11.64,10.72-25.27,8.33-28.84,7.94-3.57-.4-60.73-6.35-67.48-7.94-6.75-1.59-21.62-17.85-21.62-17.85,6.41-2.92,11.3-5.31,12.09-6.36,1.64-2.18,3.94-16.6,5.22-25.42.59-4.02.96-6.88.96-6.88l39.97,2.98s.04.49.1,1.34c.4,5.1,1.86,23.22,2.88,25.6.33.78,3.31,1.96,7.53,3.31h0c1.4.45,2.95.92,4.58,1.39,11.09,3.24,26.19,6.89,29.21,8.08,3.97,1.57,8.36,4.56,12.68,10.03.9,1.15,1.81,2.4,2.7,3.78Z"/>
              <path class="cls-9" d="m221.46,219.47c-11.64,10.72-25.27,8.33-28.84,7.94-3.57-.4-60.73-6.35-67.48-7.94,0,0,53.98,4.23,68.28,3.81,14.29-.42,25.35-7.59,25.35-7.59.9,1.15,1.81,2.4,2.7,3.78Z"/>
              <path class="cls-9" d="m162.49,174.87s-6.39,17.61-11.16,19.46c-4.77,1.85-17.87.2-20.91-.62-3.03-.82-12.53-6.38-12.53-6.38l3.89-24.38,39.97,2.98.73,8.93Z"/>
              <path class="cls-9" d="m176.87,197.58l-7.38,25.71-9.79-1.48c2.02-12.75,12.58-25.62,12.58-25.62h0c1.4.45,2.95.92,4.58,1.39Z"/>
            </g>
            <g>
              <path class="cls-12" d="m109.65,102.77l1.85,46.97c.09,2.24.89,4.39,2.29,6.13l13.8,17.21c2.19,2.73,5.52,4.29,9.02,4.23l11.92-.21c3.74-.07,7.2-1.98,9.25-5.1l11.11-16.94c.98-1.49,1.56-3.21,1.69-4.99l3.52-49.33s-10.86-12.26-25.15-12.26c-32.15,0-39.3,14.29-39.3,14.29Z"/>
              <path class="cls-9" d="m137.18,141.11s-.04,0-.07,0c-.35-.04-.59-.35-.56-.69l1.44-13.45-2.83-5.93c-.15-.31-.02-.69.3-.84.31-.15.69-.02.84.3l2.99,6.25-1.47,13.81c-.03.32-.31.56-.62.56Z"/>
              <path class="cls-9" d="m142.32,149.37c-2.68,0-5.38-1.72-5.49-1.79-.29-.19-.38-.58-.19-.87s.58-.38.87-.19c.02.02,2.53,1.62,4.84,1.59,2.31-.01,4.9-1.18,4.93-1.19.32-.14.69,0,.83.31.14.32,0,.69-.31.83-.12.05-2.86,1.29-5.44,1.31-.01,0-.02,0-.04,0Z"/>
              <path class="cls-13" d="m128.48,126.89c0,2.45-1.5,4.43-3.35,4.43s-3.35-1.99-3.35-4.43,1.5-4.43,3.35-4.43,3.35,1.99,3.35,4.43Z"/>
              <ellipse class="cls-13" cx="158.41" cy="126.89" rx="3.35" ry="4.43"/>
              <path class="cls-10" d="m133.21,115.87s-.26,4.5-8.07,3.18c-7.81-1.32-11.91-1.47-11.91-1.47,0,0,2.12-3.83,9.13-3.3,7.01.53,10.85,1.59,10.85,1.59Z"/>
              <path class="cls-10" d="m148.42,115.87s.26,4.5,8.07,3.18c7.81-1.32,11.91-1.47,11.91-1.47,0,0-2.12-3.83-9.13-3.3-7.01.53-10.85,1.59-10.85,1.59Z"/>
              <path class="cls-1" d="m156.35,152.89c-.52,1.22-2.99,6.8-4.4,7.43-1.59.71-15.87.89-17.37.36-1.47-.52-5.23-7.79-5.34-8.02.5.32,1.02.64,1.42.84,1.06.53,24.41,0,24.41,0,0,0,.58-.25,1.28-.61Z"/>
              <path class="cls-9" d="m138.09,154.36c-4.07,0-7.27-.08-7.72-.3-.48-.25-1.07-.61-1.48-.88l-.05-.04c-.82-.53-1.56-1.07-1.56-1.07-.28-.2-.35-.6-.14-.88.2-.28.6-.35.88-.14,0,0,.75.54,1.56,1.06l.05.03c.52.34.99.61,1.31.78,1.07.32,15.24.13,23.99-.07.2-.09.63-.28,1.13-.54.89-.45,1.57-.88,1.92-1.22.25-.24.65-.23.89.02.24.25.23.65-.02.89-.56.53-1.51,1.07-2.21,1.42-.72.37-1.32.63-1.32.63l-.23.05c-4.1.09-11.38.24-16.99.24Z"/>
              <path class="cls-13" d="m120.64,125.36c-.14,0-.29-.05-.41-.15-.26-.22-.3-.62-.08-.88.04-.04,3.67-4.26,9.41-.66.29.18.38.57.2.87-.18.29-.57.38-.87.2-4.79-3.01-7.66.26-7.78.4-.12.15-.3.22-.48.22Z"/>
              <path class="cls-13" d="m154.11,125.36c-.14,0-.29-.05-.41-.15-.26-.22-.3-.62-.08-.88.04-.04,3.67-4.26,9.41-.66.29.18.38.57.2.87-.18.29-.57.38-.87.2-4.79-3.01-7.66.26-7.78.4-.12.15-.3.22-.48.22Z"/>
            </g>
            <g>
              <g>
                <path class="cls-8" d="m162.45,50.64c-.06,1.54-1.26,4.37-2.38,6.69-.99,2.06-1.92,3.72-1.92,3.72l-34.73-4.32s-1.84-5.03-1.23-8.73c.33-2.04,5.98-5.21,11.23-7.6h0c4.27-1.94,8.28-3.37,8.94-3.25,1.47.26,20.21,10.58,20.1,13.5Z"/>
                <path class="cls-10" d="m160.07,57.33c-.99,2.06-1.92,3.72-1.92,3.72l-34.73-4.32s-1.84-5.03-1.23-8.73c.33-2.04,5.98-5.21,11.23-7.6h0s-.98,6.62-1.4,8.69c-.43,2.08,15.52,2.48,17.15,3.27,1.17.57,7.49,3.43,10.9,4.97Z"/>
                <path class="cls-8" d="m161.76,61.67c-.11,0-.23-.03-.33-.09-.3-.18-.39-.57-.21-.86,3.04-4.95,5.09-9.97,4.3-10.54-16.88-12.11-23.09-11.31-23.16-11.3-.34.05-.66-.18-.72-.52-.06-.34.16-.66.5-.72.26-.05,6.63-1.03,24.11,11.51,2.22,1.59-2.03,9.07-3.96,12.22-.12.19-.33.3-.54.3Z"/>
              </g>
              <path class="cls-8" d="m186.2,78.69c.06,1.85-1.81,13.42-1.81,13.42l-82.76,1.88-2.3.05s-.36-.84-.88-2.12c-1.44-3.55-4.07-10.48-3.49-12.21.79-2.34,20.77-20.21,28.25-22.99,7.47-2.78,47.23,4.76,52.16,7.94,4.93,3.17,10.77,12.18,10.83,14.02Z"/>
              <path class="cls-10" d="m121.79,84.48l-20.16,9.51-2.3.05s-.36-.84-.88-2.12c1.3-2.23,6.59-7.17,6.59-7.17-1.37-1.88-.37-10.22-.37-10.22l17.11,9.94Z"/>
            </g>
            <g>
              <path class="cls-6" d="m155.48,87.72s.35,5,2.73,6.58c2.38,1.59,7.67,2.65,10.32,6.62,2.65,3.97,1.85,11.91,1.85,11.91,0,0-8.66-6.09-13.59-10.32-4.93-4.23-3.61-14.03-3.61-14.03l2.3-.76Z"/>
              <path class="cls-6" d="m186.13,98.14c-.49,1.59-3.44,2.13-3.44,2.13,0,0-22.97-16.55-48.11-10.68-21.36,4.98-33.26,17.95-33.26,17.95,0,0-3.7-2.64-3.97-4.23-.26-1.59,1.99-9.26,1.99-9.26,0,0,3.97-3.96,12.02-7.72,2.9-1.35,6.33-2.68,10.29-3.79,5.33-1.49,11.64-2.58,18.92-2.78,27.7-.8,43.83,12.36,43.83,12.36,0,0,2.23,4.44,1.74,6.03Z"/>
              <path class="cls-4" d="m186.13,98.14c-.49,1.59-3.44,2.13-3.44,2.13,0,0-22.97-16.55-48.11-10.68-21.36,4.98-33.26,17.95-33.26,17.95,0,0-3.7-2.64-3.97-4.23,1.59-4.24,20.08-12.88,30.04-15.58-12.83,1.42-16.03-1.4-16.03-1.4l10.29-3.79,31.54,2.22s6.88,1.34,12.46,2.97c5.58,1.62,20.48,10.42,20.48,10.42Z"/>
              <path class="cls-6" d="m145.14,81.14s-7.57-4.3-12.6-7.21c-5.03-2.91-28.32,0-28.32,0,0,0,1.59,10.81,11.11,10.83,9.53.02,18.79-2.1,18.79-2.1l11.01,2.1v-3.61Z"/>
              <path class="cls-6" d="m148.13,77.59s-3,2.33-3.67,5.33c-.67,3-.33,7.33,3.67,9,0,0,6.64,0,8.67-7.17.07-2.62-8.67-7.17-8.67-7.17Z"/>
            </g>
            <g>
              <path class="cls-8" d="m143.03,88.4s0,0,0,0c-.15.3-4.32,8.37-13.79,11.86-9.65,3.56-19.17,10.61-19.58,13.96,0,0,.28,6.66,0,4.15,0,0-3.84-7.67-3.84-7.67-2.3-6.22.84-10.85,5.54-14.38,10.43-7.85,28.76-9.94,31.67-7.93Z"/>
              <path class="cls-10" d="m143.02,88.41c-.15.36-4.32,9.93-13.79,14.07-9.65,4.22-19.17,12.59-19.58,16.56,0,0-2.22-5.09-2.22-5.1.05-.24,3.11-8.09,11.84-11.46,8.86-3.42,18.18-5.28,23.75-14.07Z"/>
            </g>
            <g>
              <path d="m140.74,254.77l-.57-.66c-8.36-9.67-24.48-56.65-25.17-58.65-.11-.33.06-.69.39-.8.33-.11.69.06.8.39.16.48,16,46.64,24.37,57.55,2-3.37,9.98-16.96,13.27-24.93,3.75-9.1,10.23-34.69,10.29-34.95.08-.34.43-.54.76-.46.34.08.54.43.46.76-.07.26-6.57,25.94-10.35,35.12-3.78,9.19-13.71,25.7-13.81,25.87l-.45.74Z"/>
              <path d="m137.14,263.4l1.68-11.66h3.28l2.08,11.66s-2.2,2.65-7.04,0Z"/>
            </g>
            <g>
              <path class="cls-8" d="m211.65,245.12c-3.69,1.97-7.63,3.97-11.73,5.92-2.37,1.13-4.79,2.25-7.26,3.34-7.87,3.46-16.2,6.62-24.58,9.05.23-.89.35-1.64.32-2.14-.13-2.64-4.63-19.05-3.97-36.91.02-.62.06-1.23.1-1.84.01-.12.02-.22.03-.33.3-3.68,1.04-7.06,2.01-10.09.95-3.02,2.14-5.7,3.32-7.97,1.72-3.28,3.47-5.75,4.67-7.25.88-1.13,1.45-1.72,1.45-1.72h.01c.76-.03,31.72-1.37,30.03,10.49-.08.55-.14,1.13-.18,1.72,0,.06,0,.12-.01.16-.24,3.95.3,8.62,1.14,13.38.35,1.96.74,3.94,1.15,5.87,1.57,7.39,3.37,14.31,3.47,18.32Z"/>
              <path class="cls-10" d="m199.92,251.04c-2.37,1.13-4.79,2.25-7.26,3.34-.45-4.89-1.36-10.26-2.69-15.21-.99-3.7-.82-7.95-.1-12.04.22-1.29.5-2.57.8-3.81,1.85-7.35,4.86-13.36,4.86-13.36-.22,2.94-.69,7.92-.82,13.28-.03,1.45-.05,2.93-.01,4.42.09,5.84.76,11.62,2.69,15.37,1.37,2.65,2.14,5.45,2.54,8.01Z"/>
            </g>
            <g>
              <path class="cls-12" d="m179.78,132.9s-2.53,10.8-3.66,11.77c-.7.61-2.52.35-3.79.06-.71-.16-1.24-.32-1.33-.34h-.01s1.25-17.5,1.25-17.5l3.08-.93,1.28-.39,3.18,7.34Z"/>
              <polygon class="cls-9" points="175.32 125.95 172.33 144.73 172.28 145.04 171 144.39 170.99 144.39 172.24 126.89 175.32 125.95"/>
              <path class="cls-9" d="m172.28,138c-.14,0-.29-.05-.4-.15-.27-.22-.3-.62-.08-.89l5.08-6.05c.22-.27.62-.3.89-.08.27.22.3.62.08.89l-5.08,6.05c-.12.15-.3.22-.48.22Z"/>
              <path class="cls-9" d="m176.03,139.66c-.32,0-.6-.25-.63-.57,0-.07-.2-1.4-2.39-1.99-.34-.09-.53-.43-.44-.77.09-.34.43-.53.77-.44,3.1.83,3.31,3,3.31,3.09.03.35-.23.65-.58.68-.02,0-.03,0-.05,0Z"/>
            </g>
            <g>
              <path d="m126.21,145.82c-2.85,0-5.75-.23-7.63-.42-1.31-.13-2.4-1.08-2.79-2.42-.48-1.64-.87-3.66-1.17-5.99-.13-1.02.17-2.05.84-2.8.62-.7,1.46-1.09,2.36-1.09h14.36c.91,0,1.79.41,2.4,1.12.66.77.95,1.8.8,2.82-.45,2.99-1.2,5.16-1.74,6.45-.45,1.08-1.37,1.82-2.46,2-1.48.24-3.22.32-4.97.32Zm-8.39-11.46c-.54,0-1.04.24-1.42.66-.43.48-.62,1.14-.53,1.81.29,2.24.68,4.24,1.13,5.8.24.84.91,1.44,1.71,1.52,2.98.3,8.53.7,12.28.1.65-.1,1.21-.57,1.5-1.24.52-1.23,1.22-3.29,1.66-6.15.1-.66-.08-1.32-.51-1.81-.38-.44-.89-.69-1.45-.69h-14.36Z"/>
              <path d="m158.5,145.82c-1.75,0-3.49-.09-4.97-.32-1.09-.17-2.01-.92-2.46-2-.54-1.29-1.29-3.46-1.74-6.45-.15-1.02.14-2.05.8-2.82.61-.71,1.49-1.12,2.4-1.12h14.36c.91,0,1.75.39,2.36,1.09.66.76.97,1.78.84,2.8-.3,2.33-.69,4.34-1.17,5.99-.39,1.34-1.48,2.29-2.79,2.42-1.88.19-4.77.42-7.63.42Zm-5.98-11.46c-.55,0-1.06.24-1.44.69-.42.49-.61,1.15-.51,1.81.43,2.86,1.14,4.93,1.66,6.15.28.67.84,1.14,1.5,1.24,3.75.6,9.3.19,12.28-.1.79-.08,1.46-.67,1.71-1.52.45-1.56.84-3.57,1.13-5.8.09-.67-.11-1.33-.53-1.81-.38-.43-.88-.66-1.42-.66h-14.36Z"/>
              <path d="m150.18,135.93c-.1,0-.2-.02-.29-.07-7.51-3.91-15-.04-15.07,0-.31.16-.69.05-.85-.26-.16-.31-.05-.69.26-.85.33-.17,8.14-4.23,16.24,0,.31.16.43.54.27.85-.11.22-.33.34-.56.34Z"/>
              <path d="m116.67,134.37c-.17,0-.35-.07-.47-.21l-6.06-6.85c-.23-.26-.21-.66.05-.89.26-.23.66-.21.89.05l6.06,6.85c.23.26.21.66-.05.89-.12.11-.27.16-.42.16Z"/>
              <path d="m168.19,134.75c-.11,0-.23-.03-.33-.09-.3-.18-.39-.57-.21-.86.18-.3,3.31-5.84,4.5-7.95.17-.3.55-.41.86-.24.3.17.41.55.24.86-.18.31-4.29,7.61-4.53,7.99-.12.19-.32.3-.54.3Z"/>
            </g>
          </g>
        </g>
      </g>
    </g>
  </g>
</svg>