<?xml version="1.0" encoding="UTF-8"?>
<svg id="Layer_2" data-name="Layer 2" xmlns="http://www.w3.org/2000/svg" xmlns:xlink="http://www.w3.org/1999/xlink" viewBox="0 0 292 292">
  <defs>
    <style>
      .cls-1, .cls-2 {
        fill: #fff;
      }

      .cls-3 {
        fill: #68234e;
      }

      .cls-4 {
        fill: #82345d;
      }

      .cls-5 {
        fill: #f9ead9;
      }

      .cls-2 {
        filter: url(#drop-shadow-1);
      }

      .cls-6 {
        fill: #eea489;
      }

      .cls-7 {
        clip-path: url(#clippath);
      }

      .cls-8 {
        fill: #c05a4c;
      }

      .cls-9 {
        fill: #fed0b9;
      }

      .cls-10 {
        fill: #f67e66;
      }

      .cls-11 {
        fill: #35231f;
      }
    </style>
    <filter id="drop-shadow-1" filterUnits="userSpaceOnUse">
      <feOffset dx="3" dy="3"/>
      <feGaussianBlur result="blur" stdDeviation="5"/>
      <feFlood flood-color="#000" flood-opacity=".42"/>
      <feComposite in2="blur" operator="in"/>
      <feComposite in="SourceGraphic"/>
    </filter>
    <clipPath id="clippath">
      <circle class="cls-5" cx="142.49" cy="142.78" r="112.77" transform="translate(-59.22 142.58) rotate(-45)"/>
    </clipPath>
  </defs>
  <g id="diverse_portrait_people_icons" data-name="diverse portrait people icons">
    <g>
      <circle class="cls-2" cx="142.71" cy="142.83" r="130.7"/>
      <g>
        <circle class="cls-5" cx="142.49" cy="142.78" r="112.77" transform="translate(-59.22 142.58) rotate(-45)"/>
        <g class="cls-7">
          <g>
            <g>
              <path class="cls-4" d="m72.79,239.62c-5.29-3.3-9.71-6.66-13.26-9.68,3.2-5.01,5.68-8.44,5.68-8.44l7.58,18.12Z"/>
              <path class="cls-4" d="m234.49,211.57c-8.45,11.23-32.44,37.61-75.61,44.47-4.29.69-8.77,1.18-13.45,1.44-3.73.21-7.35.27-10.87.18-6.27-.14-12.18-.7-17.75-1.6-18.41-2.98-33.08-9.59-44.03-16.45l-7.58-18.12s5.27-7.7,20.13-14.13c1.92-.83,3.97-1.63,6.21-2.39,2.64-.9,6.8-1.58,12.01-2.08,2.8-.28,5.93-.48,9.29-.66,2.12-.1,4.34-.2,6.62-.28,3.38-.1,6.94-.17,10.61-.22,7.77-.09,16.02-.05,24.2.08,1.78.03,3.54.07,5.31.1,1.85.03,3.68.07,5.49.12,9.35.22,18.26.53,25.89.83,13.88.53,23.46,1.06,23.46,1.06,0,0,2.97,1.08,7.22,2.68,3.67,1.39,8.31,3.15,12.83,4.95Z"/>
              <path class="cls-3" d="m221.66,206.63s-39.19,23.57-43.43,25.51c-4.24,1.93-38.89,0-38.89,0,0,0-24.55,5.19-25.6,4.86-1.05-.33-26.85-22.59-27.98-24.67-.55-1.02-.56-3.11-.43-4.96,1.91-.83,3.97-1.63,6.2-2.39,19.62-6.71,122.89-1.03,122.89-1.03,0,0,2.97,1.08,7.23,2.68Z"/>
              <path class="cls-4" d="m140.08,228.21v-7.75l-19.91-37.28s-10.04,2.69-12.11,4.75-8.26,8.26-8.26,8.26c0,0-5.16,2.58-6.2,4.13-1.03,1.55-2.07,4.65-2.07,4.65,0,0,20.14,17.56,24.27,19.1,4.13,1.55,24.27,4.13,24.27,4.13Z"/>
              <path class="cls-4" d="m165.24,179.16s9.95,0,20.79,2.58c10.84,2.58,14.46,5.16,14.46,5.68s2.07,5.68,2.07,5.68c0,0,8.78,2.07,10.33,4.65,1.55,2.58,1.55,6.2,1.55,6.2,0,0-45.44,23.75-49.57,24.27-4.13.52-24.78,0-24.78,0v-7.75s5.17-5.88,10.33-10.43c5.16-4.55,18.58-16.42,18.58-16.42l-3.75-14.46Z"/>
              <path class="cls-11" d="m124.07,216.85c0,1.43-1.16,2.58-2.58,2.58s-2.58-1.16-2.58-2.58,1.16-2.58,2.58-2.58,2.58,1.16,2.58,2.58Z"/>
              <path class="cls-11" d="m161.25,218.66c0,1.57-1.27,2.84-2.84,2.84s-2.84-1.27-2.84-2.84,1.27-2.84,2.84-2.84,2.84,1.27,2.84,2.84Z"/>
              <path class="cls-3" d="m171.06,214.02c-.36,0-.69-.26-.76-.63-.08-.42.2-.83.62-.91,2.95-.56,11.04-2.46,13.02-4.43,2.58-2.58,17.49-15.01,18.12-15.54.33-.27.82-.23,1.09.1.27.33.23.82-.1,1.09-.15.13-15.49,12.92-18.02,15.44-2.67,2.67-12.69,4.64-13.83,4.86-.05,0-.1.01-.15.01Z"/>
              <path class="cls-3" d="m113.74,214.02c-.15,0-.31-.04-.44-.14-.7-.48-6.87-4.78-7.95-6.4-1.04-1.56-6.02-10.52-6.23-10.9-.21-.37-.07-.85.3-1.05.37-.21.85-.07,1.05.3.05.09,5.16,9.28,6.16,10.79.69,1.04,4.99,4.22,7.54,5.99.35.24.44.73.2,1.08-.15.22-.39.33-.64.33Z"/>
              <path class="cls-3" d="m113.74,185.19s-5.16,6.89-5.16,7.92c0,.77,4.44,12.24,9.91,15.28,1.45.81,8.07,1.29,11.3,2.06l-12.95-10.63s3.1-13.94,3.1-16.52l-6.2,1.89Z"/>
              <path class="cls-3" d="m177.26,180.11s4.13,4.21,5.16,7.83c0,0-10.84,12.39-32.01,22.2l14.46-30.98s8.78.36,12.39.95Z"/>
              <path class="cls-3" d="m134.57,258.44s-.1,0-.14-.01c-.42-.08-.7-.48-.62-.9l2.52-13.46c.91-4.89,1.71-9.17,2.26-12.07.45-2.46.73-3.92.73-3.92.08-.42.49-.7.9-.62.42.08.7.48.62.9,0,0-.28,1.47-.73,3.92-.55,2.9-1.35,7.18-2.26,12.07l-2.52,13.46c-.07.37-.4.63-.76.63Z"/>
              <path class="cls-1" d="m158.11,256.04c-.02-8.04-.07-16.4-.12-23.14l-.03-4.47c0-2.1-.02-3.93-.03-5.41v-1.53c-.02-1.64-.03-2.56-.03-2.56l1.55-.02s.01.92.02,2.57v1.53c.02,1.48.04,3.32.05,5.42l.03,4.46c.05,6.74.09,15.1.12,23.14h-1.55Z"/>
              <path class="cls-1" d="m117.59,256.07l-1.55-.02v-.69c.02-.57.02-1.02.02-1.33,0-2.31.98-10.97,1.79-17.83.38-3.29.79-6.58,1.15-9.48l.21-1.69c.3-2.4.55-4.44.74-5.81.15-1.22.24-1.93.24-1.93l1.54.2s-.09.71-.24,1.93c-.19,1.38-.44,3.41-.74,5.81l-.21,1.69c-.36,2.89-.77,6.19-1.15,9.47-1.17,9.78-1.78,15.88-1.78,17.65,0,.32,0,.78-.01,1.35v.69Z"/>
            </g>
            <g>
              <path class="cls-9" d="m168.99,193.62l-22.2,19.62-7.23,7.23s-10.33-11.36-13.94-13.43c-3.61-2.07-8.78-7.23-8.78-7.23,0,0,1.2-4.75,2.34-10.85,1.35-7.18,2.62-16.22,1.79-21.58l35.08-29.54,6.73,5.69s.13,4.69.26,10.08h0c.13,5.64.27,12.06.27,14.7,0,5.16,5.68,25.3,5.68,25.3Z"/>
              <path class="cls-6" d="m163.04,153.62h0c-.7.93-19.92,26.63-22.96,29.67-3.1,3.1-20.65,7.23-20.65,7.23l-.24-1.55c1.35-7.18,2.62-16.22,1.79-21.58l35.08-29.54,6.73,5.69s.13,4.69.26,10.08Z"/>
            </g>
            <g>
              <path class="cls-10" d="m98.01,174.95l1.6-11.19,4.57.42s-2.59,8.4-6.18,10.76Z"/>
              <path class="cls-10" d="m212.37,104.81c-.66.99-6.96,3.16-11.41,4.6-2.51.81-4.45,1.39-4.45,1.39l-9.78-36.25s3.63-.62,7.46-1.14c3.49-.46,7.15-.85,8.38-.6,2.58.52,11.36,7.75,12.39,9.81s-1.55,20.65-2.58,22.2Z"/>
              <path class="cls-8" d="m200.96,109.4c-2.51.81-4.45,1.39-4.45,1.39l-9.78-36.25s3.63-.62,7.46-1.14h.01s9.49,17.17,9.81,21.74c.33,4.57-3.05,14.27-3.05,14.27Z"/>
              <path class="cls-10" d="m196.36,114.62c-.78,3.14-9.38,22.29-14.78,32.05-1.7,3.08-3.09,5.23-3.81,5.64-3.48,1.99-14.13,1.1-14.94,1.04-.03,0-.05,0-.05,0l-41.81-98.62s2.06-.81,4.65-1.82c3.63-1.43,8.3-3.26,9.81-3.86,2.58-1.03,24.27,0,28.92,2.58,4.65,2.58,25.3,25.82,26.85,28.4,1.55,2.58,6.2,30.46,5.16,34.6Z"/>
              <path class="cls-8" d="m181.58,146.67c-1.7,3.08-3.09,5.23-3.81,5.64-3.48,1.99-14.13,1.1-14.94,1.04-.03,0-.05,0-.05,0l-41.81-98.62s2.06-.81,4.65-1.82l6.31,7.02s26.37-8.32,31.19-3.26c4.82,5.06,15.48,23.39,15.85,30,.37,6.61-5.95,24.13-5.95,24.13.07,0,5.33.02,5.76,6.19.43,6.21,0,14.93,0,14.93l-1.89,5.66c-.79,2.35-.08,4.94,1.79,6.57l2.91,2.53Z"/>
              <path class="cls-8" d="m106.35,58.82s-.87-8.23.17-10.29c1.03-2.07,19.1-8.26,21.17-8.26s8.41,5.17,9.11,8.52-28.54,12.06-30.45,10.03Z"/>
              <path class="cls-10" d="m129.75,64.01s-6.2-9.81-11.36-9.81-12.91,5.16-12.91,5.16c0,0-2.58,9.28-1.29,19.36l25.56-10.58v-4.13Z"/>
            </g>
            <g>
              <path class="cls-9" d="m161.54,119.06s8.49-2.89,11.07-1.86c2.58,1.03,3.61,9.29,2.58,11.88-1.03,2.58-10.84,16.52-13.43,17.56-2.58,1.03-8.8-2.28-8.8-2.28l7.25-15.27,1.32-10.02Z"/>
              <path class="cls-6" d="m159.18,135.53c-.21,0-.42-.09-.58-.26-.29-.32-.26-.81.06-1.09.22-.2,5.44-4.85,10.33-4.85.43,0,.77.35.77.77s-.35.77-.77.77c-4.29,0-9.24,4.4-9.29,4.45-.15.13-.33.2-.52.2Z"/>
              <path class="cls-6" d="m164.35,138.63s-.1,0-.15-.01c-.42-.08-.69-.48-.62-.9.02-.13.49-2.92-2.1-4.25-.38-.2-.53-.66-.33-1.04.2-.38.66-.53,1.04-.33,2.92,1.5,3.18,4.53,2.92,5.92-.07.37-.4.63-.76.63Z"/>
            </g>
            <g>
              <path class="cls-9" d="m164.6,90.09c0,8.26-4.39,38.47-4.39,38.47,0,0-10.07,23.49-13.68,26.59-3.61,3.1-30.98,14.97-34.6,15.49-3.61.52-18.59-4.65-20.65-7.75s-2.58-36.66-2.07-41.82c.29-2.87,5.67-17.68,10.4-30.28.72-1.9,1.41-3.75,2.08-5.5,2.86-7.55,5.08-13.27,5.08-13.27,0,0,3.1-5.68,9.81-7.75s11.88,3.61,11.88,3.61c0,0,10.33-4.13,21.17-.52,5.9,1.97,14.97,14.46,14.97,22.72Z"/>
              <path class="cls-8" d="m152.47,103.26s0-3.1-1.55-5.68c-1.92-3.19-13.43-7.23-20.65-7.75,0,0-1.55,4.13,1.55,5.68,2.49,1.24,15.68,3.59,17.04,4.13,2.58,1.03,3.61,3.61,3.61,3.61Z"/>
              <path class="cls-8" d="m111.37,86.7s.06,4.41-3.39,4.82c-1.28.15-4.81-.26-8.37-.73.72-1.9,1.41-3.75,2.08-5.5,3.45.17,6.96.65,9.68,1.42Z"/>
              <path class="cls-1" d="m122.52,139.92s-13.94,2.07-23.75-2.07c0,0,1.03,7.23,2.07,9.29s8.78,4.13,11.36,3.61c2.58-.52,8.26-7.23,10.33-10.84Z"/>
              <path d="m97.8,123.51c-.86-.88-1.29-1.5-1.31-1.52l-.11-.17.13-.15c4.33-4.91,8.49-11.43,11.21-16.02l.44.26c-2.7,4.57-6.82,11.02-11.13,15.95.18.23.56.7,1.13,1.29l-.37.36Z"/>
              <path class="cls-6" d="m141.11,135.53c-.35,0-.66-.23-.75-.59-.1-.41.15-.84.56-.94l8.26-2.07c.41-.1.84.15.94.56.1.41-.15.84-.56.94l-8.26,2.07c-.06.02-.13.02-.19.02Z"/>
              <path class="cls-6" d="m141.11,138.63c-.34,0-.65-.23-.75-.57-.11-.41.13-.84.54-.95l5.68-1.55c.41-.11.84.13.95.54.11.41-.13.84-.54.95l-5.68,1.55c-.07.02-.14.03-.2.03Z"/>
              <path d="m130.78,133.21c-7.12,0-12.91-5.79-12.91-12.91s5.79-12.91,12.91-12.91,12.91,5.79,12.91,12.91-5.79,12.91-12.91,12.91Zm0-24.78c-6.55,0-11.88,5.33-11.88,11.88s5.33,11.88,11.88,11.88,11.88-5.33,11.88-11.88-5.33-11.88-11.88-11.88Z"/>
              <path d="m96.7,123.91c-7.12,0-12.91-5.79-12.91-12.91s5.79-12.91,12.91-12.91c5,0,9.6,2.93,11.7,7.47l.11.25-.14.23c-2.68,4.53-6.74,10.91-11.01,15.82.2.25.53.64.98,1.1l.76.77-1.07.11c-.43.04-.88.06-1.33.06Zm0-24.78c-6.55,0-11.88,5.33-11.88,11.88s5.33,11.88,11.88,11.88c.05,0,.11,0,.16,0-.38-.44-.57-.72-.59-.74l-.23-.33.27-.3c4.24-4.81,8.32-11.17,11.04-15.75-1.99-4.04-6.14-6.63-10.65-6.63Z"/>
              <polygon points="142.92 117.77 161.76 119.26 165.9 117.72 142.32 115.77 142.92 117.77"/>
              <path class="cls-11" d="m137.7,114.4c-1.04,3.27-3.68,5.36-5.88,4.66-2.2-.7-3.14-3.93-2.1-7.2,1.04-3.27,3.68-5.36,5.88-4.66,2.2.7,3.14,3.93,2.1,7.2Z"/>
              <path class="cls-11" d="m107.75,106.14c-1.04,3.27-3.68,5.36-5.88,4.66-2.2-.7-3.14-3.93-2.1-7.2,1.04-3.27,3.68-5.36,5.88-4.66,2.2.7,3.14,3.93,2.1,7.2Z"/>
              <path class="cls-6" d="m110.65,129.85s-.03,0-.04,0c-9.56-.53-14.34-7.27-14.54-7.56l-.35-.5.4-.45c7.59-8.6,14.8-22.43,14.87-22.56.2-.38.66-.53,1.04-.33.38.2.53.66.33,1.04-.07.14-7.1,13.62-14.66,22.39,1.24,1.49,5.61,6.02,12.98,6.43.43.02.75.39.73.82-.02.41-.36.73-.77.73Z"/>
              <path d="m121.94,111.51c-.08-.1-8.57-9.72-14.61-6.73l-.69-1.39c7.11-3.52,16.09,6.66,16.47,7.1l-1.17,1.02Z"/>
              <path class="cls-6" d="m111.65,141.03c-.75,0-1.51,0-2.25-.03-7.15-.17-11.64-3.16-11.82-3.29-.35-.24-.44-.72-.21-1.07.24-.35.72-.45,1.08-.21.04.03,4.32,2.87,10.99,3.02,6.88.16,14.63-.52,14.71-.52.42-.03.8.28.84.7.04.43-.28.8-.7.84-.07,0-6.33.56-12.63.56Z"/>
            </g>
            <path class="cls-10" d="m159.18,58.85c-3.61-.52-29.43,5.16-29.43,5.16v4.13s13.94-3.1,19.62,0c5.68,3.1,12.39,17.56,12.39,17.56,0,0-7.23,58-14.46,86.92,0,0,9.35-18.32,10.33-24.27,3.5-21.33,13.71-53.85,13.43-64.2-.52-18.59-11.88-25.3-11.88-25.3Z"/>
          </g>
        </g>
      </g>
    </g>
  </g>
</svg>