<?xml version="1.0" encoding="UTF-8"?>
<svg id="Layer_2" data-name="Layer 2" xmlns="http://www.w3.org/2000/svg" xmlns:xlink="http://www.w3.org/1999/xlink" viewBox="0 0 293 293">
  <defs>
    <style>
      .cls-1 {
        fill: #b0775c;
      }

      .cls-2 {
        fill: #392f2a;
      }

      .cls-3 {
        fill: #211b18;
      }

      .cls-4 {
        fill: #687aad;
      }

      .cls-5 {
        fill: #f9ead9;
      }

      .cls-6 {
        fill: #fff;
        filter: url(#drop-shadow-1);
      }

      .cls-7 {
        fill: #e67342;
      }

      .cls-8 {
        clip-path: url(#clippath);
      }

      .cls-9 {
        fill: #a0634a;
      }

      .cls-10 {
        fill: none;
      }

      .cls-11 {
        fill: #39302b;
      }

      .cls-12 {
        fill: #35231f;
      }
    </style>
    <filter id="drop-shadow-1" filterUnits="userSpaceOnUse">
      <feOffset dx="3" dy="3"/>
      <feGaussianBlur result="blur" stdDeviation="5"/>
      <feFlood flood-color="#000" flood-opacity=".42"/>
      <feComposite in2="blur" operator="in"/>
      <feComposite in="SourceGraphic"/>
    </filter>
    <clipPath id="clippath">
      <circle class="cls-10" cx="143.35" cy="143.54" r="112.77" transform="translate(-59.51 143.4) rotate(-45)"/>
    </clipPath>
  </defs>
  <g id="diverse_portrait_people_icons" data-name="diverse portrait people icons">
    <g>
      <circle class="cls-6" cx="143.42" cy="143.42" r="130.7"/>
      <g>
        <circle class="cls-5" cx="143.3" cy="143.72" r="112.77"/>
        <g class="cls-8">
          <g>
            <g>
              <path class="cls-7" d="m239.21,253.39c-19.77,21.29-57.17,48.07-116.84,41.02-40.2-4.74-64.32-20.96-78.79-38.21.87-12.92,1.48-22.75,1.48-22.75,12.99-5.7,50.75-12.87,50.75-12.87l122.11,17.49s2.37,1.56,6,4.09c4.03,2.81,9.63,6.81,15.29,11.23Z"/>
              <path class="cls-4" d="m217.92,238.08l-38.58,1.51c-.18.12-.35.25-.51.37-3.22,2.29-20.68,14.62-28.47,18.49-8.59,4.27-25.43,6.54-31.81-2.3-6.38-8.83-22.75-35.57-22.75-35.57,0,0,4.37-10.76,8.02-14.87,1.51-1.7,4.28-2.93,7.03-3.79,3.91-1.23,7.76-1.71,7.76-1.71l54.14-3.4s29.23,9.63,33.65,13.89c4.42,4.26,3.26,7.16,3.26,7.16,0,0,2.36-.33,8.83,6.7,6.47,7.04-.57,13.51-.57,13.51Z"/>
              <path class="cls-2" d="m129.98,243.36c-.51,2.07-2.6,3.35-4.67,2.84-2.07-.51-3.35-2.6-2.84-4.67.51-2.07,2.6-3.35,4.67-2.84,2.07.51,3.35,2.6,2.84,4.67Z"/>
            </g>
            <g>
              <path class="cls-11" d="m191.16,109.45c-1.01,1.09-5.05-.44-5.57,2.52-.52,2.96,3.86,1.48,3.41,5.14-.46,3.67-4.26.14-4.27,2.55-.02,2.41-.13,12.74-.13,12.74l-19.84-3.48-63.06-11.05s-9.94-4.97-9.41-10.34c.53-5.37,2.41-8.27-1.41-9.39-3.82-1.11-6.73-.58-6.16-4.91.57-4.32,7.07-10.02,4.27-14.64-2.8-4.61-9.92-9.8-5.03-13.55,4.89-3.75,13.31-2.68,17.72-5.53,4.41-2.85,8.13-15.58,10.41-16.3s5.54,2.31,7.63,2.23c2.1-.08,2.93-2.94,4.16-3.62,1.23-.67,4.2,5.71,8.62,5.97,4.41.25,16.76-8.92,21.21-7.62,4.45,1.3-2.56,1.67-1.21,4.14.75,1.37,3.08,1.38,5.72.86,2.11-.42,4.42-1.17,6.3-1.85,4.24-1.52,3.12,4.71,5.12,4.95,2,.24,6.16-3.36,8.75-1.58,2.59,1.78.25,12.15,4.75,14.5,4.49,2.35,10.47,7.89,8.91,10.89-1.56,3-.2,6.5.42,7.37.62.87,5.09,8.05,2.34,10.35s-6.39,2.97-4.95,5.12c1.45,2.15,2.29,13.44,1.28,14.53Z"/>
              <path class="cls-3" d="m191.16,109.45c-1.01,1.09-5.05-.44-5.57,2.52-.52,2.96,3.86,1.48,3.41,5.14-.46,3.67-4.26.14-4.27,2.55-.02,2.41-.13,12.74-.13,12.74l-19.84-3.48-18.78-40.97s1.53-.85,2.52-5.98c.99-5.13,6.13-.33,11.34,4.85,5.22,5.18,9.53,5.24,14.66,6.77,5.14,1.54,2.23-7.47-.72-9.1-2.95-1.63-4.06-5.08-3.32-7.18.74-2.09,4.73,2.06,7.09,1.73,2.35-.33-1.87-7.28-4.89-10.74-3.02-3.47-2.46-.15-5.97-1.46-3.5-1.31,1.23-2.43,2.95-2.47,1.72-.04,1.55-9.63.69-12.44-.86-2.82-5.6-2.4-8.62-2.22-2.04.12-3.19-1.94-3.48-4.53,2.11-.42,4.42-1.17,6.3-1.85,4.24-1.52,3.12,4.71,5.12,4.95,2,.24,6.16-3.36,8.75-1.58,2.59,1.78.25,12.15,4.75,14.5,4.49,2.35,10.47,7.89,8.91,10.89-1.56,3-.2,6.5.42,7.37.62.87,5.09,8.05,2.34,10.35s-6.39,2.97-4.95,5.12c1.45,2.15,2.29,13.44,1.28,14.53Z"/>
            </g>
            <path class="cls-4" d="m217.92,238.08l-38.58,1.51c9.25-6.46,32.53-4.69,34.04-9.48,1.51-4.79-2.87-7.82-9.94-8.18-7.08-.36-30.64,9.69-29.63,5.4,1-4.29,16.03-7.01,15.29-10.94-.75-3.93-17.62-7.67-17.62-7.67,0,0-29.26,24.8-50.27,17.69-21.01-7.11-10.36-24.48-10.36-24.48,3.91-1.23,7.76-1.71,7.76-1.71l54.14-3.4s29.23,9.63,33.65,13.89c4.42,4.26,3.26,7.16,3.26,7.16,0,0,2.36-.33,8.83,6.7,6.47,7.04-.57,13.51-.57,13.51Z"/>
            <g>
              <path class="cls-1" d="m168.69,223.59c-7.96,3.82-21.51,10.09-25.14,10.37h0c-2.53-.21-5.25-.72-8.15-1.61-25.03-7.7-22.35-16.77-22.35-16.77,0,0,1.19-3.8,2.72-9.27,2.02-7.25,4.61-17.42,5.76-25.51,1.92-13.5,38.48-34.65,50.34-28.7.6.3,1.13.67,1.59,1.1,0,0,2.2,43.1-4.77,70.39Z"/>
              <path class="cls-9" d="m154.25,194.14c-8,9.85-30.89,16.87-40.22,17.25.86-3.1,2.15-7.66,3.42-12.5,1.71-6.48,3.42-13.46,4.07-18.09.13-.94.44-1.92.89-2.92,6-13.4,38.42-31.31,49.45-25.78-1.58,11.38-4.63,26.03-17.62,42.03Z"/>
            </g>
            <g>
              <path class="cls-1" d="m155.34,181.1c-8.02,9.02-27.59,10.36-37.53,10.43h0c-3.64.03-5.99-.12-5.99-.12,0,0-6.71-14.85-10.95-38.18-1.65-9.07-1.86-19.46-1.52-28.77.08-2.21.2-4.36.33-6.42.76-11.58,2.17-20.23,2.17-20.23,2.01-3.33,11.11-4.93,12.38-4.56,1.27.37,1.96,7.48,6.03,4.18,4.07-3.3,5.37-7.76,9.47-7.6,2.3.09,4.66,1.51,7.03,2.46,1.85.74,3.7,1.2,5.56.53,4.24-1.53,2.4-5.86,5.2-5.74,2.8.13,2.01,2.31,5.52,4.49,3.51,2.17,5.83,1.7,9.65,2.82,3.82,1.11.46,4.74-.06,9.65-.51,4.91,2.55.74,5.51,1.61,2.97.87,1.2,2.19,1.24,6.81.03,4.61,6.18,11.93,6.18,11.93,0,0,2.19-1.2.12,10.62-2.07,11.83-4.59,28.36-20.35,46.08Z"/>
              <path class="cls-9" d="m117.81,191.54h0c-3.64.03-5.99-.12-5.99-.12,0,0-6.71-14.85-10.95-38.18-1.65-9.07-1.86-19.46-1.52-28.77.08-2.21.2-4.36.33-6.42.76-11.58,2.17-20.23,2.17-20.23,2.01-3.33,11.11-4.93,12.38-4.56,1.27.37,1.96,7.48,6.03,4.18,4.07-3.3,5.37-7.76,9.47-7.6,2.3.09,4.66,1.51,7.03,2.46-.06-.01-5.77-1.4-7.67.85-1.92,2.26-5.42,7.32-9.01,8.04-3.59.72-6.38-.87-9.22-.43-2.84.44-9.65,53.45,6.96,90.78Z"/>
              <ellipse class="cls-12" cx="141.64" cy="132.07" rx="6.19" ry="4.02" transform="translate(-9.88 252.68) rotate(-81.52)"/>
              <path class="cls-12" d="m113.9,134.49c0,3.07-1.6,5.55-3.59,5.55-1.99,0-3.6-2.48-3.61-5.54s1.6-5.55,3.59-5.55c1.99,0,3.6,2.48,3.61,5.54Z"/>
              <g>
                <path class="cls-1" d="m188.62,137.53l-6.68,14.28c-1.14,2.25-4.12,3.23-6.92,2.29l-1.19-.4-2.48-.84,4.32-26.13,5.65-.95c1.2-.2,2.46.04,3.52.63.45.25.86.57,1.22.94l.65.68c2.62,2.76,3.37,6.44,1.93,9.51Z"/>
                <path class="cls-9" d="m173.82,153.69l-2.48-.84,4.32-26.13,5.65-.95c1.2-.2,2.46.04,3.52.63-1.04.9-7.95,7.55-11,27.3Z"/>
                <path class="cls-9" d="m175.62,145.58s-.05,0-.08,0c-.38-.04-.66-.39-.62-.77.86-7.85,5.47-8.37,5.66-8.39.38-.03.73.25.76.63.04.38-.24.72-.63.76-.17.02-3.68.52-4.41,7.15-.04.36-.34.62-.69.62Z"/>
                <path class="cls-9" d="m180.34,145.35c-.31,0-.6-.21-.68-.53,0-.03-.81-3.05-2.94-3.5-.38-.08-.62-.45-.54-.83.08-.38.45-.62.83-.54,2.99.63,3.96,4.37,4,4.53.09.37-.13.75-.51.85-.06.01-.12.02-.17.02Z"/>
              </g>
              <path class="cls-9" d="m122.03,153.57c-3.45,0-6.12-1.05-6.3-1.13l-.48-.19,1.87-22.02c.03-.39.37-.67.76-.64.39.03.67.37.64.76l-1.78,20.97c1.63.53,7.08,1.95,11.78-.81.33-.19.76-.08.96.25.2.33.08.76-.25.96-2.42,1.42-4.98,1.86-7.2,1.86Z"/>
              <path class="cls-11" d="m127.95,117.48s-1.43,4.47,3.2,5.93c4.63,1.45,18.42-1.21,21.67-.02,0,0-.66-4.91-4.63-6.12-3.98-1.21-20.23.22-20.23.22Z"/>
              <path class="cls-9" d="m124.3,166.81c-6.32,0-10.38-1.41-10.68-1.51-.36-.13-.55-.53-.42-.89.13-.36.53-.55.89-.42.13.05,13.23,4.55,29.19-2.92.35-.16.77-.01.93.34.16.35.01.77-.34.93-7.5,3.51-14.31,4.48-19.57,4.48Z"/>
              <path class="cls-9" d="m125.27,173.39c-2.34,0-4.15-.16-4.33-.18-.38-.04-.67-.38-.63-.76.03-.38.37-.67.76-.63.1,0,9.84.87,13.26-1.4.32-.21.76-.13.97.2.21.32.12.76-.2.97-2.24,1.48-6.55,1.8-9.83,1.8Z"/>
              <path class="cls-9" d="m115.46,165.37s2.28-4.85,9.43-5.53c8.17-.78,16.47,2.82,16.47,2.82,0,0-14.27,5.54-25.9,2.71Z"/>
              <path class="cls-11" d="m108.37,126.46c-3.78.35-7.65,1.24-9.3,1.63.08-2.21.2-4.36.33-6.42,3.3-.43,8.52-1.55,14.03-.95,0,0,2.43,5.03-5.05,5.73Z"/>
              <g>
                <path class="cls-9" d="m152.74,150.41c-.2,0-.4-.09-.54-.26-.24-.3-.2-.74.1-.98l6.78-5.55c.3-.24.74-.2.98.1.24.3.2.74-.1.98l-6.78,5.55c-.13.11-.29.16-.44.16Z"/>
                <path class="cls-9" d="m156.85,150.82c-.24,0-.47-.12-.6-.34-.2-.33-.09-.76.24-.96l5.89-3.56c.33-.2.76-.09.96.24.2.33.09.76-.24.96l-5.89,3.56c-.11.07-.24.1-.36.1Z"/>
              </g>
            </g>
          </g>
        </g>
      </g>
    </g>
  </g>
</svg>