<?xml version="1.0" encoding="UTF-8"?>
<svg id="Layer_2" data-name="Layer 2" xmlns="http://www.w3.org/2000/svg" xmlns:xlink="http://www.w3.org/1999/xlink" viewBox="0 0 292 292">
  <defs>
    <style>
      .cls-1, .cls-2 {
        fill: #fff;
      }

      .cls-3 {
        fill: #dd8c73;
      }

      .cls-4 {
        fill: #849c87;
      }

      .cls-5 {
        fill: #eca184;
      }

      .cls-6 {
        fill: #392f2e;
      }

      .cls-7 {
        fill: #f9ead9;
      }

      .cls-8 {
        fill: #6e4938;
      }

      .cls-2 {
        filter: url(#drop-shadow-1);
      }

      .cls-9 {
        clip-path: url(#clippath);
      }

      .cls-10 {
        fill: #fccfb8;
      }

      .cls-11 {
        fill: #738a6a;
      }

      .cls-12 {
        fill: #39302b;
      }

      .cls-13 {
        fill: #35231f;
      }
    </style>
    <filter id="drop-shadow-1" filterUnits="userSpaceOnUse">
      <feOffset dx="3" dy="3"/>
      <feGaussianBlur result="blur" stdDeviation="5"/>
      <feFlood flood-color="#000" flood-opacity=".42"/>
      <feComposite in2="blur" operator="in"/>
      <feComposite in="SourceGraphic"/>
    </filter>
    <clipPath id="clippath">
      <circle class="cls-7" cx="142.42" cy="142.99" r="112.77" transform="translate(-59.4 142.59) rotate(-45)"/>
    </clipPath>
  </defs>
  <g id="diverse_portrait_people_icons" data-name="diverse portrait people icons">
    <g>
      <circle class="cls-2" cx="142.79" cy="143.05" r="130.7"/>
      <g>
        <circle class="cls-7" cx="142.42" cy="142.99" r="112.77" transform="translate(-59.4 142.59) rotate(-45)"/>
        <g class="cls-9">
          <g>
            <path class="cls-4" d="m78.35,235.31c-7.94-2.61-15.18-5.37-21.57-8.04,9.54-8.71,29.05-17.26,33.44-19.12.16-.07.31-.14.43-.18.29-.12.45-.19.45-.19,0,0,.01.2.01.6.1,2.8-8.46,28.35-12.77,26.94Z"/>
            <g>
              <path class="cls-4" d="m225.43,227.54c-7.28,4.43-15.26,8.51-23.88,11.85-.54.22-1.09.42-1.63.63-12.62,4.7-36.31,17.04-51.41,17.35-16.46.33-29.57-1.53-44.22-4.37-3.78-.72-12.82-7.02-15.55-7.78-4.69-1.28-9.79-6.36-14.09-7.78,4.83-15.53,14.34-27.34,15.58-29.3.12-.2.2-.32.24-.36h0s26.64-.57,26.64-.57l40.42-.84,51.62-1.06h.2l.84-.02,5.5,8.02,9.74,14.23Z"/>
              <path class="cls-11" d="m78.35,236.3c-.1,0-.2-.01-.29-.04-.52-.16-.82-.72-.65-1.24,4.89-15.74,10.84-25.58,11.98-27.4.03-.05.06-.1.09-.14v-.67l.97-.03,119.71-2.48c.55-.01,1,.42,1.02.96.02.55-.42,1-.96,1.02l-1.07.02-118.13,2.45c-1.25,2-6.97,11.59-11.71,26.85-.13.42-.52.7-.95.7Z"/>
            </g>
            <g>
              <path class="cls-11" d="m95.54,182.75s6.4-9.73,31.72-17.8c25.32-8.08,70.59-14.46,87.65-10.58,17.06,3.88-2.5,33.11-2.5,33.11l-73.77,39.23s-37.81-25.88-43.1-43.96Z"/>
              <path class="cls-12" d="m167.26,188.01s26.54-17.5,42.92-12.01c12.12,4.06-40.47,29.29-40.47,29.29l-2.44-17.28Z"/>
            </g>
            <g>
              <path class="cls-10" d="m170.94,214.48s-12.52,14.6-30.47,15.03c-17.94.42-34.15-12.87-34.15-12.87l.4-9.19,1.61-35.8,59.95,3.03s-.04,3.46.09,8.7c.2,8.17.79,20.68,2.58,31.11Z"/>
              <path class="cls-5" d="m168.37,183.36c-5.1,8.21-12.99,20.1-15.37,21.59-3.34,2.09-23.23,7.75-46.27,7.3l1.61-40.61,59.95,3.03s-.04,3.46.09,8.7Z"/>
            </g>
            <g>
              <path class="cls-8" d="m182.35,125.84l-21.75,6.23-25.42,7.28-29.67-8.65-16.64-4.86s-6.84-30.32-6-39.51c.29-3.17.73-6.13,1.18-8.66,1.02-5.68,3.92-10.84,8.25-14.66,3.42-3.01,8.13-6.57,14.01-9.58,1.18-.61,2.41-1.19,3.69-1.74,15.44-6.67,35.89-9.6,35.89-9.6,0,0-.83,4.17-4.59,6.26,0,0,9.18-.83,16.69,1.26,7.51,2.08,25.46,10.33,29.22,10.33,0,0-1.3,4.64-6.55,5.16,0,0,3.21,4.96,4.46,9.55,1.26,4.59-2.78,51.19-2.78,51.19Z"/>
              <path class="cls-6" d="m113.34,74.65l-7.82,56.05-16.64-4.86s-6.84-30.32-6-39.51c.29-3.17.73-6.13,1.18-8.66,1.02-5.68,3.92-10.84,8.25-14.66,3.42-3.01,8.13-6.57,14.01-9.58,0,0-6.75,8.69-4.66,12.45,2.08,3.75,11.68,8.76,11.68,8.76Z"/>
              <path class="cls-6" d="m182.35,125.84l-21.75,6.23-8.3-14.43,10.71-34.23s12.67,8.21,16.14,7.31c3.47-.91,5.97-16.07,5.97-16.07,1.26,4.59-2.78,51.19-2.78,51.19Z"/>
            </g>
            <g>
              <path class="cls-4" d="m257.2,205.57s-1.3.24-3.55.63c-7.62,6.99-17.1,14.57-28.23,21.33-7.28,4.43-15.26,8.51-23.88,11.85-2.23-7.79-3.1-15.7-1.71-22.88,0-.02.01-.06.01-.08.01-.03.02-.08.03-.11,1.09-5.32,4.54-8.8,9.25-11,.28-.14.58-.27.88-.4,10.05-4.23,25.17-3.1,35.57-1.55,3.99.59,7.28,1.25,9.32,1.69,1.27.27,2.06.46,2.24.51.03,0,.05.01.05.01Z"/>
              <path class="cls-11" d="m201.05,244.25c-.39,0-.76-.23-.92-.62-5.97-14.82-.7-29.31-.48-29.92l.08-.16c14.61-24.52,56.06-9.56,57.82-8.91.51.19.78.76.59,1.27-.19.51-.76.78-1.27.59-.41-.15-41.57-15.01-55.38,7.98-.41,1.17-4.97,14.86.49,28.4.2.51-.04,1.09-.55,1.29-.12.05-.25.07-.37.07Z"/>
            </g>
            <g>
              <path class="cls-10" d="m191.56,136.6l-6.3,15.15c-1.34,3.23-4.76,5.08-8.19,4.44l-1.45-.27-2.07-.39,1.65-27.98,7.15-1.71c.6-.17,1.22-.23,1.81-.19,1.43.11,2.79.81,3.71,1.97l2.96,3.76c1.17,1.48,1.45,3.48.73,5.22Z"/>
              <path class="cls-5" d="m184.18,125.66s-8.06,17.9-8.56,30.27l-2.07-.39,1.65-27.98,7.15-1.71c.6-.17,1.22-.23,1.81-.19h.01Z"/>
              <path class="cls-3" d="m177.08,147.27c-.1,0-.2-.02-.3-.05-.43-.16-.64-.64-.48-1.07,1.76-4.63,7.27-7.43,7.5-7.54.41-.21.91-.04,1.11.37.2.41.04.91-.37,1.11-.05.03-5.16,2.63-6.69,6.65-.13.33-.44.53-.78.53Z"/>
              <path class="cls-3" d="m182.37,148.38c-.41,0-.77-.31-.82-.73,0-.03-.42-3.24-2.65-3.97-.44-.14-.67-.61-.53-1.05.14-.44.61-.67,1.05-.53,3.24,1.06,3.76,5.18,3.78,5.35.05.45-.27.87-.73.92-.03,0-.07,0-.1,0Z"/>
            </g>
            <g>
              <path class="cls-10" d="m97.68,155.53l-3.52.66c-3.44.64-6.85-1.21-8.19-4.44l-6.29-15.15c-.73-1.74-.45-3.74.72-5.22l2.97-3.76c.45-.57,1-1.02,1.61-1.35h0c1.18-.64,2.58-.81,3.92-.43l5.41,1.55,3.38,28.14Z"/>
              <path class="cls-5" d="m97.68,155.53l-3.52.66c.01-9.59-9.19-29.92-9.19-29.92h0c1.18-.64,2.58-.81,3.92-.43l5.41,1.55,3.38,28.14Z"/>
              <path class="cls-3" d="m94.15,147.27c-.33,0-.65-.2-.78-.53-1.54-4.03-6.64-6.62-6.69-6.65-.41-.2-.58-.7-.37-1.11.21-.41.7-.58,1.11-.37.23.12,5.74,2.91,7.5,7.54.16.43-.05.91-.48,1.07-.1.04-.2.05-.3.05Z"/>
              <path class="cls-3" d="m88.86,148.38s-.07,0-.1,0c-.45-.05-.78-.47-.73-.92.02-.17.54-4.3,3.78-5.35.44-.14.9.1,1.05.53.14.44-.1.9-.53,1.05-2.22.73-2.64,3.94-2.65,3.97-.05.42-.41.73-.82.73Z"/>
            </g>
            <g>
              <path class="cls-10" d="m172.62,167.31c-2.09,4.18-16.28,26.71-19.62,28.8-3.34,2.09-25.11,2.57-29.28,1.32-4.18-1.25-21.05-25.67-23.55-29.43-2.5-3.75-8.1-62.46-8.1-62.46,0,0,0,0,0-.01l.22-.58c4.18-10.59,21.06-30.29,21.06-30.29,0,0,46.75,7.51,49.67,8.76,2.66,1.14,10.55,11.68,12.22,16.05.17.42.26.78.3,1.07.42,3.34-.84,62.61-2.92,66.78Z"/>
              <path class="cls-13" d="m117.68,125.95c-.27,3.69-2.43,6.55-4.82,6.38-2.4-.17-4.12-3.31-3.86-7,.27-3.69,2.43-6.55,4.82-6.38,2.4.17,4.12,3.31,3.86,7Z"/>
              <path class="cls-13" d="m151.57,125.83c.16,3.7,2.24,6.61,4.64,6.51,2.4-.11,4.21-3.19,4.05-6.89s-2.24-6.61-4.64-6.51c-2.4.11-4.21,3.19-4.05,6.89Z"/>
              <path class="cls-3" d="m127.26,140.18c-.06,0-.12,0-.18-.02-.45-.1-.73-.54-.63-.99,1.35-6.23,1.1-18.05,1.09-18.17-.01-.46.35-.84.81-.85.44-.02.84.35.85.81.01.49.26,12.14-1.13,18.56-.08.39-.43.65-.81.65Z"/>
              <path class="cls-3" d="m136.98,151.89c-4.65,0-9.55-.82-9.86-.88-.45-.08-.76-.51-.68-.96.08-.45.5-.76.96-.68.11.02,11.22,1.88,15.39.06.42-.18.91,0,1.09.43.18.42,0,.91-.43,1.09-1.6.7-4,.93-6.47.93Z"/>
              <path class="cls-6" d="m101.66,109.4s10.23-2.82,15.23-2.82,5.84-2.92,6.26-4.8c0,0-8.12-1.69-13.61.17-7.1,2.4-7.89,7.45-7.89,7.45Z"/>
              <path class="cls-6" d="m166.67,109.4s-10.23-2.82-15.23-2.82-5.84-2.92-6.26-4.8c0,0,8.12-1.69,13.61.17,7.1,2.4,7.89,7.45,7.89,7.45Z"/>
              <path class="cls-3" d="m146.32,181.64c-.1,0-.21-.02-.31-.06-.05-.02-5.01-2.01-8.67-1.75-3.71.26-7.21,1.73-7.25,1.75-.42.18-.91-.02-1.09-.44-.18-.42.02-.91.44-1.09.15-.06,3.79-1.59,7.78-1.87,4.04-.29,9.2,1.78,9.41,1.87.42.17.63.66.46,1.08-.13.32-.44.52-.77.52Z"/>
              <g>
                <path class="cls-3" d="m110.38,148.65c-.08,0-.16-.01-.25-.04l-6.51-2.02c-.44-.14-.68-.6-.55-1.04.14-.44.6-.68,1.04-.55l6.51,2.02c.44.14.68.6.55,1.04-.11.36-.44.58-.79.58Z"/>
                <path class="cls-3" d="m107.54,150.14s-.09,0-.13-.01l-5.29-.85c-.45-.07-.76-.5-.69-.95.07-.45.5-.76.95-.69l5.29.85c.45.07.76.5.69.95-.07.41-.42.7-.82.7Z"/>
              </g>
              <g>
                <path class="cls-3" d="m159.58,148.65c-.35,0-.68-.23-.79-.58-.14-.44.11-.9.55-1.04l6.51-2.02c.44-.14.9.11,1.04.55.14.44-.11.9-.55,1.04l-6.51,2.02c-.08.03-.17.04-.25.04Z"/>
                <path class="cls-3" d="m162.42,150.14c-.4,0-.75-.29-.82-.7-.07-.45.24-.88.69-.95l5.29-.85c.46-.08.88.24.95.69.07.45-.24.88-.69.95l-5.29.85s-.09.01-.13.01Z"/>
              </g>
              <g>
                <path class="cls-5" d="m116.13,158.93s12.73-.97,19.9-.97,19.9.97,19.9.97c0,0-9.5,4.22-21.08,3.72-11.58-.5-18.71-3.72-18.71-3.72Z"/>
                <path class="cls-1" d="m116.13,158.93s7.81,1.95,11.7,1.95,12.51.56,17.52,0c5.01-.56,10.57-1.95,10.57-1.95,0,0-8.35,11.69-10.85,12.52-2.5.83-13.03,1.39-16.67,0-3.64-1.39-12.27-12.52-12.27-12.52Z"/>
              </g>
              <path class="cls-5" d="m175.54,100.53s-6.54-7.93-13.12-10.99c-6.57-3.06-47.4-8.63-47.4-8.63-12.33,7.4-22.63,24.09-22.95,24.62l.22-.58c4.18-10.59,21.06-30.29,21.06-30.29,0,0,46.75,7.51,49.67,8.76,2.66,1.14,10.55,11.68,12.22,16.05l.3,1.07Z"/>
            </g>
            <g>
              <path class="cls-4" d="m257.26,202.83c0,1.62-.06,2.74-.06,2.74,0,0-1.3.24-3.55.63-3.32.61-8.69,1.59-14.94,2.75h-.02c-7.1,1.31-15.34,2.87-23.01,4.35-5.87,1.14-11.41,2.25-15.85,3.19h-.01c-.76.17-1.48.33-2.17.48-17.81,3.9-55.16,15.53-66.5,12.71,0,0-.01,0-.02-.01-.42-.14-6.96-2.44-15.16-6.24-8.09-3.75-17.78-8.97-24.85-15.07-.16-.14-.31-.27-.46-.41-.07-.06-.12-.11-.19-.18-.69-.6-1.36-1.23-1.99-1.87,0,0-1.28-7.58,3.59-11.47,0,0-.69-7.51,3.48-11.69,0,0,4.25,11.35,21.57,24.47,1.62,1.22,3.35,2.47,5.21,3.72,5.87,3.94,16.31,13.29,16.31,13.29,0,0,5.97-9.68,18.89-17.84.2-.12.41-.26.62-.39,13.35-8.21,53.15-27.41,59.83-36.87,5.07-7.2.65-11.98-1.76-13.85-.76-.59-1.31-.89-1.31-.89,0,0,9.16.79,16.37,3.61.24.08.48.18.7.27,3.81,1.57,6.93,3.75,7.7,6.69,2.22,8.61,2.22,15.02,2.5,18.35.27,3.34,10.57,5.58,13.08,8.51,1.7,1.96,1.98,7.6,1.99,11.02Z"/>
              <path class="cls-11" d="m135.53,231.11c-1.75,0-3.27-.13-4.5-.43h-.29l-.14-.13c-1.45-.5-7.72-2.81-15.05-6.21-10.67-4.95-19.11-10.07-25.08-15.21l-.46-.41c-.08-.07-.16-.14-.25-.23-.6-.52-1.27-1.15-1.99-1.87l1.4-1.4c.69.69,1.32,1.28,1.94,1.82.1.09.13.13.18.17l.47.42c5.75,4.96,14.27,10.12,24.62,14.92,8.44,3.92,14.99,6.18,15.04,6.2h.04c8.23,1.98,30.84-3.84,49.02-8.53,6.34-1.64,12.33-3.18,16.95-4.19.69-.15,1.41-.31,2.17-.47l.12-.02c4.11-.87,9.42-1.94,15.76-3.18,7.08-1.37,15.26-2.92,23.02-4.35l.11-.02c4.34-.81,8.26-1.53,11.35-2.09l3.51-.64c1.22-.22,2.16-.38,2.76-.49.01-.47.03-1.13.03-1.91-.02-5.33-.66-9.11-1.75-10.37-.93-1.08-3.38-2.19-5.75-3.26-3.79-1.71-7.37-3.32-7.57-5.82-.05-.61-.1-1.33-.14-2.15-.22-3.62-.54-9.09-2.33-16.04-.6-2.29-3-4.32-7.12-6.03l-.15-.06c-.16-.06-.32-.13-.49-.19-4.18-1.56-10.37-2.31-14.82-2.67-3.49-.29-6.08-.34-6.11-.34l.03-1.98c.11,0,2.68.05,6.24.34,4.58.37,10.95,1.15,15.32,2.78.17.06.38.14.57.22l.15.06c4.74,1.96,7.53,4.44,8.29,7.36,1.84,7.13,2.17,12.72,2.39,16.42.05.8.09,1.5.14,2.1.11,1.34,3.75,2.98,6.41,4.18,2.68,1.21,5.22,2.35,6.44,3.77,1.46,1.68,2.21,5.61,2.23,11.66,0,1.63-.06,2.75-.06,2.79l-.04.78-.77.14s-1.3.24-3.55.64l-3.5.64c-3.11.57-7.05,1.29-11.43,2.11l-.11.02c-7.73,1.43-15.86,2.97-22.91,4.33-6.39,1.25-11.71,2.32-15.83,3.19l-.11.02c-.72.16-1.42.31-2.08.45-4.57,1-10.55,2.54-16.87,4.17-15.77,4.07-34.84,8.98-45.45,8.98Z"/>
              <path class="cls-11" d="m257.26,202.83c0,1.62-.06,2.74-.06,2.74,0,0-1.3.24-3.55.63-3.32.61-8.69,1.59-14.94,2.75h-.02c4.16-1.67,6.26-3.62,6.9-5.6.1-.31.17-.62.19-.93.46-4.72-6.92-9.35-14.06-10.4-10.59-1.59-39.91,11.17-37.82,8.53,2.08-2.63,35.06-19.06,39.66-26.16,4.58-7.1-1.83-16.14-1.83-16.14h.25c3.81,1.56,6.93,3.74,7.7,6.68,2.22,8.61,2.22,15.02,2.5,18.35.27,3.34,10.57,5.58,13.08,8.51,1.7,1.96,1.98,7.6,1.99,11.02Z"/>
              <g>
                <ellipse class="cls-12" cx="117.29" cy="216.65" rx="3.52" ry="4.37"/>
                <path class="cls-1" d="m100.21,242.51c-.39,0-.76-.23-.92-.62-.21-.51.04-1.09.54-1.29,9.34-3.8,13.41-11.59,15.18-17.45.24-.77.46-1.56.65-2.43.54-2.44.62-4.11.62-4.12.03-.55.51-.97,1.04-.94.55.03.97.49.94,1.04,0,.07-.09,1.84-.67,4.46-.21.93-.43,1.77-.69,2.59-1.89,6.26-6.26,14.6-16.33,18.7-.12.05-.25.07-.37.07Z"/>
              </g>
              <g>
                <path class="cls-12" d="m160.04,217.69c0,2.41-1.58,4.37-3.52,4.37s-3.52-1.96-3.52-4.37,1.58-4.37,3.52-4.37,3.52,1.96,3.52,4.37Z"/>
                <path class="cls-1" d="m111.29,244.9c-.25,0-.5-.09-.69-.28-.39-.38-.4-1.01-.02-1.4,2.14-2.2,4.19-4.08,6.09-5.59,3.29-2.62,8-5.58,13.99-8.82,8.48-4.56,17.51-8.6,22.14-10.61,2.1-.91,3.35-1.42,3.35-1.42.51-.21,1.09.04,1.29.54.21.51-.04,1.09-.54,1.29,0,0-1.24.51-3.31,1.41-4.6,1.99-13.58,6.01-21.99,10.53-5.89,3.18-10.49,6.08-13.69,8.62-1.83,1.45-3.81,3.28-5.9,5.42-.19.2-.45.3-.71.3Z"/>
              </g>
            </g>
            <path class="cls-13" d="m257.26,202.83c0,1.62-.06,2.74-.06,2.74,0,0-1.3.24-3.55.63.43-.39.85-.78,1.26-1.16.07-.07.14-.12.19-.18.74-.69,1.45-1.37,2.15-2.04Z"/>
          </g>
        </g>
      </g>
    </g>
  </g>
</svg>