<?xml version="1.0" encoding="UTF-8"?>
<svg id="Layer_2" data-name="Layer 2" xmlns="http://www.w3.org/2000/svg" xmlns:xlink="http://www.w3.org/1999/xlink" viewBox="0 0 293 292">
  <defs>
    <style>
      .cls-1 {
        fill: #287056;
      }

      .cls-2 {
        fill: #f9ead9;
      }

      .cls-3 {
        fill: #725038;
      }

      .cls-4 {
        fill: #fff;
        filter: url(#drop-shadow-1);
      }

      .cls-5 {
        fill: #eea489;
      }

      .cls-6 {
        clip-path: url(#clippath);
      }

      .cls-7 {
        fill: #fed0b9;
      }

      .cls-8 {
        fill: #663f25;
      }

      .cls-9 {
        fill: #3e8a72;
      }

      .cls-10 {
        fill: #35231f;
      }

      .cls-11 {
        fill: #db8a75;
      }
    </style>
    <filter id="drop-shadow-1" filterUnits="userSpaceOnUse">
      <feOffset dx="3" dy="3"/>
      <feGaussianBlur result="blur" stdDeviation="5"/>
      <feFlood flood-color="#000" flood-opacity=".42"/>
      <feComposite in2="blur" operator="in"/>
      <feComposite in="SourceGraphic"/>
    </filter>
    <clipPath id="clippath">
      <circle class="cls-2" cx="143.53" cy="143.12" r="112.77" transform="translate(-59.16 143.41) rotate(-45)"/>
    </clipPath>
  </defs>
  <g id="diverse_portrait_people_icons" data-name="diverse portrait people icons">
    <g>
      <circle class="cls-4" cx="143.39" cy="143.09" r="130.7"/>
      <g>
        <circle class="cls-2" cx="143.53" cy="143.12" r="112.77" transform="translate(-59.16 143.41) rotate(-45)"/>
        <g class="cls-6">
          <g>
            <g>
              <path class="cls-9" d="m245.09,217.38c-2.09,2.49-4.7,5.32-7.87,8.33-15.15,14.4-43.09,32.85-89.05,36.74-50.98,4.31-83.56-22.97-99.92-42.21,10.99-3.9,34.46-13.79,34.46-13.79l10.54.43,37.08,13.91,57.63-13.16,10.66-2.44,5.69-.22s25.92,4.85,31.82,8.23c1.33.76,4.63,2.24,8.97,4.18Z"/>
              <path class="cls-1" d="m236.12,213.2c1.33.76,4.63,2.24,8.97,4.18-2.09,2.49-4.7,5.32-7.87,8.33-10.74-4.49-21.72-8.44-32.86-11.81-.47-.14-.96-.29-1.44-.44-2.3-.72-4.72-1.52-7.09-2.4-2.85-1.06-5.6-2.22-7.88-3.44l10.66-2.44,5.69-.22s25.92,4.85,31.82,8.23Z"/>
              <path class="cls-1" d="m151.37,247.88c-5.29,0-22.57-5.37-39.9-10.9-4.78-1.53-8.56-2.73-9.87-3.06-5.33-1.33-14.22-14.18-15.22-15.64-.36-.53-.22-1.24.3-1.6.53-.36,1.24-.22,1.6.3,2.57,3.77,10.07,13.76,13.87,14.7,1.38.35,5.01,1.5,10.02,3.1,12.28,3.92,35.12,11.22,39.54,10.78,7.44-.74,40.04-11.62,42.11-15.23,2.47-4.32,8.1-17.45,8.16-17.58.25-.59.93-.86,1.52-.61.59.25.86.93.61,1.52-.23.54-5.75,13.39-8.28,17.82-2.94,5.14-38.46,15.84-43.88,16.38-.17.02-.36.03-.57.03Z"/>
            </g>
            <g>
              <path class="cls-7" d="m111.36,179.47s-1.69,15.17-3.79,17.7c-2.11,2.53-14.33,9.69-14.33,9.69,0,0,4.22,12.22,7.59,14.33,3.37,2.11,37.93,15.17,40.46,15.17s41.31-5.9,44.68-8.43,12.64-22.76,12.64-22.76c0,0-13.49-8.43-15.17-10.12-1.69-1.69-5.48-17.28-5.48-17.28l-66.6,1.69Z"/>
              <path class="cls-5" d="m110.03,188.89s15.24,20.51,17.35,21.78c2.11,1.26,32.46,2.95,35.83.42,3.37-2.53,17.7-22.76,17.7-22.76l-2.95-10.54-66.6,1.69-1.33,9.41Z"/>
            </g>
            <g>
              <path class="cls-7" d="m102.32,150.83l-1.83.1-1.68.12c-2.72.2-5.24-1.42-6.2-3.97l-5.93-15.78c-.73-1.94-.43-4.12.8-5.79l1.6-2.2c1.58-2.16,4.35-3.04,6.84-2.24.18.06.37.13.55.21l3.37,1.44,2.47,28.12Z"/>
              <path class="cls-5" d="m100.4,143.1c-.4,0-.77-.24-.93-.63-1.88-4.69-6.1-9.5-6.14-9.54-.37-.41-.33-1.05.09-1.41.41-.37,1.05-.33,1.41.09.18.21,4.49,5.11,6.5,10.13.21.51-.04,1.1-.56,1.3-.12.05-.25.07-.37.07Z"/>
              <path class="cls-5" d="m95.76,142.67c-.19,0-.39-.06-.56-.17-.45-.31-.57-.92-.27-1.38.06-.09,1.44-2.11,4.57-2.27.54-.03,1.02.39,1.05.95.03.55-.39,1.02-.95,1.05-2.09.11-2.98,1.34-3.02,1.39-.2.28-.51.43-.83.43Z"/>
              <polygon class="cls-5" points="102.32 150.83 100.49 150.93 98.81 139.95 98.59 138.49 95.92 121.06 95.91 121.03 96.47 121.27 99.84 122.71 102.32 150.83"/>
            </g>
            <g>
              <path class="cls-7" d="m188.26,150.71l3.1.34c2.72.19,5.24-1.42,6.2-3.97l5.93-15.77c.73-1.94.43-4.12-.79-5.79l-1.61-2.21c-1.69-2.32-4.76-3.16-7.4-2.03l-3.36,1.44-2.07,27.99Z"/>
              <path class="cls-5" d="m190.18,142.12c-.12,0-.25-.02-.37-.07-.51-.21-.76-.79-.56-1.3,2.02-5.05,5.96-9.02,6.13-9.19.39-.39,1.02-.39,1.42,0,.39.39.39,1.02,0,1.42-.04.04-3.82,3.86-5.68,8.52-.16.39-.53.63-.93.63Z"/>
              <path class="cls-5" d="m194.4,142.68c-.32,0-.63-.15-.83-.44-.05-.07-.94-1.28-3.02-1.39-.55-.03-.98-.5-.95-1.05.03-.55.5-.98,1.05-.95,3.13.17,4.52,2.18,4.57,2.27.31.46.18,1.08-.28,1.39-.17.11-.36.17-.55.17Z"/>
              <polygon class="cls-5" points="190.32 122.72 188.26 150.71 191.36 151.05 193.69 121.27 190.32 122.72"/>
            </g>
            <g>
              <path class="cls-3" d="m196.78,123l-6.46.28-1.41,17.71s-1.68,26.41-2.25,29.78c-.56,3.37-20.79,28.94-24.45,30.91-3.65,1.97-31.47,1.69-33.44.56-1.97-1.12-23.04-25.01-23.89-27.54-.85-2.53-5.06-51.98-5.06-51.98,0,0-2.71-1.14-5.55-2.41-.56-.84-3.16-36.93-2.6-41.43.56-4.49,20.23-25.57,23.6-27.54,2.29-1.34,28.76-1.77,46.78-1.29,8.48.23,15.09.65,16.44,1.29,4.22,1.97,19.39,33.44,20.51,37.65,1.12,4.22-2.25,34-2.25,34Z"/>
              <path class="cls-8" d="m111.8,87.17s-13.08,9.97-13.93,13.34c-.84,3.37,1.97,22.2,1.97,22.2l5.06,51.98,4.78-6.6,2.12-80.93Z"/>
              <path class="cls-8" d="m196.78,123l-6.46.28-1.41,17.71s-1.68,26.41-2.25,29.78c-.56,3.37-20.79,28.94-24.45,30.91-3.65,1.97-31.47,1.69-33.44.56,0,0,31.75-4.21,34-6.18,2.25-1.97,16.86-32.03,16.86-32.03l2.25-71.94s-1.69-21.92-3.66-25.01c-1.97-3.09-16.93-16.37-16.93-16.37l.77-.65c8.48.23,15.09.65,16.44,1.29,4.22,1.97,19.39,33.44,20.51,37.65,1.12,4.22-2.25,34-2.25,34Z"/>
              <path class="cls-7" d="m184.98,125.24c-.41,2.7-2.53,21.76-4.06,32.13-.53,3.63-.99,6.21-1.28,6.64-1.13,1.69-13.49,7.03-13.49,7.03l-6.75-8.71-6.18-1.13s-6.47,3.09-8.15,3.09-8.43-3.79-8.43-3.79l-4.64.84-10.96,10.12-11.38-3.37-5.06-40.46s-.85-27.82-.43-30.35c.43-2.53,7.59-10.12,7.59-10.12,0,0,0,0,.02,0,.55.15,13.12,3.53,16.42,4.35,3.38.84,29.22,2.81,31.75,3.37,2.53.56,21.92-2.81,21.92-2.81,0,0,3.65,29.5,3.09,33.16Z"/>
              <path class="cls-11" d="m145.46,165.31c-.15,0-.3,0-.45-.02-4.2-.3-10.14-5.08-10.39-5.28l-.44-.36,4.02-27.26c.08-.55.59-.92,1.14-.84.55.08.92.59.84,1.14l-3.85,26.12c1.89,1.45,6.11,4.29,8.83,4.49,3.44.25,7.63-3.63,7.67-3.67.4-.38,1.04-.36,1.41.05.38.4.36,1.04-.05,1.41-.19.18-4.55,4.22-8.74,4.22Z"/>
              <path class="cls-8" d="m152.51,120.4s.56,4.5,4.5,5.06c3.93.56,19.39-.84,19.39-.84l4.22.56s-1.69-5.34-4.22-5.9c-2.53-.56-23.88,1.12-23.88,1.12Z"/>
              <path class="cls-8" d="m135.23,119.63s-1.48,5.9-5.06,6.11c-3.58.21-12.22-2.11-14.96-2.32-2.74-.21-7.59,0-7.59,0,0,0,2.11-4.85,4.85-5.06,2.74-.21,22.76,1.26,22.76,1.26Z"/>
              <path class="cls-5" d="m114.31,150.13c-.19,0-.37-.05-.54-.16l-5.9-3.79c-.46-.3-.6-.92-.3-1.38.3-.47.92-.6,1.38-.3l5.9,3.79c.46.3.6.92.3,1.38-.19.3-.51.46-.84.46Z"/>
              <path class="cls-5" d="m113.89,153.71c-.16,0-.31-.04-.46-.11l-4.85-2.53c-.49-.26-.68-.86-.42-1.35.26-.49.86-.68,1.35-.42l4.85,2.53c.49.26.68.86.42,1.35-.18.34-.53.54-.89.54Z"/>
              <path class="cls-5" d="m176.27,150.76c-.38,0-.74-.22-.91-.59-.23-.5,0-1.1.5-1.33l4.64-2.11c.5-.23,1.1,0,1.33.5.23.5,0,1.1-.5,1.33l-4.64,2.11c-.13.06-.27.09-.41.09Z"/>
              <path class="cls-5" d="m176.48,154.55c-.37,0-.72-.2-.9-.55-.25-.49-.05-1.1.45-1.34l3.58-1.79c.49-.25,1.1-.05,1.34.45.25.49.05,1.1-.45,1.34l-3.58,1.79c-.14.07-.3.11-.45.11Z"/>
              <path class="cls-10" d="m154.98,175.21c-.82,0-1.7-.16-2.82-.36-1.68-.31-3.78-.69-6.67-.69s-4.88.36-6.56.65c-1.24.21-2.31.4-3.34.4-2.53,0-5.85-2.03-6.22-2.26-.47-.29-.61-.91-.32-1.38.29-.47.91-.61,1.38-.32.87.54,3.5,1.96,5.16,1.96.86,0,1.85-.17,3-.37,1.76-.3,3.95-.68,6.91-.68s5.36.42,7.03.72c1.02.19,1.82.33,2.46.33,1.35,0,3.77-1.13,4.59-1.57.49-.26,1.09-.07,1.35.41.26.49.08,1.09-.41,1.35-.35.18-3.44,1.8-5.53,1.8Z"/>
              <path class="cls-10" d="m140.23,181.53c-.5,0-.94-.38-.99-.89-.06-.55.33-1.05.88-1.11.31-.04,7.56-.85,11.25-.2.54.1.91.62.81,1.16-.1.54-.62.91-1.16.81-3.4-.6-10.6.21-10.67.22-.04,0-.08,0-.11,0Z"/>
              <path class="cls-5" d="m184.98,125.24c-.41,2.7-2.53,21.76-4.06,32.13l-1.28,6.64s1.9-34.07,2.74-39.13c-1.9-10.32-5.69-23.18-5.69-23.18,0,0-10.75,0-14.12.42-3.37.43-23.82-4.42-30.14-5.69-6.18-1.24-20.03-8.93-20.64-9.27.55.15,13.12,3.53,16.42,4.35,3.38.84,29.22,2.81,31.75,3.37,2.53.56,21.92-2.81,21.92-2.81,0,0,3.65,29.5,3.09,33.16Z"/>
              <path class="cls-8" d="m132.01,69.89s23.81,8.43,28.87,9.69c5.06,1.26,22.55-.84,22.55-.84l-.84-5.06s-14.33,1.69-17.7,1.69-32.88-5.48-32.88-5.48Z"/>
              <path class="cls-10" d="m155.4,136.44c-.29,0-.57-.11-.79-.33-.44-.44-.44-1.15,0-1.59.29-.29,2.88-2.85,4.7-3.69.16-.07.28-.12.39-.16.43-.14,1.47-.48,8.36.45,2.25.3,4.07.6,4.07.6.61.1,1.03.68.93,1.29-.1.61-.68,1.03-1.29.93,0,0-1.8-.3-4-.59-6.15-.83-7.23-.58-7.33-.55-.04.02-.13.05-.22.09-1.2.55-3.31,2.51-4.02,3.22-.22.22-.51.33-.79.33Z"/>
              <path class="cls-10" d="m130.47,135.64c-.27,0-.54-.1-.75-.31-1.42-1.37-3.47-2.9-4.3-2.96-2.54-.38-8.9.62-11.15,1.04-.59.11-1.16-.28-1.27-.87-.11-.59.28-1.16.87-1.26.34-.06,8.45-1.55,11.79-1.06,1.95.15,4.98,2.99,5.56,3.56.43.42.44,1.1.02,1.53-.21.22-.5.33-.78.33Z"/>
              <path class="cls-10" d="m168.05,133.48c0,2.7-1.9,4.88-4.26,4.88s-4.26-2.18-4.26-4.88c0-.57.09-1.11.24-1.62.1-.04.21-.09.31-.12.96-.31,4.78.1,7.83.51.09.39.14.8.14,1.23Z"/>
              <path class="cls-10" d="m118.01,133.48c0,2.7,1.9,4.88,4.26,4.88s4.26-2.18,4.26-4.88c0-.57-.09-1.11-.24-1.62-.1-.04-.21-.09-.31-.12-.96-.31-4.78.1-7.83.51-.09.39-.14.8-.14,1.23Z"/>
            </g>
          </g>
        </g>
      </g>
    </g>
  </g>
</svg>