<?xml version="1.0" encoding="UTF-8"?>
<svg id="Layer_2" data-name="Layer 2" xmlns="http://www.w3.org/2000/svg" xmlns:xlink="http://www.w3.org/1999/xlink" viewBox="0 0 293 292">
  <defs>
    <style>
      .cls-1 {
        fill: #f9ead9;
      }

      .cls-2 {
        fill: #e6e6e6;
      }

      .cls-3 {
        fill: #6d2931;
      }

      .cls-4 {
        fill: #fff;
        filter: url(#drop-shadow-1);
      }

      .cls-5 {
        fill: #591e26;
      }

      .cls-6 {
        fill: #e67342;
      }

      .cls-7 {
        fill: #eea489;
      }

      .cls-8 {
        clip-path: url(#clippath);
      }

      .cls-9 {
        fill: #fed0b9;
      }

      .cls-10 {
        fill: #ccc;
      }

      .cls-11 {
        fill: #d1572c;
      }

      .cls-12 {
        fill: #35231f;
      }

      .cls-13 {
        fill: #db8a75;
      }
    </style>
    <filter id="drop-shadow-1" filterUnits="userSpaceOnUse">
      <feOffset dx="3" dy="3"/>
      <feGaussianBlur result="blur" stdDeviation="5"/>
      <feFlood flood-color="#000" flood-opacity=".42"/>
      <feComposite in2="blur" operator="in"/>
      <feComposite in="SourceGraphic"/>
    </filter>
    <clipPath id="clippath">
      <circle class="cls-1" cx="142.94" cy="142.88" r="112.77" transform="translate(-59.16 142.92) rotate(-45)"/>
    </clipPath>
  </defs>
  <g id="diverse_portrait_people_icons" data-name="diverse portrait people icons">
    <g>
      <circle class="cls-4" cx="143.45" cy="142.93" r="130.7"/>
      <g>
        <circle class="cls-1" cx="142.94" cy="142.88" r="112.77" transform="translate(-59.16 142.92) rotate(-45)"/>
        <g>
          <circle class="cls-1" cx="142.94" cy="142.88" r="112.77" transform="translate(-59.16 142.92) rotate(-45)"/>
          <g class="cls-8">
            <g>
              <g>
                <path class="cls-6" d="m185.93,222.47s14.02,5.97,29.08,12.58c-1.35,1.04-2.81,2.11-4.37,3.17-13.36,9.09-34.63,18.37-66.93,20.29,0,0,0,.01-.01,0-1.11.08-2.23.13-3.37.17-2.42.11-4.91.18-7.45.19-4.23.03-8.63-.06-13.21-.28-24.32-1.19-44.16-12.71-60.11-28.63-1.05-1.06-2.1-2.13-3.13-3.23,19.37-8.67,38.79-17.22,38.79-17.22l90.7,12.96Z"/>
                <path class="cls-11" d="m215.88,234.38c-.28.22-.57.45-.86.67-1.35,1.04-2.81,2.11-4.37,3.17l-33.58-11.11-61.54-8.68-26.03,1.57c-1.71.34-15.15,4.88-29.92,9.96-1.05-1.06-2.1-2.13-3.13-3.23,19.37-8.67,38.79-17.22,38.79-17.22l85.25,8.05s17.72,8.33,35.4,16.82Z"/>
              </g>
              <g>
                <path class="cls-9" d="m173.65,216.67s-18.93,11.25-36.31,11.25-32.22-23.01-32.22-23.01l4.13-32.6.99-7.81,61.89.52.72,24.25.81,27.4Z"/>
                <path class="cls-7" d="m172.84,189.27c-5.06,2.87-13.74,7.45-17.61,7.45-5.62,0-29.15-3.07-33.24-6.14-3.09-2.32-9.72-13.15-12.75-18.27l.99-7.81,61.89.52.72,24.25Z"/>
              </g>
              <g>
                <path class="cls-3" d="m193.43,119.49l-6.82-.69s-8.37-1.43-19.71-3.36c-23.55-4.02-59.87-10.24-60.5-10.53-.94-.43-4.92-.98-4.92-.98,0,0,.57-33.89,3.3-38.32,2.73-4.43,20.12-17.05,33.07-20.46,12.96-3.41,24.89-3.07,24.89-3.07h0c.49.26,19.5,10.35,25.23,19.44,5.79,9.21,9.2,15.69,9.54,19.44.35,3.75-4.09,38.53-4.09,38.53Z"/>
                <path class="cls-5" d="m193.43,119.49l-6.82-.69s-8.37-1.43-19.71-3.36l-49.5-45.57s33.41-16.54,38.19-16.88c4.7-.33,20.31,4.96,20.79,5.11-1.35-3.37-13.25-15.63-13.62-16.01.49.25,19.5,10.34,25.23,19.43,5.79,9.21,9.2,15.69,9.54,19.44.35,3.75-4.09,38.53-4.09,38.53Z"/>
                <path class="cls-9" d="m187.98,111.82c0,1.88-4.26,20.22-8.02,35.11-2.35,9.34-4.5,17.33-5.29,19.1-2.04,4.6-18.4,17.39-21.48,18.41-3.07,1.02-25.57-.77-29.41-3.06-3.83-2.31-17.05-20.68-17.05-20.68,0,0-.62-9.18-.97-20.73-.37-12.32-.45-27.35.87-36.85,1.21-8.67,10.74-33.25,10.74-33.25,1.19-1.3,8.14-3.69,15.77-6.02,5.81-1.78,12.02-3.51,16.35-4.71,3.63-.99,7.5-.39,10.66,1.65l26.77,17.27s1.03,30.68,1.03,33.76Z"/>
                <path class="cls-3" d="m179.96,146.94c-2.35,9.34-4.5,17.33-5.29,19.1-2.04,4.6-18.4,17.39-21.48,18.41-3.07,1.02-25.57-.77-29.41-3.06-3.83-2.31-17.05-20.68-17.05-20.68,0,0-.62-9.18-.97-20.73,1.19.22,9.39,1.72,10.34,1.26,1.02-.51,7.42-6.91,9.46-7.16,2.05-.26,11.77-2.05,11.77-2.05l16.87,2.81s9.98,3.84,11.26,4.85c1.27,1.03,4.86,6.4,4.86,6.4l9.63.85Z"/>
                <path class="cls-9" d="m140.24,98.69s3.07,7.16,3.07,9.55-6.48,26.25-6.48,26.25c0,0,3.75,3.41,7.84,4.09,4.09.68,8.52-1.36,8.52-1.36l-.33-6.62-12.63-31.91Z"/>
                <path class="cls-13" d="m146.44,139.56c-.63,0-1.27-.05-1.9-.15-4.28-.71-8.1-4.15-8.27-4.3l-.38-.34.13-.49c2.59-9.55,6.45-24.37,6.45-26.04,0-1.82-2.17-7.27-3-9.22-.18-.42.01-.91.44-1.09.42-.18.91.01,1.09.44.32.75,3.14,7.39,3.14,9.88,0,2.31-5.27,21.9-6.37,25.96,1.02.84,3.96,3.05,7.04,3.56,3.78.63,8-1.28,8.04-1.3.42-.19.91,0,1.1.41.19.42.01.91-.41,1.1-.16.07-3.47,1.58-7.11,1.58Z"/>
                <path class="cls-13" d="m153.88,122.71c-.45,0-.82-.36-.83-.81-.04-1.1-.32-10.77.37-13.21.72-2.51,5.14-7.3,5.65-7.84.31-.34.84-.35,1.18-.04.34.31.35.84.04,1.18-1.29,1.38-4.75,5.36-5.26,7.16-.53,1.85-.4,9.8-.31,12.7.01.46-.35.84-.81.86,0,0-.02,0-.03,0Z"/>
                <path class="cls-12" d="m157.33,151.1c-6.42,0-28.01-2.94-29.22-3.42-1.8-.72-5.72-4.32-6.16-4.73-.34-.31-.36-.84-.05-1.18.31-.34.84-.36,1.18-.05,1.14,1.05,4.37,3.89,5.65,4.41,1.74.68,27.71,3.8,29.67,3.26,2-.67,4.71-1.68,4.74-1.69.43-.16.91.06,1.07.49.16.43-.06.91-.49,1.07-.03.01-2.77,1.04-4.8,1.72-.28.09-.82.13-1.59.13Z"/>
                <path class="cls-12" d="m149.01,157.68c-5.45,0-15.48-1.99-15.93-2.08-.45-.09-.74-.53-.65-.98.09-.45.53-.74.98-.65.11.02,11.46,2.27,16.42,2.03.45-.02.85.33.87.79.02.46-.33.85-.79.87-.28.01-.58.02-.9.02Z"/>
                <path class="cls-3" d="m114.84,96.73s4.35-5.63,9.46-5.88c5.11-.26,16.11-.26,16.11-.26l1.02,6.65s-13.81-.77-16.88-.77-9.72.26-9.72.26Z"/>
                <path class="cls-3" d="m162.66,94.77l-2.56,4.86s13.3,3.32,15.86,4.6c2.56,1.28,6.39,4.09,6.39,4.09,0,0-2.3-6.65-5.11-8.95-2.81-2.3-14.58-4.6-14.58-4.6Z"/>
                <path class="cls-7" d="m179.62,123.39c-.3,0-.59-.16-.74-.44-.58-1.09-2.66-3.17-3.41-3.87l-1.64-1.54,5.92.27c.46.02.81.41.79.87-.02.46-.42.81-.87.79l-1.51-.07c.84.88,1.78,1.96,2.2,2.77.22.41.06.91-.35,1.13-.12.07-.26.1-.39.1Z"/>
                <path class="cls-7" d="m113.64,110.78c-.31,0-.6-.17-.75-.46-.21-.41-.04-.91.37-1.12.29-.15,1.02-.4,1.84-.67-.83-.14-1.63-.26-2.08-.32-.46-.06-.78-.48-.72-.93.06-.46.48-.78.93-.72.41.05,4.07.54,5.33,1.08l2.1.9-2.18.66c-1.49.45-4.02,1.26-4.47,1.48-.12.06-.25.09-.37.09Z"/>
                <path class="cls-9" d="m106.4,104.91l-4.92-.98c-2.06-.41-4.16.51-5.25,2.31l-3.09,5.07c-.68,1.12-.9,2.45-.6,3.73l3.23,14.01c.54,2.32,2.64,3.95,5.02,3.88l4.85-.14.77-27.87Z"/>
                <path class="cls-7" d="m104.75,124.42c-.32,0-.63-.19-.77-.51-2.04-4.8-5.88-7-5.92-7.02-.4-.23-.54-.73-.32-1.13.23-.4.73-.54,1.13-.32.18.1,4.38,2.51,6.64,7.82.18.42-.02.91-.44,1.09-.11.05-.22.07-.33.07Z"/>
                <path class="cls-7" d="m99.75,125.57c-.24,0-.48-.11-.65-.31-.29-.36-.23-.88.13-1.17l3.96-3.2c.36-.29.88-.23,1.17.13.29.36.23.88-.13,1.17l-3.96,3.2c-.15.12-.34.18-.52.18Z"/>
                <path class="cls-9" d="m186.61,118.81l5.69.39c2.42.17,4.36,2.07,4.58,4.49l.48,5.24c.11,1.17-.21,2.34-.89,3.3l-6.54,9.25c-1.34,1.89-3.82,2.6-5.96,1.7l-2.82-1.19,5.46-23.19Z"/>
                <path class="cls-7" d="m184.34,134.33c-.15,0-.3-.04-.43-.12-.39-.24-.52-.75-.28-1.14,3.04-4.98,8.2-6.2,8.41-6.25.45-.1.89.18,1,.62.1.45-.18.89-.62,1-.05.01-4.7,1.14-7.36,5.5-.16.26-.43.4-.71.4Z"/>
                <path class="cls-7" d="m188.32,136.35c-.24,0-.47-.1-.64-.29l-2.9-3.41c-.3-.35-.26-.88.1-1.17.35-.3.88-.26,1.17.1l2.9,3.41c.3.35.26.88-.1,1.17-.16.13-.35.2-.54.2Z"/>
                <path class="cls-7" d="m113.3,119.98h-5.46c-.46,0-.83-.37-.83-.83s.37-.83.83-.83h5.46c.46,0,.83.37.83.83s-.37.83-.83.83Z"/>
                <path class="cls-7" d="m107.38,123.55c-.42,0-.79-.32-.83-.75-.05-.46.29-.87.75-.91l6.64-.66c.46-.05.87.29.91.75.05.46-.29.87-.75.91l-6.64.66s-.06,0-.08,0Z"/>
                <path class="cls-7" d="m181.16,130.21s-.07,0-.11,0l-5.11-.68c-.46-.06-.78-.48-.72-.94.06-.46.48-.78.94-.72l5.11.68c.46.06.78.48.72.94-.06.42-.41.72-.82.72Z"/>
                <path class="cls-7" d="m180.47,134.64c-.05,0-.1,0-.15-.01l-5.46-1.02c-.45-.08-.75-.52-.66-.97.08-.45.52-.75.97-.66l5.46,1.02c.45.08.75.52.66.97-.07.4-.42.68-.82.68Z"/>
                <path class="cls-3" d="m106.5,67.6l-1.39-.92c.5-.76,12.3-18.56,17.98-20.99,5.6-2.4,35.41-3.53,36.67-3.57l.06,1.66c-.31.01-30.76,1.16-36.08,3.44-4.34,1.86-13.93,15.34-17.25,20.38Z"/>
                <path class="cls-5" d="m179.96,146.94c-2.35,9.34-4.5,17.33-5.29,19.1-2.04,4.6-18.4,17.39-21.48,18.41-3.07,1.02-25.57-.77-29.41-3.06,0,0,28.29-.29,29.87-1.17,1.58-.87,15.78-19.1,15.78-22.26s-3.33-17.19-3.96-18.26c1.27,1.03,4.86,6.4,4.86,6.4l9.63.85Z"/>
                <polygon class="cls-7" points="106.4 104.91 105.63 132.79 102.64 132.7 102.32 104.11 106.4 104.91"/>
                <polygon class="cls-7" points="186.61 118.81 181.15 142 182.76 142.87 190.47 119.03 186.61 118.81"/>
                <path class="cls-7" d="m187.98,111.82s-2.94-26.1-4-28.55c-1.05-2.46-20.68-16.83-25.59-18.93-4.06-1.74-19.9-.85-25.23-.48,5.81-1.78,12.02-3.51,16.35-4.71,3.63-.99,7.5-.39,10.66,1.65l26.77,17.27s1.03,30.68,1.03,33.76Z"/>
                <path class="cls-5" d="m148.4,169.83c-.32,0-.63-.19-.77-.5-.6-1.39-2.53-3.03-6.17-3.45-4.12-.47-7.22,2.14-7.25,2.17-.35.3-.87.26-1.17-.09-.3-.35-.26-.87.08-1.17.15-.13,3.66-3.13,8.53-2.57,3.69.43,6.5,2.09,7.51,4.44.18.42-.01.91-.44,1.09-.11.05-.22.07-.33.07Z"/>
                <path class="cls-12" d="m158.23,117.87c-.27-.04-.52-.18-.69-.42-.35-.47-.24-1.13.23-1.48.31-.23,3.09-2.24,4.9-2.76.16-.04.28-.07.38-.09.42-.07,1.44-.24,7.72,1.61,2.05.6,3.7,1.14,3.7,1.14.56.18.86.78.68,1.33-.18.56-.78.86-1.33.68,0,0-1.63-.53-3.64-1.12-5.61-1.65-6.65-1.57-6.75-1.56-.04,0-.13.03-.22.05-1.2.34-3.44,1.87-4.2,2.42-.24.17-.52.23-.79.19Z"/>
                <path class="cls-12" d="m135.13,113.57c-.25-.04-.49-.17-.66-.39-1.13-1.48-2.81-3.19-3.58-3.37-2.31-.71-8.38-.69-10.53-.62-.57.02-1.04-.43-1.05-.99-.02-.56.43-1.04.99-1.05.33-.01,8.09-.24,11.13.69,1.8.42,4.21,3.49,4.67,4.11.34.45.25,1.09-.2,1.43-.23.17-.51.24-.77.2Z"/>
                <path class="cls-12" d="m132.13,111.35c-.38,2.51-2.31,4.3-4.29,4s-3.28-2.58-2.9-5.1c.13-.82.41-1.56.81-2.17,2.19,0,4.53.08,5.34.37.3.1.6.31.91.56.21.71.26,1.51.13,2.34Z"/>
                <path class="cls-12" d="m171.43,116.91c-.38,2.51-2.47,4.28-4.66,3.94s-3.66-2.64-3.27-5.16c.08-.53.24-1.02.46-1.47.1-.03.21-.05.3-.07.94-.16,4.44.77,7.22,1.59.03.38.02.77-.05,1.17Z"/>
              </g>
              <g>
                <path class="cls-2" d="m126.94,230.99s5.11,5.11,8.87,5.46c3.75.34,12.07-1.8,12.07-1.8l-2.18-10.47-12.96-1.7-5.8,8.52Z"/>
                <path class="cls-2" d="m140.34,258.68c-2.42.11-4.91.18-7.45.19l1.14-22.87.07-1.26,5.59.45,2.93.24v.36h.02l1.07,22.73c-1.11.08-2.23.13-3.37.17Z"/>
                <path class="cls-10" d="m132.74,222.46l12.44,1.37s-.01.1-.02.27c-.08.75-.27,2.93-.35,4.14-.09,1.49-2.18,7.18-2.18,7.18v.36s1.09,22.73,1.09,22.73c0,0,0,.01-.01,0-1.11.08-2.23.13-3.37.17l-.88-22.4v-.15s.09-.36.22-.94c.43-1.84,1.19-5.95.12-7.82-1.4-2.45-7.07-4.9-7.07-4.9Z"/>
              </g>
              <g>
                <path class="cls-11" d="m105.8,196.89s4.77,18.75,26.94,25.57l-13.26,22.78s-20.49-12.9-24.24-35.74l10.57-12.62Z"/>
                <path class="cls-11" d="m145.18,223.83l7.42,23.52s27.87-4.73,33.32-24.89l-12.28-13.98s-8.35,10.23-28.47,15.34Z"/>
              </g>
            </g>
          </g>
        </g>
      </g>
    </g>
  </g>
</svg>