<?xml version="1.0" encoding="UTF-8"?>
<svg id="Layer_2" data-name="Layer 2" xmlns="http://www.w3.org/2000/svg" xmlns:xlink="http://www.w3.org/1999/xlink" viewBox="0 0 126.5 270.29">
  <defs>
    <style>
      .cls-1, .cls-2, .cls-3 {
        fill: #fff;
      }

      .cls-2 {
        font-size: 9px;
      }

      .cls-2, .cls-3, .cls-4 {
        font-family: OpenSans, 'Open Sans';
      }

      .cls-3 {
        font-size: 7px;
      }

      .cls-5 {
        fill: #bfbc4b;
      }

      .cls-6, .cls-7, .cls-8 {
        fill: #1c1c1c;
      }

      .cls-7 {
        opacity: .6;
      }

      .cls-9, .cls-10, .cls-4 {
        fill: #dddd6b;
      }

      .cls-11 {
        clip-path: url(#clippath);
      }

      .cls-10 {
        font-family: Harrington, Harrington;
        font-size: 28px;
      }

      .cls-4 {
        font-size: 6.33px;
      }

      .cls-8 {
        opacity: .8;
      }
    </style>
    <clipPath id="clippath">
      <path class="cls-8" d="m35.98,251.27c3.93,1.42,23.15,1.14,24.34,1.16,0,0,.55.02,1.48.02.94,0,1.48,0,1.48,0,0,0,20.41.25,24.34-1.17,19.09-6.89,22.23-29.89,21.74-41.62-.58-13.67-1.43-29.35-2.56-44.88-2.49-34.48-6.29-68.19-11.23-77.33-4.06-7.51-24.94-11-39.66-10.15-9.09.56-23.84,2.64-27.9,10.15-4.93,9.14-8.74,42.85-11.23,77.33-1.12,15.53-1.98,31.21-2.56,44.88-.49,11.73,2.65,34.73,21.74,41.62Z"/>
    </clipPath>
  </defs>
  <g id="OBJECTS">
    <g>
      <path class="cls-9" d="m115.05,65.64c-.16-1.31-2.3-3.33-3.45-3.98-7.06-3.99-31.94-5.57-31.94-5.57l-16.41.26-16.41-.26s-24.89,1.58-31.94,5.57c-1.15.65-3.28,2.67-3.45,3.98C6.41,105.67-1.68,168.8.31,214.62c1.59,36.58,13.25,45.86,20.41,51.16,1.82,1.35,6.24,2.83,8.48,3.18,8.39,1.3,33.93,1.33,33.93,1.33h.22s25.54-.03,33.93-1.33c2.24-.35,6.66-1.83,8.48-3.18,7.16-5.3,18.82-14.58,20.41-51.16,1.99-45.82-6.1-108.95-11.13-148.98Z"/>
      <g>
        <path class="cls-8" d="m35.98,251.27c3.93,1.42,23.15,1.14,24.34,1.16,0,0,.55.02,1.48.02.94,0,1.48,0,1.48,0,0,0,20.41.25,24.34-1.17,19.09-6.89,22.23-29.89,21.74-41.62-.58-13.67-1.43-29.35-2.56-44.88-2.49-34.48-6.29-68.19-11.23-77.33-4.06-7.51-24.94-11-39.66-10.15-9.09.56-23.84,2.64-27.9,10.15-4.93,9.14-8.74,42.85-11.23,77.33-1.12,15.53-1.98,31.21-2.56,44.88-.49,11.73,2.65,34.73,21.74,41.62Z"/>
        <g class="cls-11">
          <path class="cls-7" d="m49.68,259.41c4.28,1.55,25.22,1.24,26.53,1.26,0,0,.59.02,1.61.02,1.02,0,1.61,0,1.61,0,0,0,22.24.27,26.53-1.27,20.8-7.51,24.23-32.57,23.69-45.35-.63-14.89-1.56-31.98-2.79-48.91-2.72-37.57-6.86-74.31-12.24-84.27-4.42-8.19-27.18-11.99-43.21-11.06-9.9.61-25.98,2.87-30.4,11.06-5.38,9.96-9.52,46.69-12.24,84.27-1.22,16.92-2.16,34.01-2.79,48.91-.54,12.78,2.89,37.84,23.69,45.35Z"/>
        </g>
      </g>
      <path class="cls-6" d="m84.7,28.06v30.62s-6.92,3.15-21.37,3.25c-12.95.09-21.37-3.25-21.37-3.25v-30.62h42.75Z"/>
      <ellipse class="cls-9" cx="63.33" cy="28.06" rx="21.37" ry="2.58"/>
      <path class="cls-5" d="m77.15,18.32v8.15c0,.82-6.28,1.49-14.02,1.49s-14.02-.67-14.02-1.49v-8.15h28.03Z"/>
      <ellipse class="cls-9" cx="63.13" cy="18.21" rx="14.02" ry="1.66"/>
      <path class="cls-9" d="m16.23.09c.23-.05.48-.09.73-.09h59.75c1.78,0,3.23,1.45,3.23,3.23s-1.45,3.23-3.23,3.23h-5.72v10.79c0,.5-3.64.91-8.14.91s-8.14-.41-8.14-.91h-.03v-3.15c-5.02-1.12-28.41-6.17-36.85-5.14-1.83.22-6.82,2.76-6.82,2.76l-4.05-6.35S15.83.18,16.23.09Z"/>
      <path class="cls-9" d="m8.13,9.11c1.14,1.74,2.46,2.89,2.97,2.57s0-2.01-1.14-3.75c-1.14-1.74-2.46-2.89-2.97-2.57s0,2.01,1.14,3.75Z"/>
      <text class="cls-10" transform="translate(26.98 147.67)"><tspan x="0" y="0">Shiny</tspan></text>
      <text class="cls-2" transform="translate(41.76 118.67)"><tspan x="0" y="0">Shampoo</tspan></text>
      <text class="cls-3" transform="translate(50.82 225.67)"><tspan x="0" y="0">100 ml</tspan></text>
      <text class="cls-4" transform="translate(42.38 179.23)"><tspan x="0" y="0">100% natural</tspan></text>
      <path class="cls-1" d="m70.85,97.89c-.25-5.82-7.71-12.09-7.71-12.09,0,0-2.03,1.7-4.01,4.16h0c-1.82,2.26-3.59,5.14-3.71,7.93-.1,2.33.9,4.43,2.49,5.88.15-.17.28-.38.36-.61.16-.46.14-.99.01-1.48-.04-.15-.08-.29-.13-.43-.22-.59-.56-1.1-.83-1.65-.03-.06-.06-.12-.09-.19-.1-.44-.16-.9-.16-1.37,0-1.67.67-3.18,1.77-4.28.05.3.03.64-.03.94-.1.48-.3.91-.47,1.34s-.32.91-.32,1.41c0,.57.22,1.09.46,1.56.24.47.51.93.66,1.46.19.66.16,1.42-.06,2.06-.03.1-.07.2-.12.3-.22.46-.54.82-.92,1.04.71.62,1.53,1.11,2.42,1.44.84.31,1.74.48,2.67.48,4.26,0,7.9-3.55,7.71-7.91Zm-11.24,1.67c-.62-.28-1.04-.92-1.16-1.59-.11-.67.05-1.37.37-1.98.18-.35.41-.67.55-1.03.2-.53.19-1.12,0-1.66.78-.62,1.72-1.06,2.75-1.23.25.58.24,1.28-.04,1.85-.38.77-1.15,1.23-1.77,1.83-.34.33-.64.7-.83,1.13-.19.43-.26.92-.16,1.38.11.46.41.88.84,1.07.43.2.97.14,1.32-.17-.43.53-1.25.69-1.88.41Zm3.52,4.54c-.83,0-1.63-.17-2.35-.47.26-.48.68-.83,1.3-.88.46-.03.9.05,1.35.1.31.03.62.04.93,0,.22-.03.43-.09.62-.21.18-.12.33-.31.36-.53.03-.24-.08-.48-.17-.7-.09-.23-.17-.49-.07-.71.04-.09.11-.17.18-.25.07-.08.13-.16.17-.25s.04-.21-.03-.29c-.04-.06-.15-.1-.23-.11.12-.04.24-.09.33-.18.07-.07.11-.16.11-.26.01-.13-.04-.25-.1-.36-.07-.11-.16-.2-.23-.3,0,0,.19-.05.21-.06.06-.02.13-.05.18-.09.13-.07.24-.17.32-.29.09-.12.16-.28.14-.43-.02-.13-.17-.24-.27-.32-.31-.26-.68-.5-.92-.82-.26-.34-.38-.75-.41-1.16-.04-.47.03-.94.08-1.4.04-.39.06-.79,0-1.18-.05-.31-.13-.59-.23-.84,2.73.59,4.78,3.02,4.78,5.92,0,3.35-2.71,6.06-6.06,6.06Z"/>
    </g>
  </g>
</svg>