<?xml version="1.0" encoding="UTF-8"?>
<svg id="Layer_2" data-name="Layer 2" xmlns="http://www.w3.org/2000/svg" xmlns:xlink="http://www.w3.org/1999/xlink" viewBox="0 0 293 292">
  <defs>
    <style>
      .cls-1 {
        fill: #287056;
      }

      .cls-2 {
        fill: #f9ead9;
      }

      .cls-3 {
        fill: #fff;
        filter: url(#drop-shadow-1);
      }

      .cls-4 {
        fill: #e67342;
      }

      .cls-5 {
        fill: #eea489;
      }

      .cls-6 {
        clip-path: url(#clippath);
      }

      .cls-7 {
        fill: none;
      }

      .cls-8 {
        fill: #fed0b9;
      }

      .cls-9 {
        fill: #d1572c;
      }

      .cls-10 {
        fill: #3e8a72;
      }

      .cls-11 {
        fill: #35231f;
      }

      .cls-12 {
        fill: #db8a75;
      }
    </style>
    <filter id="drop-shadow-1" filterUnits="userSpaceOnUse">
      <feOffset dx="3" dy="3"/>
      <feGaussianBlur result="blur" stdDeviation="5"/>
      <feFlood flood-color="#000" flood-opacity=".42"/>
      <feComposite in2="blur" operator="in"/>
      <feComposite in="SourceGraphic"/>
    </filter>
    <clipPath id="clippath">
      <circle class="cls-7" cx="143.26" cy="142.82" r="112.77" transform="translate(-59.03 143.13) rotate(-45)"/>
    </clipPath>
  </defs>
  <g id="diverse_portrait_people_icons" data-name="diverse portrait people icons">
    <g>
      <circle class="cls-3" cx="143.5" cy="142.74" r="130.7"/>
      <g>
        <circle class="cls-2" cx="143.26" cy="143.01" r="112.77" transform="translate(-59.16 143.18) rotate(-45)"/>
        <g class="cls-6">
          <g>
            <path class="cls-5" d="m204.49,254.41c-5.89,4.22-12.38,8.36-19.37,12.02l-2.48-62.55s24.47,1.24,32.45,12.41c2.69,3.77,4.42,12.68,5.5,25.19-4.62,4.12-10.03,8.57-16.09,12.93Z"/>
            <g>
              <path class="cls-10" d="m204.49,254.41c-5.89,4.22-12.38,8.36-19.37,12.02-1.65.87-3.34,1.71-5.05,2.52-2.74,1.29-5.55,2.5-8.41,3.61-9.57,3.7-19.79,6.23-30.42,6.8-2.22.12-4.46.15-6.7.1-2.51-.07-5.03-.25-7.57-.56-11.47-1.38-22.15-4.21-31.92-7.9-4.2-1.59-8.24-3.34-12.1-5.2-4.27-2.04-8.33-4.23-12.16-6.49l-3.6-38.75h0s7.89-3.57,7.89-3.57l28.02-12.66,59.85-3.19,19.69,2.75s10.61,25.13,21.85,50.53Z"/>
              <path class="cls-1" d="m75.16,217.09c13.97,16.89,16.05,35.47,19.88,53.91-4.2-1.59-8.24-3.34-12.1-5.2-4.27-2.04-8.33-4.23-12.16-6.49l-3.6-38.75h0s7.89-3.57,7.89-3.57c.03.03.06.08.09.11Z"/>
              <path class="cls-1" d="m104.96,242.36s16.49,8.51,15.96,11.17c-.53,2.66-22.34-6.38-15.96-11.17Z"/>
              <path class="cls-1" d="m155.5,234.38c5.45.54-3.72,16.49-6.92,14.9-3.19-1.6,1.6-15.43,6.92-14.9Z"/>
              <path class="cls-1" d="m141.23,279.35c-2.22.12-4.46.15-6.7.1.06-.13.14-.25.22-.38,1.38-1.97,3.91-1.39,6.48.28Z"/>
              <path class="cls-1" d="m180.07,268.95c-2.74,1.29-5.55,2.5-8.41,3.61.46-3.6,2.46-7.06,6.18-7.32,1.41-.1,2.09,1.5,2.23,3.72Z"/>
              <path class="cls-1" d="m179.97,231.72c4.88-.49,9.04,14.9,5.32,15.96-3.72,1.06-10.64-15.43-5.32-15.96Z"/>
            </g>
            <path class="cls-8" d="m82.94,265.79c-4.27-2.04-8.33-4.23-12.16-6.49-13.38-7.89-23.95-16.61-31.17-23.35,9.14-7.84,21.61-12.79,27.57-15.4,11.7,15.96,12.24,21.28,14.9,36.17.35,1.93.62,5.07.86,9.07Z"/>
            <g>
              <path class="cls-4" d="m69.65,192.75c-1.04,0-2.12-.23-3.13-.69-2.6-1.19-4.21-3.53-5.1-5.29-1.62-3.19-2.05-7.59.62-10.22.56-.55,1.24-1.03,1.9-1.49,1.55-1.08,2.48-1.82,2.36-2.88-.1-.89-1.04-1.62-2-2.28-5.18-3.61-7.34-7.27-6.43-10.88.83-3.27,4.17-5.19,7.13-5.64,2.48-.38,4.97-.01,7.37.35.49.07.98.15,1.47.21,6.67.91,13.38.59,19.94-.94.66-.15,1.15-.47,1.28-.68.03-.05.03-.07.02-.11l1.62-.46c.14.49.07.98-.19,1.42-.58.99-1.95,1.37-2.35,1.47-6.76,1.58-13.67,1.9-20.55.97-.5-.07-1-.14-1.49-.22-2.38-.35-4.63-.69-6.86-.35-2.4.37-5.11,1.87-5.75,4.39-.9,3.56,2.63,6.91,5.76,9.09.94.66,2.51,1.75,2.71,3.47.24,2.14-1.51,3.37-3.06,4.45-.63.44-1.22.85-1.68,1.31-2.07,2.03-1.64,5.61-.3,8.26.77,1.52,2.14,3.54,4.29,4.52,1.93.88,4.22.64,5.57-.6l1.14,1.24c-1.13,1.04-2.67,1.57-4.28,1.57Z"/>
              <path class="cls-4" d="m207.23,104.3c-1.42,10.65-15.25,46.82-16.67,49.66-1.42,2.84-13.12,7.09-15.25,6.74-2.13-.35-6.74-6.03-6.74-6.03l-42.92,27.32s-15.96,18.79-24.82,21.63c-8.87,2.84-11-2.84-11-2.84,0,0-9.57,5.32-15.6,2.84-6.03-2.49-4.62-10.64-4.62-10.64,0,0-4.61-3.9-4.61-9.22s6.39-6.03,7.09-9.93c.71-3.9-14.19-9.58-4.61-17.38,9.58-7.8,15.96-2.48,24.12-4.61,8.15-2.13,5.68-13.12,5.68-13.12,0,0-4.62.35-8.52-3.9-3.9-4.26.71-6.03,1.06-10.65.36-4.61-4.25-10.29-2.83-15.6,1.42-5.32,4.25-4.97,8.15-11,3.9-6.02,0-12.05,1.06-18.09,1.07-6.03,38.66-35.82,41.86-36.89,3.19-1.06,25.18,0,28.02,0s21.99,14.9,21.99,14.9c0,0,9.57,1.42,13.12,5.67,3.55,4.26,4.97,25.19,4.97,25.19,0,0,2.48,5.32,1.06,15.95Z"/>
              <path class="cls-9" d="m207.23,104.3c-1.42,10.65-15.25,46.82-16.67,49.66-1.42,2.84-13.12,7.09-15.25,6.74-2.13-.35-6.74-6.03-6.74-6.03l-42.92,27.32s-15.96,18.79-24.82,21.63c-8.87,2.84-11-2.84-11-2.84,0,0-9.57,5.32-15.6,2.84-6.03-2.49-4.62-10.64-4.62-10.64,2.83,6.74,9.58,6.38,13.48.35,3.91-6.03.36-10.29.72-16.67.35-6.39,9.93-3.9,14.89-7.45,4.97-3.55,4.61-26.96,4.25-31.57-.35-4.61-3.19-11.7-3.19-11.7,0,0,89.74-15.61,91.69-18.45,1.95-2.83,10.46-12.76,11.17-18.09.71-5.32-1.42-26.25-1.42-26.25,3.55,4.26,4.97,25.19,4.97,25.19,0,0,2.48,5.32,1.06,15.95Z"/>
              <path class="cls-9" d="m188.09,57.49s-1.78,13.83-2.84,17.02c-1.07,3.19-3.18,6.2-8.15,7.17.33-.13,6.32-2.76,4.6-10.01-1.78-7.45-10.64-27.66-15.61-29.09,2.84,0,21.99,14.9,21.99,14.9Z"/>
              <path class="cls-9" d="m182.41,220.06c-.41,0-.77-.3-.83-.71-.02-.1-1.61-10.25-2.67-20.26-.55-5.21,2.56-10.52,5.56-15.66,3-5.13,5.83-9.97,4.58-13.97-.93-2.99-1.87-5.18-2.69-7.11-1.49-3.5-2.67-6.26-2.67-11.23,0-7.6,8.79-22.17,9.17-22.78.24-.4.76-.52,1.16-.28.4.24.52.76.28,1.16-.09.15-8.92,14.78-8.92,21.91,0,4.63,1.06,7.12,2.53,10.57.84,1.97,1.79,4.2,2.75,7.27,1.47,4.71-1.54,9.86-4.74,15.32-2.87,4.9-5.83,9.97-5.34,14.63,1.05,9.97,2.64,20.07,2.65,20.17.07.46-.24.89-.7.96-.04,0-.09.01-.13.01Z"/>
              <path class="cls-9" d="m179.75,177.5c-.06,0-.12,0-.18-.02-.46-.1-.74-.55-.65-1,.84-3.92,5.07-6.93,9.15-9.85,4.14-2.95,8.42-6.01,8.92-9.77,1.03-7.72-2.6-21.35-2.64-21.48-.12-.45.15-.91.59-1.03.45-.12.91.15,1.03.59.15.57,3.76,14.09,2.68,22.14-.6,4.49-5.18,7.76-9.61,10.92-3.83,2.73-7.78,5.55-8.49,8.83-.09.4-.43.67-.82.67Z"/>
              <path class="cls-9" d="m175.54,80.8s1.77-6.74-3.19-9.58c-4.97-2.84-42.65,3.01-48.46,10.2-5.81,7.18-8.25,20.75-8.25,20.75,0,0,5.28-16.76,15.21-18.89,9.93-2.13,44.69-2.48,44.69-2.48Z"/>
            </g>
            <g>
              <path class="cls-1" d="m161.35,180.47s0-6.38-28.73-6.03-28.73,3.19-28.73,3.19l-4.26,31.57s5.32,9.93,37.24,11.35c21.31.95,28.73-8.16,28.73-8.16l-4.26-31.92Z"/>
              <g>
                <path class="cls-10" d="m106.38,207.56s-.07,0-.1,0c-.46-.06-.79-.48-.73-.94l2.48-20.22c.06-.46.48-.79.94-.73.46.06.79.48.73.94l-2.48,20.22c-.05.43-.42.74-.83.74Z"/>
                <path class="cls-10" d="m112.76,210.39s-.04,0-.06,0c-.46-.03-.81-.44-.78-.9l1.42-20.22c.03-.46.44-.82.9-.78.46.03.81.44.78.9l-1.42,20.22c-.03.44-.4.78-.84.78Z"/>
                <path class="cls-10" d="m124.46,213.94c-.45,0-.83-.36-.84-.82l-.71-23.05c-.01-.47.35-.85.82-.87.46-.01.85.35.87.82l.71,23.05c.01.47-.35.85-.82.87,0,0-.02,0-.03,0Z"/>
                <path class="cls-10" d="m130.49,215.71h-.01c-.46,0-.84-.39-.83-.85l.35-23.76c0-.47.36-.84.86-.83.46,0,.84.39.83.85l-.35,23.76c0,.46-.38.83-.84.83Z"/>
                <path class="cls-10" d="m138.29,215.71c-.45,0-.83-.36-.84-.82l-.71-22.34c-.02-.46.35-.85.81-.87.48-.02.85.35.87.82l.71,22.35c.02.46-.35.85-.81.87,0,0-.02,0-.03,0Z"/>
                <path class="cls-10" d="m146.1,216.78c-.42,0-.79-.32-.84-.75l-2.84-24.47c-.05-.46.28-.88.74-.93.47-.06.88.28.93.74l2.84,24.47c.05.46-.28.88-.74.93-.03,0-.07,0-.1,0Z"/>
                <path class="cls-10" d="m152.84,213.23c-.43,0-.8-.33-.84-.76l-2.13-21.99c-.04-.46.29-.87.76-.92.46-.05.87.29.92.76l2.13,21.99c.04.46-.29.87-.76.92-.03,0-.05,0-.08,0Z"/>
                <path class="cls-10" d="m158.16,212.17c-.43,0-.8-.33-.84-.77l-1.77-20.57c-.04-.46.3-.87.77-.91.46-.04.87.3.91.77l1.77,20.57c.04.46-.3.87-.77.91-.02,0-.05,0-.07,0Z"/>
                <path class="cls-10" d="m117.72,213.94s-.03,0-.04,0c-.46-.02-.82-.42-.8-.88l1.06-20.93c.02-.46.41-.82.88-.8.46.02.82.42.8.88l-1.06,20.93c-.02.45-.4.8-.84.8Z"/>
              </g>
            </g>
            <path class="cls-5" d="m110.63,149.61l-1.42,30.15s9.58,6.38,26.96,6.03c17.38-.35,20.57-2.48,20.57-2.48l.71-22.7-46.82-11Z"/>
            <g>
              <path class="cls-8" d="m181.5,81.45c2.99-.17,5.65,1.87,6.27,4.8,1.41,6.68,3.69,17.95,3.69,21.25,0,4.79-9.58,34.05-11.17,37.77-1.6,3.72-32.9,35.87-32.9,35.87,0,0-18.8-3.72-21.99-5.85s-16.94-23.63-18-29.48c-1.06-5.85,3.19-31.92,3.19-31.92l13.3-32.45s24.21-6.38,35.11-6.38,18.09,6.65,18.09,6.65l4.41-.24Z"/>
              <path class="cls-4" d="m132.91,153.94s2.55,8.6,7.65,9.88c5.1,1.27,6.29,3.19,10.04,2.23,3.74-.96,5.14-3.93,5.14-3.93,0,0-3.62-2.21-6.85-4.88-3.23-2.67-12.15-2.35-12.15-2.35l-3.82-.96Z"/>
              <path class="cls-9" d="m124.42,97.12s7.45-2.13,9.04-2.13,18.35,8.51,18.35,8.51l-3.46,4.79s-11.22-5.32-14.67-6.92c-3.46-1.6-9.27-4.26-9.27-4.26Z"/>
              <polygon class="cls-9" points="172.83 113.61 172.3 117.6 184.58 122.3 187.37 123.85 188.84 118.89 172.83 113.61"/>
              <path class="cls-5" d="m120.69,135.69c-.34,0-.67-.2-.81-.53l-3.55-8.16c-.19-.45.01-.97.46-1.16.45-.19.97.01,1.16.46l3.55,8.16c.19.45-.01.97-.46,1.16-.11.05-.23.07-.35.07Z"/>
              <path class="cls-5" d="m117.15,139.59c-.4,0-.76-.27-.86-.68l-2.13-8.87c-.11-.48.18-.95.65-1.07.48-.11.95.18,1.07.65l2.13,8.87c.11.47-.18.95-.65,1.07-.07.02-.14.02-.21.02Z"/>
              <path class="cls-11" d="m141.98,118.86c-.43,0-.84-.26-1.01-.68l-1.94-4.85c-1.75-.57-3.78-1-6.03-1.26-3.6-.43-6.55-.3-6.58-.3-.58.03-1.1-.43-1.13-1.03-.03-.6.43-1.1,1.03-1.13.13,0,3.15-.14,6.94.31,2.61.31,4.95.82,6.95,1.53l.45.16.19.44,2.14,5.34c.22.56-.05,1.19-.6,1.41-.13.05-.27.08-.4.08Z"/>
              <path class="cls-11" d="m179,132.29c-.4,0-.78-.22-.97-.6l-1.76-3.51c-1.45-.48-3.78-.88-6.77-1.16-1.49-.13-2.58-.18-2.58-.18-.6-.03-1.06-.53-1.03-1.13.03-.6.53-1.06,1.13-1.03,0,0,1.12.05,2.67.19,2.38.22,5.64.65,7.65,1.41l.4.15.27.4,1.95,3.9c.27.53.05,1.19-.48,1.45-.16.08-.32.11-.48.11Z"/>
              <path class="cls-11" d="m138.8,114.36c-.65,2.57-2.82,4.23-4.87,3.72-2.04-.51-3.18-3.01-2.53-5.58.17-.67.44-1.27.78-1.79,2.14.25,4.52.7,6.72,1.47l.03.06c.08.67.04,1.38-.13,2.11Z"/>
              <path class="cls-11" d="m176.97,127.29c-.02.38-.08.78-.17,1.17-.65,2.57-2.82,4.24-4.87,3.72-2.04-.51-3.18-3.01-2.53-5.58.06-.23.13-.45.2-.66,2.26.21,5.44.61,7.36,1.34Z"/>
              <path class="cls-8" d="m108.46,128.24l-4.9-.45c-2.27-.21-4.09-1.98-4.34-4.25-.54-4.92-1.24-12.99-.33-14.99.9-1.98,4.12-6.41,6.44-9.38,1.26-1.62,3.58-1.94,5.24-.73l5.08,3.73s-4.66,9.31-5.19,13.57c-.53,4.26-2,12.5-2,12.5Z"/>
              <path class="cls-5" d="m109.17,123.45s-.02,0-.04,0c-.49-.02-.87-.43-.85-.92.14-3.28-3.58-10.5-5.03-13-.24-.42-.1-.96.32-1.21.42-.24.96-.1,1.21.32.22.39,5.45,9.5,5.26,13.96-.02.48-.41.85-.88.85Z"/>
              <path class="cls-5" d="m103.32,120.61c-.3,0-.6-.16-.76-.44-.25-.42-.1-.96.32-1.21l4.26-2.48c.42-.25.96-.1,1.21.32.25.42.1.96-.32,1.21l-4.26,2.48c-.14.08-.29.12-.44.12Z"/>
              <path class="cls-9" d="m156.34,161.94l-.6.18c-.51-.03-1.04-.12-1.4-.35-1.2-.8-2.84-2.35-6.29-3.68-3.46-1.33-10.87-2.17-12.73-2.97-.41-.19-.83-.45-1.23-.77l.08-.21s10.46-2.48,16.13-.35c5.68,2.13,6.03,8.16,6.03,8.16Z"/>
              <path class="cls-5" d="m171.24,150.58c-.42,0-.79-.3-.87-.72-.09-.48.22-.94.7-1.03l6.56-1.24c.48-.09.94.22,1.03.7.09.48-.22.94-.7,1.03l-6.56,1.24c-.06.01-.11.02-.17.02Z"/>
              <path class="cls-5" d="m169.64,155.02c-.38,0-.73-.25-.85-.63-.14-.47.13-.96.6-1.1l4.79-1.42c.46-.14.96.13,1.1.6.14.47-.13.96-.6,1.1l-4.79,1.42c-.08.02-.17.04-.25.04Z"/>
              <path class="cls-12" d="m154.2,150c-.46,0-.87-.06-1.2-.19-.45-.18-.67-.7-.49-1.15.18-.45.7-.67,1.15-.49.82.33,3.66-.43,6.05-1.37-.03-2.72-.09-13.61.55-17.12.73-4,3.87-9.61,4-9.85.24-.43.78-.58,1.2-.34.43.24.58.78.34,1.2-.03.06-3.13,5.59-3.8,9.3-.69,3.77-.52,17.25-.52,17.39v.6s-.54.23-.54.23c-.81.34-4.41,1.79-6.74,1.79Z"/>
              <path class="cls-12" d="m146.5,147.48c-.17,0-.34-.05-.49-.15-.29-.19-2.79-1.92-2.79-3.93,0-1.8,1.31-3.95,1.46-4.19.26-.41.8-.54,1.22-.28.41.26.54.8.28,1.22-.33.53-1.2,2.16-1.2,3.26,0,.77,1.19,1.92,2,2.46.41.27.52.82.25,1.23-.17.26-.45.39-.74.39Z"/>
              <path class="cls-9" d="m156.08,163.13c-.13,0-.26,0-.39,0-.82-.04-1.44-.21-1.91-.52-1.3-.87-3.2-2.03-6.41-3.26-1.82-.7-4.75-1.37-7.33-1.95-2.25-.51-4.19-.95-5.12-1.35-.49-.22-.97-.52-1.46-.9-1.47-1.17-2.65-2.83-2.7-2.9-.32-.46-.21-1.08.25-1.4.46-.32,1.09-.21,1.41.25.01.01,1.06,1.5,2.29,2.48.35.27.7.5,1.02.64.75.32,2.69.76,4.75,1.23,2.65.6,5.65,1.28,7.61,2.04,3.4,1.31,5.42,2.54,6.81,3.47.04.02.26.15.89.18.72.03,1.44-.08,1.45-.08.54-.09,1.07.28,1.16.83.09.55-.28,1.07-.83,1.16-.03,0-.7.11-1.49.11Z"/>
            </g>
          </g>
        </g>
      </g>
    </g>
  </g>
</svg>