<?xml version="1.0" encoding="UTF-8"?>
<svg id="Layer_2" data-name="Layer 2" xmlns="http://www.w3.org/2000/svg" xmlns:xlink="http://www.w3.org/1999/xlink" viewBox="0 0 293 292">
  <defs>
    <style>
      .cls-1 {
        fill: #517348;
      }

      .cls-2, .cls-3 {
        fill: #fff;
      }

      .cls-4 {
        fill: #60322e;
      }

      .cls-5 {
        clip-path: url(#clippath-2);
      }

      .cls-6 {
        fill: #f9ead9;
      }

      .cls-7 {
        clip-path: url(#clippath-1);
      }

      .cls-8 {
        fill: #759c7b;
      }

      .cls-9 {
        fill: #c04838;
      }

      .cls-10 {
        fill: #f66d51;
      }

      .cls-11 {
        opacity: .3;
      }

      .cls-3 {
        filter: url(#drop-shadow-1);
      }

      .cls-12 {
        fill: #fcb552;
      }

      .cls-13 {
        fill: #eea489;
      }

      .cls-14 {
        fill: #e89d43;
      }

      .cls-15 {
        clip-path: url(#clippath);
      }

      .cls-16 {
        fill: none;
      }

      .cls-17 {
        fill: #fed0b9;
      }

      .cls-18 {
        clip-path: url(#clippath-3);
      }

      .cls-19 {
        fill: #db8a75;
      }
    </style>
    <filter id="drop-shadow-1" filterUnits="userSpaceOnUse">
      <feOffset dx="3" dy="3"/>
      <feGaussianBlur result="blur" stdDeviation="5"/>
      <feFlood flood-color="#000" flood-opacity=".42"/>
      <feComposite in2="blur" operator="in"/>
      <feComposite in="SourceGraphic"/>
    </filter>
    <clipPath id="clippath">
      <circle class="cls-6" cx="142.94" cy="142.82" r="112.77" transform="translate(-59.12 142.9) rotate(-45)"/>
    </clipPath>
    <clipPath id="clippath-1">
      <path class="cls-16" d="m196.38,195.97l-9.69,26.98-4.84,27.33s-29.06,3.46-36.67,3.46-52.93-5.54-52.93-5.54l-1.73-46.36,5.45-2.36,5.77-2.49c2.27,2.92,9.77,12.43,12.83,14.19,3.63,2.08,45.67,6.75,49.82,5.71,3.96-.99,20.67-23.71,22.19-25.79,1.59.82,3.1,1.58,4.44,2.25,3.15,1.57,5.36,2.61,5.36,2.61Z"/>
    </clipPath>
    <clipPath id="clippath-2">
      <path class="cls-16" d="m60.58,232.58s-21.37-7.29-15.38-17.88c4.27-7.55,8.18-13.6,9.33-13.88,1.4-.35,7.03,0,12.26.44,5.13.43,9.88.94,9.88.94,0,0,6.25,22.91,11.72,43.34,2.29,8.55-27.81-12.96-27.81-12.96Z"/>
    </clipPath>
    <clipPath id="clippath-3">
      <path class="cls-16" d="m210.22,198.05s22.14-4.15,29.06-3.46,15.08,11.75,15.08,11.75c0,0-8.49,13.09-10.57,19.32-2.08,6.23-10.57,22.6-10.57,22.6l-29.92-.39,6.92-49.82Z"/>
    </clipPath>
  </defs>
  <g id="diverse_portrait_people_icons" data-name="diverse portrait people icons">
    <g>
      <circle class="cls-3" cx="143.45" cy="142.72" r="130.7"/>
      <g>
        <circle class="cls-6" cx="142.94" cy="142.82" r="112.77" transform="translate(-59.12 142.9) rotate(-45)"/>
        <g>
          <circle class="cls-6" cx="142.94" cy="142.82" r="112.77" transform="translate(-59.12 142.9) rotate(-45)"/>
          <g class="cls-15">
            <g>
              <g>
                <rect class="cls-10" x="201.16" y="104.78" width="1.1" height="95.9" transform="translate(-20.81 32.33) rotate(-8.71)"/>
                <path class="cls-10" d="m202.26,197.18l-13.3.53-38.59,1.54-7.79-42.59-14.93-77.71s-4.03-14.88,2.48-24.28c0,0,8.3-6.74,11.42-7.26,3.12-.52,16.09,1.04,20.76,2.6,4.67,1.56,30.09,45.46,32.17,53.77,2.08,8.3,7.78,93.4,7.78,93.4Z"/>
                <path class="cls-9" d="m188.96,197.72l-38.59,1.54-7.79-42.59,16.61-59.11,12.05,3.4s14.24,49.82,16.84,66.42c.46,11.07,0,10.38.88,30.34Z"/>
              </g>
              <g>
                <path class="cls-12" d="m196.38,195.97h-.01s-.02.07-.02.07l-9.65,26.91-3.83,21.61h0s-.2,1.14-.2,1.14l-.82,4.59-.32.03-.18.02-.22.02c-.08.01-.16.02-.25.03l-.29.03c-.2.02-.43.05-.67.08l-.38.05c-7.04.81-28.05,3.19-34.35,3.19-1.27,0-3.57-.15-6.53-.4-2.18-.2-4.72-.44-7.47-.72-4.46-.45-9.44-.99-14.32-1.53-3.02-.35-6.01-.68-8.81-1h-.01c-.2-.02-.38-.05-.57-.07-1.52-.17-2.98-.35-4.34-.51-1.6-.2-3.08-.37-4.41-.52-2.24-1.06-4.43-2.17-6.57-3.31l-1.64-43.83,5.45-2.35,1.13-.48,4.64-2.01c1.66,2.15,6.14,7.84,9.63,11.4,1.26,1.29,2.39,2.32,3.2,2.78.8.45,3.42,1.03,7.09,1.64,1.3.23,2.75.45,4.29.67,1.34.21,2.75.4,4.21.59,13.65,1.82,31.59,3.47,34.23,2.82,3.96-.99,20.67-23.72,22.19-25.79,1.58.82,3.09,1.58,4.44,2.25,3.15,1.57,5.35,2.61,5.35,2.61Z"/>
                <path class="cls-14" d="m186.04,258.89c-1.41.46-2.84.9-4.28,1.29-1.22.36-2.47.67-3.73.96-8.53,2-17.7,2.83-27.54,2.05-3.42-.27-6.77-.66-10.06-1.17-2.64-.4-5.24-.88-7.79-1.42-5.61-1.19-11.02-2.69-16.22-4.43.08-1.21.22-2.41.32-3.62.05-.48.08-.97.12-1.45.01-.06.01-.1.01-.15.77-10.79-.3-21.71-3.14-32.13-.67-2.53-1.47-5.03-2.35-7.49-.35-.96-.68-2.14-.02-2.91h.01c.58-.68,1.6-.68,2.49-.59,2.74.28,5.14.73,7.26,1.36,1.52.45,2.91.99,4.18,1.6,1.87.93,3.46,2.03,4.86,3.29,0,0,0,.01.01.01,2.23,2.03,3.94,4.47,5.39,7.26h0c2.83,5.46,4.69,12.23,7.48,19.84.78,2.11,1.64,4.33,3.38,5.74,2.53,2.03,6.12,1.81,9.34,1.48,7.49-.75,14.99-1.5,22.48-2.26,1.41-.14,2.83-.29,4.24-.43.07-.01.13-.01.2-.02,1.07-.1,2.14-.22,3.21-.32.06,4.51.1,9.01.16,13.51Z"/>
                <path class="cls-14" d="m196.38,195.97s-12.69,22.71-14.25,28.68c-1.56,5.97-4.15,23.09-4.15,23.09l3.89-.26,16.87-50.34-2.36-1.18Z"/>
                <g class="cls-11">
                  <g class="cls-7">
                    <path class="cls-2" d="m166.75,242.82c-4.39,0-8.8-.21-13.17-.42l-1.12-.05c-21.8-1.03-43.91-1.2-65.73-.51l-.05-1.64c21.85-.69,44.01-.52,65.85.51l1.12.05c13.59.65,27.63,1.31,39.71-4.48l.71,1.48c-8.51,4.08-17.86,5.06-27.33,5.06Z"/>
                    <path class="cls-2" d="m121.68,233.72l-.05-1.64,46.07-1.41c7.88-.24,16.03-.49,23.72-2.65l.44,1.58c-7.88,2.21-16.13,2.46-24.11,2.71l-46.07,1.41Z"/>
                    <path class="cls-2" d="m154.34,222.8c-11.22,0-22.44-.88-33.6-2.65l.26-1.62c23.5,3.72,47.29,3.49,70.71-.68l.29,1.62c-12.48,2.22-25.07,3.34-37.65,3.34Z"/>
                    <path class="cls-2" d="m196.92,212.08c-4.14-2.34-9.21-2.61-12.66-2.6-1.44,0-2.91.05-4.33.1-3.03.1-6.16.21-9.25-.13-.62-.07-1.45-.18-2.25-.4l.43-1.58c.69.19,1.4.28,2,.35,2.97.33,6.04.22,9.01.12,1.44-.05,2.92-.1,4.39-.1.04,0,.08,0,.12,0,3.64,0,8.93.3,13.36,2.81l-.81,1.43Z"/>
                    <path class="cls-2" d="m200.04,203.08c-5.98-.97-11.88-2.58-17.52-4.78l.6-1.53c5.54,2.16,11.32,3.74,17.19,4.69l-.26,1.62Z"/>
                  </g>
                </g>
                <path class="cls-14" d="m191.36,193.55s-18.16,27.5-23.35,29.58c-5.19,2.08-57.08-4.67-57.08-4.67l-14.96-18.96-.6-.76,5.71-2.59s.24.32.66.86c2.27,2.92,9.77,12.43,12.83,14.19,3.63,2.08,45.67,6.75,49.82,5.71,3.96-.99,20.67-23.71,22.19-25.79.08-.1.12-.15.12-.15l4.33,2.4.34.19Z"/>
              </g>
              <g>
                <path class="cls-17" d="m186.58,191.11c-.34.47-1.45,1.98-3.01,4.05-5.38,7.15-16.11,20.98-19.19,21.75-4.15,1.04-46.19-3.63-49.82-5.71-3.06-1.75-10.56-11.26-12.83-14.19l9.95-4.29,6.92-16.26.45-5.48,1.22-14.78,43.94-2.08s3.11,22.14,5.54,26.29c1.38,2.36,9.82,7.08,16.83,10.7Z"/>
                <path class="cls-13" d="m186.58,191.11l-2.65,4.17-.36-.13-8.29-2.99-16.61,1.73-13.44-1.01c-3.16-.24-6.12-1.61-8.34-3.87l-17.66-17.95-.19-.09,1.22-14.78,43.94-2.08s3.11,22.14,5.54,26.29c1.38,2.36,9.82,7.08,16.83,10.7Z"/>
              </g>
              <g>
                <path class="cls-8" d="m210.22,198.05l-.69,5.03h-.01l-6.21,44.79.37,3.1c-.07.03-.14.07-.21.12-5.42,3.07-11.23,5.72-17.43,7.8-1.41.46-2.84.9-4.28,1.29-1.22.36-2.47.67-3.73.96-8.53,2-17.7,2.83-27.54,2.05-3.42-.27-6.77-.66-10.06-1.17-2.64-.4-5.24-.88-7.79-1.42-5.61-1.19-11.02-2.69-16.22-4.43-2.37-.8-4.67-1.64-6.95-2.53-3.7-1.44-7.28-3-10.74-4.65-2.24-1.06-4.43-2.17-6.57-3.31-1.48-.77-2.93-1.57-4.36-2.39-.93-.53-1.86-1.06-2.77-1.62l-8.29-39.25s-.01-.07-.02-.09c-.02-.09-.03-.14-.03-.14l13.84-.35,11.59,40.47,1.03,7.19v.08s4.34.43,4.34.43l.57.06,8.83.87,14.27,1.42,7.46.74,6.59.65,35.94-3.38.22-.02.18-.02.32-.03.82-4.59.2-1.13h0s3.83-21.62,3.83-21.62l9.65-26.91.02-.06h.01s13.84,2.07,13.84,2.07Z"/>
                <path class="cls-1" d="m181.85,250.29s-.06,4.35-.09,9.89c-1.22.36-2.47.67-3.73.96.07-5.86.13-10.4.13-10.4l1.37-.17.38-.05.67-.08.29-.03.47-.06.18-.02.32-.03Z"/>
              </g>
              <g>
                <path class="cls-12" d="m87.8,243.3c-.93-.53-1.86-1.06-2.77-1.62-3.76-2.22-7.34-4.51-10.71-6.84-3.53-2.42-6.84-4.88-9.93-7.29-7.13-5.6-13.04-11.02-17.61-15.57,3.62-6.23,6.75-10.91,7.76-11.16,1.4-.35,7.03,0,12.27.44,1.82.16,3.6.32,5.12.47,2.78.27,4.75.47,4.75.47,0,0,.01.05.03.14.5,1.81,6.01,22.04,11.08,40.96Z"/>
                <path class="cls-14" d="m87.8,243.3c-.93-.53-1.86-1.06-2.77-1.62-3.76-2.22-7.34-4.51-10.71-6.84-3.53-2.42-6.84-4.88-9.93-7.29-.02-2.05.24-4.11.51-6.15.48-3.72.15-14.58,1.9-20.14,1.82.16,3.6.32,5.12.47,2.78.27,4.75.47,4.75.47,0,0,.01.05.03.14.5,1.81,6.01,22.04,11.08,40.96Z"/>
                <g class="cls-11">
                  <g class="cls-5">
                    <path class="cls-2" d="m31.09,303.94l-.83-1.42c19.33-11.35,43.7-14.29,65.18-7.86l-.47,1.57c-21.05-6.29-44.93-3.41-63.87,7.71Z"/>
                    <path class="cls-2" d="m40.44,288.83c-4.09,0-8.18-.22-12.25-.67l.18-1.63c9.59,1.06,19.3.85,28.84-.62,2.43-.38,4.9-.84,7.29-1.29,1.94-.37,3.89-.73,5.84-1.06,8.02-1.34,16.21-1.98,24.33-1.9l-.02,1.64c-8.03-.07-16.12.56-24.05,1.88-1.94.32-3.87.69-5.81,1.05-2.4.45-4.88.92-7.34,1.3-5.64.87-11.33,1.31-17.02,1.31Z"/>
                    <path class="cls-2" d="m26.52,284.96l-1.16-1.17c.94-.94,2.13-1.58,3.16-2.1,17.94-9.11,38.97-8.52,57.52-7.99l-.05,1.64c-18.36-.51-39.17-1.1-56.73,7.82-.96.49-1.97,1.03-2.75,1.8Z"/>
                    <path class="cls-2" d="m29.21,269.93l-.91-1.37c5.31-3.55,11.77-4.19,18.02-4.82,2.56-.26,5.21-.52,7.73-.98,2.36-.44,4.74-1.08,7.04-1.7,1.68-.45,3.43-.92,5.16-1.32,7.68-1.72,15.52-1.99,23.29-.8l-.25,1.62c-7.58-1.16-15.21-.9-22.69.78-1.7.38-3.43.85-5.1,1.3-2.33.63-4.74,1.28-7.17,1.73-2.58.48-5.27.74-7.86,1-6.32.63-12.3,1.23-17.27,4.55Z"/>
                    <path class="cls-2" d="m28.22,253.91l-.42-1.59c4.44-1.18,9.03-2.4,13.63-3.31,7.27-1.44,14.75-2.13,21.98-2.8,3.69-.34,7.51-.7,11.27.15,1.98.45,3.88,1.22,5.72,1.97,2.52,1.03,4.89,1.99,7.45,2.18l-.12,1.64c-2.81-.2-5.42-1.27-7.95-2.3-1.77-.72-3.61-1.47-5.46-1.89-3.5-.79-7.19-.45-10.75-.12-7.19.67-14.62,1.35-21.81,2.77-4.54.9-9.11,2.11-13.53,3.29Z"/>
                    <path class="cls-2" d="m30.66,235.93v-1.64c5.59-.04,11.25-1.04,16.71-2,2.92-.52,5.95-1.05,8.95-1.43,10.91-1.4,19.35-.22,25.82,3.62l-.84,1.41c-6.14-3.64-14.25-4.75-24.78-3.4-2.96.38-5.97.91-8.87,1.42-5.53.98-11.26,1.98-17,2.02Z"/>
                    <path class="cls-2" d="m78.32,224.34c-5.1-3.24-11.83-3.37-17.24-3.47-7.15-.14-14.54-.28-21.56,1.51l-.41-1.59c7.23-1.84,14.74-1.7,22-1.56,5.62.11,12.6.24,18.09,3.72l-.88,1.39Z"/>
                    <path class="cls-2" d="m76.21,215.95c-1.09-1.42-2.33-3.03-3.96-3.86-.7-.35-1.48-.57-2.35-.81-7.63-2.03-15.49-3.4-23.36-4.06l.14-1.64c7.97.67,15.92,2.05,23.64,4.11.96.26,1.83.5,2.67.93,1.97,1,3.33,2.76,4.52,4.32l-1.3,1Z"/>
                  </g>
                </g>
              </g>
              <g>
                <path class="cls-10" d="m132.63,260.61c-5.61-1.19-11.02-2.69-16.22-4.43-2.37-.8-4.67-1.64-6.95-2.53-3.7-1.44-7.28-3-10.74-4.65-2.24-1.06-4.43-2.17-6.57-3.31-1.48-.77-2.93-1.57-4.36-2.39-.93-.53-1.86-1.06-2.77-1.62-3.76-2.22-7.34-4.51-10.71-6.84-2.26-11.97-2.97-22.62-2.39-33.11.77-14.54,4-28.73,8.9-45.54,9.03-30.93,19.72-83.34,21.28-89.05,1.06-3.88,7.88-9.68,12.14-13.01,2.1-1.64,4.84-2.2,7.42-1.56l8.46,2.11c-6.23,9.86-2.48,24.27-2.48,24.27,0,0-3.91-3.69-8.53-2.76-4.62.91-14.07,26.14-14.07,26.14,0,0,8.76,45.26,10.84,48.5.67,1.04,2.33,3.13,4.36,5.52,0,.03-.01.08-.01.14-.28,2.91-2.48,27.18.88,52.71.16,1.21.33,2.42.53,3.64.36,2.37.76,4.73,1.23,7.1.96,4.8,2.14,9.54,3.61,14.1,1.78,5.52,3.31,11.76,4.64,18.34.01.09.03.17.05.27.52,2.62,1,5.29,1.45,7.98Z"/>
                <path class="cls-9" d="m140.43,262.03c-2.64-.4-5.24-.88-7.79-1.42-5.61-1.19-11.02-2.69-16.22-4.43-2.37-.8-4.67-1.64-6.95-2.53-.48-1.19-.96-2.37-1.42-3.55h-.01c-2.84-7.25-5.29-14.48-6.68-21.84-1.35-7.12-2.74-16.7-3.98-26.98-.1-.75-.18-1.5-.28-2.26-.05-.33-.08-.67-.12-1-3.06-25.9-5.2-55.03-3.92-60.63,1.84-8.07,11.99-35.05,11.99-35.05,0,0,8.76,45.26,10.84,48.5.67,1.04,2.33,3.13,4.36,5.52,0,.03-.01.08-.01.14-.23,2.98-.93,28.31,5.06,54.31.21.9.42,1.8.65,2.7.58,2.34,1.21,4.67,1.92,7.01,1.11,3.7,2.39,7.37,3.83,10.93,2.98,7.31,5.23,14.59,6.9,21.67.02.08.05.16.06.24.69,2.93,1.28,5.83,1.78,8.68Z"/>
              </g>
              <g>
                <path class="cls-17" d="m178.39,126.44l-2.8,5.61c-.61,1.23-1.87,2-3.24,2h-2.43l.87-19.2,2.57-.78,1.4-.43,3.64,12.8Z"/>
                <polygon class="cls-13" points="173.35 114.07 172.35 134.05 169.91 134.05 170.78 114.85 173.35 114.07"/>
                <path class="cls-19" d="m171.47,128.15c-.06,0-.13-.01-.19-.03-.32-.11-.5-.46-.39-.78.97-2.9,4.2-5.69,4.34-5.81.26-.22.65-.19.87.07.22.26.19.65-.07.87-.03.03-3.11,2.69-3.97,5.26-.09.26-.33.42-.58.42Z"/>
                <path class="cls-19" d="m175.16,128.96c-.15,0-.29-.05-.41-.15l-3-2.65c-.25-.23-.28-.61-.05-.87.23-.26.62-.28.87-.05l3,2.65c.25.23.28.61.05.87-.12.14-.29.21-.46.21Z"/>
              </g>
              <g>
                <path class="cls-17" d="m99.89,124.68l4.54,9.88c.67,1.45,2.09,2.4,3.69,2.45l4.09.14-4.38-20.76-3.05-.42c-2.25-.31-4.35,1.22-4.73,3.46l-.47,2.76c-.14.84-.03,1.7.32,2.47Z"/>
                <path class="cls-19" d="m108.68,133.51c-.29,0-.54-.2-.6-.49-.93-4.59-4.41-8.07-4.44-8.1-.24-.24-.25-.63,0-.87.24-.24.63-.25.87,0,.15.15,3.78,3.76,4.78,8.73.07.33-.15.66-.48.73-.04,0-.08.01-.12.01Z"/>
                <path class="cls-19" d="m107.93,131.09s-.02,0-.04,0l-3-.17c-.34-.02-.6-.31-.58-.65.02-.34.3-.6.65-.58l3,.17c.34.02.6.31.58.65-.02.33-.29.58-.61.58Z"/>
                <polygon class="cls-13" points="107.82 116.41 112.2 137.16 110.58 137.05 105.74 116.06 107.82 116.41"/>
              </g>
              <g>
                <rect x="115.2" y="130.65" width=".55" height="5.5" transform="translate(-60.51 120.72) rotate(-45)"/>
                <rect x="115.04" y="133.48" width=".55" height="5.63" transform="translate(-63.08 129.19) rotate(-47.49)"/>
                <path class="cls-17" d="m171.24,100.95s-.03,1.13-.09,3.05c-.29,9.57-1.22,38.6-1.99,41.3-.92,3.23-12.63,21.07-14.93,22.22-2.31,1.16-19.6,1.62-22.14.7-2.54-.93-14.13-14.15-16.2-17.39-1.68-2.61-7.75-32.77-9.99-44.17-.53-2.68-.85-4.33-.85-4.33,0,0,9.45-25.22,14.07-26.14,4.62-.93,8.53,2.77,8.53,2.77,0,0,7.84-5.77,9.69-6.69,1.85-.92,2.54-1.39,12.92,4.84,10.37,6.23,20.98,23.84,20.98,23.84Z"/>
                <path class="cls-19" d="m132.73,137.61s-.04,0-.06,0c-.34-.03-.59-.33-.55-.67l1.54-16.14-2.56-8.18c-.1-.33.08-.67.4-.77.33-.1.67.08.77.4l2.63,8.42-1.57,16.38c-.03.32-.3.56-.61.56Z"/>
                <path class="cls-19" d="m139.46,141.01c-2.9,0-5.25-1.54-5.35-1.61-.28-.19-.36-.57-.17-.85.19-.28.57-.36.85-.17.02.01,2.3,1.5,4.94,1.4,2.65-.11,4.7-1.7,4.72-1.71.27-.21.65-.17.87.1.21.27.16.65-.1.87-.1.08-2.38,1.86-5.43,1.98-.11,0-.22,0-.32,0Z"/>
                <path class="cls-9" d="m129.03,104.99l1.15,4.38s-7.5.98-11.88-.58c-5.11-1.81-8.65.12-8.65.12,0,0,.58-2.54,3-3.34,2.42-.81,16.37-.58,16.37-.58Z"/>
                <path class="cls-9" d="m144.57,108.1l.46-3.81s12.83-.92,14.9-.58c2.08.35,5.65,3.69,5.65,3.69,0,0-4.54-.82-7.61-.23-5.42,1.04-13.41.92-13.41.92Z"/>
                <g>
                  <path class="cls-17" d="m163.51,134.16l4.38-3.81-4.38,3.81Z"/>
                  <path class="cls-13" d="m163.51,134.73c-.16,0-.32-.07-.43-.2-.21-.24-.18-.59.06-.8l4.38-3.81c.24-.21.6-.18.8.06.21.24.18.59-.06.8l-4.38,3.81c-.11.09-.24.14-.37.14Z"/>
                </g>
                <g>
                  <path class="cls-17" d="m163.86,136.82l4.15-3.23-4.15,3.23Z"/>
                  <path class="cls-13" d="m163.86,137.38c-.17,0-.34-.08-.45-.22-.19-.25-.15-.6.1-.8l4.15-3.23c.25-.19.6-.15.8.1.19.25.15.6-.1.8l-4.15,3.23c-.1.08-.23.12-.35.12Z"/>
                </g>
                <path class="cls-2" d="m153.36,144.78c-.09.24-3.25,7.84-4.84,8.3-.87.25-12.46,1.15-14.07.23-1.41-.81-5.19-5.84-5.85-7.1-.09-.18-.14-.28-.14-.28,1.73.81,3.06,2.19,4.32,2.42,1.27.24,15.28-.23,16.55-.69,1.27-.46,3.23-2.42,4.03-2.88Z"/>
                <path class="cls-19" d="m134.66,149.2c-1.03,0-1.76-.02-2.02-.07-.94-.17-1.71-.6-2.6-1.09-.46-.25-.97-.53-1.57-.82-1.53-.71-2.88-.73-2.9-.73-.44,0-.8-.36-.8-.81,0-.44.36-.8.8-.8.04,0,1.67,0,3.57.88.64.3,1.18.6,1.66.87.8.44,1.43.79,2.12.92,1.05.19,14.86-.23,16.13-.66.84-.31,2.06-1.08,2.96-1.64.36-.23.67-.42.9-.55h0c.24-.11.93-.4,3.19-1.37.41-.17.88.02,1.05.42.17.41-.02.88-.42,1.05,0,0-2.71,1.15-3.06,1.3-.21.12-.48.3-.8.5-.95.6-2.26,1.43-3.27,1.79-1.11.4-10.62.8-14.94.8Z"/>
                <g>
                  <path class="cls-17" d="m113.52,132.84l3.98,3.63-3.98-3.63Z"/>
                  <path class="cls-13" d="m117.5,137.04c-.14,0-.27-.05-.38-.15l-3.98-3.63c-.23-.21-.25-.57-.04-.8.21-.23.57-.25.8-.04l3.98,3.63c.23.21.25.57.04.8-.11.12-.27.18-.42.18Z"/>
                </g>
                <g>
                  <path class="cls-17" d="m113.87,136.47l5.19,4.15-5.19-4.15Z"/>
                  <path class="cls-13" d="m119.06,141.19c-.12,0-.25-.04-.35-.12l-5.19-4.15c-.24-.2-.28-.55-.09-.8.2-.24.55-.28.8-.09l5.19,4.15c.24.2.28.55.09.8-.11.14-.28.21-.44.21Z"/>
                </g>
                <path class="cls-13" d="m171.24,100.95s-.03,1.13-.09,3.05l-.14.18s-20.75-22.6-24.45-24.22c-3.69-1.61-8.07-5.3-18.91-1.15,0,0-6.86-1.15-8.94,1.96-1.38,2.08-12.28,28.19-12.28,28.19l-.54-2.31c-.53-2.68-.85-4.33-.85-4.33,0,0,9.45-25.22,14.07-26.14,4.62-.93,8.53,2.77,8.53,2.77,0,0,7.84-5.77,9.69-6.69,1.85-.92,2.54-1.39,12.92,4.84,10.37,6.23,20.98,23.84,20.98,23.84Z"/>
                <path class="cls-9" d="m148.28,120.74c-.27.02-.55-.07-.77-.26-.44-.39-.48-1.05-.1-1.49.25-.29,2.53-2.86,4.19-3.76.14-.07.25-.13.36-.17.39-.16,1.35-.54,7.89-.1,2.13.14,3.86.31,3.86.31.58.06,1.01.57.95,1.16-.06.58-.57,1.01-1.15.95,0,0-1.71-.17-3.8-.3-5.83-.39-6.83-.1-6.93-.06-.04.02-.12.06-.2.1-1.09.59-2.95,2.57-3.57,3.27-.19.22-.46.34-.73.36Z"/>
                <path class="cls-9" d="m128.03,121.22c-.26.02-.52-.06-.73-.24-1.42-1.2-3.44-2.5-4.22-2.51-2.41-.2-8.33,1.14-10.41,1.67-.55.14-1.1-.19-1.24-.74-.14-.55.19-1.1.74-1.24.32-.08,7.85-1.99,11.01-1.73,1.84.02,4.86,2.5,5.45,3,.43.36.48,1.01.12,1.44-.19.22-.45.34-.71.36Z"/>
                <path class="cls-4" d="m124.46,120.9c.17,2.54-1.32,4.7-3.32,4.83s-3.77-1.81-3.94-4.35c-.06-.83.07-1.61.32-2.3,2.14-.47,4.44-.91,5.29-.8.32.04.65.17,1.01.35.36.65.58,1.42.64,2.26Z"/>
                <path class="cls-4" d="m152.41,119.54c.17,2.54,1.93,4.48,3.94,4.35s3.49-2.29,3.33-4.83c-.06-.83-.28-1.59-.62-2.24-2.18-.18-4.52-.31-5.35-.09-.31.08-.63.26-.96.48-.27.69-.39,1.49-.33,2.32Z"/>
              </g>
              <g>
                <path class="cls-12" d="m251.75,203.36c-1.53,2.4-3.37,5.14-5.52,8.08-8.99,12.42-23.27,28.54-42.56,39.54-.07.03-.14.07-.21.12-.1-1.99-.16-3.22-.16-3.22l6.21-44.79.7-5.03s22.15-4.14,29.06-3.45c3.1.31,8,4.37,12.48,8.76Z"/>
                <path class="cls-14" d="m251.75,203.36c-1.53,2.4-3.37,5.14-5.52,8.08-.36-.53-.76-1.04-1.2-1.52-4.91-5.48-12.83-7.1-20.2-7.21-4.91-.08-10.23.63-15.32.38h-.01l.7-5.03s22.15-4.14,29.06-3.45c3.1.31,8,4.37,12.48,8.76Z"/>
                <g class="cls-11">
                  <g class="cls-18">
                    <path class="cls-2" d="m210.15,215.17c-2.77,0-5.53-.08-8.3-.25l.1-1.64c22.21,1.37,44.61-2.85,64.8-12.19l.69,1.49c-17.92,8.29-37.57,12.59-57.29,12.59Z"/>
                    <path class="cls-2" d="m201.98,230.8c-1.94,0-3.89-.14-5.84-.47l.27-1.62c8.7,1.45,17.15-.83,26.09-3.24,4.37-1.18,8.89-2.4,13.39-3.12,6.91-1.1,13.98-1.06,20.81-1.01l15.08.1v1.64s-15.09-.1-15.09-.1c-6.77-.05-13.77-.09-20.54.99-4.42.71-8.89,1.91-13.22,3.08-6.84,1.85-13.87,3.74-20.96,3.74Z"/>
                    <path class="cls-2" d="m192.92,243.96l-.03-1.64,60.92-1.09c7.5-.13,15.26-.27,22.45-2.75l.54,1.55c-7.43,2.56-15.32,2.71-22.96,2.84l-60.92,1.09Z"/>
                    <path class="cls-2" d="m269.97,259.39c-2.89-3.72-7.95-6.15-13.88-6.69-4.96-.45-10.03.34-14.95,1.09l-1.29.2c-12.95,1.98-26.15,3.23-39.24,3.73l-.06-1.64c13.03-.5,26.17-1.75,39.06-3.71l1.28-.2c5.01-.77,10.19-1.57,15.34-1.11,6.38.58,11.86,3.24,15.03,7.32l-1.3,1.01Z"/>
                    <path class="cls-2" d="m267.11,275.59c-2.54-3.38-5.41-6.81-9.18-9.03-6.98-4.11-15.63-3.34-23.99-2.6-.95.08-1.9.17-2.83.24-1.25.1-2.5.19-3.77.28-8.72.61-17.74,1.25-24.63,6.26l-.97-1.33c7.27-5.28,16.53-5.93,25.48-6.56,1.26-.09,2.51-.18,3.75-.28.93-.08,1.88-.16,2.82-.24,8.62-.76,17.53-1.55,24.97,2.82,4.01,2.36,7.01,5.94,9.66,9.46l-1.31.99Z"/>
                    <path class="cls-2" d="m265.98,288.37c-.41-2.63-2.72-5.02-5.88-6.09-2.99-1.01-6.25-.9-9.41-.79l-28.53,1c-6.87.24-13.98.49-20.71,2.27l-.42-1.59c6.91-1.82,14.11-2.07,21.07-2.32l28.53-1c3.15-.11,6.72-.24,10,.88,3.73,1.27,6.47,4.17,6.97,7.39l-1.62.25Z"/>
                    <path class="cls-2" d="m206.3,206.19l-.68-1.5c6.06-2.76,12.67-4.04,19.07-5.28,4.71-.91,9.58-1.85,14.16-3.37.75-.25,1.51-.52,2.26-.79,4.04-1.43,8.21-2.91,12.5-2.07l-.32,1.61c-3.84-.75-7.8.65-11.63,2.01-.77.27-1.53.54-2.29.8-4.68,1.56-9.61,2.51-14.37,3.43-6.3,1.22-12.82,2.48-18.7,5.16Z"/>
                  </g>
                </g>
              </g>
            </g>
          </g>
        </g>
      </g>
    </g>
  </g>
</svg>