<?xml version="1.0" encoding="UTF-8"?>
<svg id="Layer_2" data-name="Layer 2" xmlns="http://www.w3.org/2000/svg" xmlns:xlink="http://www.w3.org/1999/xlink" viewBox="0 0 293 292">
  <defs>
    <style>
      .cls-1, .cls-2 {
        fill: #fff;
      }

      .cls-3 {
        fill: #211b18;
      }

      .cls-4 {
        fill: #eca184;
      }

      .cls-5 {
        fill: #f88455;
      }

      .cls-6 {
        fill: #f9ead9;
      }

      .cls-7 {
        fill: #f98d63;
      }

      .cls-2 {
        filter: url(#drop-shadow-1);
      }

      .cls-8 {
        clip-path: url(#clippath);
      }

      .cls-9 {
        fill: #ce6138;
      }

      .cls-10 {
        fill: #fccfb8;
      }

      .cls-11 {
        fill: #ccc;
      }

      .cls-12 {
        fill: #39302b;
      }

      .cls-13 {
        fill: #35231f;
      }
    </style>
    <filter id="drop-shadow-1" filterUnits="userSpaceOnUse">
      <feOffset dx="3" dy="3"/>
      <feGaussianBlur result="blur" stdDeviation="5"/>
      <feFlood flood-color="#000" flood-opacity=".42"/>
      <feComposite in2="blur" operator="in"/>
      <feComposite in="SourceGraphic"/>
    </filter>
    <clipPath id="clippath">
      <circle class="cls-6" cx="142.83" cy="142.72" r="112.77" transform="translate(-59.08 142.8) rotate(-45)"/>
    </clipPath>
  </defs>
  <g id="diverse_portrait_people_icons" data-name="diverse portrait people icons">
    <g>
      <circle class="cls-2" cx="143.34" cy="142.81" r="130.7"/>
      <g>
        <circle class="cls-6" cx="142.83" cy="142.72" r="112.77" transform="translate(-59.08 142.8) rotate(-45)"/>
        <g>
          <circle class="cls-6" cx="142.83" cy="142.72" r="112.77" transform="translate(-59.08 142.8) rotate(-45)"/>
          <g class="cls-8">
            <g>
              <g>
                <path class="cls-1" d="m184.36,208.99l-15.81,44.68c-2.46.45-4.96.83-7.52,1.13-5.81.69-11.88.95-18.19.69-4.34-.17-8.67-.58-12.96-1.2-4.65-.65-9.27-1.53-13.81-2.63l-9.12-27.83,10.18-1.95,5.07-.97h.05s55.58-10.66,55.58-10.66l6.54-1.26Z"/>
                <g>
                  <path class="cls-11" d="m136.3,240.25c-8.77,0-15.21-1.11-15.35-1.14-.32-.06-.53-.36-.48-.68.06-.32.36-.53.68-.48.33.06,32.89,5.66,51.28-8.7.26-.2.63-.15.83.1.2.26.15.63-.1.83-10.56,8.25-25.62,10.07-36.86,10.07Z"/>
                  <path class="cls-11" d="m125.83,238.33c-.32,0-.59-.26-.59-.59v-6.13c0-.32.26-.59.59-.59s.59.26.59.59v6.13c0,.32-.26.59-.59.59Z"/>
                  <path class="cls-11" d="m130.28,240.55c-.32,0-.59-.26-.59-.59v-7.8c0-.32.26-.59.59-.59s.59.26.59.59v7.8c0,.32-.26.59-.59.59Z"/>
                  <path class="cls-11" d="m136.66,239.72s0,0,0,0c-.32,0-.59-.27-.59-.59.01-2.59-.32-5.17-.99-7.67-.08-.31.1-.64.42-.72.31-.08.64.1.72.42.69,2.6,1.04,5.28,1.03,7.98,0,.32-.26.59-.59.59Z"/>
                  <path class="cls-11" d="m139.97,238.54c-.28,0-.53-.2-.58-.49-.39-2.31-.24-4.71.43-6.95.09-.31.42-.49.73-.4.31.09.49.42.4.73-.62,2.07-.75,4.29-.4,6.43.05.32-.16.62-.48.68-.03,0-.07,0-.1,0Z"/>
                  <path class="cls-11" d="m145.18,238.33c-.31,0-.57-.24-.59-.55l-.5-7.63c-.02-.32.22-.6.55-.62.33-.03.6.22.62.55l.5,7.63c.02.32-.22.6-.55.62-.01,0-.03,0-.04,0Z"/>
                  <path class="cls-11" d="m150.79,237.75c-.27,0-.51-.18-.57-.46-.48-2.11-1.27-4.13-2.32-6.02-.16-.28-.06-.64.23-.8.28-.16.64-.06.8.23,1.11,1.98,1.93,4.11,2.44,6.33.07.32-.12.63-.44.7-.04.01-.09.02-.13.02Z"/>
                  <path class="cls-11" d="m154.99,237.02c-.26,0-.49-.17-.57-.43-.57-2.05-1.59-3.98-2.97-5.6-.21-.25-.18-.62.07-.83.25-.21.62-.18.83.07,1.48,1.75,2.59,3.84,3.2,6.04.09.31-.1.64-.41.72-.05.01-.11.02-.16.02Z"/>
                  <path class="cls-11" d="m158.71,235.91c-.26,0-.5-.17-.57-.43-.59-2.15-1.06-4.35-1.4-6.55-.05-.32.17-.62.49-.67.32-.05.62.17.67.49.33,2.16.8,4.31,1.37,6.42.09.31-.1.64-.41.72-.05.01-.1.02-.16.02Z"/>
                  <path class="cls-11" d="m162.6,234.77c-.08,0-.17-.02-.25-.06-1.05-.5-1.06-1.86-1.06-2.37l-.03-5.37c0-.32.26-.59.58-.59,0,0,0,0,0,0,.32,0,.59.26.59.58l.03,5.37c0,.76.13,1.19.39,1.32.29.14.42.49.28.78-.1.21-.31.34-.53.34Z"/>
                  <path class="cls-11" d="m166.75,232.41c-.26,0-.5-.17-.57-.44l-1.44-5.45c-.08-.31.1-.64.42-.72.31-.08.64.1.72.42l1.44,5.45c.08.31-.1.64-.42.72-.05.01-.1.02-.15.02Z"/>
                  <path class="cls-11" d="m170.53,229.92c-.14,0-.27-.05-.38-.14-.77-.67-1.06-1.65-1.31-2.51l-.08-.27c-.31-1.03-.71-1.63-1.23-1.83-.3-.11-.46-.45-.34-.76s.45-.46.76-.34c1.33.5,1.79,2.07,1.95,2.59l.08.28c.22.78.44,1.51.95,1.95.25.21.27.58.06.83-.12.14-.28.2-.45.2Z"/>
                  <path class="cls-11" d="m172.26,227.18s-.03,0-.05,0c-.32-.02-.57-.31-.54-.63.08-1.04-.29-2.12-.99-2.89-.22-.24-.2-.61.04-.83.24-.22.61-.2.83.04.91,1.01,1.39,2.42,1.29,3.77-.02.31-.28.54-.59.54Z"/>
                  <path class="cls-11" d="m121.34,234.42s-.02,0-.03,0c-.32-.02-.57-.29-.56-.62.07-1.3.29-2.59.65-3.84.09-.31.42-.49.73-.4.31.09.49.42.4.73-.34,1.16-.55,2.36-.61,3.56-.02.31-.28.56-.59.56Z"/>
                </g>
              </g>
              <g>
                <path class="cls-12" d="m230.42,215.89l-5.3-.99c1.15-3.94,5.25-18.63,5-25.47-.29-7.88-18.53-25.01-18.81-25.28.16.3,10.3,19.46,11.46,26.75,1.16,7.28-5.2,22.29-5.31,22.57l-78.19-14.63-62.33,7.35s-11.76-17.93-11.17-24.11c.59-6.17,10.88-82.91,16.46-102.61,4.32-15.22,11.36-21.14,15.81-23.04,1.2-.51,2.49-.77,3.79-.77h10.97c2.04-2.97,4.17-5.53,6.13-7.64,4.76-5.14,11.9-7.36,18.73-5.83,5.72,1.28,10.98,3.45,15.69,6.07,14.69,8.14,25.7,21.6,31.13,37.49,2.37,6.92,5.82,16.68,10.63,29.6,11.17,29.99,37.63,54.98,43.22,65.56s-7.94,34.99-7.94,34.99Z"/>
                <path class="cls-3" d="m161.04,102.4l8.82,5.29s29.11,63.51,29.4,72.03c.29,8.53-7.94,32.64-7.94,32.64l-100.85-8.53s-6.76-10.58-6.47-21.76c.29-11.17,13.82-86.73,13.82-86.73l63.21,7.06Z"/>
              </g>
              <g>
                <path class="cls-10" d="m188.23,203.69c-5.48,8.43-12.12,14.23-19.1,18.19-22.94,13.01-49.41,5.92-49.41,5.92l-11.17-26.75c1.14-.54,2.22-1.21,3.22-1.92h0c3.88-2.78,6.48-6.31,6.48-6.31.02-.06.04-.13.06-.2.48-1.45.82-3.15,1.06-5.01.37-2.9.49-6.19.46-9.47-.1-9.64-1.49-19.27-1.49-19.27l37.55-12.99,1.16-.4s.75,4.23,1.76,9.95c0,.05.02.1.03.15,1.96,11.07,4.88,27.57,5.27,29.89.59,3.53,3.53,6.76,5.59,9.11,2.06,2.35,18.52,9.11,18.52,9.11Z"/>
                <path class="cls-4" d="m169.14,221.88c-22.94,13.01-49.41,5.92-49.41,5.92l-11.17-26.75c1.14-.54,2.22-1.21,3.22-1.92h0l10.31,21.8s22.23,7.81,47.06.95Z"/>
                <path class="cls-4" d="m158.86,155.58l-9.22,19.25c-2.67,5.58-7.49,9.84-13.35,11.81l-17.88,6.02-.08-.05c.48-1.45.82-3.15,1.06-5.01.37-2.9.49-6.19.46-9.47-.1-9.64-1.49-19.27-1.49-19.27l37.55-12.99,1.16-.4s.75,4.23,1.76,9.95c0,.05.02.1.03.15Z"/>
              </g>
              <g>
                <path class="cls-7" d="m83.37,240.5c-13.16-5.78-25.03-12.5-34.9-18.75.66-1,1.29-1.96,1.9-2.87,5.85-8.75,15.36-14.35,25.84-15.23l15.33-1.29,2.27-.18,14.89-1.26s3.13,7.69,8.41,20.98c1.32,3.29,2.76,6.94,4.32,10.89.77,1.97,1.59,4.03,2.42,6.16,1.88,4.75,3.89,9.89,6.01,15.35-4.65-.65-9.27-1.53-13.81-2.63-9.11-2.16-17.95-5.1-26.34-8.49-2.15-.85-4.26-1.75-6.35-2.67Z"/>
                <path class="cls-9" d="m89.72,243.16c-2.15-.85-4.26-1.75-6.35-2.67l8.17-38.16,2.27-.18-4.1,41.01Z"/>
              </g>
              <g>
                <path class="cls-10" d="m171.66,113.64l-1.57,11.9c-.3,1.89-1.98,3.25-3.89,3.16l-.82-.04-1.7-.09-2.06-20.08,3.34-1.91c.71-.4,1.54-.5,2.3-.29.33.09.64.23.93.43l.53.36c2.13,1.46,3.27,4,2.93,6.56Z"/>
                <path class="cls-4" d="m165.38,128.66l-1.7-.09-2.06-20.08,3.34-1.91c.71-.4,1.54-.5,2.3-.29-.48.88-3.58,7.24-1.89,22.37Z"/>
                <path class="cls-4" d="m164.9,122.41c-.29,0-.54-.21-.58-.5-.89-5.94,1.93-7.34,2.05-7.39.3-.14.64,0,.78.28.14.29.01.64-.28.78-.05.03-2.14,1.2-1.4,6.15.05.32-.17.62-.49.67-.03,0-.06,0-.09,0Z"/>
                <path class="cls-4" d="m167.8,121.22c-.22,0-.42-.12-.53-.32-.28-.55-1.24-1.97-2.31-1.88-.33.03-.61-.21-.64-.53-.03-.32.21-.61.53-.64,2.09-.19,3.41,2.41,3.47,2.52.15.29.03.64-.26.79-.08.04-.17.06-.26.06Z"/>
              </g>
              <g>
                <path class="cls-10" d="m92.98,127.05l4.46,11.14c.76,1.76,2.72,2.66,4.55,2.1l.78-.24,1.63-.5-2.97-19.97-3.71-1.02c-.79-.21-1.62-.1-2.31.29-.3.16-.56.38-.79.64l-.42.48c-1.71,1.94-2.18,4.68-1.22,7.08Z"/>
                <path class="cls-4" d="m102.77,140.04l1.63-.5-2.97-19.97-3.71-1.02c-.79-.21-1.62-.1-2.31.29.69.74,5.26,6.13,7.36,21.2Z"/>
                <path class="cls-4" d="m101.55,133.89c-.3,0-.55-.23-.58-.53-.51-5.03-2.85-5.61-2.88-5.62-.31-.07-.52-.38-.45-.69.07-.31.36-.52.68-.46.13.02,3.21.67,3.82,6.65.03.32-.2.61-.53.64-.02,0-.04,0-.06,0Z"/>
                <path class="cls-4" d="m98.45,133.46s-.08,0-.13-.01c-.32-.07-.52-.38-.45-.7.03-.12.67-2.97,2.74-3.3.32-.05.62.17.68.49.05.32-.17.62-.49.68-1.06.17-1.64,1.79-1.78,2.39-.06.27-.3.46-.57.46Z"/>
              </g>
              <g>
                <path class="cls-7" d="m225.85,212.37l-6.54,19.23c-4.65,3.32-9.89,6.66-15.7,9.73-.95.5-1.9.99-2.89,1.48-1.57.78-3.16,1.55-4.81,2.27-8.21,3.69-17.36,6.74-27.36,8.59-2.46.45-4.96.83-7.52,1.13,2.92-8.33,5.7-15.94,8.23-22.64.38-1.02.75-2.01,1.13-2.98.55-1.49,1.11-2.93,1.65-4.32,2.25-5.86,4.22-10.78,5.78-14.61,2.45-6.02,3.89-9.35,3.89-9.35l17,4.42,2.02.52,12.13,3.15,13,3.38Z"/>
                <g>
                  <path class="cls-9" d="m200.72,205.84v36.97c-1.57.78-3.16,1.55-4.81,2.27l2.79-39.76,2.02.52Z"/>
                  <path class="cls-7" d="m219.31,231.6c-4.65,3.32-9.89,6.66-15.7,9.73,2.1-12.25,5.11-24.85,9.24-32.34l14.59,3c3.6.74,6.79,2.52,9.26,4.97-4.27,4.21-10.11,9.42-17.39,14.63Z"/>
                </g>
              </g>
              <g>
                <path class="cls-10" d="m161.66,142.09l-9.76,19.7c-1.82,3.67-5.37,6.17-9.44,6.65l-7.46.88c-.36.04-.71.07-1.06.08-.13,0-.25,0-.38,0-3.28,0-6.45-1.35-8.74-3.76l-14.74-15.46c-3.19-3.35-5.27-7.6-5.97-12.18l-6.29-41.48c2.23-7.58,7.54-14.55,12.24-19.6,1.29-1.39,2.55-2.63,3.67-3.7h0c2.88-2.73,4.96-4.33,4.96-4.33,6.76,9.7,42.34,34.1,42.34,34.1l2.84,26.71c.45,4.25-.32,8.55-2.22,12.39Z"/>
                <path class="cls-1" d="m148.83,141.07s-3.82,3.53-12.64,4.7c-8.82,1.18-14.41-.59-14.41-.59,0,0,3.53,7.08,14.55,5.73,11.03-1.35,12.5-9.85,12.5-9.85Z"/>
                <path class="cls-13" d="m119.13,116.57c.25,2.67-.95,4.96-2.68,5.12-1.73.16-3.34-1.87-3.59-4.54-.25-2.67.95-4.96,2.68-5.12,1.73-.16,3.34,1.87,3.59,4.54Z"/>
                <path class="cls-13" d="m148.53,112.46c.25,2.67-.95,4.96-2.68,5.12-1.73.16-3.34-1.87-3.59-4.54-.25-2.67.95-4.96,2.68-5.12,1.73-.16,3.34,1.87,3.59,4.54Z"/>
                <path class="cls-13" d="m121.78,100.2s-10.88-1.47-13.82,0c-2.94,1.47-4.41,5-4.41,5,0,0,5.29-2.06,9.11-1.47,3.82.59,8.82.29,9.11-3.53Z"/>
                <path class="cls-4" d="m126.49,133.72s-.05,0-.08,0c-.32-.04-.55-.34-.51-.66.01-.11,1.46-11.17,1.46-14.04s-2.83-7.59-2.86-7.64c-.16-.28-.07-.64.21-.81.28-.17.64-.07.8.21.12.21,3.02,5.17,3.02,8.24s-1.41,13.73-1.48,14.19c-.04.3-.29.51-.58.51Z"/>
                <path class="cls-4" d="m133.09,136.78c-2.66,0-4.52-1.06-4.55-1.08-.28-.16-.37-.52-.21-.8.16-.28.52-.38.8-.21.19.11,4.73,2.68,9.63-1.13.26-.2.63-.15.83.1.2.26.15.63-.1.83-2.29,1.78-4.54,2.3-6.4,2.3Z"/>
                <path class="cls-5" d="m148.83,141.07s-3.82,3.53-12.64,4.7c-8.82,1.18-14.41-.59-14.41-.59,0,0,9.41-.88,13.52-1.47,4.12-.59,13.52-2.65,13.52-2.65Z"/>
                <path class="cls-5" d="m134.54,153.14c-1.91,0-3.29-.19-3.42-.21-.32-.05-.55-.34-.5-.66.05-.32.34-.55.66-.5.07.01,7.23.98,11.65-1.62.28-.16.64-.07.8.21.16.28.07.64-.21.8-2.76,1.62-6.37,1.97-8.99,1.97Z"/>
                <path class="cls-4" d="m121.49,147.53c-.19,0-.38-.09-.49-.26-.07-.11-.69-1.06-.69-2.09,0-1.21,1.35-1.92,1.5-2,.29-.15.64-.03.79.26.14.29.03.64-.26.79-.28.14-.85.56-.85.94,0,.57.35,1.23.49,1.44.18.27.1.64-.17.81-.1.07-.21.1-.32.1Z"/>
                <path class="cls-4" d="m150.89,142.54s-.06,0-.1,0c-.32-.05-.54-.36-.48-.68.09-.57.02-1.33-.19-1.4-.58-.19-1.45-.06-1.73.01-.31.08-.63-.11-.71-.43-.08-.31.11-.63.43-.71.14-.03,1.37-.33,2.39.01,1.32.44,1.02,2.48.98,2.71-.05.29-.3.49-.58.49Z"/>
                <path class="cls-13" d="m136.78,99.02s2.35,3.23,7.94,2.06c5.59-1.18,6.47-1.76,8.23-2.06,1.76-.29,5.88,1.18,5.88,1.18,0,0-4.12-4.41-6.47-4.7-2.35-.29-15.58,3.53-15.58,3.53Z"/>
                <g>
                  <path class="cls-4" d="m154.79,128c-.13,0-.26-.06-.34-.16-.15-.19-.12-.47.07-.62l3.84-3.09c.19-.15.47-.12.62.07.15.19.12.47-.07.62l-3.84,3.09c-.08.07-.18.1-.28.1Z"/>
                  <path class="cls-4" d="m157.1,128.25c-.15,0-.3-.08-.38-.22-.12-.21-.06-.48.15-.6l3.33-1.98c.21-.12.48-.06.6.15.12.21.06.48-.15.6l-3.33,1.98c-.07.04-.15.06-.22.06Z"/>
                </g>
                <g>
                  <path class="cls-4" d="m114.87,133.67s-.09,0-.13-.02l-4.71-1.46c-.23-.07-.36-.32-.29-.55.07-.23.32-.36.55-.29l4.71,1.46c.23.07.36.32.29.55-.06.19-.23.31-.42.31Z"/>
                  <path class="cls-4" d="m112.81,134.75s-.05,0-.07,0l-3.82-.61c-.24-.04-.4-.26-.37-.51.04-.24.27-.4.51-.37l3.83.61c.24.04.4.26.37.51-.03.22-.22.37-.43.37Z"/>
                </g>
              </g>
              <path class="cls-12" d="m175.55,117.37c-29.24-9.94-57.34-47.75-57.62-48.13l.95-.7c.28.38,28.16,37.89,57.05,47.72l-.38,1.11Z"/>
            </g>
          </g>
        </g>
      </g>
    </g>
  </g>
</svg>