<?xml version="1.0" encoding="UTF-8"?>
<svg id="Layer_2" data-name="Layer 2" xmlns="http://www.w3.org/2000/svg" xmlns:xlink="http://www.w3.org/1999/xlink" viewBox="0 0 293 292">
  <defs>
    <style>
      .cls-1, .cls-2 {
        fill: #fff;
      }

      .cls-3 {
        fill: #edbd88;
      }

      .cls-4 {
        fill: #b0775c;
      }

      .cls-5 {
        fill: #dda166;
      }

      .cls-6 {
        fill: #f9ead9;
      }

      .cls-7 {
        opacity: .3;
      }

      .cls-8 {
        fill: #844b36;
      }

      .cls-2 {
        filter: url(#drop-shadow-1);
      }

      .cls-9 {
        fill: #fcb552;
      }

      .cls-10 {
        fill: #e89d43;
      }

      .cls-11 {
        clip-path: url(#clippath);
      }

      .cls-12 {
        fill: none;
      }

      .cls-13 {
        fill: #39302b;
      }

      .cls-14 {
        fill: #35231f;
      }

      .cls-15 {
        fill: #965a42;
      }
    </style>
    <filter id="drop-shadow-1" filterUnits="userSpaceOnUse">
      <feOffset dx="3" dy="3"/>
      <feGaussianBlur result="blur" stdDeviation="5"/>
      <feFlood flood-color="#000" flood-opacity=".42"/>
      <feComposite in2="blur" operator="in"/>
      <feComposite in="SourceGraphic"/>
    </filter>
    <clipPath id="clippath">
      <circle class="cls-12" cx="143.25" cy="142.65" r="112.77" transform="translate(-58.91 143.08) rotate(-45)"/>
    </clipPath>
  </defs>
  <g id="diverse_portrait_people_icons" data-name="diverse portrait people icons">
    <g>
      <circle class="cls-2" cx="143.47" cy="142.71" r="130.7"/>
      <g>
        <circle class="cls-6" cx="143.25" cy="142.84" r="112.77" transform="translate(-59.04 143.13) rotate(-45)"/>
        <g class="cls-11">
          <g>
            <g>
              <path class="cls-13" d="m214.96,135.57c-1.81,6.34-1.81,18.12-3.63,23.11-1.81,4.99-8.15,7.25-9.06,10.88-.9,3.62,1.81,5.89-.9,8.16-.7.58-1.6,1.1-2.59,1.61-2.88,1.47-6.48,2.83-7.83,5.19-1.81,3.17-8.61,2.72-11.33,2.27-2.72-.45-6.79-3.17-11.78-.9-4.98,2.26-36.69,7.25-36.69,7.25,0,0-13.14-.45-17.22-2.72-4.08-2.27-10.42-.45-14.96-1.36-4.53-.91-10.87-8.61-14.05-9.97-3.17-1.36-7.25-2.27-9.96-6.79-.55-.91-.95-2.07-1.24-3.38-1.19-5.22-.75-12.75-1.48-15.65-.9-3.62-6.79-4.07-10.42-5.89-3.62-1.81-4.53-5.44-4.98-12.23-.45-6.79,9.06-22.2,9.96-26.28.9-4.08-.9-6.34-1.81-12.24-.91-5.89,5.89-14.04,9.06-16.76,3.17-2.72,3.62-5.89,4.07-9.52.45-3.62,8.16-6.79,12.23-8.61,4.08-1.81,6.88-8.76,8.16-11.33.91-1.81,7.7-4.53,10.88-6.79,3.17-2.27,10.42-2.72,16.31-.9,5.89,1.81,8.15.45,14.05-.45,5.89-.91,18.12,3.17,23.56,7.25,5.44,4.07,12.7.63,17.22,4.07,7.7,5.9,13.59,4.08,18.12,9.07,4.53,4.98,5.89,13.59,7.25,22.2,1.36,8.61,12.68,19.03,14.95,26.28,2.27,7.25-4.08,18.12-5.89,24.46Z"/>
              <path d="m199.1,178.61l-.32.7c-2.88,1.47-6.48,2.83-7.83,5.19-1.81,3.17-8.61,2.72-11.33,2.27-2.72-.45-6.79-3.17-11.78-.9-4.98,2.26-36.69,7.25-36.69,7.25,0,0-13.14-.45-17.22-2.72-4.08-2.27-10.42-.45-14.96-1.36-4.53-.91-10.87-8.61-14.05-9.97-3.17-1.36-7.25-2.27-9.96-6.79-.55-.91-.95-2.07-1.24-3.38,4.25.91,8.49,1,11.21-.7,3.63-2.26.91-6.34,2.27-11.78,1.36-5.44,3.17-4.07,4.99-4.53,1.81-.45,4.99-9.97,4.99-15.41s.45-8.15,1.81-12.68c1.36-4.53,7.25-1.82,9.07-8.61,1.81-6.79,5.33-10.83,5.33-10.83,0,0,62.17,6.29,64.56,7.89,2.39,1.6,2.15,5.65,3.5,9.73,1.36,4.08,2.72,8.16,4.53,12.24,1.81,4.07-.91,9.06-.91,9.06,0,0-2.26,5.44-.9,9.96,1.36,4.53,3.17,5.44,4.07,9.52.91,4.07-3.62,5.89-4.07,9.06-.45,3.17.9,5.44,2.72,6.79,1.81,1.36,12.23,0,12.23,0Z"/>
              <path class="cls-13" d="m209,117.32l-.13-1.5c4.31-.38,7.65-2.31,8.96-5.17,1.85-4.06-.6-8.14-3.19-12.46-2.21-3.69-4.5-7.5-4.36-11.67.05-1.49.42-2.96.78-4.37.51-2.01.99-3.9.55-5.74-.51-2.17-2.24-3.9-3.76-5.43-4.98-5-9.95-9.55-16.1-10.25-.29-.03-.59-.06-.89-.09-1.43-.12-2.91-.25-4.14-1.15-.9-.66-1.45-1.58-1.98-2.47-.13-.22-.26-.44-.4-.66-4.25-6.69-13.83-7.68-20.67-7.84-6.78-.16-13.65.01-20.42.52l-.11-1.5c6.82-.51,13.73-.68,20.57-.52,7.18.17,17.27,1.24,21.91,8.54.14.23.28.46.42.7.47.79.92,1.55,1.57,2.02.89.65,2.1.76,3.38.87.31.03.63.05.94.09,6.63.75,11.83,5.48,17,10.68,1.58,1.59,3.55,3.56,4.16,6.14.52,2.2-.03,4.37-.56,6.46-.34,1.34-.69,2.72-.73,4.05-.12,3.72,2.05,7.34,4.15,10.84,2.68,4.46,5.45,9.08,3.27,13.87-1.53,3.36-5.34,5.62-10.2,6.05Z"/>
              <path class="cls-13" d="m65.79,127.33c-2.86,0-5.41-2.59-6.33-5.45-.98-3.04-.71-6.42.74-9.26.14-.26.28-.53.43-.79.39-.7.76-1.36.9-2.06.31-1.6-.58-3.13-1.52-4.76-.52-.89-1.05-1.82-1.41-2.79-1-2.73,1.31-4.51,3.36-6.07,1.16-.89,2.35-1.81,3.04-2.87.95-1.48,1.03-3.51,1.12-5.67.08-2.03.16-4.14,1.04-5.87.3-.59.57-1.2.83-1.81.62-1.42,1.27-2.9,2.31-4.15.95-1.14,2.13-1.99,3.27-2.81l11.88-8.53.88,1.23-11.88,8.53c-1.06.76-2.16,1.55-2.99,2.54-.9,1.09-1.48,2.4-2.09,3.79-.28.64-.56,1.27-.87,1.89-.73,1.44-.8,3.29-.88,5.25-.09,2.26-.18,4.59-1.35,6.42-.83,1.29-2.13,2.29-3.39,3.25-2.16,1.65-3.45,2.75-2.86,4.36.31.86.82,1.72,1.3,2.56,1.04,1.8,2.11,3.65,1.69,5.8-.18.94-.63,1.74-1.06,2.51-.14.24-.27.49-.4.74-1.27,2.49-1.51,5.45-.65,8.11.85,2.63,3.38,4.98,5.8,4.27l.42,1.45c-.45.13-.89.19-1.33.19Z"/>
            </g>
            <g>
              <path class="cls-3" d="m185.51,275.7l1.55,6c-.14.06-.27.13-.41.19-15.6,7.45-33.44,12.68-53.31,13.52-1.38.07-2.76.1-4.15.11-.15.6-.26,1-.31,1.16,0,.05-.02.08-.02.08-.03-.37-.08-.78-.16-1.22-4.07.04-8.22-.12-12.46-.47h0c.78-4.75,1.56-9.27,2.3-13.4.57-3.21,1.11-6.17,1.6-8.8.25-1.36.49-2.63.71-3.8.58-3.08,1.05-5.45,1.33-6.93h0c.21-1.07.34-1.66.34-1.66,0,0,2.94-.35,7.23-1.14.02,0,.03,0,.06-.02h0c9.37-1.75,25.07-5.65,30.51-12.83,2.71-3.58,4.3-9.89,5.21-16.64,1.71-12.82,1.01-27.24.99-27.67.08.29.16.58.24.9.08.28.15.57.23.87l4.85,18.77c.14.56.29,1.12.43,1.7.02.08.03.14.06.22l3.45,13.37,3.89,15.01h0s2.63,10.22,2.63,10.22l3.23,12.47h0Z"/>
              <path class="cls-5" d="m133.85,290.33c-.07.74-.14,1.49-.21,2.22-.09.97-.19,1.93-.3,2.86-1.38.07-2.76.1-4.15.11-.15.6-.26,1-.31,1.16,0,.05-.02.08-.02.08-.03-.37-.08-.78-.16-1.22-4.07.04-8.22-.12-12.46-.47h-.04c-1.25-.11-2.49-.23-3.71-.35l-4.12-39.96-.24-2.31,21.61,6.88.08.03s.03.06.03.08c.02.03.03.07.04.11,0,0,0,0,0,.02.02.04.03.08.04.12.02.03.03.08.04.12.1.3.24.76.43,1.35.15.49.33,1.08.52,1.76,0,.03.02.05.03.08.05.19.11.41.17.62,0,.02,0,.03,0,.06.41,1.51.87,3.37,1.3,5.48h0c.66,3.27,1.27,7.13,1.53,11.27v.02c.2,3.17.22,6.53-.09,9.9Z"/>
              <g class="cls-7">
                <path class="cls-1" d="m128.17,269.98c-5.53,0-11.04-.31-16.48-.62l.09-1.51c12.18.69,24.78,1.41,36.85-1.47,7.87-1.88,15.15-5.24,20.61-7.96,7.69-3.82,18.07-10.08,19.4-20.19l1.5.2c-1.43,10.82-12.23,17.37-20.22,21.34-5.54,2.75-12.92,6.16-20.93,8.07-6.85,1.64-13.83,2.13-20.8,2.13Z"/>
                <path class="cls-1" d="m116.26,282.44c-.56,0-1.12,0-1.68-.01l.02-1.51c22.53.29,44.78-5.44,64.35-16.59,4.68-2.67,9.86-6.07,12.7-11.09l1.31.74c-3.02,5.34-8.4,8.89-13.27,11.66-19.32,11-41.22,16.8-63.44,16.8Z"/>
                <path class="cls-1" d="m116.2,295.82v-.77s-.32-.66-.32-.66l.16-.08h.19c4.29-.55,8.2-1.09,11.87-1.64l.17-.02c.41-.06.84-.12,1.25-.19h.12c1.29-.21,2.59-.42,3.88-.64,8.22-1.35,15.45-2.89,22.09-4.71,10.94-3.01,20.75-6.99,29.17-11.85.08-.05.17-.1.26-.16l.37-.22c.15-.09.3-.18.46-.27l.95-.57c3.97-2.43,7.67-5.09,11-7.9l.97,1.15c-3.39,2.86-7.16,5.57-11.21,8.05l-.67.41c-.22.12-.43.25-.64.37v.04l-.42.22c-.09.05-.19.1-.28.16-8.56,4.94-18.5,8.98-29.56,12.02-6.69,1.84-13.97,3.39-22.24,4.75-1.29.22-2.6.43-3.89.63-.02,0-.09.02-.16.02-.41.06-.82.12-1.23.18l-.16.02c-3.64.55-7.53,1.08-11.87,1.63l-.05.03h-.19Z"/>
                <path class="cls-1" d="m117.42,263.07v-1.51c24.14-.19,47.78-11.4,63.22-29.97l1.16.96c-15.72,18.91-39.79,30.32-64.38,30.52Z"/>
                <path class="cls-1" d="m152.1,235.7l-.12-1.5c9.02-.74,16.54-7.03,24.1-13.97l1.02,1.11c-7.76,7.13-15.5,13.59-25,14.36Z"/>
              </g>
            </g>
            <g>
              <path class="cls-9" d="m131.79,280.71h0c-.49,5.04-1.36,9.52-2.03,12.47-.23.96-.41,1.76-.57,2.35-.15.6-.26,1-.31,1.16,0,.05-.02.08-.02.08-.03-.37-.08-.78-.16-1.22-4.07.04-8.22-.12-12.46-.47h-.04c-1.25-.11-2.49-.23-3.71-.35-24.56-2.55-42.57-9.22-55.78-17.55.52-7.98.99-13.38,1.38-14.71,1.68-5.6,30.05-28.25,42.32-37.84,3.41-2.68,5.58-4.33,5.58-4.33l5.71-3.81h0s12.36,28.38,18.09,42.84c0,.02,0,.03,0,.04,0,.03.03.06.03.08.02.03.03.07.04.11,0,0,0,0,0,.02.02.04.03.08.04.12.02.03.03.08.04.12.02.04.04.09.06.14.05.11.09.23.14.35.08.22.15.44.22.66.03.07.05.13.07.19.05.15.09.3.13.46.2.65.37,1.32.52,2,0,.02,0,.03,0,.06.4,1.77.67,3.62.83,5.5.32,3.88.19,7.85-.15,11.54Z"/>
              <path class="cls-9" d="m244.38,237.42c-12.72,14.28-31.9,31.96-56.82,44.04-.02,0-.04.03-.06.03l-.96-6.4h0s-1.99-13.38-1.99-13.38l-1.71-11.42-2.56-17.11-5.67-37.92s2.3.08,5.94.22c12.13.48,39.26,1.71,46.95,3.35,1.87.4,5.88,1.12,11.15,2.03l5.73,36.55Z"/>
              <path class="cls-10" d="m131.52,280.75c-.47,4.98-1.27,9.49-1.88,12.45-.19.95-.36,1.75-.5,2.34-.14.59-.23.99-.27,1.15,0,.05-.02.08-.02.08-.03-.37-.08-.78-.16-1.22-.11-.63-.28-1.35-.48-2.13-.85-3.19-2.45-7.43-4.33-11.96-1.18-2.82-2.47-5.74-3.76-8.59-.61-1.33-1.21-2.63-1.81-3.91-3.87-8.31-7.33-15.08-7.33-15.08l-2.63.88-12.39,4.12s2.72-20.95,4.43-34.26c.62-4.76,1.1-8.55,1.28-10.05.72-5.72,15.73-15.01,15.73-15.01.46,13.51-5.45,16.78-5.72,16.91h0s12.84,29.96,18.1,42.85c0,.02,0,.03.02.04,0,.03.03.06.03.08.02.03.03.07.04.11,0,0,0,0,0,.02.1.24.19.48.28.73.08.22.15.44.22.66.03.07.04.13.06.19.05.15.09.3.14.46.12.42.23.85.33,1.3,0,.03.02.05.03.08.45,1.93.72,4.03.85,6.18.25,3.81.08,7.83-.27,11.58Z"/>
              <path class="cls-10" d="m206.37,211.86l-17.16,10.49s-.9,9.32-1.54,21.51c-.26,4.96-.48,10.4-.58,15.88-.09,5.07-.08,10.17.09,14.96.08,2.35.2,4.61.37,6.76-.02,0-.04.03-.06.03-.14.07-.29.14-.44.21-.14.06-.27.13-.41.19-.44-1.76-.94-3.78-1.49-6-.92-3.7-1.98-7.95-3.12-12.52-.81-3.28-1.67-6.72-2.56-10.24-1.23-4.96-2.52-10.06-3.78-15.08-1.16-4.62-2.31-9.16-3.39-13.43-.03-.08-.04-.14-.06-.22-.14-.57-.29-1.14-.43-1.7-.12-.48-.24-.95-.36-1.42-1.67-6.57-3.15-12.32-4.26-16.48-.08-.3-.15-.59-.23-.87-.08-.3-.15-.59-.23-.87-.08-.31-.16-.61-.24-.9,0,0-7.15-3.22-7.95-11.32,0,0,10.07.44,21.99,4.63,8.68,3.06,18.34,8.09,25.83,16.38Z"/>
            </g>
            <g>
              <path class="cls-4" d="m160.31,246.49c-6.19,9.05-30.5,12.86-30.5,12.86l-.88-2.09-17.23-40.8s4.29-3.81,5.24-11.44c.57-4.48.47-15.88.29-24.51-.13-6.06-.29-10.75-.29-10.75l38.13.95s2.86,20.49,4.77,24.78c.33.75.76,1.46,1.24,2.09,2.2,2.97,5.43,4.58,5.43,4.58,1.43,12.87,0,35.27-6.19,44.32Z"/>
              <path class="cls-15" d="m161.07,197.58c-2.72,2.09-6.17,4.12-8.87,3.63-5.24-.95-17.63-1.91-22.87-4.29-5.24-2.38-11.91-16.21-11.91-16.21l-.2-.2c-.13-6.06-.29-10.75-.29-10.75l38.13.95s2.86,20.49,4.77,24.78c.33.75.76,1.46,1.24,2.09Z"/>
              <path class="cls-15" d="m160.31,246.49c-6.19,9.05-30.5,12.86-30.5,12.86l-.88-2.09c6.24-2.4,23.88-9.03,27.25-13,8.9-10.48,10.33-42.1,10.33-42.1,1.43,12.87,0,35.27-6.19,44.32Z"/>
              <path class="cls-13" d="m139.63,223.81c-10.67,0-24.34-9.13-25.01-9.58-.35-.23-.44-.7-.2-1.05.23-.35.7-.44,1.05-.2.19.13,18.85,12.59,28.84,8.51,10.1-4.13,18.78-21.58,18.87-21.75.18-.37.64-.53,1.01-.34.37.18.53.64.34,1.01-.36.74-9.02,18.14-19.65,22.48-1.6.65-3.37.93-5.24.93Z"/>
              <path class="cls-13" d="m143.67,235.04c-7.51,0-27.8-16.75-30.23-18.79-.32-.27-.36-.74-.1-1.06.27-.32.74-.36,1.06-.1,9.56,7.99,26.17,20.03,30.03,18.32,5.25-2.34,18.56-24.79,19.9-32.17.07-.41.47-.68.88-.61.41.07.68.47.61.88-1.28,7.05-14.68,30.57-20.77,33.28-.39.17-.85.25-1.37.25Z"/>
            </g>
            <g>
              <path class="cls-4" d="m178.54,110.44l-.48,2.18-11.21,50.62c-.5,2.26-1.59,4.35-3.16,6.05-3.91,4.21-11.45,12.1-14.19,13.2-3.77,1.51-18.52,1.74-23.39-1.51-3.3-2.2-10.18-11.98-13.69-17.15-1.41-2.07-2.15-4.52-2.14-7.02l.33-50.42c.03-4.1,2.77-7.7,6.73-8.76.06-.02.09-.02.09-.02,3.02-2.26,5.28-7.55,11.32-8.3,2.69-.34,5.08.08,7.7.57,3.27.62,6.9,1.36,11.92.94,9.05-.75,9.05-6.04,15.09-1.51,6.04,4.53,1.51,7.55,3.02,11.32,1.51,3.77,12.07,9.81,12.07,9.81Z"/>
              <path class="cls-4" d="m110.51,126.64l-4.79-1.06c-1.6-.35-3.23.42-3.96,1.89l-2.3,4.6c-.4.8-.49,1.73-.24,2.59l3.41,11.77c.48,1.67,2.1,2.74,3.82,2.55l3.81-.42.25-21.91Z"/>
              <path class="cls-4" d="m183.42,139.12l-6.42,11.66c-.75,1.37-2.43,1.96-3.88,1.35l-1.55-.65-1.86-.78,3.93-19.06,4.91-.95c1.44-.28,2.87.5,3.43,1.86l1.6,3.93c.35.86.29,1.83-.16,2.64Z"/>
              <path d="m117.42,112.1s3.65-3.81,6.91-4.29c1.9-.28,13.26,1.11,13.26,1.11,0,0-1.11,3.57-2.07,4.29s-10.72-1.59-10.72-1.59l-7.39.48Z"/>
              <path d="m154.11,112.82s.48,3.34,2.38,4.05c1.91.71,11.2,2.14,11.2,2.14l4.29,1.67s-2.14-5.24-3.57-6.19c-1.43-.95-14.3-1.67-14.3-1.67Z"/>
              <path class="cls-8" d="m140.47,151.52c-.57,0-1.17-.06-1.78-.2-5.82-1.34-6.47-4.1-6.53-4.41-.07-.41.2-.8.61-.88.4-.07.79.19.87.59.02.08.62,2.13,5.39,3.23,2.66.61,5.17-.69,6.03-1.76.26-.33.74-.38,1.06-.12.33.26.38.73.12,1.06-.87,1.09-3.05,2.49-5.77,2.49Z"/>
              <path class="cls-8" d="m145.69,162.14c-2.66,0-11.14-.45-14.51-1.46-3.29-.99-7.1-4.14-7.26-4.27-.32-.27-.36-.74-.1-1.06.27-.32.74-.36,1.06-.1.04.03,3.73,3.09,6.72,3.99,3.07.92,11.26,1.4,14.08,1.4,2.66,0,6.95-1.97,6.99-1.99.38-.18.83-.01,1,.37.18.38.01.83-.37,1-.19.09-4.63,2.14-7.62,2.14Z"/>
              <path class="cls-15" d="m110.45,144.13c-.31,0-.59-.19-.71-.49-1.48-3.98-5.36-8.35-5.4-8.4-.28-.31-.25-.79.06-1.07.31-.28.79-.25,1.06.06.17.19,4.1,4.62,5.69,8.88.15.39-.05.83-.44.97-.09.03-.18.05-.26.05Z"/>
              <path class="cls-15" d="m106.1,143.12c-.25,0-.49-.12-.64-.35-.23-.35-.12-.82.23-1.04.19-.12,1.87-1.18,3.32-1.31.42-.03.78.27.82.68.04.42-.27.78-.68.82-.92.08-2.22.8-2.64,1.08-.13.08-.27.12-.41.12Z"/>
              <path class="cls-8" d="m143.31,166.43c-3.19,0-9.68-.92-9.96-.96-.41-.06-.7-.44-.64-.85.06-.41.44-.7.85-.64.07,0,6.65.95,9.74.95.42,0,.75.34.75.75s-.34.75-.75.75Z"/>
              <path class="cls-14" d="m130.92,124.33c0,2.81-1.46,5.08-3.26,5.08s-3.26-2.28-3.26-5.08,1.46-5.08,3.26-5.08,3.26,2.28,3.26,5.08Z"/>
              <path class="cls-14" d="m161.37,128.03c-.45,2.77-2.26,4.78-4.03,4.49-1.78-.29-2.85-2.77-2.4-5.54.45-2.77,2.26-4.78,4.03-4.49,1.78.29,2.85,2.77,2.4,5.54Z"/>
              <path class="cls-14" d="m132.03,122.73c-.2,0-.4-.08-.55-.23-1.32-1.32-2.73-1.99-4.13-1.98-2.19.01-3.8,1.63-3.82,1.65-.3.31-.79.31-1.1.02-.31-.3-.32-.79-.02-1.09.08-.09,2.06-2.1,4.91-2.12,1.86-.03,3.63.8,5.26,2.43.3.3.3.79,0,1.1-.15.15-.35.23-.55.23Z"/>
              <path class="cls-14" d="m163.16,127.49c-.29,0-.57-.16-.7-.44-.86-1.8-1.97-2.89-3.32-3.24-2.2-.57-4.4.98-4.42.99-.35.25-.83.17-1.08-.18-.25-.35-.17-.83.18-1.08.11-.08,2.79-1.98,5.7-1.24,1.82.47,3.28,1.84,4.35,4.08.18.39.02.85-.37,1.03-.11.05-.22.08-.33.08Z"/>
              <path class="cls-15" d="m118.05,141.92c-.19,0-.39-.07-.53-.22l-6.04-6.04c-.29-.29-.29-.77,0-1.07.29-.29.77-.29,1.07,0l6.04,6.04c.29.29.29.77,0,1.07-.15.15-.34.22-.53.22Z"/>
              <path class="cls-15" d="m116.94,145.9c-.22,0-.43-.09-.58-.27l-4.77-5.72c-.27-.32-.22-.8.1-1.06.32-.27.79-.22,1.06.1l4.77,5.72c.27.32.22.8-.1,1.06-.14.12-.31.18-.48.18Z"/>
              <path class="cls-15" d="m163.96,146.05c-.28,0-.55-.16-.68-.43-.18-.38-.02-.83.36-1l5.72-2.7c.38-.18.83-.02,1,.36.18.38.02.83-.36,1l-5.72,2.7c-.1.05-.21.07-.32.07Z"/>
              <path class="cls-15" d="m163.96,149.71c-.26,0-.51-.13-.65-.38-.21-.36-.09-.82.27-1.03l4.92-2.86c.36-.21.82-.09,1.03.27.21.36.09.82-.27,1.03l-4.92,2.86c-.12.07-.25.1-.38.1Z"/>
              <path class="cls-15" d="m178.54,110.44l-.48,2.18c-1.74-.59-9.39-3.14-11.08-3.7-1.91-.63-2.86-2.54-6.04-6.67-3.18-4.13-1.91-4.44-4.44-6.99-2.54-2.54-4.13,0-7.63.32-3.49.32-3.49-.63-7.63-3.49-1.4-.97-3.12-1.68-4.8-2.2,3.27.62,6.9,1.36,11.92.94,9.05-.75,9.05-6.04,15.09-1.51,6.04,4.53,1.51,7.55,3.02,11.32,1.51,3.77,12.07,9.81,12.07,9.81Z"/>
              <polygon class="cls-15" points="110.51 126.64 110.26 148.55 108.36 148.79 107.77 126.04 110.51 126.64"/>
              <polygon class="cls-15" points="177.1 131.04 171.58 151.48 169.63 150.65 173.65 131.64 177.1 131.04"/>
              <path class="cls-13" d="m184.13,119.7c-1.15,0-2.31-.44-3.13-1.27-.5-.51-.84-1.1-1.17-1.67-.31-.54-.61-1.06-1.01-1.43-.97-.91-2.44-.95-4-1-1.45-.04-2.96-.09-4.28-.81-1.88-1.02-2.69-2.96-3.47-4.83-.36-.87-.7-1.69-1.14-2.42-.79-1.31-1.95-2.39-3.17-3.53-1.69-1.57-3.44-3.19-4.14-5.5-.18-.59-.27-1.17-.37-1.75-.09-.53-.17-1.04-.31-1.51-1.06-3.56-5.09-5.26-9.29-6.57l.45-1.44c4.6,1.43,9.03,3.34,10.29,7.58.17.57.26,1.15.35,1.7.09.54.17,1.06.32,1.55.58,1.92,2.11,3.34,3.72,4.84,1.25,1.16,2.54,2.36,3.44,3.86.5.83.88,1.74,1.24,2.62.71,1.71,1.38,3.32,2.8,4.09,1.01.55,2.27.59,3.61.63,1.77.05,3.6.11,4.98,1.41.56.53.93,1.17,1.28,1.78.29.51.57.99.93,1.36.81.82,2.15,1.06,3.19.57,1.04-.49,1.72-1.67,1.61-2.82l1.5-.15c.17,1.76-.87,3.58-2.47,4.33-.56.26-1.17.39-1.78.39Z"/>
              <path class="cls-13" d="m183.46,117.64c-1.76,0-3.26-1.03-4.72-2.03-.53-.37-1.04-.71-1.55-1.01-1.51-.87-3.23-1.3-5.05-1.75-2.22-.55-4.51-1.13-6.4-2.57-1.05-.8-1.91-1.82-2.75-2.8-1.29-1.52-2.5-2.95-4.21-3.41-.39-.11-.8-.16-1.24-.21-.51-.06-1.04-.13-1.57-.29-2.92-.86-4.18-3.65-5.41-6.35-.4-.88-.81-1.79-1.27-2.59-1.87-3.26-5.36-5.53-9.1-5.92l.16-1.5c4.21.44,8.14,2.99,10.25,6.66.49.86.92,1.8,1.34,2.72,1.13,2.5,2.21,4.86,4.46,5.52.41.12.86.18,1.33.24.47.06.96.12,1.45.25,2.17.58,3.59,2.26,4.97,3.89.78.92,1.6,1.88,2.51,2.58,1.65,1.25,3.69,1.76,5.85,2.31,1.84.46,3.74.94,5.43,1.91.56.32,1.12.7,1.65,1.07,1.48,1.02,2.88,1.98,4.37,1.73l.25,1.49c-.26.04-.51.06-.76.06Z"/>
              <path class="cls-8" d="m134.57,141.21c-.07,0-.15-.01-.22-.03-.4-.12-.62-.54-.5-.94.03-.09,2.86-9.31,3.49-11.5.49-1.71-.08-7.93-.34-10.19-.05-.41.25-.79.66-.84.41-.05.79.25.84.66.1.86.95,8.48.29,10.78-.63,2.21-3.47,11.44-3.5,11.53-.1.32-.4.53-.72.53Z"/>
              <path class="cls-15" d="m171.74,145.1c-.2,0-.41-.08-.55-.24-.28-.31-.26-.78.04-1.07l6.19-5.72c.31-.28.78-.26,1.07.04.28.31.26.78-.04,1.07l-6.19,5.72c-.15.13-.33.2-.51.2Z"/>
              <path class="cls-15" d="m176.19,146.37c-.21,0-.43-.09-.58-.27l-2.7-3.18c-.27-.32-.23-.79.09-1.06.32-.27.79-.23,1.06.09l2.7,3.18c.27.32.23.79-.09,1.06-.14.12-.32.18-.49.18Z"/>
              <path class="cls-8" d="m126.95,157.85s6.43-.48,10.25-.24c3.81.24,7.62.95,7.62.95l5.96,1.99s-5.4,1.51-12.39.87c-4.2-.38-10.01-3.1-11.44-3.57Z"/>
              <path class="cls-8" d="m123.37,157.65s-.06,0-.08,0c-.41-.05-.71-.42-.67-.83.3-2.73,2.15-2.92,2.23-2.93.42-.04.78.27.82.68.04.41-.26.77-.66.82-.06.01-.73.18-.89,1.6-.04.39-.37.67-.75.67Z"/>
              <path class="cls-8" d="m154.23,161.7s-.09,0-.14-.01c-.41-.07-.68-.47-.61-.88.12-.64-.69-1.85-1.3-2.51-.28-.3-.27-.78.04-1.07.3-.28.78-.27,1.07.04.2.22,1.98,2.17,1.68,3.81-.07.36-.38.62-.74.62Z"/>
            </g>
          </g>
        </g>
      </g>
    </g>
  </g>
</svg>