<?xml version="1.0" encoding="UTF-8"?>
<svg id="Layer_2" data-name="Layer 2" xmlns="http://www.w3.org/2000/svg" xmlns:xlink="http://www.w3.org/1999/xlink" viewBox="0 0 292 292">
  <defs>
    <style>
      .cls-1 {
        fill: #d79612;
      }

      .cls-2 {
        fill: #f9ead9;
      }

      .cls-3 {
        fill: #fff;
        filter: url(#drop-shadow-1);
      }

      .cls-4 {
        fill: #eea489;
      }

      .cls-5 {
        clip-path: url(#clippath);
      }

      .cls-6 {
        fill: #fed0b9;
      }

      .cls-7 {
        fill: #39302b;
      }

      .cls-8 {
        fill: #35231f;
      }

      .cls-9 {
        fill: #c17e08;
      }

      .cls-10 {
        fill: #db8a75;
      }
    </style>
    <filter id="drop-shadow-1" filterUnits="userSpaceOnUse">
      <feOffset dx="3" dy="3"/>
      <feGaussianBlur result="blur" stdDeviation="5"/>
      <feFlood flood-color="#000" flood-opacity=".42"/>
      <feComposite in2="blur" operator="in"/>
      <feComposite in="SourceGraphic"/>
    </filter>
    <clipPath id="clippath">
      <circle class="cls-2" cx="141.67" cy="143.22" r="112.77" transform="translate(-59.78 142.12) rotate(-45)"/>
    </clipPath>
  </defs>
  <g id="diverse_portrait_people_icons" data-name="diverse portrait people icons">
    <g>
      <circle class="cls-3" cx="142.77" cy="143.19" r="130.7"/>
      <g>
        <circle class="cls-2" cx="141.67" cy="143.22" r="112.77" transform="translate(-59.78 142.12) rotate(-45)"/>
        <g class="cls-5">
          <g>
            <g>
              <path class="cls-7" d="m176.7,57.19c-1.44,3.65-4.65,8.86-4.65,8.86l-68.7,6.75s-7.17-8.01-7.59-9.28c-.42-1.26,7.16-13.49,11.8-16.86,4.64-3.37,26.55-7.59,26.55-7.59,0,0,15.18,5.06,16.86,5.06s11.81-.84,14.76-.84,9.7,9.27,11.38,10.54c.52.39.23,1.72-.41,3.36Z"/>
              <path d="m176.7,57.19c-1.44,3.65-4.65,8.86-4.65,8.86l-68.7,6.75s-7.17-8.01-7.59-9.28c0,0,5.62.14,7.3-1.54,1.69-1.69,19.54-11.24,21.5-12.37,1.97-1.12,15.73,3.09,20.51,3.37,4.78.29,17.56-1.26,19.81-1.26s7.17,2.11,11.24,5.48c.19-.01.39-.01.57-.01Z"/>
            </g>
            <g>
              <path class="cls-1" d="m245.77,217.63c-1.96,1.67-4.05,3.39-6.27,5.14-20.6,16.26-51.73,35.05-89.56,39.78-6.98.88-13.7,1.05-20.13.65-37.89-2.3-65.77-24.32-80.53-39.27,3.24-4,12.72-6.8,12.72-6.8l6.96-6.31,36.67-10.76,11.68,1.11.82.08,2.27.22,2.94-.07,38.57-.85,4.02-.08,1.85-.05,3.38-.07s1.74.51,4.5,1.26c8.18,2.24,25.3,6.67,32.4,6.67,9.48,0,26.54,1.27,30.33,2.54,1.18.39,4.02,3.12,7.39,6.82Z"/>
              <path class="cls-9" d="m246.57,216.95c-.27.23-.53.46-.8.68-1.96,1.67-4.05,3.39-6.27,5.14-1.08-1.37-2.29-2.68-3.85-3.44-1.52-.74-3.28-.89-4.97-.97-8.96-.44-17.99.57-26.89-.62-7.62-1.02-14.87-3.64-21.84-6.82-1-.46-2-.93-2.99-1.42-1.07-.52-2.35-1.03-3.67-1.56-4.29-1.72-9.09-3.72-9.36-7.48-.06-.88.13-1.87.63-2.97l3.38-.07s27.4,7.93,36.89,7.93,26.54,1.27,30.34,2.54c1.42.47,5.18,4.26,9.39,9.06Z"/>
              <path class="cls-9" d="m130.16,264.35h-.33c-.64,0-1.16-.52-1.16-1.15,0-.45.26-.84.63-1.03,13.12-8.31,30.3-18.61,37.82-20.62.62-.16,1.25.2,1.41.82.16.62-.2,1.25-.82,1.41-7.26,1.94-24.27,12.16-37.27,20.39l-.28.18Z"/>
              <path class="cls-9" d="m134.12,254.56c-.43,0-.85-.25-1.05-.67-.27-.58-.02-1.26.56-1.53,9.25-4.32,31.16-21.81,31.38-21.98.5-.4,1.22-.32,1.62.18.4.5.32,1.22-.18,1.62-.91.73-22.35,17.84-31.84,22.27-.16.07-.32.11-.49.11Z"/>
              <path class="cls-9" d="m125.69,226.95c-6.17,0-19.05-8.26-19.59-8.61l-.56-.36.04-.67c.07-1.36.45-8.23.9-9.58.37-1.1,3.94-3.72,10.61-7.79.54-.33,1.25-.16,1.59.39.33.54.16,1.25-.39,1.59-4.15,2.53-8.95,5.74-9.64,6.62-.22.85-.53,4.66-.73,8.22,3.97,2.5,13.44,7.89,17.78,7.89,8.66,0,44.62-.47,48.18-1.47,1.04-1.37,5.52-9.77,9.38-17.29.29-.57.99-.79,1.55-.5.57.29.79.99.5,1.55-2,3.89-8.61,16.7-9.91,17.99-.51.51-1.13,1.13-23.5,1.65-11.3.26-23.17.37-26.21.37Z"/>
            </g>
            <g>
              <path class="cls-6" d="m177.53,202.76l-6.46,14.89s-43.27,3.94-47.77,3.66c-4.49-.29-9.83-11.53-9.83-11.53,0,0,5.17-8.7,5.72-11.23.09-.4.2-1.18.31-2.2.61-5.42,1.48-17.75,1.48-17.75l45.6-7.87s1.02,11.46,2.02,19.38c.5,3.84.98,6.86,1.35,7.32,1.12,1.41,7.58,5.34,7.58,5.34Z"/>
              <path class="cls-4" d="m168.6,190.1c-2.64,4.29-12.07,19.38-14.25,20.01-2.55.73-17.85,1.08-22.59-.74-3.52-1.34-9.43-9.11-12.26-13.03.61-5.42,1.48-17.75,1.48-17.75l45.6-7.87s1.02,11.46,2.02,19.38Z"/>
              <path class="cls-10" d="m120.63,184.07s8.01,11.38,9.69,12.64c1.69,1.26,20.65.84,23.6-.84,2.95-1.69,13.49-18.55,13.49-18.55l-.84-6.6-45.59,7.87-.35,5.48Z"/>
            </g>
            <g>
              <path class="cls-7" d="m198.89,127.45c-.42,3.37-13.07,14.47-12.64,18.26.42,3.79,2.25,13.35,1.4,16.3-.85,2.95-7.17,9.42-8.43,10.68-1.27,1.27-.84,17.7-.84,17.7,0,0,0,0,0-.01l-7.16-8.42-.84-14.76-53.53,3.79s-8.86,6.33-9.28,8.86c-.41,2.47,1.6,12.19,1.68,12.63,0,0,0,.01,0,.01,0,0-18.13-18.12-18.97-21.49-.85-3.37,1.68-20.23,2.53-22.76.84-2.53-9.27-25.29-9.69-27.4-.42-2.11,10.12-42.99,13.91-48.05,3.8-5.06,24.58-17.85,27.96-17.85s17.98,7.73,17.98,7.73c0,0,15.6-2.53,25.71-2.95,10.12-.42,13.07,5.9,16.44,12.22,3.37,6.33,14.19,52.12,13.77,55.5Z"/>
              <path d="m178.37,190.38l-7.16-8.42-.84-14.76-53.53,3.79s-8.86,6.33-9.28,8.86c-.41,2.47,1.6,12.19,1.68,12.63-.36-.61-11.81-20.26-12.64-23.16-.84-2.95,5.06-21.08,4.64-24.45-.42-3.38-5.48-22.76-4.64-26.55.84-3.8,18.97-37.93,21.92-38.78,2.95-.84,18.97,5.48,18.97,5.48,0,0,10.96-7.59,13.49-7.59s10.96,5.91,19.39,18.55c8.43,12.65,3.79,16.44,2.95,26.13-.85,9.7,4.63,27.4,4.21,32.03-.42,4.64-4.63,16.86-4.63,18.55s5.31,17.21,5.47,17.69Z"/>
            </g>
            <g>
              <path class="cls-6" d="m172.76,161.45c-1.27,7.59-17.14,26.2-20.31,28.1-3.16,1.9-18.97,1.27-22.76,0-3.79-1.26-17.71-19.59-20.23-26.55-2.53-6.95-3.16-27.18-3.16-27.18,0,0-1.9-8.22-1.9-13.91s7.8-30.56,15.39-35.62c2.83-1.89,18.12,2.88,18.12,2.88h0c.37-.12,12.07-3.79,16.44-3.79s16.44,21.99,16.44,26.41-1.27,24.66-1.27,24.66c0,0,.35,12.05,2.58,22.28.03.12.05.23.08.35.16.73.33,1.44.51,2.14.04.16.06.25.06.25Z"/>
              <path class="cls-10" d="m137.38,161.63c-.22,0-.45,0-.67-.03-3.57-.3-7.31-2.58-7.47-2.67l-.52-.32,1.99-27.32-3.26-7.07c-.23-.5-.01-1.1.49-1.33.5-.23,1.1-.01,1.33.49l3.48,7.54-1.94,26.6c1.08.59,3.69,1.89,6.06,2.09,2.95.24,5.76-1.76,5.79-1.78.45-.32,1.07-.22,1.4.22.32.45.23,1.07-.22,1.4-.13.09-3.04,2.18-6.46,2.18Z"/>
              <path class="cls-10" d="m140.85,171.1c-3.84,0-8.21-.43-8.94-.51l-.17-.02-6.62-3.17c-.5-.24-.71-.84-.47-1.33.24-.5.84-.71,1.34-.47l6.31,3.02c4.32.43,11.25.8,13.12.05,2.67-1.07,5.39-2.96,5.42-2.98.45-.32,1.08-.21,1.39.25.32.45.21,1.08-.25,1.39-.12.08-2.94,2.05-5.82,3.2-1.08.43-3.1.57-5.31.57Z"/>
              <path class="cls-10" d="m124.99,168.49c-.43,0-.83-.28-.96-.71-.51-1.69,1.01-3.15,1.99-3.74.47-.29,1.09-.14,1.38.34.29.47.14,1.09-.33,1.37-.44.27-1.25,1-1.11,1.46.16.53-.14,1.09-.67,1.25-.1.03-.19.04-.29.04Z"/>
              <path class="cls-10" d="m152.67,168.78c-.55,0-1-.45-1-1,0-.77-1.32-1.32-1.67-1.43-.53-.16-.83-.72-.67-1.24.16-.53.71-.83,1.24-.67,1.15.34,3.11,1.43,3.11,3.35,0,.55-.45,1-1,1Z"/>
              <path class="cls-10" d="m139.87,176.91c-3.09,0-5.94-.67-6.12-.71-.54-.13-.87-.67-.74-1.21.13-.54.67-.87,1.21-.74.06.01,6.2,1.45,9.65.05.51-.21,1.1.04,1.31.55.21.51-.04,1.1-.55,1.3-1.4.57-3.11.76-4.74.76Z"/>
              <path class="cls-7" d="m127.16,120.43s-.84,2.74-3.16,3.37c-2.32.63-12.22-1.9-12.22-1.9l-5.27.63s3.16-3.79,5.69-4.43,14.96,2.32,14.96,2.32Z"/>
              <path class="cls-4" d="m160.95,152.9c-.24,0-.48-.09-.68-.26-.41-.37-.44-1.01-.06-1.41l6.18-6.74c.37-.41,1.01-.44,1.41-.06.41.37.44,1.01.06,1.41l-6.18,6.74c-.2.22-.47.32-.74.32Z"/>
              <path class="cls-4" d="m161.52,156.27c-.29,0-.58-.13-.78-.38-.35-.43-.28-1.06.16-1.41l7.02-5.62c.43-.35,1.06-.28,1.41.16.35.43.28,1.06-.16,1.41l-7.02,5.62c-.18.15-.41.22-.62.22Z"/>
              <path class="cls-4" d="m115.43,154.3c-.27,0-.55-.11-.74-.33l-5.06-5.62c-.37-.41-.34-1.04.07-1.41.41-.37,1.04-.34,1.41.07l5.06,5.62c.37.41.34,1.04-.07,1.41-.19.17-.43.26-.67.26Z"/>
              <path class="cls-4" d="m114.59,158.24c-.23,0-.46-.08-.64-.24l-5.34-4.5c-.42-.36-.48-.99-.12-1.41.36-.42.99-.48,1.41-.12l5.34,4.5c.42.36.48.99.12,1.41-.2.23-.48.36-.77.36Z"/>
              <path class="cls-10" d="m172.11,158.72c-1.43-5.99-4.68-19.88-4.68-21.86,0-2.53-1.27-25.71-1.27-25.71,0,0-9.27-14.75-12.23-18.55-2.95-3.79-16.02-3.44-16.02-3.44h0c.37-.12,12.07-3.79,16.44-3.79s16.44,21.99,16.44,26.41-1.27,24.66-1.27,24.66c0,0,.35,12.05,2.58,22.28Z"/>
              <path class="cls-7" d="m145.85,119.37s.84,2.53,3.16,2.95c2.32.42,14.12,0,14.12,0l4.64.35s-2.53-4.99-4.22-5.41c-1.69-.42-17.7,2.11-17.7,2.11Z"/>
              <path class="cls-8" d="m145.2,137.07c-.27,0-.54-.1-.75-.31-.41-.41-.41-1.08,0-1.5.27-.27,2.71-2.68,4.43-3.47.15-.06.26-.11.37-.15.4-.13,1.38-.45,7.88.42,2.12.28,3.83.56,3.83.56.58.09.97.64.87,1.22-.09.58-.64.97-1.22.87,0,0-1.69-.28-3.77-.56-5.79-.78-6.81-.55-6.91-.52-.04.02-.12.05-.21.09-1.13.52-3.12,2.36-3.78,3.03-.21.21-.48.31-.75.31Z"/>
              <path class="cls-8" d="m124.96,136.21c-.26,0-.51-.1-.71-.29-1.34-1.29-3.27-2.73-4.05-2.79-2.4-.35-8.39.59-10.5.98-.56.1-1.09-.26-1.19-.82-.1-.56.26-1.09.82-1.19.32-.06,7.96-1.46,11.1-1,1.84.14,4.69,2.82,5.24,3.35.41.39.42,1.04.02,1.45-.2.21-.47.31-.73.31Z"/>
              <path class="cls-8" d="m121.42,135.65c0,2.54-1.63,4.6-3.64,4.6s-3.64-2.06-3.64-4.6c0-.83.17-1.6.47-2.27,2.16-.33,4.49-.61,5.33-.44.31.06.64.21.99.42.31.67.49,1.46.49,2.3Z"/>
              <path class="cls-8" d="m149.4,136.15c0,2.54,1.63,4.6,3.64,4.6s3.64-2.06,3.64-4.6c0-.83-.17-1.6-.47-2.27-2.16-.33-4.49-.61-5.33-.44-.31.06-.64.21-.99.42-.31.67-.49,1.46-.49,2.3Z"/>
            </g>
          </g>
        </g>
      </g>
    </g>
  </g>
</svg>