<?xml version="1.0" encoding="UTF-8"?>
<svg id="Layer_2" data-name="Layer 2" xmlns="http://www.w3.org/2000/svg" xmlns:xlink="http://www.w3.org/1999/xlink" viewBox="0 0 293 293">
  <defs>
    <style>
      .cls-1, .cls-2 {
        fill: #fff;
      }

      .cls-3 {
        fill: #7d92be;
      }

      .cls-4 {
        fill: #f9ead9;
      }

      .cls-5 {
        fill: #6d2931;
      }

      .cls-6 {
        fill: #5f77a1;
      }

      .cls-2 {
        filter: url(#drop-shadow-1);
      }

      .cls-7 {
        fill: #591e26;
      }

      .cls-8 {
        fill: #e67342;
      }

      .cls-9 {
        fill: #eea489;
      }

      .cls-10 {
        clip-path: url(#clippath);
      }

      .cls-11 {
        fill: #fed0b9;
      }

      .cls-12 {
        fill: #d1572c;
      }

      .cls-13 {
        fill: #39302b;
      }

      .cls-14 {
        fill: #35231f;
      }

      .cls-15 {
        fill: #db8a75;
      }
    </style>
    <filter id="drop-shadow-1" filterUnits="userSpaceOnUse">
      <feOffset dx="3" dy="3"/>
      <feGaussianBlur result="blur" stdDeviation="5"/>
      <feFlood flood-color="#000" flood-opacity=".42"/>
      <feComposite in2="blur" operator="in"/>
      <feComposite in="SourceGraphic"/>
    </filter>
    <clipPath id="clippath">
      <circle class="cls-4" cx="143.61" cy="143.48" r="112.77" transform="translate(-59.39 143.57) rotate(-45)"/>
    </clipPath>
  </defs>
  <g id="diverse_portrait_people_icons" data-name="diverse portrait people icons">
    <g>
      <circle class="cls-2" cx="143.6" cy="143.48" r="130.7"/>
      <g>
        <circle class="cls-4" cx="143.61" cy="143.48" r="112.77" transform="translate(-59.39 143.57) rotate(-45)"/>
        <g class="cls-10">
          <g>
            <g>
              <path class="cls-3" d="m230.85,218.39c5.85,1.7,10.94,3.35,14.61,4.8-3.52,4.06-7.84,8.54-13,13.04-2.4,2.1-4.97,4.2-7.74,6.27-13.94,10.43-32.58,20.01-56.38,23.68-2.56.39-5.19.73-7.88.97-2.91.28-5.89.46-8.93.55-2.11.06-4.2.06-6.28.01-5.25-.15-10.36-.67-15.32-1.5-27.17-4.55-49.75-18.57-66.51-32.83,9.34-4.39,18.95-8.81,26.49-12.64h.01c.32-.17.63-.33.95-.5.32-.17.63-.32.95-.48.63-.32,1.25-.63,1.85-.95,1.51-.77,2.94-1.52,4.28-2.23.53-.29,1.05-.57,1.56-.83.51-.27.99-.53,1.47-.78,1.42-.77,2.68-1.48,3.76-2.11.36-.21.69-.4,1.02-.6.31-.2.61-.38.89-.55.82-.53,1.43-.98,1.82-1.34.18-.17.32-.33.39-.46h0s60.59-5.44,60.59-5.44l.29.06c.14.02.3.06.52.09.1.02.22.05.33.07.25.05.54.1.87.16.32.07.68.14,1.07.21.39.08.83.16,1.28.25.47.09.97.18,1.49.29.52.09,1.07.21,1.65.32.88.17,1.81.36,2.82.55.66.13,1.34.27,2.04.42h.01c.7.14,1.43.29,2.18.44,2.34.47,4.88.99,7.57,1.55,1.2.25,2.44.51,3.69.77h.01c8.93,1.86,18.7,4.17,27.55,6.51,2.78.75,5.48,1.49,8.03,2.23Z"/>
              <path class="cls-6" d="m140.34,249.52c-14.99,0-29.48-.72-33.48-2.05-8.53-2.84-21.54-15.11-22.09-15.63l1.52-1.61c.13.12,13.2,12.45,21.27,15.14,7.77,2.59,62.22,2.8,69.81-.66,7.28-3.31,21.73-27.97,21.88-28.22l1.91,1.12c-.61,1.04-14.95,25.52-22.87,29.12-4.21,1.91-21.38,2.79-37.95,2.79Z"/>
            </g>
            <g>
              <path class="cls-11" d="m195.26,209.64c-4.54,7.34-18.48,29.21-23.72,29.78-6.29.7-48.25,1.4-59.43-1.4-7.73-1.93-17.12-11.54-22.2-17.29,10.33-5.27,18.19-9.43,18.94-10.83,1.54-2.86,2.92-26.53,3.6-40.04.28-5.54.44-9.37.44-9.37l27.89-7.77,24.47,18.18,4.19,33.57s11.4,2.16,25.82,5.17Z"/>
              <path class="cls-9" d="m169.44,204.47c-13.52,0-34.5-9.33-40.09-13.06-3.85-2.57-12.12-14.42-16.9-21.55.28-5.54.44-9.37.44-9.37l27.89-7.77,24.47,18.18,4.19,33.57Z"/>
            </g>
            <g>
              <path class="cls-11" d="m113.5,90.26s19.58-17.71,27.5-19.11c7.92-1.4,34.96-.93,34.96-.93,0,0,13.05,38.69,14.45,51.74,1.4,13.05-3.73,61.53-3.73,61.53,0,0-16.78,6.53-24.24,6.53s-24.24-6.53-29.37-11.65c-5.13-5.13-14.45-19.58-14.45-19.58l-6.99-26.88,6.53-3.73s-2.8-16.94-3.26-22.53c-.47-5.59-1.4-15.38-1.4-15.38Z"/>
              <path class="cls-5" d="m88.02,97.09s2.49,17.09,4.66,20.2,12.12,18.02,12.12,18.02c0,0,12.74-5.9,13.36-7.15.62-1.24-4.66-37.91-4.66-37.91,0,0-11.5,4.35-14.3,4.97-2.8.62-11.19,1.86-11.19,1.86Z"/>
              <path class="cls-5" d="m178.57,60.46c0,2.18-2.61,9.75-2.61,9.75,0,0-28.28-.15-34.96.94-6.68,1.08-25.01,16.93-27.5,19.11-2.49,2.18-20.82,6.83-25.49,6.83s-9.01-2.49-9.01-2.49c0,0,4.35-21.13,7.15-25.79,2.8-4.66,47.39-27.12,52.68-28.67,5.28-1.56,34.45,5.09,34.45,5.09,0,0,5.28,13.05,5.28,15.23Z"/>
              <path class="cls-15" d="m167.12,142.77c-3.15,0-6.14-.59-6.29-.62-.6-.12-.99-.7-.87-1.3.12-.6.7-.99,1.3-.87.04,0,4.53.89,8.04.45,2.58-.32,5.79-2.46,7.16-3.45l-13.17-29.96c-.25-.56,0-1.21.57-1.46.56-.24,1.21,0,1.46.57l13.86,31.54-.66.53c-.2.16-4.95,3.93-8.94,4.43-.8.1-1.63.14-2.45.14Z"/>
              <path class="cls-14" d="m144.74,121.78c.47,3.83-1.21,7.2-3.77,7.51-2.56.32-5.01-2.53-5.48-6.37-.47-3.83,1.21-7.2,3.77-7.51,2.56-.32,5.01,2.53,5.48,6.37Z"/>
              <path class="cls-14" d="m133.7,121.44c-.15,0-.29-.03-.43-.09-.56-.24-.82-.89-.58-1.45.06-.14,1.45-3.34,5.1-4.69,2.95-1.09,6.46-.64,10.4,1.33.55.27.77.94.5,1.49-.27.55-.94.77-1.49.49-3.36-1.68-6.26-2.1-8.62-1.25-2.75,1-3.85,3.47-3.86,3.49-.18.42-.59.67-1.02.67Z"/>
              <path class="cls-14" d="m179.85,110.97c.47,3.83-1.21,7.2-3.77,7.51-2.56.32-5.01-2.53-5.48-6.37-.47-3.83,1.21-7.2,3.77-7.51,2.56-.32,5.01,2.53,5.48,6.37Z"/>
              <path class="cls-14" d="m168.82,110.63c-.14,0-.29-.03-.43-.09-.56-.24-.83-.89-.59-1.45.06-.14,1.45-3.34,5.1-4.69,2.96-1.09,6.46-.64,10.4,1.33.55.27.77.94.5,1.49-.27.55-.94.77-1.49.5-3.38-1.69-6.29-2.11-8.65-1.24-2.76,1.02-3.81,3.45-3.82,3.47-.18.42-.59.68-1.02.68Z"/>
              <path class="cls-7" d="m148.31,100.51l2.18,6.53s-18.02,2.49-20.82,4.35-7.15,4.04-7.15,4.04c0,0,1.86-7.15,4.66-9.32,2.8-2.18,21.13-5.59,21.13-5.59Z"/>
              <path class="cls-7" d="m164.78,96.47l2.49,5.28s10.26-5.28,12.74-5.28,4.66.31,4.66.31c0,0-3.73-5.28-5.9-4.97-2.18.31-13.98,4.66-13.98,4.66Z"/>
              <path class="cls-9" d="m135.26,149.48s-.1,0-.15,0l-9.32-1.24c-.61-.08-1.03-.64-.95-1.24.08-.61.64-1.03,1.24-.95l9.32,1.24c.61.08,1.03.64.95,1.24-.07.56-.55.96-1.1.96Z"/>
              <path class="cls-9" d="m136.5,153.83h-10.26c-.61,0-1.11-.5-1.11-1.11s.5-1.11,1.11-1.11h10.26c.61,0,1.11.5,1.11,1.11s-.5,1.11-1.11,1.11Z"/>
              <path class="cls-9" d="m186.84,135.49c-.26,0-.52-.09-.72-.27-.46-.4-.51-1.1-.11-1.56l4.04-4.66c.4-.46,1.1-.51,1.56-.11.46.4.51,1.1.11,1.56l-4.04,4.66c-.22.25-.53.38-.84.38Z"/>
              <path class="cls-9" d="m187.77,140.16c-.25,0-.49-.08-.7-.25-.47-.39-.54-1.08-.16-1.56l2.8-3.42c.39-.47,1.08-.54,1.56-.16.47.39.54,1.08.16,1.56l-2.8,3.42c-.22.27-.54.41-.86.41Z"/>
              <path class="cls-1" d="m152.66,155.98s8.16,6.53,10.49,6.06c2.33-.47,12.82-2.16,16.66-4.89,1.34-3.2,1.81-9.21,1.81-9.21,0,0-11.95,5.01-18.24,6.18-6.29,1.17-10.72,1.86-10.72,1.86Z"/>
              <path class="cls-9" d="m167.11,174.5c-.29,0-.57-.11-.79-.33-.43-.44-.42-1.14.02-1.57.15-.14,3.68-3.55,8.55-4.94,4.57-1.3,7.34,1.41,7.46,1.53.43.43.43,1.13,0,1.57-.43.43-1.13.43-1.57,0-.07-.07-2-1.89-5.29-.96-4.34,1.23-7.58,4.36-7.61,4.39-.22.21-.49.32-.77.32Z"/>
              <path class="cls-7" d="m178.57,60.46c0,2.18-2.61,9.75-2.61,9.75,0,0-28.28-.15-34.96.94-6.68,1.08-25.01,16.93-27.5,19.11-2.49,2.18-20.82,6.83-25.49,6.83s-9.01-2.49-9.01-2.49c0,0,19.12-2.95,23.77-5.28,4.66-2.33,25.18-19.58,29.84-23.77,4.66-4.2,20.5-7,26.57-8.86,6.06-1.87,14.1-11.46,14.1-11.46,0,0,5.28,13.05,5.28,15.23Z"/>
              <g>
                <path class="cls-13" d="m127.49,124c-.47,0-.91-.3-1.06-.78-.18-.58.14-1.2.73-1.39l59.67-18.65c.58-.18,1.2.14,1.39.73.18.58-.14,1.2-.73,1.39l-59.67,18.65c-.11.03-.22.05-.33.05Z"/>
                <path class="cls-13" d="m133.8,135.7l-7.64-13.46,30.58-9.57-.18,16.17-22.76,6.86Zm-4.36-12.17l5.41,9.54,19.51-5.88.13-11.49-25.05,7.84Z"/>
                <polygon class="cls-14" points="109.15 129.73 126.79 122.19 129.97 126.62 112.1 132.06 109.15 129.73"/>
                <path class="cls-13" d="m173.14,121.57l-7.41-12.23,24.07-7.03.19,13.93-16.84,5.33Zm-4.03-10.91l5.02,8.28,13.61-4.31-.12-9.38-18.51,5.4Z"/>
              </g>
              <path class="cls-11" d="m111.64,131.9l-5.43-4.11c-2.03-.97-4.46-.48-5.95,1.2l-3.44,3.88c-1.02,1.15-1.46,2.71-1.19,4.22l2.26,12.85c.2,1.12.77,2.14,1.62,2.9l8.78,7.79c1.59,1.41,3.89,1.67,5.76.65l4.58-2.5-6.99-26.88Z"/>
              <path class="cls-9" d="m117.23,152.66c-.29,0-.58-.12-.8-.34-4.46-4.68-11.72-8.12-11.79-8.15-.55-.26-.79-.92-.53-1.47.26-.55.92-.79,1.47-.53.31.15,7.7,3.64,12.45,8.63.42.44.4,1.14-.04,1.57-.21.2-.49.31-.76.31Z"/>
              <path class="cls-9" d="m108.61,154.06c-.13,0-.26-.02-.38-.07-.57-.21-.87-.85-.66-1.42.18-.5,1.88-4.92,4.59-6.01.57-.23,1.21.05,1.44.62.23.57-.05,1.21-.62,1.44-1.53.61-2.96,3.69-3.33,4.72-.16.45-.59.72-1.04.72Z"/>
              <polygon class="cls-9" points="106.21 127.79 116.07 160.18 118.63 158.78 112.34 132.21 106.21 127.79"/>
              <path class="cls-15" d="m148.62,157.56c-.53,0-1-.39-1.09-.93-.1-.6.31-1.17.92-1.27.15-.02,15.54-2.5,21.61-4.32,6.07-1.82,12.23-4.58,12.29-4.61.56-.25,1.21,0,1.46.56.25.56,0,1.21-.56,1.46-.06.03-6.35,2.85-12.57,4.71-6.21,1.86-21.26,4.28-21.9,4.38-.06,0-.12.01-.18.01Z"/>
              <path class="cls-15" d="m148.31,159.42c-.53,0-1-.38-1.09-.93-.37-2.21,1.21-4.83,1.4-5.12.32-.52,1.01-.67,1.52-.35.52.32.68,1.01.35,1.52-.35.56-1.29,2.41-1.09,3.58.1.6-.31,1.17-.91,1.27-.06.01-.12.02-.18.02Z"/>
            </g>
            <g>
              <path class="cls-8" d="m145.25,267.71c-5.25-.15-10.36-.67-15.32-1.5-27.17-4.55-49.75-18.57-66.51-32.83-.06-.05-.1-.09-.15-.13l45.58-23.36h0c.21.53,5.6,14.44,14.43,29.51,1.73,2.95,3.59,5.94,5.56,8.9,4.84,7.2,10.36,14.13,16.41,19.41Z"/>
              <path class="cls-8" d="m230.85,218.39c.16,1.77.78,8.37,1.62,17.84-2.4,2.1-4.97,4.2-7.74,6.27-13.94,10.43-32.58,20.01-56.38,23.68-2.56.39-5.19.73-7.88.97,1.96-4.66,4.29-11.26,6.16-19.6.55-2.48,1.06-5.11,1.51-7.89,1.6-9.94,2.39-21.76,1.3-35.19l.29.06,25.26,5.54,27.83,6.09,7.99,1.75s.01.16.05.47Z"/>
              <path class="cls-12" d="m168.34,267.53c-.19,0-.39-.04-.58-.13-.67-.32-.95-1.12-.63-1.8,3.44-7.2,5.55-12.29,6.26-15.13.27-1.05.54-2.46.86-4.3.5-2.9,1.02-6.64,1.55-11.1,1.21-10.02,2.09-20.56,2.1-20.67.06-.74.72-1.29,1.45-1.23.74.06,1.29.71,1.23,1.45,0,.11-.89,10.7-2.11,20.77-.53,4.51-1.06,8.29-1.57,11.24-.33,1.93-.61,3.36-.9,4.5-.75,3.01-2.92,8.27-6.44,15.64-.23.48-.71.77-1.22.77Z"/>
              <path class="cls-12" d="m129.93,267.56c-.33,0-.66-.12-.92-.36-.77-.72-1.4-1.38-1.86-1.97-1.55-1.95-4.9-7.42-10.25-16.73-1.84-3.2-3.72-6.53-5.5-9.71-5-8.92-9.28-16.75-9.32-16.83-.36-.65-.12-1.47.54-1.83.65-.36,1.47-.12,1.83.54.04.08,4.31,7.9,9.31,16.8,1.78,3.17,3.65,6.49,5.49,9.68,5.2,9.07,8.57,14.58,10.02,16.39.38.48.93,1.06,1.6,1.68.54.51.57,1.36.06,1.9-.27.28-.62.43-.98.43Z"/>
              <path class="cls-12" d="m224.72,243.84c-.68,0-1.26-.51-1.34-1.21-1.3-12.35-2.04-21.12-2.05-21.21-.06-.74.49-1.39,1.23-1.45.75-.06,1.39.49,1.45,1.23,0,.09.74,8.83,2.04,21.15.08.74-.46,1.4-1.2,1.48-.05,0-.1,0-.14,0Z"/>
            </g>
          </g>
        </g>
      </g>
    </g>
  </g>
</svg>