<?xml version="1.0" encoding="UTF-8"?>
<svg id="Layer_2" data-name="Layer 2" xmlns="http://www.w3.org/2000/svg" xmlns:xlink="http://www.w3.org/1999/xlink" viewBox="0 0 292 293">
  <defs>
    <style>
      .cls-1, .cls-2 {
        fill: #fff;
      }

      .cls-3 {
        fill: #b0775c;
      }

      .cls-4 {
        fill: #392f2a;
      }

      .cls-5 {
        fill: #f9ead9;
      }

      .cls-6 {
        fill: #444f63;
      }

      .cls-2 {
        filter: url(#drop-shadow-1);
      }

      .cls-7 {
        clip-path: url(#clippath);
      }

      .cls-8 {
        fill: #a0634a;
      }

      .cls-9 {
        fill: #4f6075;
      }

      .cls-10 {
        fill: #39302b;
      }

      .cls-11 {
        fill: #35231f;
      }

      .cls-12 {
        fill: #965a42;
      }
    </style>
    <filter id="drop-shadow-1" filterUnits="userSpaceOnUse">
      <feOffset dx="3" dy="3"/>
      <feGaussianBlur result="blur" stdDeviation="5"/>
      <feFlood flood-color="#000" flood-opacity=".42"/>
      <feComposite in2="blur" operator="in"/>
      <feComposite in="SourceGraphic"/>
    </filter>
    <clipPath id="clippath">
      <circle class="cls-5" cx="142.38" cy="143.43" r="112.77" transform="translate(-59.72 142.69) rotate(-45)"/>
    </clipPath>
  </defs>
  <g id="diverse_portrait_people_icons" data-name="diverse portrait people icons">
    <g>
      <circle class="cls-2" cx="142.71" cy="143.34" r="130.7"/>
      <g>
        <circle class="cls-5" cx="142.38" cy="143.43" r="112.77" transform="translate(-59.72 142.69) rotate(-45)"/>
        <g class="cls-7">
          <g>
            <g>
              <path class="cls-9" d="m202.89,234.33c2.62.92,5.2,1.83,7.61,2.67-1.74.81-3.53,1.61-5.38,2.42-.17.08-.34.15-.5.21-3.3,1.45-6.76,2.87-10.35,4.25-14.82,5.67-31.78,10.44-48.13,11.21-9.35.45-29.54,1.4-38-1.33-15.63-5.06-27.7-8.75-40.18-22.77-.59-.66-1.6-.75-2.4-1.12.66-.35,1.32-.7,1.98-1.04,19.16-9.97,36.94-19.99,36.94-19.99,0,0,64.75,11.62,70.09,14.64,1.88,1.07,6.88,3.05,13.03,5.33h.01c4.71,1.76,10.08,3.69,15.26,5.52h.01Z"/>
              <path class="cls-6" d="m145.34,255.37c-2.65-7.65-5.14-14.38-5.16-14.45l1.56-.58c.02.07,2.52,6.81,5.18,14.48l-1.58.55Z"/>
              <path class="cls-6" d="m205.12,239.42c-.17.08-.34.15-.5.21-3.3,1.45-6.76,2.87-10.35,4.25-3.52-7.73-6.49-14.68-6.65-15.07,4.71,1.75,10.08,3.68,15.26,5.51h.01s0,.03.01.06c.78,1.55,1.52,3.24,2.22,5.05Z"/>
            </g>
            <g>
              <path class="cls-10" d="m194.85,101.33c-.71.94-4.93,7.5-4.93,9.6s.47,5.48.24,7.19c-.24,1.71-5.73,3.37-5.73,3.37l-69.01,10.5-10.93,1.66-5.55-4.56s-2.24-3.15-2.24-7.61,2.01-8.92,1.12-10.79c-.88-1.87-2.76-2.81-2.53-5.38.23-2.58-.7-6.56-2.81-8.2-2.11-1.64-6.56-4.68-5.86-10.78.7-6.09,1.05-4.92,2.87-7.26,1.81-2.34,2.51-13.12,6.26-16.16,3.28-2.66,6.36-2.81,9.13-4.69.4-.27.8-.58,1.18-.93,3.04-2.81,5.62-11.01,11.01-11.24,5.38-.23,14.81,3.28,17.01,2.81,2.19-.47,5.94-5.62,8.28-6.56,2.34-.94,4.45-2.58,7.73,0,3.28,2.58,5.38,8.43,11.94,9.13,6.56.7,8.9,1.87,9.6,2.34.71.47,8.67-2.11,11.48.93,2.81,3.05,3.28,11.24,5.62,13.58,2.34,2.34,6.33,6.09,6.09,7.97-.23,1.87-1.87,4.92-1.87,7.26s1.19,6.56,1.88,7.73c.7,1.17.71,9.13,0,10.07Z"/>
              <path d="m115.41,131.99l-10.93,1.66-5.55-4.56s-2.24-3.15-2.24-7.61,2.01-8.92,1.12-10.79c-.88-1.87-2.76-2.81-2.53-5.38.23-2.58-.7-6.56-2.81-8.2-2.11-1.64-6.56-4.68-5.86-10.78.7-6.09,1.05-4.92,2.87-7.26,1.81-2.34,2.51-13.12,6.26-16.16,3.28-2.66,6.36-2.81,9.13-4.69.06,1.52-.31,3.29-1.21,5.33-1.3,2.96-4.02,5.73-3.3,8.88.47,2.07,2.19,3.19,4.24,3.48,3.93.57,6.66,4.27,6.28,8.22-.37,3.82-.86,7.63-1.47,11.43,1.59.36,3.33.04,4.68-.87,2.14,1.43,1.05,4.73,1.55,7.26.29,1.45,1.17,2.7,1.85,4.02,4.16,7.96,1.14,17.58-2.1,26.01Z"/>
            </g>
            <path class="cls-4" d="m212.13,236.24c-.53.25-1.08.5-1.63.76-1.74.81-3.53,1.61-5.38,2.42-.17.08-.34.15-.5.21-.95-3.12-1.6-4.93-1.72-5.26-.01-.02-.01-.03-.01-.04h-.01c3.39.17,6.55.95,9.25,1.91Z"/>
            <path class="cls-4" d="m67.96,230.99c-.81-.37-1.6-.75-2.4-1.12-.18-.09-.37-.18-.55-.27.81-.27,1.65-.53,2.53-.77.02,0,.03-.01.06-.01,0,0,.13.75.36,2.18Z"/>
            <g>
              <path class="cls-3" d="m163.69,221.49s-16.99,18.58-23.07,18.77c-14.76-2.81-36.13-31.42-36.13-31.42,2.04-9.68,2.33-26.75,2.25-38.52-.06-7.45-.26-12.78-.26-12.78,0,0,35.95-16.98,52.24,18.55.77,1.66,1.49,3.45,2.16,5.35.38,5.6.97,13.94,1.51,21.56.27,3.89.54,7.59.75,10.64.33,4.68.56,7.85.56,7.85Z"/>
              <path class="cls-8" d="m163.13,213.64c-6.97,1.21-26.65,1.43-30.5-.5-4.32-2.16-22.71-24.88-24.34-32.99-.43-2.18-.99-5.76-1.56-9.84-.06-7.45-.26-12.78-.26-12.78,0,0,39.41-18.61,54.39,23.9.58,8.45,1.62,23.16,2.26,32.2Z"/>
            </g>
            <g>
              <path class="cls-3" d="m108.39,158.25l-2.4.35-3.24.48c-2.33.34-4.58-.93-5.51-3.09l-7.41-17.35c-.49-1.15-.44-2.45.13-3.56l2.39-4.59c1-1.92,3.3-2.75,5.29-1.92l7.22,3,3.52,26.69Z"/>
              <polygon class="cls-8" points="108.39 158.25 105.99 158.6 97.65 128.56 104.87 131.56 108.39 158.25"/>
              <path class="cls-12" d="m103.02,148.6c-.31,0-.59-.2-.67-.51-1.08-3.87-6.63-6.99-6.69-7.02-.34-.19-.46-.61-.27-.95.19-.34.61-.46.95-.27.25.14,6.12,3.43,7.36,7.87.1.37-.11.76-.49.86-.06.02-.13.03-.19.03Z"/>
              <path class="cls-12" d="m98.94,150.05c-.12,0-.24-.03-.35-.09-.33-.19-.45-.62-.26-.95.05-.09,1.24-2.13,3.88-3.13.36-.14.77.04.9.41.14.36-.04.76-.41.9-2.15.82-3.15,2.5-3.16,2.52-.13.22-.37.35-.61.35Z"/>
            </g>
            <g>
              <path class="cls-6" d="m140.96,240.64s-11.18-12.12-16.98-21.08l-7.79,10.54s14.34,10.01,24.77,10.54Z"/>
              <path class="cls-9" d="m105.86,198.83s-4.71,11.89,18.13,20.73l-17.51,21.08s-11.51-5.27-19.93-21.08c0,0,12.32-11.26,19.31-20.73Z"/>
              <path class="cls-6" d="m106.71,241.66l-.58-.27c-.48-.22-11.87-5.57-20.32-21.45l1.47-.78c7.12,13.38,16.59,19.13,18.98,20.42l17.08-20.57,1.28,1.07-17.91,21.57Z"/>
            </g>
            <path class="cls-9" d="m182.66,232.38l-8.08-17.81-10.01,11.03s10.71,6.07,18.09,6.78Z"/>
            <g>
              <path class="cls-6" d="m184.01,233.35l-1.43-.14c-7.47-.71-17.98-6.63-18.42-6.88l-.91-.51,11.56-12.75,9.2,20.28Zm-18.11-7.97c2.51,1.34,9.67,4.96,15.38,5.97l-6.93-15.28-8.44,9.31Z"/>
              <path class="cls-6" d="m140.96,240.64l22.17-21.97-.75-15.67s8.29,3.84,12.5,10.06c0,0-13.43,20.03-33.92,27.58Z"/>
            </g>
            <g>
              <path class="cls-3" d="m184.59,114.07s-.53,31.71-2.11,40.14c-1.59,8.43-14.23,39.53-17.92,41.11-.5.21-1.36.41-2.5.58-7.25,1.1-25.48,1.25-29.12-.58-4.22-2.11-22.13-24.24-23.71-32.15-1.58-7.9-4.36-31.6-4.36-31.6,0,0,5.59.86,7.53-9.51,1.29-6.91,3.16-17.92,3.16-17.92,0,0,10.54-9.48,14.23-15.28,0,0,18.97,1.06,25.82,0,6.85-1.05,14.76,2.64,16.87,4.75s12.12,20.47,12.12,20.47Z"/>
              <path class="cls-8" d="m184.59,114.07s-.53,31.71-2.11,40.14c-1.59,8.43-14.23,39.53-17.92,41.11-.5.21-1.36.41-2.5.58,1.47-3.33,14.68-33.58,15.68-48,1.05-15.27-5.27-54.29-5.27-54.29,2.11,2.11,12.12,20.47,12.12,20.47Z"/>
              <path class="cls-11" d="m139.15,133.75c0,3.41-1.79,6.17-4,6.17s-4-2.76-4-6.17,1.79-6.17,4-6.17,4,2.76,4,6.17Z"/>
              <path class="cls-11" d="m174.4,133.75c0,3.41-1.79,6.17-4,6.17s-4-2.76-4-6.17,1.79-6.17,4-6.17,4,2.76,4,6.17Z"/>
              <path class="cls-12" d="m154.58,156.72c-1.88,0-4-.27-6.13-1.09-.36-.14-.54-.54-.4-.9.14-.36.54-.54.9-.4,4.77,1.83,9.61.65,11.16.17l-3.44-27.3c-.05-.38.22-.73.61-.78.38-.05.73.22.78.61l3.58,28.42-.51.2c-.17.07-2.91,1.09-6.55,1.09Z"/>
              <path class="cls-10" d="m120.65,119.78s12.12.06,17.98,1.46c5.86,1.41,8.67-3.63,8.67-3.63,0,0-8.59-2.59-14.29-2.69-8.14-.15-12.36,4.86-12.36,4.86Z"/>
              <path class="cls-10" d="m185.05,120.69s-11.11.06-16.47,1.46c-5.37,1.41-7.94-3.63-7.94-3.63,0,0,7.87-2.59,13.09-2.69,7.46-.15,11.32,4.86,11.32,4.86Z"/>
              <path class="cls-1" d="m164.57,164.6c-.56,4.72-3.69,6.12-3.69,6.12,0,0-14.58,1.77-19.91.55-5.33-1.23-9.05-8.15-9.05-8.15,1.41,1.13,3.1,2.28,4.36,2.39,2.46.22,18.79-2.91,28.29-.91Z"/>
              <path class="cls-12" d="m140.96,180.03c-.32,0-.61-.22-.68-.55-.08-.38.15-.75.53-.83.7-.15,17.17-3.77,23.18-.88.35.17.49.58.33.93-.17.35-.59.49-.93.33-5.57-2.67-22.1.95-22.27.99-.05.01-.1.02-.15.02Z"/>
              <g>
                <path class="cls-12" d="m127.22,151.84c-.15,0-.29-.05-.42-.14l-6.99-5.28c-.31-.23-.37-.67-.14-.98.23-.31.67-.37.98-.14l6.99,5.28c.31.23.37.67.14.98-.14.18-.35.28-.56.28Z"/>
                <path class="cls-12" d="m123.14,152.41c-.11,0-.23-.03-.34-.09l-6.02-3.33c-.34-.19-.46-.61-.27-.95.19-.34.61-.46.95-.27l6.02,3.33c.34.19.46.61.27.95-.13.23-.37.36-.61.36Z"/>
              </g>
              <path class="cls-12" d="m136.58,166.22c-.14,0-.26,0-.37-.01-1.19-.1-2.74-.94-4.74-2.54-1.51-1.22-2.68-2.42-2.73-2.47-.27-.28-.26-.72.01-.99.28-.27.72-.27.99.01.01.01,1.17,1.19,2.6,2.35,2.18,1.75,3.37,2.18,3.98,2.24.64.06,2.53-.16,4.93-.44,6.19-.71,16.56-1.91,23.44-.46.47.1.93.21,1.36.34.37.11.58.5.47.87-.11.37-.5.58-.87.47-.4-.12-.82-.22-1.26-.31-6.66-1.41-16.88-.23-22.99.48-2.31.27-3.95.46-4.85.46Z"/>
            </g>
          </g>
        </g>
      </g>
    </g>
  </g>
</svg>