<?xml version="1.0" encoding="UTF-8"?>
<svg id="Layer_2" data-name="Layer 2" xmlns="http://www.w3.org/2000/svg" xmlns:xlink="http://www.w3.org/1999/xlink" viewBox="0 0 292 292">
  <defs>
    <style>
      .cls-1, .cls-2 {
        fill: #fff;
      }

      .cls-3 {
        fill: #b0775c;
      }

      .cls-4 {
        fill: #f9ead9;
      }

      .cls-5 {
        fill: #844b36;
      }

      .cls-2 {
        filter: url(#drop-shadow-1);
      }

      .cls-6 {
        fill: #e67342;
      }

      .cls-7 {
        clip-path: url(#clippath);
      }

      .cls-8 {
        fill: none;
      }

      .cls-9 {
        fill: #ccc;
      }

      .cls-10 {
        fill: #d1572c;
      }

      .cls-11 {
        fill: #39302b;
      }

      .cls-12 {
        fill: #35231f;
      }

      .cls-13 {
        fill: #965a42;
      }
    </style>
    <filter id="drop-shadow-1" filterUnits="userSpaceOnUse">
      <feOffset dx="3" dy="3"/>
      <feGaussianBlur result="blur" stdDeviation="5"/>
      <feFlood flood-color="#000" flood-opacity=".42"/>
      <feComposite in2="blur" operator="in"/>
      <feComposite in="SourceGraphic"/>
    </filter>
    <clipPath id="clippath">
      <circle class="cls-8" cx="143.15" cy="142.88" r="112.77" transform="translate(-59.1 143.07) rotate(-45)"/>
    </clipPath>
  </defs>
  <g id="diverse_portrait_people_icons" data-name="diverse portrait people icons">
    <g>
      <circle class="cls-2" cx="143.29" cy="142.93" r="130.7"/>
      <g>
        <circle class="cls-4" cx="143.15" cy="143.06" r="112.77" transform="translate(-59.23 143.12) rotate(-45)"/>
        <g class="cls-7">
          <g>
            <g>
              <path class="cls-10" d="m79.31,213.36s6.05-10.59,12.61-13.62c6.56-3.03,27.24-9.58,27.24-9.58,0,0,60.53-2.52,66.08-.5,5.55,2.02,14.12,7.06,14.12,7.06l-2.52,12.11-117.53,4.54Z"/>
              <path class="cls-6" d="m157.94,284.15c-2.51.19-5.07.31-7.68.36-6.11.12-12.13-.15-18.06-.77-41.15-4.24-77.34-24.7-101.14-41.8,4.89-3.43,12.32-5.93,17.08-8.04,6.62-2.95,39.17-19.79,39.17-19.79l116.1-.08s16.19,3.68,23.55,6.61c5.61,2.25,18.17,4.8,27.73,7.19-13.91,19.85-44.41,52.41-96.75,56.31Z"/>
            </g>
            <g>
              <path d="m151.31,38.32s-22.42,4.48-28.83,7.05-14.09,3.84-17.94,8.97c-3.84,5.13-9.29,15.7-9.29,16.98s2.88,6.09,7.69,7.69c4.8,1.6,76.88.96,76.88.96,0,0,5.77-.32,8.01-2.56,2.24-2.24,5.45-10.25,5.45-11.21s-9.61-9.61-13.45-12.81c-3.84-3.2-13.77-7.37-18.26-9.93-4.48-2.56-10.25-5.13-10.25-5.13Z"/>
              <path class="cls-11" d="m102.42,111.46c.52-1.72-3.32-20.61-3.32-23.82s1.28-10.89,1.28-10.89l7.13-.24,72.31,3.44,6.62-2.38s1.71,13.28,1.39,16.16c-.32,2.88-1.28,19.22-1.28,19.22h-5.45l-74.8-.32-3.89-1.17Z"/>
            </g>
            <g>
              <path class="cls-3" d="m118.7,173.9l-2.94,24.2-28.45,16.03s16.76,13.16,26.33,15.37c9.57,2.21,56.66,5.15,63.28,2.94,6.62-2.21,26.49-18.4,26.49-18.4l-29.43-18.4-3.68-24.28-51.59,2.53Z"/>
              <path class="cls-13" d="m117.72,181.42s16.03,11.45,20.93,12.75c4.91,1.31,23.22,4.25,25.51,4.91,2.29.65,9.81-3.43,9.81-3.43l-3.68-24.28-51.59,2.53-.98,7.52Z"/>
            </g>
            <g>
              <path class="cls-10" d="m108.91,201.76s21.86,26.57,39.01,30.6c0,0,31.28-22.53,36.32-31.61,5.04-9.08,12.11-10.09,16.14-6.05,4.04,4.04,8.07,10.09,12.11,10.09s8.07,10.09,8.07,10.09c0,0-18.16,22.2-39.35,25.22-21.19,3.03-35.31,1.01-35.31,1.01,0,0-32.28,8.07-46.41-2.02-14.12-10.09-21.19-19.17-21.19-19.17,0,0-1.68-7.73,2.35-10.76,4.04-3.03,9.08-6.05,16.48-8.74,5.53-2.01,11.77,1.35,11.77,1.35Z"/>
              <path class="cls-11" d="m137.34,237.49c0,2.19-1.78,3.97-3.97,3.97s-3.97-1.78-3.97-3.97,1.78-3.97,3.97-3.97,3.97,1.78,3.97,3.97Z"/>
              <path class="cls-11" d="m163.05,235.05c0,2.19-1.78,3.97-3.97,3.97s-3.97-1.78-3.97-3.97,1.78-3.97,3.97-3.97,3.97,1.78,3.97,3.97Z"/>
              <path class="cls-9" d="m132.2,284.55c-.42,0-.77-.32-.8-.75-.24-3.75-.56-6.96-.92-9.28-1.01-6.59,1.89-33.86,2.01-35.01.05-.44.44-.76.88-.71.44.05.76.44.71.88-.03.28-3,28.22-2.02,34.6.47,2.99.77,6.78.94,9.43.03.44-.31.82-.75.85-.02,0-.03,0-.05,0Z"/>
              <path class="cls-9" d="m157.94,284.95s-.07,0-.11,0c-.44-.06-.74-.46-.68-.9.85-6.19,2.06-13.21,3.1-17.9,1.96-8.82-1.98-31.24-2.02-31.46-.08-.43.21-.85.65-.93.43-.08.85.21.93.65.17.93,4.04,22.96,2.01,32.09-1.03,4.64-2.24,11.62-3.08,17.77-.06.4-.4.69-.79.69Z"/>
            </g>
            <g>
              <path class="cls-3" d="m180.77,121.92c-.64,5.12-6.09,46.44-8.65,49.65-2.56,3.2-22.74,14.42-26.91,13.78-4.16-.65-27.22-10.57-29.46-14.1-2.24-3.52-9.94-42.28-9.94-47.73s1.69-47,1.69-47c0,0,26.51.24,32.28-.4,5.77-.65,12.17-3.2,15.69-3.85,3.52-.64,10.25,1.92,14.42,4.81,4.16,2.88,9.93,2.88,9.93,2.88l.02.45c.18,4.22,1.54,36.72.94,41.52Z"/>
              <path class="cls-1" d="m129.88,152.32s2.1,4.29,4.21,5.04c2.1.76,16.35,1.51,20.25.5,2.14-.56,4.05-5.21,4.05-5.21,0,0-17.29.42-20.56.42s-7.94-.76-7.94-.76Z"/>
              <path class="cls-5" d="m145.75,144.12c-.2,0-.39,0-.59-.02-3.49-.25-8.43-2.78-8.64-2.89l-.52-.27.09-.57c1.21-7.4,3.51-21.99,3.51-24.22,0-2.66-2.45-7.6-2.48-7.65-.2-.39-.04-.87.36-1.07.39-.2.87-.04,1.07.36.11.22,2.65,5.33,2.65,8.37,0,2.68-2.86,20.36-3.44,23.89,1.33.64,4.96,2.28,7.5,2.46,3.08.22,6.72-1.8,6.76-1.82.38-.22.87-.08,1.09.3.22.38.08.87-.3,1.09-.16.09-3.67,2.04-7.07,2.04Z"/>
              <path class="cls-5" d="m140.88,153.58c-3.44,0-6.27-.03-7.26-.11-2.94-.25-9.51-2.35-9.79-2.44-.42-.13-.65-.59-.52-1,.13-.42.59-.65,1-.52.07.02,6.67,2.14,9.43,2.37,2.22.18,14.92.08,21.02.02,1.8-.02,3.13-.03,3.66-.03,1.77,0,4.78-1.81,5.79-2.5.36-.25.86-.16,1.11.21.25.36.16.86-.21,1.11-.17.11-4.08,2.78-6.7,2.78-.52,0-1.85.01-3.64.03-3.76.03-9.36.08-13.91.08Z"/>
              <path class="cls-5" d="m146.72,159.8c-7.71,0-14.55-1.72-14.97-1.83-.43-.11-.68-.55-.57-.97.11-.43.54-.68.97-.57.15.04,14.95,3.77,25.27.27.42-.14.87.08,1.01.5.14.42-.08.87-.5,1.01-3.52,1.19-7.47,1.6-11.21,1.6Z"/>
              <path class="cls-11" d="m111.89,103.36s5.4-5.02,7.51-5.33c2.11-.31,15.36.79,15.36.79l-.17,5.93s-9.72-.96-13.24-1.25c-3.51-.29-9.47-.14-9.47-.14Z"/>
              <path class="cls-3" d="m106.3,112.63l-3.89-1.17c-1.48-.56-3.16-.04-4.06,1.26l-4.79,6.87c-.65.93-.8,2.12-.4,3.19l6.33,16.97c.6,1.6,2.28,2.53,3.95,2.18l5.25-1.11-2.88-17.3.48-10.89Z"/>
              <path class="cls-13" d="m107.26,135.05c-.31,0-.6-.18-.73-.48-1.84-4.28-7.77-10.09-7.83-10.15-.32-.31-.32-.81-.02-1.13.31-.32.81-.32,1.13-.02.25.25,6.22,6.09,8.19,10.67.17.41-.01.88-.42,1.05-.1.04-.21.06-.31.06Z"/>
              <path class="cls-13" d="m101.5,136.01c-.17,0-.34-.05-.48-.16-.35-.27-.42-.77-.15-1.12.29-.38,2.87-3.68,5.28-3.68.44,0,.8.36.8.8s-.36.8-.8.8c-1.22,0-3.11,1.87-4.01,3.05-.16.21-.4.31-.64.31Z"/>
              <path class="cls-3" d="m180.63,112.63l3.89-1.17c1.48-.56,3.16-.04,4.06,1.26l4.79,6.87c.65.93.8,2.12.4,3.19l-6.33,16.97c-.6,1.6-2.28,2.53-3.95,2.18l-5.25-1.11,2.28-17.3.12-10.89Z"/>
              <path class="cls-13" d="m180.29,134.54c-.1,0-.21-.02-.31-.06-.41-.17-.59-.64-.42-1.05,1.96-4.58,7.34-9.92,7.56-10.15.31-.31.82-.31,1.13,0,.31.31.31.82,0,1.13-.05.05-5.38,5.36-7.22,9.64-.13.3-.42.48-.73.48Z"/>
              <path class="cls-13" d="m185.44,136.01c-.24,0-.48-.11-.64-.31-.9-1.18-2.79-3.05-4.01-3.05-.44,0-.8-.36-.8-.8s.36-.8.8-.8c2.41,0,4.99,3.3,5.28,3.68.27.35.2.85-.15,1.12-.14.11-.31.16-.48.16Z"/>
              <path class="cls-12" d="m130.65,113.11c0,3.8-2.01,6.89-4.48,6.89s-4.48-3.08-4.48-6.89,2.01-6.89,4.48-6.89,4.48,3.08,4.48,6.89Z"/>
              <path class="cls-12" d="m119.99,110.7c-.18,0-.36-.06-.51-.19-.34-.28-.38-.78-.1-1.12.05-.06,5.36-6.27,12.85-.86.36.26.43.75.18,1.11-.26.36-.75.43-1.11.18-6.26-4.53-10.52.38-10.7.59-.16.19-.38.28-.61.28Z"/>
              <path class="cls-11" d="m176.15,103.66s-5.15-5.27-7.25-5.67c-2.1-.41-13.42-.09-13.42-.09l-2.07,6.08s9.76-.5,13.28-.63c3.52-.12,9.47.31,9.47.31Z"/>
              <path class="cls-12" d="m157.51,113.11c0,3.8,2.01,6.89,4.48,6.89s4.48-3.08,4.48-6.89-2.01-6.89-4.48-6.89-4.48,3.08-4.48,6.89Z"/>
              <path class="cls-12" d="m168.16,110.7c-.23,0-.45-.1-.61-.28h0c-.18-.21-4.44-5.12-10.7-.59-.36.26-.85.18-1.11-.18-.26-.36-.18-.85.18-1.11,7.48-5.42,12.8.79,12.85.86.28.34.24.84-.1,1.12-.15.12-.33.18-.51.18Z"/>
              <path class="cls-13" d="m115.59,133.61c-.18,0-.36-.06-.51-.19l-5.93-4.96c-.34-.28-.38-.79-.1-1.13.28-.34.79-.38,1.12-.1l5.93,4.97c.34.28.38.79.1,1.13-.16.19-.38.29-.61.29Z"/>
              <path class="cls-13" d="m116.39,139.54c-.17,0-.33-.05-.48-.16l-6.25-4.64c-.35-.26-.43-.76-.16-1.12.26-.35.76-.43,1.12-.16l6.25,4.64c.35.26.43.76.16,1.12-.16.21-.4.32-.64.32Z"/>
              <path class="cls-13" d="m169.89,133.93c-.32,0-.61-.19-.74-.5-.17-.41.03-.87.44-1.04l8.65-3.52c.41-.17.87.03,1.04.44.17.41-.03.87-.44,1.04l-8.65,3.52c-.1.04-.2.06-.3.06Z"/>
              <path class="cls-13" d="m169.57,139.38c-.29,0-.57-.16-.71-.43-.2-.39-.05-.87.34-1.08l6.73-3.52c.39-.2.87-.05,1.08.34.2.39.05.87-.34,1.08l-6.73,3.52c-.12.06-.25.09-.37.09Z"/>
              <path class="cls-13" d="m184.31,111.44s-.68,8.63-.68,10.77-3.39,19.06-3.39,19.06l-2.08-.48,2.67-18.08.08-10.21,3.4-1.05Z"/>
              <path class="cls-13" d="m106.3,112.63s-.08,12.78.59,15.14c.67,2.35,1.81,13.05,1.81,13.05l-2.4.49s-3.78-16.9-3.78-19.93-.1-9.92-.1-9.92l3.89,1.17Z"/>
              <path class="cls-13" d="m179.95,84.73l-17.4-5.3s-14.38.76-20.43,0c-6.05-.75-34.62-2.91-34.62-2.91,0,0,26.51.24,32.28-.4,5.77-.65,12.17-3.2,15.69-3.85,3.52-.64,10.25,1.92,14.42,4.81,4.16,2.88,9.93,2.88,9.93,2.88l.02.45.12,4.32Z"/>
              <path class="cls-12" d="m175.66,109.9h-64.06c-.44,0-.79-.36-.79-.79s.36-.79.79-.79h64.06c.44,0,.79.36.79.79s-.36.79-.79.79Z"/>
              <path class="cls-12" d="m124.98,126.34c-5.63,0-12.09-.28-12.5-.3l-.66-.03-2.58-18.05,31.5.36-.21.95c-.58,2.67-3.72,16.04-8.39,16.76-1.51.23-4.22.31-7.16.31Zm-11.77-1.86c2.95.12,14.96.56,18.69-.02,2.64-.41,5.5-8.78,6.86-14.57l-27.68-.31,2.13,14.91Z"/>
              <path class="cls-12" d="m162.86,126.34c-2.94,0-5.65-.08-7.16-.31-4.68-.72-7.81-14.09-8.39-16.76l-.21-.95,31.5-.36-2.58,18.05-.66.03c-.41.02-6.87.3-12.5.3Zm-13.79-16.45c1.36,5.79,4.22,14.17,6.86,14.57,3.73.57,15.74.14,18.69.02l2.13-14.91-27.68.31Z"/>
              <polygon class="cls-12" points="177.18 112.47 181.97 112.34 182.09 108.06 176 107.93 177.18 112.47"/>
              <polygon class="cls-12" points="110.42 112.47 102.36 112.34 102.18 108.05 110.76 107.93 110.42 112.47"/>
              <path d="m176.29,82.93c-.81,0-1.61-.1-2.38-.3-2.19-.58-4.14-1.7-6.03-2.78-1.32-.76-2.68-1.54-4.08-2.1-3.52-1.42-7.29-1.57-11.28-1.73-2.34-.09-4.76-.19-7.11-.56-5.27-.84-10.14-3.07-14.85-5.23l.66-1.45c4.62,2.11,9.39,4.29,14.44,5.1,2.26.36,4.63.45,6.92.54,3.96.16,8.05.32,11.82,1.84,1.5.61,2.91,1.41,4.27,2.2,1.88,1.08,3.66,2.1,5.64,2.63,2.02.53,4.45.18,6.05-.88.73-.48,1.64-1.35,1.84-2.73l1.58.23c-.23,1.56-1.1,2.88-2.54,3.83-1.38.91-3.17,1.4-4.97,1.4Z"/>
              <path d="m161.44,80.92c-10.33,0-20.57-3.95-29.08-7.22l.57-1.49c9.97,3.84,22.39,8.62,34.26,6.66,5.81-.96,11.29-3.47,16.58-5.9l.67,1.45c-5.39,2.47-10.96,5.03-16.99,6.03-2,.33-4.01.48-6.02.48Z"/>
              <path class="cls-13" d="m136.65,170.77c-.28,0-.56-.15-.7-.42-.21-.39-.06-.87.32-1.08.19-.1,4.62-2.45,8.99-2.28,2.83.11,6.69,1.85,6.85,1.92.4.18.58.65.4,1.06-.18.4-.65.58-1.06.4-.04-.02-3.74-1.68-6.26-1.78-3.92-.16-8.12,2.07-8.17,2.09-.12.06-.25.1-.38.1Z"/>
            </g>
          </g>
        </g>
      </g>
    </g>
  </g>
</svg>