<?xml version="1.0" encoding="UTF-8"?>
<svg id="Layer_2" data-name="Layer 2" xmlns="http://www.w3.org/2000/svg" xmlns:xlink="http://www.w3.org/1999/xlink" viewBox="0 0 292 292">
  <defs>
    <style>
      .cls-1 {
        fill: #517348;
      }

      .cls-2, .cls-3 {
        fill: #fff;
      }

      .cls-4 {
        fill: #82345d;
      }

      .cls-5 {
        fill: #f9ead9;
      }

      .cls-6 {
        clip-path: url(#clippath-1);
      }

      .cls-7 {
        fill: #759c7b;
      }

      .cls-8 {
        fill: #6d2931;
      }

      .cls-9 {
        fill: #b26974;
      }

      .cls-10 {
        opacity: .3;
      }

      .cls-3 {
        filter: url(#drop-shadow-1);
      }

      .cls-11 {
        fill: #591e26;
      }

      .cls-12 {
        fill: #eea489;
      }

      .cls-13 {
        clip-path: url(#clippath);
      }

      .cls-14 {
        fill: none;
      }

      .cls-15 {
        fill: #fed0b9;
      }

      .cls-16 {
        fill: #35231f;
      }

      .cls-17 {
        fill: #db8a75;
      }
    </style>
    <filter id="drop-shadow-1" filterUnits="userSpaceOnUse">
      <feOffset dx="3" dy="3"/>
      <feGaussianBlur result="blur" stdDeviation="5"/>
      <feFlood flood-color="#000" flood-opacity=".42"/>
      <feComposite in2="blur" operator="in"/>
      <feComposite in="SourceGraphic"/>
    </filter>
    <clipPath id="clippath">
      <circle class="cls-5" cx="142.38" cy="143.04" r="112.77"/>
    </clipPath>
    <clipPath id="clippath-1">
      <path class="cls-14" d="m161.66,266.69s-111.76-28.64-108.99-32.43c2.78-3.81,35.03-13.74,42.97-16.38,7.93-2.65,28.64-14.44,28.64-14.44l78.18-5.41s28.18,10.77,34.5,12.08c6.32,1.29,39.66,7.93,39.66,7.93l-114.97,48.64Z"/>
    </clipPath>
  </defs>
  <g id="diverse_portrait_people_icons" data-name="diverse portrait people icons">
    <g>
      <circle class="cls-3" cx="142.71" cy="143.09" r="130.7"/>
      <g>
        <circle class="cls-5" cx="142.38" cy="143.04" r="112.77"/>
        <g>
          <circle class="cls-5" cx="142.38" cy="143.04" r="112.77"/>
          <g class="cls-13">
            <g>
              <g>
                <path class="cls-15" d="m187.04,183.39l-14.49-50.98-3.45-1.71-36.29,48.85-.34,14.95s18.72,10.02,27.04,10.5c8.32.49,18.19-5.03,21.82-9.91,3.63-4.89,5.71-11.71,5.71-11.71Z"/>
                <path class="cls-12" d="m173.42,135.48s.21,31.13-2.5,37c-2.71,5.87-19.52,22.22-22.23,22.8-2.71.58-16.32-3.87-16.32-3.87l.44-11.85,37.05-55.6,3.57,11.53Z"/>
              </g>
              <g>
                <path class="cls-7" d="m68.15,227.08c10.39-3.78,22.94-7.68,27.49-9.2,4.11-1.37,11.68-5.21,18-8.58l.59-.32c.33-.18.64-.35.96-.53,3.12-1.68,5.81-3.18,7.44-4.08.48-.26.87-.48,1.14-.65.12-.06.21-.12.28-.16l.23-.13,23.81-1.65,1.11-.07,26.33-1.82.51-.03,26.42-1.83s.03.01.09.03c.12.05.41.16.83.32,1.76.67,5.88,2.23,10.69,4,5.9,2.17,12.85,4.67,17.76,6.26-11.03,13.88-28.24,30.62-51.6,39.19-3.46,1.27-7.05,2.35-10.79,3.23-2.15.5-4.33.93-6.57,1.29-.97.15-1.94.29-2.94.42-2.62.33-5.3.55-8.04.65-33.81,1.26-63.48-12.9-83.74-26.33Z"/>
                <g class="cls-10">
                  <g class="cls-6">
                    <g>
                      <path class="cls-2" d="m129.06,223.99c-33.82,0-67.68-1.08-101.26-3.22l.09-1.38c57.16,3.66,115.16,4.2,172.37,1.62,11.4-.51,21.66-1.14,31.74-3.65,10.94-2.72,21.31-7.65,31.34-12.41l.59,1.25c-10.09,4.79-20.52,9.74-31.6,12.5-10.2,2.54-20.53,3.18-32.01,3.69-23.66,1.07-47.46,1.6-71.27,1.6Z"/>
                      <path class="cls-2" d="m107.45,239.83c-29.75,0-59.48-2.18-88.85-8.25l.28-1.36c67.32,13.91,136.64,7.32,203.69.94,21.36-2.03,45.58-4.34,65.55-15.74l.69,1.2c-20.23,11.55-44.6,13.87-66.11,15.92-37.94,3.61-76.61,7.29-115.25,7.29Z"/>
                      <path class="cls-2" d="m81.25,253.84c-19.82,0-39.86-.9-59.38-5.1l.29-1.36c26.76,5.75,54.56,5.27,81.45,4.81l30.52-.53c29.65-.51,60.3-1.04,90.32-3.88,33.15-3.14,66.26-9.16,98.39-17.89l.36,1.34c-32.21,8.75-65.39,14.78-98.62,17.93-30.07,2.85-60.75,3.38-90.43,3.89l-30.52.53c-7.4.13-14.88.26-22.38.26Z"/>
                      <path class="cls-2" d="m106.07,270.04c-28.41,0-56.84-1.13-85.2-3.39l.11-1.38c93.8,7.48,188.27,2.55,280.79-14.64l.25,1.36c-64.66,12.01-130.27,18.05-195.95,18.05Z"/>
                      <path class="cls-2" d="m49.97,283.58c-11.72,0-23.48-.8-35.02-3.57l.32-1.35c19.27,4.63,39.28,3.69,58.62,2.79,82.71-3.88,166.58-8.15,249.27-12.71l.08,1.39c-82.69,4.56-166.56,8.84-249.28,12.71-7.92.37-15.94.75-23.99.75Z"/>
                      <path class="cls-2" d="m225.22,306.82l-.91-1.05c13.84-11.97,33.45-15.52,49.21-18.38l46.44-8.41.25,1.37-46.44,8.41c-15.6,2.83-35,6.34-48.55,18.06Z"/>
                    </g>
                  </g>
                </g>
                <path class="cls-1" d="m162.2,232.35l-1.15-3.1-.66-1.81-.3-7.83,10.69-1.01-.15,3.59-.12,2.91-1.08,25.95c-2.15.5-4.33.93-6.57,1.29-.97.15-1.94.29-2.94.42l2.27-20.41Z"/>
                <path class="cls-1" d="m214.39,201.72s-8.39,17.28-11.94,22.77c-3.55,5.48-11.1,9.93-11.1,9.93l-16.25-12.39-11.8.45-6.2,18.7s-16.45-5.36-22.51-8.97c-6.06-3.61-20.96-22.9-20.96-22.9l10.64-5.87,78.18-5.4,11.93,3.68Z"/>
                <path class="cls-4" d="m169.44,251.06c-2.15.5-4.33.93-6.57,1.29.8-12.21,1.87-26.92,1.87-26.92l5.78-.32,4.86-.26s2.44,11.08,4.85,22.99c-3.46,1.27-7.05,2.35-10.79,3.23Z"/>
                <path class="cls-4" d="m159.51,205.01s-1.21,10.88.58,14.61c1.79,3.73,4.64,5.81,4.64,5.81l10.64-.58s3.44-7.11,3.29-9.77c-.14-2.66-5.61-12.97-5.61-12.97l-13.55,2.9Z"/>
                <path class="cls-7" d="m185.59,176.62s6.29,2.9,8.66,5.37c2.37,2.47,11.7,21.58,11.7,21.58,0,0-5.86,16.98-16.6,22.39,0,0-9.67-8.13-10.69-10.89-1.02-2.76-5.61-12.97-5.61-12.97,0,0,12.63-10.49,13.99-18.72l-1.45-6.77Z"/>
                <path class="cls-7" d="m132.67,188.8s-3.97,0-6.1,3.29c-2.13,3.29-4.94,16.64-4.94,16.64,0,0,8.9,19.06,32.02,25.16l5.47-17.46.39-11.42s-17.95-5.08-27.04-10.5l.19-5.71Z"/>
              </g>
              <g>
                <path class="cls-8" d="m93.66,119.34c-1.67-1.19-16.38-11.72-18.93-15.16-2.9-3.92-.57-10.33-.47-10.6l2.6.97-1.3-.48,1.3.48c-.54,1.46-1.57,5.73.1,7.98,1.94,2.61,13.88,11.39,18.31,14.55l-1.61,2.26Z"/>
                <path class="cls-8" d="m181.68,140.48l-6.14-.24-14.54-5.18-55.64-19.8-16.31-5.81s-16.06-10.16-15.68-13.65c.39-3.47,11.91-31.73,16.37-36.07,4.45-4.36,49.3-11.26,55.87-10.98,6.58.29,10.26,6.88,10.26,6.88,0,0,8.42-.39,13.01,1.88,4.6,2.27,17.36,22.21,18.91,28.11.17.63.23,1.78.2,3.3-.22,12.61-6.31,51.56-6.31,51.56Z"/>
                <path class="cls-9" d="m87.41,72.68l6.19-8.67c1.38-1.93,3.51-3.2,5.86-3.48l47.84-5.86s-38.06,9.28-45.44,12.28c-7.39,3-14.45,5.74-14.45,5.74Z"/>
                <path class="cls-11" d="m181.68,140.48l-6.14-.24-14.54-5.18-4.65-24.29s10.69-12.92,13.35-13.06c2.67-.15,14.52,4.25,14.52,4.25l3.78-13.05c-.22,12.61-6.31,51.56-6.31,51.56Z"/>
                <path class="cls-11" d="m135.14,79.46l-29.78,35.79-16.31-5.81s-16.06-10.16-15.68-13.65c0,0,20.72-19.73,26.09-20.45,5.37-.73,35.68,4.11,35.68,4.11Z"/>
                <path class="cls-15" d="m165.35,135.44s-1.71,15.37-3.07,22.28c-1.37,6.9-23.01,27.11-26.88,27.56-3.86.45-19.47-4.51-24.36-8.14-4.89-3.63-20.74-59.17-21.22-62.76-.24-1.72-.31-4.84-.27-8.11.03-3.53.21-7.24.46-9.5.49-4.36,8.82-13.12,13.79-15.51,4.95-2.38,31.34-1.8,31.34-1.8,0,0,14.41,26.3,17.16,28.07,2.73,1.77,9.47,1.93,9.47,1.93l3.58,25.97Z"/>
                <path class="cls-11" d="m110.21,107.4s1.5,2.37,3.87,2.86c2.37.48,13.96-4.62,16.67-5.2,2.71-.58,4.43-.17,4.43-.17,0,0-5.05-4.09-7.98-3.53-2.93.56-16.98,6.04-16.98,6.04Z"/>
                <path class="cls-11" d="m95.99,112.43s2.08,3.1,1.23,4.77-5.52,5.01-5.52,5.01l-1.67-5.81,5.95-3.97Z"/>
                <path class="cls-15" d="m165.35,135.43s6.29-1.06,7.84-1.77c1.55-.71,4.87-20.03,4.84-22.38s-5.16-9.1-7.77-9.39-8.48,7.58-8.48,7.58l3.57,25.96Z"/>
                <path class="cls-16" d="m128.09,119.04c.45,3.08-.67,5.8-2.51,6.06-1.84.27-3.69-2.01-4.14-5.09-.45-3.08.67-5.8,2.51-6.06,1.84-.27,3.69,2.01,4.14,5.09Z"/>
                <path class="cls-16" d="m102.44,128.08c.66,2.77-.14,5.33-1.79,5.72-1.65.39-3.52-1.53-4.17-4.3-.66-2.77.14-5.33,1.79-5.72s3.52,1.53,4.17,4.3Z"/>
                <path class="cls-12" d="m114.44,159.53c-1.68,0-3.4-.29-3.66-.33-.57-.1-.94-.64-.85-1.2.1-.57.64-.95,1.2-.85.9.16,3.53.49,4.84.16,1.94-.49,11.3-3.57,12.53-4.38,1.44-.95,8.26-4.87,8.55-5.04.5-.29,1.13-.11,1.42.38.29.5.11,1.13-.38,1.42-.07.04-7.05,4.06-8.44,4.97-1.63,1.08-11.44,4.23-13.16,4.66-.6.15-1.32.2-2.04.2Z"/>
                <path class="cls-12" d="m149.61,136.63c-.24,0-.47-.08-.67-.24-.44-.37-.5-1.03-.13-1.47l4.57-5.44c.37-.44,1.02-.5,1.47-.13.44.37.5,1.03.13,1.47l-4.57,5.44c-.21.24-.5.37-.8.37Z"/>
                <path class="cls-12" d="m152.37,141.56c-.22,0-.43-.07-.62-.21-.46-.34-.56-.99-.21-1.46l5.44-7.33c.34-.46.99-.56,1.46-.21.46.34.56.99.21,1.46l-5.44,7.33c-.2.27-.52.42-.84.42Z"/>
                <path class="cls-12" d="m121.82,164.59c-1.8,0-3.78-.47-3.87-.49-.56-.13-.9-.7-.77-1.25.13-.56.69-.9,1.25-.77.02,0,2.17.51,3.77.43,1.47-.08,8.26-2.92,9.38-3.5.33-.24,1.13-1.79,1.7-3.31.2-.54.8-.81,1.34-.61.54.2.81.8.61,1.34-.52,1.41-1.57,3.85-2.69,4.43-.62.32-8.1,3.61-10.23,3.72-.16,0-.32.01-.49.01Z"/>
                <path class="cls-12" d="m164.58,127.57s0,0,0,0c-.57,0-1.04-.47-1.03-1.05.04-5.83,4.26-12.17,4.44-12.44.32-.48.97-.6,1.44-.28.48.32.6.97.28,1.44-.04.06-4.05,6.1-4.08,11.29,0,.57-.47,1.03-1.04,1.03Z"/>
                <path class="cls-12" d="m170.14,123.78c-.22,0-.44-.07-.63-.21-1.02-.78-2.2-.79-3.34-.03-.48.32-1.12.19-1.44-.29-.32-.48-.19-1.12.29-1.44,1.88-1.25,4.03-1.21,5.76.1.46.35.54,1,.2,1.46-.21.27-.52.41-.83.41Z"/>
                <path class="cls-8" d="m88.18,68.2l-2.64-.85c1.06-3.28,2.68-6.74,4.8-10.28,2.26-3.76,6.08-6.24,10.49-6.79,14.31-1.78,38.86-4.73,42.4-4.51,5.15.33,10.03,6.36,10.23,6.62l-2.17,1.73c-1.19-1.48-4.99-5.37-8.24-5.58-2.39-.16-18.05,1.53-41.88,4.5-3.56.44-6.64,2.43-8.46,5.46-2.02,3.36-3.55,6.63-4.54,9.7Z"/>
                <path class="cls-16" d="m120.18,117.92c-.17,0-.34-.04-.5-.13-.5-.28-.68-.9-.41-1.4.03-.05,3.04-5.37,11.18-1.78.53.23.76.85.53,1.37-.23.53-.85.76-1.37.53-6.32-2.79-8.43.73-8.52.88-.19.34-.55.53-.91.53Z"/>
                <path class="cls-16" d="m95.07,128.68c-.07,0-.13,0-.2-.02-.56-.11-.93-.66-.82-1.22.02-.1.5-2.45,2.66-3.65,1.64-.91,3.73-.89,6.21.07.54.21.8.81.6,1.34-.21.54-.81.8-1.34.6-1.88-.72-3.38-.79-4.46-.19-1.3.72-1.62,2.21-1.62,2.22-.1.5-.53.84-1.02.84Z"/>
                <path class="cls-17" d="m111.17,149.54s-.02,0-.03,0c-2.27-.03-9.63-1.48-9.94-1.55l-1-.2.17-1c1.23-7.09,3.06-18.15,3.06-19.54,0-1.24-1.16-3.72-1.89-5-.29-.5-.11-1.13.38-1.42.5-.29,1.13-.11,1.42.38.22.39,2.17,3.84,2.17,6.03,0,1.8-2.23,14.87-2.92,18.89,2.53.48,7.06,1.3,8.56,1.31,1.3-.01,4.5-1.87,6.37-3.21.47-.33,1.12-.23,1.45.24.33.47.23,1.12-.24,1.45-.84.6-5.15,3.6-7.58,3.6Z"/>
                <path class="cls-12" d="m135.14,79.46s-25.95,3.57-30.7,6.58-11.38,11.07-11.38,11.07l-3.5,9.16c.03-3.53.21-7.24.46-9.5.49-4.36,8.82-13.12,13.79-15.51,4.95-2.38,31.34-1.8,31.34-1.8Z"/>
              </g>
            </g>
          </g>
        </g>
      </g>
    </g>
  </g>
</svg>