<?xml version="1.0" encoding="UTF-8"?>
<svg id="Layer_2" data-name="Layer 2" xmlns="http://www.w3.org/2000/svg" xmlns:xlink="http://www.w3.org/1999/xlink" viewBox="0 0 293 292">
  <defs>
    <style>
      .cls-1 {
        fill: #287056;
      }

      .cls-2 {
        fill: #fcf5f0;
      }

      .cls-3 {
        fill: #f9ead9;
      }

      .cls-4 {
        fill: #fff;
        filter: url(#drop-shadow-1);
      }

      .cls-5 {
        fill: #fcb552;
      }

      .cls-6 {
        fill: #eea489;
      }

      .cls-7 {
        clip-path: url(#clippath);
      }

      .cls-8 {
        fill: #fed0b9;
      }

      .cls-9 {
        fill: #3e8a72;
      }

      .cls-10 {
        fill: #39302b;
      }

      .cls-11 {
        fill: #35231f;
      }

      .cls-12 {
        fill: #db8a75;
      }
    </style>
    <filter id="drop-shadow-1" filterUnits="userSpaceOnUse">
      <feOffset dx="3" dy="3"/>
      <feGaussianBlur result="blur" stdDeviation="5"/>
      <feFlood flood-color="#000" flood-opacity=".42"/>
      <feComposite in2="blur" operator="in"/>
      <feComposite in="SourceGraphic"/>
    </filter>
    <clipPath id="clippath">
      <circle class="cls-3" cx="142.94" cy="143.09" r="112.77"/>
    </clipPath>
  </defs>
  <g id="diverse_portrait_people_icons" data-name="diverse portrait people icons">
    <g>
      <circle class="cls-4" cx="143.45" cy="143.03" r="130.7"/>
      <g>
        <circle class="cls-3" cx="142.94" cy="143.09" r="112.77"/>
        <g class="cls-7">
          <g>
            <g>
              <path class="cls-8" d="m77.09,215.89c1.55,1.36,19.63,17.09,25.26,18.22,3.38.68,16.64-.28,28.81-1.77,9-1.09,17.41-2.47,20.79-3.67,7.95-2.82,32.08-19.43,32.08-19.43,0,0-15.36-10.26-17.19-14.8-1.42-3.5-3.82-22.7-4.83-31.21l-.14-1.23c-.03-.21-.05-.41-.07-.61l-.02-.2c-.02-.13-.03-.25-.04-.37-.01-.12-.03-.23-.04-.33l-.05-.44c0-.09-.02-.17-.03-.24l-.08-.65-52.86,9.12s-1.66,29.14-3.44,31.58c-1.78,2.43-18.6,12.01-18.6,12.01l-9.54,4.02Z"/>
              <path class="cls-6" d="m105.23,199.86s18.9,5.01,25.31,2.28,32.43-30.62,32.43-30.62l-.97-8.29-.14-1.23-.07-.61-.02-.2-.04-.37-.04-.33-.05-.44-.03-.24-.08-.65-52.86,9.12s-1.66,29.14-3.44,31.58Z"/>
              <path class="cls-10" d="m104.64,79.49l2.04,7.54,7.89,6.21,48.29,37.97,18.37,2.72,18.19-43.34c-7.74-24.68-32.33-40.17-32.33-40.17-38.71-6.09-52.88,2.54-52.88,2.54l-9.56,26.54Z"/>
              <path d="m104.64,79.49l2.04,7.54,7.89,6.21c25.13-4.79,58.79-12.09,55.34-16.29-5.45-6.63-32.78-10.33-34.81-11.75-2.03-1.42-3.59-7.91-3.59-7.91,7.16-3.16,35.57-6.88,35.57-6.88-38.71-6.09-52.88,2.54-52.88,2.54l-9.56,26.54Z"/>
              <path class="cls-8" d="m98.94,170.64c.92,2.27,21.12,9.52,27.6,7.95,6.48-1.57,31.86-16.71,35.16-19.63,3.3-2.92,7.01-11.67,9.78-16.87,2.77-5.21,4.75-11.77,4.75-11.77l-7.93-1.97s-3.21-14.12-1.52-18.1c1.69-3.98,9.06-16.05,9.76-17.26.7-1.21-4.78-14.41-6.44-16.24-1.66-1.83-31.48-1.9-36.97-3.1-3.18-.7-8.04-3.24-11.56-5.25-2.37-1.35-4.14-2.47-4.39-2.63l-.03-.02s-8.34,16.33-11.77,25c-.51,1.3-.92,2.43-1.17,3.3-.07.26-.16.55-.24.86-2.18,7.85-8.54,32.4-8.98,37.27-.46,5.06,3.05,36.2,3.96,38.47Z"/>
              <path class="cls-6" d="m98.94,170.64s-.68-32.1-1.03-37.58c-.34-5.48,6.89-30.51,8.05-35.35,1.09-4.54,14-26.6,15.59-29.32.1-.18.16-.27.16-.27l-4.55-2.36-.03-.02s-8.34,16.33-11.77,25c-.51,1.3-.92,2.43-1.17,3.3-.07.26-.16.55-.24.86-2.18,7.85-8.54,32.4-8.98,37.27-.46,5.06,3.05,36.2,3.96,38.47Z"/>
              <path class="cls-12" d="m115.04,139.43c-.63,0-1.23-.04-1.79-.15-3.19-.59-6.14-5.59-6.26-5.8l-.2-.35,12.59-24.75c.18-.36.62-.51.99-.32.36.18.5.63.32.99l-12.22,24.03c.92,1.46,3.12,4.4,5.06,4.76,2.93.54,7.68-.86,7.73-.88.39-.12.8.11.91.49.12.39-.11.8-.49.91-.17.05-3.6,1.06-6.62,1.06Z"/>
              <path d="m133.53,105.01c.63.44,16.32.91,16.32.91l6,3.11s-2.77-7.18-4.8-8.6-19.86-1.85-19.86-1.85c0,0,.31,5.01,2.34,6.43Z"/>
              <path d="m103.96,94.9l.19.36s1.49.05,2.26,0c.54-.03,5.39,2.49,8.27,4.02,1.28.68,2.85.49,3.94-.47l1.49-1.31-10.49-6.7-4.24-.06c-.51,1.3-.92,2.43-1.17,3.3-.07.26-.16.55-.24.86Z"/>
              <path class="cls-6" d="m149.78,139.34c-.38,0-.71-.3-.73-.69-.03-.4.28-.75.69-.78l10.41-.65c.41-.03.75.28.78.69.03.4-.28.75-.69.78l-10.41.65s-.03,0-.05,0Z"/>
              <path class="cls-6" d="m148.45,142.91c-.38,0-.71-.3-.73-.69-.03-.4.28-.75.69-.78l9.64-.6c.41-.03.75.28.78.69.03.4-.28.75-.69.78l-9.64.6s-.03,0-.05,0Z"/>
              <path class="cls-8" d="m164.02,155.84l4.54,3.04c1.42.95,3.31.78,4.53-.42l13.23-13c.84-.83,1.23-2.02,1.02-3.19l-1.59-9.1c-.31-1.75-1.84-3.01-3.62-2.98l-3.01.06-2.94.05-12.16,25.54Z"/>
              <path class="cls-6" d="m169.48,148.13c-.21,0-.41-.09-.56-.25-.26-.31-.23-.77.08-1.03,4.97-4.29,9.81-4.09,10.02-4.07.4.02.71.37.69.77-.02.4-.36.71-.77.69h0s-4.48-.16-8.98,3.72c-.14.12-.31.18-.48.18Z"/>
              <path class="cls-6" d="m174.23,150.04c-.28,0-.54-.16-.67-.43-.5-1.09-1.54-2.7-2.28-2.9-.39-.1-.62-.5-.52-.9s.5-.63.9-.52c1.66.44,2.99,3.16,3.24,3.7.17.37,0,.8-.36.97-.1.05-.2.07-.31.07Z"/>
              <polygon class="cls-6" points="164.02 155.84 165.87 157.1 181.04 130.21 176.19 130.3 164.02 155.84"/>
              <path class="cls-11" d="m138.75,117.45c-.96,2.94-.09,5.86,1.94,6.52s4.45-1.19,5.41-4.13c.96-2.94.09-5.86-1.94-6.52-2.03-.66-4.45,1.19-5.41,4.13Z"/>
              <path class="cls-11" d="m106.98,108.82c-.54,3.05.72,5.82,2.82,6.19,2.1.37,4.24-1.79,4.79-4.84.54-3.05-.72-5.82-2.82-6.19-2.1-.37-4.24,1.79-4.79,4.84Z"/>
              <path class="cls-11" d="m147.43,116.52c-.18,0-.36-.06-.51-.19-.04-.03-3.58-3.06-8.67-2.16-.42.07-.82-.21-.9-.63-.07-.42.21-.82.63-.9,5.84-1.04,9.79,2.37,9.96,2.52.32.28.35.77.07,1.09-.15.17-.37.26-.58.26Z"/>
              <path class="cls-11" d="m115.77,106.98c-.18,0-.36-.06-.51-.19-.04-.03-3.58-3.06-8.67-2.16-.42.07-.82-.21-.9-.63-.07-.42.21-.82.63-.9,5.84-1.04,9.79,2.37,9.96,2.52.32.28.35.77.07,1.09-.15.17-.37.26-.58.26Z"/>
              <path class="cls-2" d="m106.86,151.59l-.48-6.44,15.03,4.06,6.44-.24s-2.73,4.84-4.06,5.25c-7.4,2.31-16.94-2.62-16.94-2.62Z"/>
              <path class="cls-12" d="m122.47,149.94c-2.6,0-14.03-3.23-18.05-4.49-.39-.12-.6-.53-.48-.92.12-.39.53-.6.92-.48,5.8,1.82,16.02,4.53,17.68,4.42,1.86-.12,8.28-1.27,8.34-1.28.4-.07.78.19.85.59.07.4-.19.78-.59.85-.27.05-6.56,1.18-8.51,1.3-.05,0-.1,0-.15,0Z"/>
            </g>
            <g>
              <path class="cls-9" d="m217.55,206.36l24.56,9.48c-13.96,11.44-38.69,28.78-67.84,36.57-7.43,1.97-15.15,3.34-23.06,3.81-3.84.25-7.73.28-11.66.07-6.92-.37-13.71-1.28-20.29-2.63-40.56-8.19-73.67-32.22-86.02-42.17l21.76-2.93,37.17-2.92h.07l84.24-1.57h.61s40.45,2.3,40.45,2.3Z"/>
              <path class="cls-8" d="m176.48,204.05h0c-.15.57-5.1,18.86-8.76,22.99-.55.61-1.64,2.33-3.1,4.84-3.27,5.55-8.37,14.92-13.41,24.34-3.84.25-7.73.28-11.66.07-6.92-.37-13.71-1.28-20.29-2.63-2.9-6.07-5.32-11.24-6.3-13.63-1.14-2.75-3.27-6.82-5.56-10.94-4.25-7.65-15.59-23.27-15.59-23.27l.44-.18,12.87-5.47,24.85,3.52,46.52.37Z"/>
              <path class="cls-5" d="m164.62,231.88c-3.27,5.55-8.37,14.92-13.41,24.34-3.84.25-7.73.28-11.66.07-6.92-.37-13.71-1.28-20.29-2.63-2.9-6.07-5.32-11.24-6.3-13.63-1.14-2.75-3.27-6.82-5.56-10.94,6.64,3.05,14.69,6.39,18.79,6.77,5.7.51,27.61-2.45,38.43-3.98Z"/>
              <path class="cls-1" d="m174.83,253.17h-.56c-.42,0-.76-.34-.76-.76,0-.11.02-.22.07-.31l13.13-42.99c.12-.4.54-.62.94-.5.4.12.62.54.5.94l-13.32,43.62Z"/>
            </g>
          </g>
        </g>
      </g>
    </g>
  </g>
</svg>