<?xml version="1.0" encoding="UTF-8"?>
<svg id="Layer_2" data-name="Layer 2" xmlns="http://www.w3.org/2000/svg" xmlns:xlink="http://www.w3.org/1999/xlink" viewBox="0 0 293 292">
  <defs>
    <style>
      .cls-1 {
        fill: #287056;
      }

      .cls-2 {
        fill: #d79612;
      }

      .cls-3 {
        fill: #f9ead9;
      }

      .cls-4 {
        fill: #725038;
      }

      .cls-5 {
        fill: #fff;
        filter: url(#drop-shadow-1);
      }

      .cls-6 {
        fill: #eea489;
      }

      .cls-7 {
        clip-path: url(#clippath);
      }

      .cls-8 {
        fill: none;
      }

      .cls-9 {
        fill: #fed0b9;
      }

      .cls-10 {
        fill: #663f25;
      }

      .cls-11 {
        opacity: .5;
      }

      .cls-11, .cls-12 {
        fill: #c17e08;
      }

      .cls-13 {
        fill: #3e8a72;
      }

      .cls-14 {
        fill: #35231f;
      }

      .cls-15 {
        fill: #db8a75;
      }
    </style>
    <filter id="drop-shadow-1" filterUnits="userSpaceOnUse">
      <feOffset dx="3" dy="3"/>
      <feGaussianBlur result="blur" stdDeviation="5"/>
      <feFlood flood-color="#000" flood-opacity=".42"/>
      <feComposite in2="blur" operator="in"/>
      <feComposite in="SourceGraphic"/>
    </filter>
    <clipPath id="clippath">
      <circle class="cls-8" cx="143.42" cy="142.88" r="112.77" transform="translate(-59.02 143.26) rotate(-45)"/>
    </clipPath>
  </defs>
  <g id="diverse_portrait_people_icons" data-name="diverse portrait people icons">
    <g>
      <circle class="cls-5" cx="143.66" cy="142.93" r="130.7"/>
      <g>
        <circle class="cls-3" cx="143.42" cy="143.06" r="112.77" transform="translate(-59.15 143.32) rotate(-45)"/>
        <g class="cls-7">
          <g>
            <path class="cls-13" d="m240.78,237.57c-6.21,2.77-14.1,6.13-22.86,9.52-2,.77-4.05,1.55-6.15,2.32-5.51,2.03-11.28,4.03-17.12,5.85-.51.16-1.02.32-1.54.47-2.54.79-5.09,1.53-7.64,2.23-1.86.51-3.71,1-5.55,1.45-11.82,2.95-23.32,4.75-33.01,4.36-10.8-.44-22.81-3.38-34.56-7.39-1.17-.41-2.33-.81-3.49-1.23-7.01-2.53-13.86-5.4-20.25-8.32-2.62-1.19-5.15-2.39-7.58-3.57-3.77-1.83-7.29-3.62-10.49-5.31,9.2-5.22,18.53-10.45,23.98-13.51,2.98-1.67,4.8-2.69,4.8-2.69l4.15-.85,13.91-2.87h.54s59.58-1.1,59.58-1.1l3.27-.06,10.65-.19,2.22-.04,4.98-.09s.18.08.51.26c3.58,1.74,25.02,12.25,41.64,20.76Z"/>
            <g>
              <path class="cls-2" d="m193.13,255.73c-2.54.79-5.09,1.53-7.64,2.23-1.86.51-3.71,1-5.55,1.45-11.82,2.95-23.32,4.75-33.01,4.36-10.8-.44-22.81-3.38-34.56-7.39-1.17-.41-2.33-.81-3.49-1.23l5.07-34.13h0s3.99-3,3.99-3l4.93-3.71,52.74-5.94.8.15,14.79,2.82.23,5.34,1.45,33.42.24,5.63Z"/>
              <path class="cls-11" d="m104.29,231.39s10.4,2.97,19.31,2.97,11.89,5.2,32.68,3.71c20.8-1.49,36.4-2.23,36.4-2.23l.74,10.4s-9.66-.74-28.23,1.49c-18.57,2.23-45.31,2.97-49.77,2.23-4.46-.74-17.08-5.2-17.08-5.2l5.94-13.37Z"/>
              <path class="cls-12" d="m121.43,194.2l-5.2,27.81s15.6,10.4,19.23,10.92c3.64.52,32.23-4.16,34.83-5.72,2.6-1.56,8.84-8.32,8.84-8.32l-3.2-23.04-54.5-1.65Z"/>
              <path class="cls-12" d="m194.66,255.26c-.51.16-1.02.32-1.54.47-2.54.79-5.09,1.53-7.64,2.23-1.86.51-3.71,1-5.55,1.45-.19-16.74-1.87-36.41-2.42-42.48-.11-1.22-.18-1.88-.18-1.88l3.45,1.82.77.41s0,0,0,.03l11.32,32.79,1.78,5.16Z"/>
            </g>
            <g>
              <path class="cls-1" d="m112.37,256.38c-1.17-.41-2.33-.81-3.49-1.23-7.01-2.53-13.86-5.4-20.25-8.32-2.62-1.19-5.15-2.39-7.58-3.57.42-.73.83-1.39,1.2-1.96,3.01-4.51,7.71-10.83,12.29-16.86,6-7.89,11.8-15.25,13.3-17.31,2.63-3.63,13.04-7.96,13.04-7.96l-.88,4.77-2.59,14.08h-.02s-3.44,2.97-3.44,2.97v.02h0c-.03.76-.73,15.87-1.58,35.37Z"/>
              <path class="cls-1" d="m217.93,247.08c-2,.77-4.05,1.55-6.15,2.32-5.51,2.03-11.28,4.03-17.12,5.85-.51.16-1.02.32-1.54.47-2.54.79-5.09,1.53-7.64,2.23-1.32-17-3.83-39.7-3.93-40.65,0-.03,0-.03,0-.03l-.77-.41-3.45-1.82-.93-6.53-1.05-7.33h0s-.68-4.77-.68-4.77c0,0,13.55,6.25,18.01,11.69,1.34,1.65,3.72,4.87,6.46,8.69,6.34,8.84,14.59,20.88,16.32,24,.45.81,1.33,3.09,2.46,6.28Z"/>
              <g>
                <rect class="cls-13" x="87.46" y="244" width="4.7" height="1.57" transform="translate(-167.16 200.56) rotate(-60.09)"/>
                <path class="cls-13" d="m96.12,235.35l-1.36-.78,4.46-7.8,1.36.78-4.46,7.8Zm8.93-15.58l-1.36-.79c.74-1.27,1.31-2.25,1.67-2.85.74-1.24,2.03-2.74,3.83-4.46l1.08,1.13c-1.7,1.63-2.9,3.02-3.57,4.14-.36.6-.92,1.57-1.65,2.83Z"/>
                <path class="cls-13" d="m117.07,207.08l-.95-1.25c1.56-1.2,2.82-2.1,3.43-2.54.25-.18.39-.28.39-.28l.89,1.29s-.13.09-.36.26c-.61.43-1.85,1.32-3.39,2.51Z"/>
              </g>
              <path class="cls-13" d="m211.04,249.65c-.51-1.55-1.85-4.27-4.09-8.32l1.37-.76c2.29,4.14,3.66,6.94,4.21,8.58l-1.49.49Zm-8.75-16.48c-.84-1.45-1.7-2.91-2.55-4.36l-2.21-3.77,1.35-.79,2.2,3.77c.85,1.45,1.7,2.91,2.55,4.36l-1.36.79Zm-9.42-16.34c-2.02-3.72-2.37-4.83-2.44-5.38-.03-.26-.3-1-2.02-2.36l.97-1.23c1.62,1.27,2.48,2.38,2.61,3.39.04.33.39,1.41,2.26,4.84l-1.38.75Zm-12.44-12.44c-2.94-1.45-5.34-2.46-5.37-2.47l-.15-.06-.11-.12.57-.56.3-.71s2.48,1.04,5.46,2.51l-.7,1.41Z"/>
            </g>
            <g>
              <path class="cls-9" d="m187.67,123.63l3.77-.53c1.91-.22,3.71.94,4.29,2.77l2.51,7.86c.25.79.25,1.63,0,2.42l-4.82,15.51c-.47,1.53-1.81,2.63-3.4,2.8l-4.79.4,2.43-31.23Z"/>
              <path class="cls-6" d="m186.19,146.81c-.09,0-.18-.01-.27-.04-.43-.15-.66-.62-.51-1.05,2.12-6.18,6.31-10.25,6.49-10.42.33-.31.85-.3,1.16.02.32.33.3.85-.02,1.16-.04.04-4.09,3.98-6.07,9.77-.12.34-.44.56-.78.56Z"/>
              <path class="cls-6" d="m188.01,142.99c-.44,0-.8-.34-.82-.78-.02-.45.33-.84.78-.86l4.64-.22c.47-.02.84.33.86.78.02.45-.33.84-.78.86l-4.64.22s-.03,0-.04,0Z"/>
            </g>
            <g>
              <path class="cls-9" d="m110.43,125.84l-5.11-.93c-1.96-.36-3.88.8-4.48,2.7l-2.53,8c-.24.75-.24,1.56-.02,2.32l4.63,15.59c.45,1.51,1.75,2.61,3.31,2.8l4.1.29.09-30.76Z"/>
              <path class="cls-6" d="m109.99,148.93c-.36,0-.7-.24-.79-.61-1.74-6.45-5.82-10.69-5.86-10.73-.32-.33-.31-.85.01-1.16.32-.32.84-.31,1.16.01.18.18,4.42,4.57,6.27,11.45.12.44-.14.89-.58,1.01-.07.02-.14.03-.21.03Z"/>
              <path class="cls-6" d="m104.45,146.42c-.4,0-.75-.29-.81-.69-.07-.45.23-.87.68-.94l4.48-.71c.45-.07.87.23.94.68.07.45-.23.87-.68.94l-4.48.71s-.09.01-.13.01Z"/>
            </g>
            <g>
              <path class="cls-4" d="m198.88,88.15c1.74,2.51,3.21,5.89,2.43,9.27-.78,3.38-4.25,6.85-4.25,6.85,0,0,.78,4.42-1.04,8.06-1.82,3.64-7.8,4.94-7.8,4.94l-3.11,40.03-1.05-.17-.19-.08-74.93-31.2s-10.14,4.42-15.6.52c-5.47-3.9,1.99-13,1.99-13-15.33-5.46-12.21-23.13-12.21-23.13-5.19-4.94-.52-13-.52-13-1.56-3.9,1.3-6.5,1.3-6.5,0,0,5.28-5.19,16.98-.26,1.56-10.14-1.3-13.26-13.26-14.56,0,0,3.99-2.28,8.06-3.64,8.58-2.86,14.04,2.6,16.38,2.6s7.79-2.6,6.49-5.46c-1.3-2.86-5.71-5.2-5.71-5.2,4.68-2.6,14.29-1.56,17.67,1.04,3.38,2.6,7.79,2.35,7.79,1.05s3.12-4.68,7.8-.78c4.68,3.9,15.07,11.43,15.07,11.43,0,0,7.75-1.42,15.47-1.02,1,.05,2,.13,2.98.25,8.58,1.04,12.74,14.55,12.74,14.55,0,0,7.89.17,9.36,7.28.54,2.63-1.56,8.06-2.86,10.14Z"/>
              <path class="cls-10" d="m198.88,88.15c1.74,2.51,3.21,5.89,2.43,9.27-.78,3.38-4.25,6.85-4.25,6.85,0,0,.78,4.42-1.04,8.06-1.82,3.64-7.8,4.94-7.8,4.94l-3.11,40.03-1.05-.17-.19-.08-4.58-23.4s-15.94-40.2-7.45-44.18c8.49-3.98,16.12-17.85,14.03-24.78-2.07-6.93-10.05-8.31-10.05-8.31l.83-.42c1,.05,2,.13,2.98.25,8.58,1.04,12.74,14.55,12.74,14.55,0,0,7.89.17,9.36,7.28.54,2.63-1.56,8.06-2.86,10.14Z"/>
              <path class="cls-4" d="m186.5,158.42l-4.72,29.03c-.51,3.11-1.98,5.99-4.2,8.23-5.51,5.54-15.86,15.76-17.38,15.76-2.07,0-16.33,1.04-19.97,0-2.63-.75-12.8-9.95-18.28-15.04-2.3-2.14-3.89-4.93-4.54-8.01l-7.16-29.55.35-33.18s13-36.39,21.84-37.95c8.83-1.56,15.07,4.68,15.07,4.68,0,0,7.28-5.2,11.44-6.24,0,0,9.88,4.16,14.55,3.12,0,0,3.12,7.28,5.2,8.84.72.53,1.61,3.03,2.49,6.07,1.65,5.83,3.23,13.67,3.23,13.67l2.08,40.55Z"/>
              <path class="cls-10" d="m186.37,157.2l-5.03,30.42c-.51,3.11-1.98,5.99-4.2,8.23-5.51,5.54-15.86,15.76-17.38,15.76-2.07,0-16.33,1.04-19.97,0,0,0,14.3-1.3,18.45-3.12,4.16-1.82,13.52-15.33,13.52-15.33,0,0-1.3-18.45-4.68-24.44-3.38-5.98-16.38-10.91-16.38-10.91l6.94-12.49,22.69-40.8s.15-.06.41-.16c1.65,5.83,3.23,13.67,3.23,13.67l2.39,39.17Z"/>
              <path class="cls-10" d="m146.9,92.61c-.16,0-.32-.05-.46-.14-.38-.25-.48-.76-.22-1.14.07-.1,6.63-10.2-.83-24.37-1.65-3.14-4.12-5.2-7.35-6.14-9.06-2.63-21.28,4.32-21.4,4.39-.39.23-.9.09-1.12-.3-.23-.39-.09-.9.3-1.12.52-.3,12.94-7.36,22.68-4.54,3.67,1.06,6.48,3.4,8.35,6.95,7.94,15.08,1.03,25.62.73,26.06-.16.24-.42.36-.68.36Z"/>
              <path class="cls-14" d="m136.76,177.06c-2.95,0-4.76-1.48-4.84-1.54-.45-.37-.51-1.04-.14-1.49.38-.45,1.04-.51,1.49-.14,0,0,1.33,1.05,3.48,1.05,1.19,0,3.96-1.25,6.19-2.26,2.6-1.18,4.24-1.9,5.25-1.9,1.37,0,2.92.66,4.89,1.51,1.04.45,2.22.95,3.52,1.42,3.28,1.17,5.66.74,5.68.74.57-.11,1.13.26,1.24.84.11.57-.26,1.13-.83,1.24-.12.02-2.93.56-6.8-.82-1.36-.49-2.57-1-3.64-1.46-1.67-.72-3.12-1.34-4.06-1.34-.6,0-2.78.99-4.38,1.71-2.66,1.2-5.42,2.45-7.06,2.45Z"/>
              <path class="cls-10" d="m148.73,184.13c-3.02,0-6.08-.44-6.28-.47-.45-.07-.76-.48-.7-.93.07-.45.48-.76.93-.7.07.01,6.95,1,9.84.03.44-.14.9.09,1.04.52.14.43-.09.9-.52,1.04-1.13.38-2.72.5-4.33.5Z"/>
              <path class="cls-10" d="m102.63,104.05s-.03,0-.05,0c-9.47-.54-14.52-10.69-14.73-11.12-.2-.41-.03-.9.38-1.1.41-.2.9-.03,1.1.38.05.1,4.84,9.71,13.34,10.2.45.03.8.41.77.87-.02.44-.39.78-.82.78Z"/>
              <path class="cls-10" d="m98.7,107.96c-4.43,0-8.04-5.34-8.19-5.57-.25-.38-.15-.89.23-1.14.38-.25.89-.15,1.14.23.03.05,3.43,5.06,7.06,4.83.45-.03.84.32.87.77.03.45-.32.84-.77.87-.11,0-.23.01-.34.01Z"/>
              <path class="cls-10" d="m102.19,95.73c-.06,0-.12,0-.19-.02-.44-.1-.72-.54-.62-.98.06-.25,1.46-6.08,9.16-11.66,7.79-5.64,22.72-.84,23.35-.64.43.14.67.61.53,1.04-.14.43-.61.67-1.04.53-.15-.05-14.77-4.74-21.87.4-7.16,5.18-8.51,10.64-8.52,10.7-.09.38-.43.64-.8.64Z"/>
              <path class="cls-10" d="m107.55,123.5c-.65,0-1.29-.08-1.92-.24-.44-.11-.7-.56-.59-1,.12-.44.57-.7,1-.59,5.48,1.43,12.87-5.75,13.82-9.05.51-1.79-.63-3.82-2.09-6.38-1.09-1.92-2.33-4.1-3.11-6.67-1.94-6.38,3.61-12.02,3.84-12.26.32-.32.84-.32,1.16,0,.32.32.32.84,0,1.16-.05.05-5.08,5.19-3.43,10.62.73,2.4,1.92,4.49,2.97,6.34,1.58,2.78,2.94,5.18,2.24,7.64-.97,3.4-7.67,10.43-13.89,10.43Z"/>
              <path class="cls-14" d="m130.78,176.28c-.18,0-.36-.05-.53-.14-.5-.29-.68-.93-.39-1.43.06-.1,1.42-2.45,4.93-2.95.58-.08,1.11.32,1.2.9.08.58-.32,1.11-.9,1.2-2.43.35-3.35,1.85-3.39,1.91-.2.33-.55.52-.92.52Z"/>
              <path class="cls-14" d="m164.75,177.06c-.46,0-.89-.31-1.02-.78-.25-.88-1.3-1.57-1.69-1.76-.52-.25-.75-.89-.49-1.41.25-.52.88-.75,1.41-.5.23.11,2.27,1.13,2.82,3.1.16.56-.17,1.15-.74,1.3-.09.03-.19.04-.28.04Z"/>
            </g>
            <g>
              <path class="cls-9" d="m182.77,118.04l-2.08,37.95-11.7,9.88-6.5-5.72s-7.78-2.32-14.56-2.08c-7.28.26-15.08,2.08-15.08,2.08l-8.32,6.24-8.84-9.88-1.56-29.63s11.96-7.8,12.48-14.56c.52-6.76-4.68-13.52-1.56-18.19,3.12-4.68,9.36-6.24,9.36-6.24,0,0,7.8,2.08,11.44,4.68l11.44-6.24s6.76,4.68,14.56,3.12c0,0-.52,4.16,5.2,8.84l5.72,19.75Z"/>
              <path class="cls-6" d="m171.85,89.45s5.37,29.28,5.37,34.83-1.04,22.18-1.39,24.95c-.35,2.77-6.84,16.64-6.84,16.64l11.7-9.88,2.08-37.95-5.72-19.75s-2.95-.69-5.2-8.84Z"/>
              <path class="cls-14" d="m159.12,133.91c-.27,0-.54-.1-.75-.31-.41-.41-.41-1.08,0-1.5.27-.27,2.71-2.68,4.43-3.47.15-.06.26-.11.37-.15.4-.13,1.38-.45,7.88.42,2.12.28,3.83.56,3.83.56.58.09.97.64.87,1.22-.09.58-.64.97-1.22.87,0,0-1.69-.28-3.77-.56-5.79-.78-6.81-.55-6.91-.52-.04.02-.12.05-.21.09-1.13.52-3.12,2.36-3.78,3.03-.21.21-.48.31-.75.31Z"/>
              <path class="cls-10" d="m154.18,124.8l20.53-.78,5.2.78s-6.76-7.28-9.36-7.28-15.47,4.03-15.47,4.03l-.91,3.25Z"/>
              <path class="cls-10" d="m139.1,125.84l-.91-6.63s-13.3-1.52-14.86-1.52-6.58,6.93-6.58,6.93c0,0,3.64-1.73,6.58-1.39,2.95.35,15.77,2.6,15.77,2.6Z"/>
              <path class="cls-14" d="m135.64,133.15c-.26,0-.51-.1-.71-.29-1.34-1.29-3.27-2.73-4.05-2.79-2.4-.35-8.39.59-10.5.98-.56.1-1.09-.26-1.19-.82-.1-.56.26-1.09.82-1.19.32-.06,7.96-1.46,11.1-1,1.84.14,4.69,2.82,5.24,3.35.41.39.42,1.04.02,1.45-.2.21-.47.31-.73.31Z"/>
              <path class="cls-9" d="m139.58,157.94s5.21-3.01,7.45-3.21c5.03-.43,8.84,2.43,8.84,2.43,0,0-1.65,5.37-8.14,5.11-5.82-.23-5.55-1.56-7.1-2.6-1.56-1.04-1.04-1.73-1.04-1.73Z"/>
              <path class="cls-14" d="m132.34,131.42c0,2.54-1.63,4.6-3.64,4.6s-3.64-2.06-3.64-4.6c0-.83.17-1.6.47-2.27,2.16-.33,4.49-.61,5.33-.44.31.06.64.21.99.42.31.67.49,1.46.49,2.3Z"/>
              <path class="cls-14" d="m171.04,131.12c0,2.54-1.79,4.6-4.01,4.6s-4.02-2.06-4.02-4.6c0-.54.08-1.05.23-1.52.1-.04.2-.08.29-.12.91-.3,4.5.09,7.38.48.08.37.13.76.13,1.16Z"/>
              <path class="cls-15" d="m143.26,163.05c-.16,0-.32-.04-.46-.14-.1-.06-2.38-1.59-3.7-2.64-1.71-1.37-.65-4.47-.52-4.82.16-.43.63-.65,1.05-.49.43.15.65.63.49,1.05-.34.93-.57,2.52,0,2.98,1.26,1.01,3.56,2.54,3.58,2.56.38.25.48.76.23,1.14-.16.24-.42.37-.69.37Z"/>
              <path class="cls-15" d="m152.36,162.79c-.25,0-.5-.11-.66-.33-.27-.36-.2-.88.16-1.15,1.39-1.04,2.95-2.55,3.07-3.14.15-.77-.36-3.44-.77-5.1-.12-.62-2.62-14.17-2.88-17.55-.27-3.5,3.27-14.41,3.42-14.87.14-.43.6-.67,1.04-.53.43.14.67.61.53,1.04-1,3.07-3.54,11.6-3.34,14.24.25,3.3,2.82,17.19,2.85,17.33.17.67,1.06,4.36.78,5.77-.3,1.49-2.9,3.54-3.69,4.14-.15.11-.32.16-.49.16Z"/>
              <path class="cls-6" d="m121.43,151.09c-.19,0-.39-.07-.55-.21l-4.68-4.16c-.34-.3-.37-.82-.07-1.16.3-.34.82-.37,1.16-.07l4.68,4.16c.34.3.37.82.07,1.16-.16.18-.39.28-.62.28Z"/>
              <path class="cls-6" d="m121.17,154.99c-.21,0-.42-.08-.58-.24l-4.42-4.42c-.32-.32-.32-.84,0-1.16.32-.32.84-.32,1.16,0l4.42,4.42c.32.32.32.84,0,1.16-.16.16-.37.24-.58.24Z"/>
              <path class="cls-6" d="m173.15,150.31c-.29,0-.56-.15-.72-.41-.23-.39-.09-.9.31-1.12l5.46-3.12c.39-.23.9-.09,1.12.31.23.39.09.9-.31,1.12l-5.46,3.12c-.13.07-.27.11-.41.11Z"/>
              <path class="cls-6" d="m171.85,154.73c-.3,0-.58-.16-.73-.44-.21-.4-.05-.9.35-1.11l7.02-3.64c.4-.21.9-.05,1.11.35.21.4.05.9-.35,1.11l-7.02,3.64c-.12.06-.25.09-.38.09Z"/>
            </g>
          </g>
        </g>
      </g>
    </g>
  </g>
</svg>