<?xml version="1.0" encoding="UTF-8"?>
<svg id="Layer_2" data-name="Layer 2" xmlns="http://www.w3.org/2000/svg" xmlns:xlink="http://www.w3.org/1999/xlink" viewBox="0 0 293 292">
  <defs>
    <style>
      .cls-1 {
        fill: #d79612;
      }

      .cls-2 {
        fill: #f9ead9;
      }

      .cls-3 {
        fill: #725038;
      }

      .cls-4 {
        fill: #fff;
        filter: url(#drop-shadow-1);
      }

      .cls-5 {
        fill: #eea489;
      }

      .cls-6 {
        clip-path: url(#clippath);
      }

      .cls-7 {
        fill: #fed0b9;
      }

      .cls-8 {
        fill: #663f25;
      }

      .cls-9 {
        fill: #35231f;
      }

      .cls-10 {
        fill: #c17e08;
      }

      .cls-11 {
        fill: #db8a75;
      }
    </style>
    <filter id="drop-shadow-1" filterUnits="userSpaceOnUse">
      <feOffset dx="3" dy="3"/>
      <feGaussianBlur result="blur" stdDeviation="5"/>
      <feFlood flood-color="#000" flood-opacity=".42"/>
      <feComposite in2="blur" operator="in"/>
      <feComposite in="SourceGraphic"/>
    </filter>
    <clipPath id="clippath">
      <circle class="cls-2" cx="142.98" cy="143.19" r="112.77" transform="translate(-59.37 143.04) rotate(-45)"/>
    </clipPath>
  </defs>
  <g id="diverse_portrait_people_icons" data-name="diverse portrait people icons">
    <g>
      <circle class="cls-4" cx="143.34" cy="143.09" r="130.7"/>
      <g>
        <circle class="cls-2" cx="142.98" cy="143.19" r="112.77" transform="translate(-59.37 143.04) rotate(-45)"/>
        <g class="cls-6">
          <g>
            <path class="cls-1" d="m228.51,223.55h0c-1.47.92-3.05,1.9-4.72,2.91-.31.2-.63.39-.96.59-.38.23-.78.46-1.18.7l.12-1.84.38-5.98s.13.05.37.15c.14.07.32.15.54.24.14.07.3.14.47.23.85.43,2.07,1.07,3.44,1.95.5.31,1,.66,1.53,1.04Z"/>
            <g>
              <path class="cls-1" d="m222.83,227.05c-.38.23-.78.46-1.18.7-14.03,8.37-33.99,18.95-54.99,25.88-1.56.52-3.13,1.02-4.7,1.48-1.02.31-2.04.61-3.07.89-.29.09-.59.17-.89.24-.03.02-.08.03-.13.03-4.6,1.27-9.23,2.31-13.81,3.08-1.26.22-2.52.4-3.76.57-.51.08-1.02.15-1.51.21-.51.06-1.02.12-1.52.17-2.39.25-4.77.43-7.11.51-5.64.2-11.15-.14-16.43-1.13-3.97-.75-7.86-1.65-11.64-2.69-3.59-.99-7.09-2.1-10.49-3.3-8.54-3.02-16.48-6.64-23.68-10.46-5.25-2.79-10.11-5.69-14.54-8.55l10.78-9.73,11.02-9.94,2.61-2.34,6.17-5.57,13.54-.27,5.66-.12,21.11-.42,27.75-.55h.2l5.07-.1c.18-.01.36-.01.52-.01l1.63-.03s.05.01.14.02c.02,0,.05.01.07.01h.01c1.41.25,9.38,1.67,19.22,3.59,16.85,3.25,39.17,7.98,43.31,10.72,0,0,.23,2.33.6,6.23.02.29.06.58.08.88Z"/>
              <path class="cls-10" d="m190.08,239.44l-15.58-2.12-7.85,16.31c-1.56.52-3.13,1.02-4.7,1.48-1.02.31-2.04.61-3.07.89l5.02-24.03.82-3.97.89-4.24,8.79-5.92,3.75-2.53,1.63,3.29,3.47,7.05.15.28,2.61,5.29,4.06,8.23Z"/>
              <path class="cls-10" d="m138.78,260.13c-.51.06-1.02.12-1.52.17-2.39.25-4.77.43-7.11.51l-7.58-6.29-12.22-7.02c-1.18.73-5.12,5.54-8.28,9.49-3.59-.99-7.09-2.1-10.49-3.3-3.44-4.74-7.33-10.21-9.06-12.91-1.81-2.83-3.97-10.86-5.62-17.83-.14-.6-.28-1.2-.4-1.78-.53-2.33-.99-4.47-1.34-6.15-.4-1.93-.67-3.25-.74-3.62-.01-.07-.02-.1-.02-.1l1.62-.72s.02,0,.03-.01l.5-.22,7.4-3.24,10.78,9.36,19.42,16.85h.01s13.36,11.61,13.36,11.61l11.26,15.21Z"/>
            </g>
            <g>
              <path class="cls-1" d="m83.94,207.09l-4.15,9.36-1,2.25-.92,2.09-.96,2.15-9,20.29c-5.25-2.79-10.11-5.69-14.54-8.55-1.59-1.03-3.13-2.04-4.59-3.05-2.08-1.42-4.03-2.82-5.86-4.18,11.96-6.15,26.23-13.4,31.52-16.07.7-.36,1.23-.63,1.59-.82.01,0,.02,0,.03-.01.31-.16.48-.24.48-.24l7.41-3.22Z"/>
              <path class="cls-10" d="m226.97,222.51c.5.31,1,.66,1.53,1.04h0c-1.47.92-3.05,1.9-4.72,2.91-.35-.09-.69-.2-1.04-.29-.32-.08-.65-.17-.98-.25-4.37-1.2-8.79-2.27-12.42-2.9-4.8-.82-15.23-2.37-25.9-3.9-1.21-.16-2.44-.35-3.66-.52-1.81-.25-3.61-.52-5.38-.76-5.3-.76-10.25-1.45-14.14-2-.02-.01-.05-.01-.07-.01-4.87-.69-8.03-1.13-8.03-1.13,0,0-9.07.03-20.35.23-6.59.12-13.94.29-20.66.54-2.38.09-4.69.2-6.84.3-3.72.2-7.02.42-9.6.68-2.63.27-4.52.58-5.35.92-1.47.62-4.37,1.47-7.77,2.39-1.2.33-2.46.67-3.74,1.03-.46.12-.91.23-1.36.37-4.88,1.32-9.79,2.69-12.36,3.79-5.07,2.18-10.38,4.48-15.37,6.68-2.08-1.42-4.03-2.82-5.86-4.18,11.96-6.15,26.23-13.4,31.52-16.07.7-.36,1.23-.63,1.59-.82.01,0,.02,0,.03-.01.31-.16.48-.24.48-.24l7.41-3.22,13.54-.27,5.66-.12,21.11-.42,27.75-.55h.2l5.07-.1c.18-.01.36-.01.52-.01l1.63-.03s.05.01.14.02c.02,0,.05.01.07.01h.01c1.41.25,9.38,1.67,19.22,3.59,16.85,3.25,39.17,7.98,43.31,10.72,0,0,.13.05.37.15.14.07.32.15.54.24.14.07.3.15.47.23.85.43,2.07,1.07,3.44,1.95Z"/>
            </g>
            <path class="cls-10" d="m105.97,180.82l-15.97,7.81s2.62,7.03,8.16,12.2l6.87-16.09.94-3.93Z"/>
            <g>
              <path class="cls-3" d="m193.88,98.26c-3.35,10.87-8,22.37-8,22.37l-28.66,2.25-40.05,3.15-16.56-6.23s-7.07-29.49-7.58-35.21c-.5-5.72,15.29-30.17,20.09-33.79,4.81-3.62,53.23-6.6,56.57-4.97,3.35,1.63,26.09,27.17,27.45,35.38.53,3.23-1.09,10.01-3.27,17.05Z"/>
              <path class="cls-8" d="m193.98,96.22c-.03.66-.06,1.34-.1,2.04-3.35,10.87-8,22.37-8,22.37l-28.66,2.25-28.83-36.91s-9.57-6.85-13.25-12.29c0,0,19.44,9.82,28.34,9.04,8.9-.78,44.66-2,44.66-2,0,0,6.28,5.85,5.85,15.5Z"/>
            </g>
            <g>
              <path class="cls-7" d="m162.29,238.65c-.78.13-1.44,1.36-2.01,3.34-.81,2.83-1.44,7.16-2.01,11.88-.09.78-.18,1.58-.28,2.38-.03.02-.08.03-.13.03-4.6,1.27-9.23,2.31-13.81,3.08-1.26.22-2.52.4-3.76.57-10.84-14.09-20.51-23.94-20.51-23.94l-3.66-4.78h0s-11.81-15.43-11.81-15.43l-6.84-8.94-1.58-2.07,1.94-4.25.06-.14,7.14-15.63.28-3.61.46-6.04,1.27-16.32.48-6.2.21-2.67,2.89-.1,1.72-.07.66-.02.89-.03,44.63,38.69v.2c.02.16.03.4.06.74.05.98.15,2.72.29,4.96v.03c.05.76.09,1.58.14,2.46.15,2.57.33,5.59.53,8.78v.07c.21,3.29.43,6.79.67,10.21.09,1.56.21,3.1.31,4.62.17,2.42.33,4.74.51,6.88l.06.78c.18,2.32.36,4.4.53,6.07v.05c.27,2.62.5,4.27.68,4.42Z"/>
              <path class="cls-5" d="m158.52,188.37v.19s1.1,16.98,1.1,16.98l.95,14.89s-.02,0-.06.02c-.8.26-9.96,3.13-13.76,1.63-3.98-1.57-15.87-5.65-20.3-12.31-4.04-6.06-18.19-30.4-20.67-34.66l1.27-16.32c-.05-.25-.08-.39-.08-.39l.77-8.47,6.36-.56,44.42,39.02Z"/>
              <path class="cls-11" d="m158.52,188.37v.19s1.14,16.98,1.14,16.98c0,0-.01,0-.04,0-.02,0-.05,0-.08,0-1.59.08-17.6.81-22.04-1.24-4.67-2.15-15.79-20.22-20.22-26.87-3.87-5.82-5.94-13.91-5.94-13.91l-.78-15.04,3.54.86,44.42,39.02Z"/>
            </g>
            <g>
              <path class="cls-7" d="m114.18,121.17l-6.21-4.54c-2.65-1.94-6.36-1.44-8.4,1.14l-4.63,5.83c-1.31,1.65-1.68,3.85-.98,5.83l6.72,19.13c.91,2.6,3.46,4.27,6.21,4.07l6-.43,1.28-31.04Z"/>
              <path class="cls-5" d="m112.51,144.09c-.42,0-.81-.28-.92-.7-1.45-5.3-9.54-14.06-9.63-14.15-.36-.39-.34-.99.05-1.35.39-.36.99-.34,1.35.05.35.37,8.5,9.2,10.07,14.95.14.51-.16,1.04-.67,1.18-.08.02-.17.03-.25.03Z"/>
              <path class="cls-5" d="m104.53,143.47c-.21,0-.42-.07-.59-.2-.42-.33-.49-.93-.16-1.34.12-.15,2.97-3.75,6.54-4.41.52-.1,1.02.25,1.11.77.1.52-.25,1.02-.77,1.11-2.84.52-5.35,3.67-5.38,3.71-.19.24-.47.37-.75.37Z"/>
            </g>
            <path class="cls-3" d="m183.6,225.88s-.06.01-.18.05c-.47.13-1.84.5-3.52.99-3.45,1.05-8.23,2.67-9.31,3.95-.83,1-4.77,12.55-8.62,24.24-1.02.31-2.04.61-3.07.89-.29.09-.59.17-.89.24-.03.02-.08.03-.13.03l.4-2.41,2.01-11.88,1.32-7.73h0s.01-.07.01-.07l.63-3.79,2.48-2.4,9.29-8.96,9.24,6.61.33.23Z"/>
            <polygon class="cls-1" points="166.46 193.15 177.95 207.33 190.58 234.41 173.51 222.46 161.49 234.36 158.87 194.28 166.46 193.15"/>
            <g>
              <path class="cls-7" d="m186.82,134.96c-1.03,9.3-18.08,53.83-21.58,59.4-.15.24-.28.41-.37.49h0c-2.38,2.14-19.48,4.28-23.52,2.07-4.04-2.21-26.72-27.12-28.48-39.78-1.75-12.66,1.32-35.99,1.32-35.99,0,0,7.05.02,8.04-3.27.99-3.29-1.04-19.13,6.16-31.93,0,0,0,0,.01,0,.41.18,8.82,3.75,15.8,5.01,7.16,1.29,39.76-3.17,39.76-3.17,0,0,3.93,37.45,2.86,47.15Z"/>
              <path class="cls-5" d="m186.82,134.96c-1.03,9.3-18.08,53.83-21.58,59.4l-.37.49c.25-.82,16.35-52.75,17.75-59.7,1.4-7-3.49-39.74-3.49-39.74,0,0-28.62,1.3-32.3.81-3.63-.48-17.98-9.95-18.43-10.25.41.18,8.82,3.75,15.8,5.01,7.16,1.29,39.76-3.17,39.76-3.17,0,0,3.93,37.45,2.86,47.15Z"/>
              <path class="cls-11" d="m160.27,162.29c-1.11,0-2.2-.13-3.18-.45-4.88-1.6-5.9-3.67-6-3.9-.21-.49.01-1.05.5-1.26.48-.21,1.05.01,1.26.5h0s.84,1.53,4.84,2.84c3.47,1.14,8.87-.71,10.71-1.41l-2.45-27.9c-.05-.53.34-.99.87-1.04.54-.04.99.34,1.04.87l2.57,29.29-.63.27c-.25.11-5.09,2.18-9.52,2.18Z"/>
              <path class="cls-11" d="m152.29,174.14c-.95,0-1.7-.03-2.26-.09-3.42-.38-9.93-5.76-10.66-6.37-.41-.34-.46-.94-.12-1.35.34-.4.94-.46,1.35-.12,1.86,1.56,7.22,5.67,9.64,5.94,1.43.16,5.22.16,15.12-.71.48-.19,2.06-2.24,3.32-4.37.27-.45.86-.61,1.31-.34.46.27.61.86.34,1.31-1.39,2.35-3.34,5.18-4.8,5.31-6.02.53-10.46.8-13.24.8Z"/>
              <path class="cls-8" d="m158.15,118.58s-3.53,3.51-6.02,4.37c-2.49.86-12.99-2.06-16.23-2.42-2.54-.28-6.41-.08-6.41-.08,0,0,4.75-4.26,8.56-4.6s20.1,2.72,20.1,2.72Z"/>
              <path class="cls-8" d="m169.76,119.49s.91,3.12,2.88,3.59c1.96.47,14.08-1.03,14.08-1.03l-.35-4.01-16.6,1.45Z"/>
              <g>
                <path class="cls-9" d="m147.97,134.57c-.26,3.34-2.32,5.9-4.6,5.73-2.28-.18-3.93-3.02-3.67-6.36.26-3.34,2.32-5.9,4.6-5.73s3.93,3.02,3.67,6.36Z"/>
                <path class="cls-9" d="m137.55,132.88c-.22,0-.44-.07-.62-.22-.4-.34-.46-.94-.12-1.35.06-.07,5.85-6.82,13.29-1.88.44.29.56.89.27,1.33-.29.44-.89.56-1.33.27-5.99-3.99-10.57,1.29-10.76,1.52-.19.22-.46.34-.73.34Z"/>
              </g>
              <g>
                <path class="cls-9" d="m180.69,135.83c-.49,3.31-2.73,5.72-5,5.38-2.27-.34-3.7-3.3-3.21-6.61.49-3.31,2.73-5.72,5-5.38,2.27.34,3.7,3.3,3.21,6.61Z"/>
                <path class="cls-9" d="m170.24,133.21c-.25,0-.51-.1-.69-.3-.36-.38-.35-.99.03-1.35.06-.06,6.57-6.14,13.31-1.14.42.32.51.91.2,1.34-.31.42-.92.51-1.34.2-5.43-4.04-10.63.78-10.85.99-.19.18-.42.26-.66.26Z"/>
              </g>
              <path class="cls-5" d="m125.12,151.91c-.23,0-.47-.08-.65-.25l-6.97-6.43c-.39-.36-.41-.96-.05-1.35.36-.39.96-.41,1.35-.05l6.97,6.43c.39.36.41.96.05,1.35-.19.2-.45.31-.7.31Z"/>
              <path class="cls-5" d="m123.5,155.26c-.22,0-.44-.07-.61-.22l-5.53-4.64c-.41-.34-.46-.94-.12-1.35.34-.4.94-.46,1.35-.12l5.53,4.64c.41.34.46.94.12,1.35-.19.23-.46.34-.73.34Z"/>
              <path class="cls-11" d="m157.12,179.75c-3.42,0-6.74-.58-6.91-.61-.52-.09-.87-.59-.78-1.11s.59-.87,1.11-.78c.05,0,4.78.83,8.55.5,3.75-.33,6-1.13,6.02-1.14.5-.18,1.04.08,1.23.57.18.5-.07,1.04-.57,1.23-.1.04-2.48.89-6.51,1.25-.7.06-1.42.09-2.14.09Z"/>
            </g>
            <g>
              <path class="cls-1" d="m121.43,225.58s-22.99-21.04-31.43-36.95l-13.47,21.68s13.9,26.96,23.22,38.32l21.68-23.04Z"/>
              <path class="cls-3" d="m144.06,259.35c-1.26.22-2.52.4-3.76.57-.51.08-1.02.15-1.51.21-.51.06-1.02.12-1.52.17l-10.01-12.16-15.75-12h-.02s2.67-2.83,2.67-2.83l1.99-2.1h0s5.3-5.62,5.3-5.62c0,0,7.89,9.56,12.44,15.6,2.03,2.7,6.2,10.33,10.19,18.17Z"/>
            </g>
          </g>
        </g>
      </g>
    </g>
  </g>
</svg>