<?xml version="1.0" encoding="UTF-8"?>
<svg id="Layer_2" data-name="Layer 2" xmlns="http://www.w3.org/2000/svg" xmlns:xlink="http://www.w3.org/1999/xlink" viewBox="0 0 292 293">
  <defs>
    <style>
      .cls-1, .cls-2 {
        fill: #fff;
      }

      .cls-3 {
        fill: #cc795e;
      }

      .cls-4 {
        opacity: .5;
      }

      .cls-5 {
        fill: #ffb491;
      }

      .cls-6 {
        fill: #687aad;
      }

      .cls-7 {
        fill: #f9ead9;
      }

      .cls-8 {
        fill: #e69472;
      }

      .cls-9 {
        fill: #56463e;
      }

      .cls-10 {
        clip-path: url(#clippath-1);
      }

      .cls-11 {
        fill: #e6e6e6;
      }

      .cls-2 {
        filter: url(#drop-shadow-1);
      }

      .cls-12 {
        fill: #99a6d6;
      }

      .cls-13 {
        clip-path: url(#clippath);
      }

      .cls-14 {
        fill: none;
      }

      .cls-15 {
        fill: #b3b3b3;
      }

      .cls-16 {
        fill: #3f312a;
      }

      .cls-17 {
        fill: #39302b;
      }

      .cls-18 {
        fill: #35231f;
      }
    </style>
    <filter id="drop-shadow-1" filterUnits="userSpaceOnUse">
      <feOffset dx="3" dy="3"/>
      <feGaussianBlur result="blur" stdDeviation="5"/>
      <feFlood flood-color="#000" flood-opacity=".42"/>
      <feComposite in2="blur" operator="in"/>
      <feComposite in="SourceGraphic"/>
    </filter>
    <clipPath id="clippath">
      <circle class="cls-14" cx="142.49" cy="143.43" r="112.77" transform="translate(-59.69 142.77) rotate(-45)"/>
    </clipPath>
    <clipPath id="clippath-1">
      <path class="cls-14" d="m107.27,218.49s-.28,26.82.59,55.95c.59,19.85,77.44,44.09,80.77,4.67.38-4.46.7-8.88.97-13.2,2.15-33.83,1.4-61.83,1.4-61.83l-16.15-1.9-67.59,16.3Z"/>
    </clipPath>
  </defs>
  <g id="diverse_portrait_people_icons" data-name="diverse portrait people icons">
    <g>
      <circle class="cls-2" cx="142.71" cy="143.34" r="130.7"/>
      <g>
        <circle class="cls-7" cx="142.49" cy="143.62" r="112.77" transform="translate(-59.82 142.82) rotate(-45)"/>
        <g class="cls-13">
          <g>
            <g>
              <path class="cls-9" d="m239.99,205.99c-5.83-1.87-20.43-2.24-32.19-2.2-.79,0-1.55,0-2.31,0-.37,0-.73,0-1.08,0h-.41c-.4,0-.79,0-1.18.02-.27,0-.54,0-.8,0-.05,0-.1,0-.15,0-.4,0-.79,0-1.17,0-.07,0-.13,0-.19,0-.24,0-.49,0-.73,0-.44,0-.86.02-1.27.03-.26,0-.52,0-.77,0-.27,0-.53.02-.79.03-.25,0-.5,0-.74.02-.49,0-.95.02-1.38.03-.52.02-.98.03-1.4.04-.12,0-.23,0-.35,0-.22,0-.43.02-.62.02-.08,0-.15,0-.22,0-.29,0-.52.02-.72.03-.07,0-.13,0-.19,0-.22,0-.34,0-.34,0h-.03s-6.28,1.31-6.28,1.31l-77.45,16.12-3.72.77c1.22-.37,3.01-.9,3.01-.9-.32.09.15-2.4.3-2.52,6.29-5.41-17.07,5.7-18.49,6.21-10.74,3.88-22.65,10.76-32.36,17.44,6.17,5.09,13.98,10.99,22.85,16.45,2.71,1.67,5.52,3.3,8.41,4.86,6.51,3.5,13.43,6.64,20.58,8.98,9.21,3.02,18.79,4.75,28.32,4.31,12.86-.59,28.51-5.25,44.47-11.72,3.08-1.25,6.18-2.57,9.26-3.93.35-.15.68-.3,1.02-.46,6.81-3.04,13.59-6.32,20.12-9.67,2.23-1.14,4.42-2.29,6.59-3.44,14.06-7.46,26.64-14.91,35.62-20.46-1.72-6.86-5.79-19.08-13.23-21.45Z"/>
              <path class="cls-16" d="m220.69,240.88l-3.09,7.01c-2.16,1.15-4.36,2.3-6.59,3.44-6.54,3.34-13.31,6.63-20.12,9.67-.34.15-.68.3-1.02.46-3.08,1.37-6.18,2.69-9.26,3.93-15.96,6.47-31.61,11.13-44.47,11.72-9.53.43-19.11-1.29-28.32-4.31-7.14-2.34-14.07-5.47-20.58-8.98-2.89-1.55-5.7-3.18-8.41-4.86,1.92-19.32,5.08-27.64,6.16-31.61,1.42-.51,2.77-1,4.04-1.44,4.25-1.49,7.68-1.55,10.12-2.32.08-.03.14-.04.21-.07.18-.05.34-.1.5-.14.14-.04.28-.08.41-.13,0,0,.02,0,.03,0,.27-.08.52-.16.76-.24.46-.14.83-.24,1.13-.34.08-.03.17-.05.24-.08.02,0,.03,0,.05-.02,0,0,.02,0,.03,0,.04,0,.08-.03.12-.03.05,0,.09-.03.13-.03.08-.03.15-.05.21-.07.03,0,.04,0,.07-.02.03,0,.04-.02.06-.02.03-.02.08-.03.11-.03.03,0,.06-.02.08-.03.02,0,.03,0,.04,0,0,0,.02,0,.03,0,.03,0,.04-.02.05-.02.02,0,.03,0,.04,0,0,0,.02,0,.02,0l3.77-.79,77.45-16.12,6.28-1.3h.03s.12,0,.34-.02c.06,0,.12,0,.19,0,.19,0,.43-.02.72-.03.07,0,.14,0,.22,0,.19,0,.41,0,.62-.02.12,0,.23,0,.35,0,.42,0,.89-.03,1.4-.04.43,0,.89-.02,1.38-.03.24,0,.49-.02.74-.02.26,0,.52-.02.79-.03.25,0,.51,0,.77,0,.41,0,.84-.02,1.27-.03.24,0,.48,0,.73,0,.07,0,.13,0,.19,0,.38,0,.77,0,1.17-.02h.15c.26,0,.53,0,.8,0,.39,0,.79,0,1.18-.02h.41c.35,0,.71,0,1.08,0,.75,0,1.52,0,2.31,0,.02.02.04.04.05.07,11.4,14.24,12.83,37.03,12.83,37.03Z"/>
              <path class="cls-9" d="m216.65,235.9l-5.64,15.43c-6.54,3.34-13.31,6.63-20.12,9.67-.34.15-.68.3-1.02.46-3.08,1.37-6.18,2.69-9.26,3.93-15.96,6.47-31.61,11.13-44.47,11.72-9.53.43-19.11-1.29-28.32-4.31-7.14-2.34-14.07-5.47-20.58-8.98l-2.6-3.51c-.43-8.19,3.61-29.6,4.39-34.39,4.25-1.49,7.68-1.55,10.12-2.32.08-.03.14-.04.21-.07.18-.05.34-.1.5-.14.14-.04.28-.08.41-.13,0,0,.02,0,.03,0,.27-.08.52-.16.76-.24.46-.14.83-.24,1.13-.34.08-.03.17-.05.24-.08.02,0,.03,0,.05-.02,0,0,.02,0,.03,0,.04,0,.08-.03.12-.03.05,0,.09-.03.13-.03.08-.03.15-.05.21-.07.03,0,.04,0,.07-.02.03,0,.04-.02.06-.02.03-.02.08-.03.11-.03.03,0,.06-.02.08-.03.02,0,.03,0,.04,0,0,0,.02,0,.03,0,.03,0,.04-.02.05-.02.02,0,.03,0,.04,0,0,0,.02,0,.02,0l3.77-.79,77.45-16.12,6.28-1.3h.03s.12,0,.34-.02c.06,0,.12,0,.19,0,.19,0,.43-.02.72-.03.07,0,.14,0,.22,0,.19,0,.41,0,.62-.02.12,0,.23,0,.35,0,.42,0,.89-.03,1.4-.04.43,0,.89-.02,1.38-.03.24,0,.49-.02.74-.02.26,0,.52-.02.79-.03.25,0,.51,0,.77,0,.41,0,.84-.02,1.27-.03.24,0,.48,0,.73,0,.07,0,.13,0,.19,0,.38,0,.77,0,1.17-.02h0c6.77,8.47,14.78,32.08,14.78,32.08Z"/>
            </g>
            <g>
              <path class="cls-12" d="m189.87,261.45c-3.08,1.37-6.18,2.69-9.26,3.93-15.96,6.47-31.61,11.13-44.47,11.72-9.53.43-19.11-1.29-28.32-4.31-.65-22.69-.62-43.68-.57-51.29.02-1.94.03-3.01.03-3.01l67.59-16.3,13.1,1.54,3.02.36h.03c0,.11.03,1.2.06,3.05,0,.32,0,.67.02,1.04,0,.04,0,.08,0,.13.11,8.53.17,29.06-1.21,53.15Z"/>
              <g class="cls-4">
                <g class="cls-10">
                  <g>
                    <path class="cls-6" d="m107.03,271.31l-.17-1.49c.21-.02,21.06-2.38,31.9-2.38s43.85.94,44.18.95l-.04,1.5c-.33,0-33.35-.95-44.14-.95s-31.52,2.35-31.73,2.37Z"/>
                    <path class="cls-6" d="m184.05,259.01l-.7-.05c-.29-.02-29.03-1.9-36.52-1.9s-43.3,1.41-43.66,1.42l-.06-1.5c.36-.01,36.19-1.43,43.72-1.43,6.88,0,31.46,1.57,35.92,1.86l1.66-11.65c-4.74.53-24.93,2.75-30.46,2.75-6.18,0-36.21-.96-43.87-2.87-7.52-1.88-12.79-3.31-12.84-3.33l.4-1.45c.05.01,5.3,1.44,12.81,3.32,7.54,1.88,37.36,2.83,43.51,2.83s31.01-2.82,31.26-2.84l.97-.11-2.14,14.95Z"/>
                  </g>
                </g>
              </g>
              <path class="cls-6" d="m143.5,240.9c-11.3,0-21.86-3.58-22.55-3.82l.49-1.42c.26.09,25.92,8.78,39.69-.85l.86,1.23c-5.25,3.68-12,4.86-18.49,4.86Z"/>
              <path class="cls-6" d="m190.89,261c-.34.15-.68.3-1.02.46-.42.18-.83.37-1.25.55-.19.09-.39.17-.58.26-2.48,1.08-4.96,2.13-7.43,3.13,1.68-25.47,3.55-52.52,4.09-60,.08-1.31.14-2.02.14-2.02l3.12.35,3.05.35h0c0,.12.03,1.21.06,3.06,0,.32.02.67.02,1.04,0,.04,0,.08,0,.13.18,9.87.51,34.97-.19,52.7Z"/>
            </g>
            <g>
              <path class="cls-9" d="m191.5,104.33s-.02.02-.02.03c-1.95,14.65-7.7,18.59-11.12,19.62-1.56.47-2.65.32-2.65.32l-48.77-18.76-5.56-2.14-7.41-2.85-13.77-12.5s-3.32,1.58-8.55-3.64c-.62-.62-1.12-1.3-1.52-2.02-2.96-5.32-.38-12.7-.38-12.7-2.79-5.12,3.99-11.15,4.27-11.38-.12.36-2.2,6.67,3.33,8.06,5.7,1.42,7.59-8.08,7.59-8.08,0,0-2.85-3.8-2.37-9.97.47-6.17,9.5-6.65,9.5-6.65,0,0-3.32,4.27-.47,6.17,2.84,1.89,10.92-2.38,17.56-4.75,6.65-2.38,27.07-6.65,39.89-.95,1.49.66,2.82,1.52,4,2.51,9.03,7.55,9.77,23.13,9.77,23.13,0,0,10.45,6.17,12.82,14.25.21.72.34,1.48.38,2.29.53,7.96-6.14,19.32-6.53,20Z"/>
              <path class="cls-16" d="m191.5,104.33s-.02.02-.02.03c-3.17,3.01-6.65,3.32-6.65,3.32,0,6.01-3.8,15.83-3.8,15.83l-.68.47c-1.56.47-2.65.32-2.65.32l-48.77-18.76-3.31-1.66-2.25-.47-7.41-2.85-13.77-12.5s-3.32,1.58-8.55-3.64c-.62-.62-1.12-1.3-1.52-2.02,7.57,4.05,13.55.91,13.55.91,8.55,5.07,17.41-1.26,19.95-5.06,2.53-3.8,3.17-14.88,3.17-14.88,3.48,6.33,1.58,12.98,1.58,12.98,0,0,14.25-2.85,16.78-9.5,2.53-6.65-3.49-14.88-3.49-14.88,0,0,8.55,1.9,10.77,9.81,2.22,7.92-3.8,14.88-3.8,14.88,0,0,6.33,2.22,11.4-4.11,5.06-6.33.32-17.1.32-17.1,6.33,3.48,7.59,12.66,7.59,12.66,0,0,7.29-4.43,8.23-10.76.78-5.21-2.08-10.86-3.12-12.68,9.03,7.55,9.77,23.13,9.77,23.13-1.26,6.65-10.76,12.98-10.76,12.98,0,0-.32,9.5,10.44,12.98,9.67,3.13,12.95-7.27,13.52-9.43.53,7.96-6.14,19.32-6.53,20Z"/>
              <path class="cls-17" d="m102.2,88.06s-9.5,9.81-9.18,17.41c.32,7.6,13.61,19.94,13.61,19.94l5.54-31.97s-5.54-1.58-9.97-5.38Z"/>
            </g>
            <g>
              <path class="cls-5" d="m115.5,167.52l.32,32.29s1.9,12.66,20.58,18.68l5.7,12.35,5.38-12.98s18.99-4.12,22.48-20.89l-2.22-30.71-52.24,1.27Z"/>
              <path class="cls-8" d="m115.66,189.36s9.34,13.3,12.82,14.25c3.48.95,23.43-.95,25.33-2.22,1.9-1.27,14.88-22.48,14.88-22.48l-.95-12.66-52.24,1.27.16,21.84Z"/>
            </g>
            <g>
              <path class="cls-15" d="m124.04,227.67s18.36,8.86,35.46-.63l-12.03-9.18-5.38,12.98-5.7-12.35-12.35,9.18Z"/>
              <path class="cls-11" d="m115.5,186.2s-3.48,2.53-4.75,6.33c-1.27,3.8-7.28,29.76-7.28,29.76,0,0,6.33,14.25,10.45,18.36,4.12,4.12,3.48,12.03,3.48,12.03,0,0,7.6-3.48,8.23-6.01.63-2.53,3.48-17.1,5.7-20.26,2.22-3.17,5.07-7.91,5.07-7.91,0,0-18.05-4.43-20.58-18.68l-.32-13.61Z"/>
              <path class="cls-11" d="m169.32,184.61s3.17,2.85,4.43,5.07c1.27,2.22,9.18,20.26,9.18,20.26,0,0-4.75,21.21-10.13,27.86,0,0-2.22,7.91-1.9,10.76,0,0-5.7-1.9-7.28-4.12-1.58-2.22-16.15-26.59-16.15-26.59,0,0,18.88-3.88,22.04-21.61l-.2-11.63Z"/>
            </g>
            <g>
              <path class="cls-5" d="m174.06,158.65c-1.27,3.8-15.51,25.64-17.41,26.6-1.9.95-23.11.95-25.96,0-1.63-.54-6.95-6.95-11.64-13.11,0,0-.02-.02-.03-.03-3.4-4.48-6.47-8.82-7.54-10.72-.04-.07-.08-.14-.12-.21-1.41-2.63-3.46-21.03-4.69-36.11l5.48-31.64c3.12-3.82,6.18-6.65,6.18-6.65,1.18.57,2.36,1.03,3.53,1.39,10.49,3.22,20.21-1.39,20.21-1.39,11.71,1.91,20.58-3.17,20.58-3.17,3.17.95,6.33,0,6.33,0,0,0,8.87,20.59,9.18,25.01.32,4.43-2.85,46.23-4.11,50.02Z"/>
              <path class="cls-1" d="m132.71,161.3s2.96,2.66,5.92,3.4,9.17.44,11.24,0c2.07-.44,4.84-4.05,4.84-4.05l-11.35-.98-12.35-.15,1.7,1.78Z"/>
              <path class="cls-8" d="m114.07,158.02c1.43,4.27,5.7,14.96,5.7,14.96-.24-.29-.48-.57-.71-.84,0,0-.02-.02-.03-.03-3.5-4.18-5.51-6.97-7.54-10.72-.04-.07-.08-.14-.12-.21-1.41-2.63-3.46-21.03-4.69-36.11l5.48-31.64c3.12-3.82,6.18-6.65,6.18-6.65,1.18.57,2.36,1.03,3.53,1.39l-4.96,7.63s-4.27,18.04-3.8,27.06c.47,9.03-.47,30.87.95,35.14Z"/>
              <path class="cls-3" d="m138.05,134.79s-.04,0-.06,0c-.41-.03-.72-.4-.69-.81,0-.06.46-5.86.01-8.1-.46-2.29-2.32-7.19-2.34-7.24-.15-.39.05-.82.43-.97.39-.15.82.05.97.44.08.21,1.93,5.07,2.41,7.48.49,2.45.03,8.27.01,8.52-.03.39-.36.69-.75.69Z"/>
              <path class="cls-3" d="m148.5,130.28c-.39,0-.72-.3-.75-.69,0-.12-.24-2.9-.24-4.57s1.74-6.8,1.94-7.37c.14-.39.57-.6.96-.46.39.14.6.56.46.96-.52,1.49-1.86,5.62-1.86,6.88,0,1.61.23,4.42.24,4.45.03.41-.27.78-.69.81-.02,0-.04,0-.06,0Z"/>
              <path class="cls-3" d="m137.97,151.89c-.08,0-.16-.01-.25-.04-.25-.09-2.45-.9-2.93-2.74-.43-1.65.52-5.35.63-5.77.11-.4.52-.64.92-.53.4.11.64.52.53.92-.38,1.43-.88,4.04-.63,5,.24.91,1.51,1.53,1.97,1.7.39.14.6.57.46.96-.11.31-.4.5-.71.5Z"/>
              <path class="cls-8" d="m141.46,150.46c-.28,0-.55-.16-.68-.43-.12-.25-.27-.33-.38-.36-.53-.17-1.39.22-1.65.37-.36.21-.82.09-1.03-.27-.21-.36-.09-.82.27-1.03.16-.09,1.59-.9,2.84-.51.58.18,1.03.58,1.3,1.15.18.38.02.82-.36,1-.1.05-.21.07-.32.07Z"/>
              <path class="cls-8" d="m145.97,150.25c-.08,0-.17-.01-.25-.04-.39-.13-.6-.58-.47-.97.02-.07.64-1.83,3.73-1.13.41.09.66.49.57.9-.09.4-.49.66-.9.57-1.39-.31-1.9.03-1.99.19-.1.31-.38.49-.69.49Z"/>
              <path class="cls-3" d="m149.37,151.49c-.31,0-.6-.19-.71-.5-.14-.39.07-.82.46-.96,0,0,1.02-.39,1.36-1.36.24-.68-.27-3.16-.88-5.06-.13-.4.09-.82.49-.95.4-.13.82.09.95.49.24.74,1.4,4.51.86,6.02-.59,1.67-2.21,2.26-2.28,2.28-.08.03-.17.04-.25.04Z"/>
              <path class="cls-5" d="m175.33,147.57l3.34-.19c1.42-.08,2.65-1.02,3.1-2.37l4.05-12.16c.17-.52.22-1.08.14-1.62l-1.1-7.18c-.27-1.75-1.81-3.02-3.58-2.94l-4.37.19-1.58,26.28Z"/>
              <path class="cls-5" d="m108.85,145.67l-2.39.35c-2.39.35-4.68-1.08-5.41-3.38l-3.26-10.17c-.22-.69-.29-1.41-.2-2.13l.96-7.54c.34-2.66,2.74-4.57,5.41-4.29l3.78.88,1.11,26.28Z"/>
              <path class="cls-8" d="m119.45,148.8c-.18,0-.36-.06-.5-.19l-6.02-5.38c-.31-.28-.34-.75-.06-1.06.28-.31.75-.34,1.06-.06l6.02,5.38c.31.28.34.75.06,1.06-.15.17-.35.25-.56.25Z"/>
              <path class="cls-8" d="m117.71,152.28c-.17,0-.35-.06-.49-.19l-4.91-4.27c-.31-.27-.35-.75-.07-1.06.27-.31.75-.35,1.06-.07l4.91,4.27c.31.27.35.75.07,1.06-.15.17-.36.26-.57.26Z"/>
              <path class="cls-8" d="m163.93,149.43c-.21,0-.43-.09-.58-.27-.27-.32-.22-.79.09-1.06l6.81-5.7c.32-.27.79-.22,1.06.09.27.32.22.79-.09,1.06l-6.81,5.7c-.14.12-.31.18-.48.18Z"/>
              <path class="cls-8" d="m167.1,152.12c-.17,0-.35-.06-.49-.18-.31-.27-.35-.75-.08-1.06l4.12-4.75c.27-.31.75-.35,1.06-.08.31.27.35.75.08,1.06l-4.12,4.75c-.15.17-.36.26-.57.26Z"/>
              <path class="cls-16" d="m136.07,110.85v3.96s-12.03,0-16.46-.16c-4.43-.16-9.18.16-9.18.16,0,0,4.27-5.54,7.76-5.54s17.89,1.58,17.89,1.58Z"/>
              <path class="cls-16" d="m151.75,111.64l1.9,3.01s14.88,0,16.62.16c1.74.16,5.7.79,5.7.79,0,0-3.8-4.75-6.17-5.38-2.37-.63-18.05,1.42-18.05,1.42Z"/>
              <path class="cls-8" d="m144.03,167.79c-6.65,0-8.1-1.27-8.32-1.52-.27-.31-.24-.79.07-1.06.3-.26.75-.24,1.03.03.09.07,1.46,1.05,7.22,1.05,4.82,0,5.96-.59,6.15-.72.15-.26.45-.42.76-.38.41.06.7.44.64.85-.17,1.18-2.64,1.75-7.55,1.75Zm6.06-1.97h0s0,0,0,0Zm0,0h0s0,0,0,0Z"/>
              <path class="cls-8" d="m139.4,173.81c-.32,0-.62-.2-.72-.52-.13-.4.09-.82.49-.94.28-.09,6.81-2.12,11.3-.13.38.17.55.61.38.99-.17.38-.61.55-.99.38-3.97-1.76-10.17.17-10.23.19-.08.02-.15.04-.23.04Z"/>
              <path class="cls-8" d="m154.72,160.65l-.27.22c-.79.16-1.68.28-2.43.19-3.79-.4-12.18-.43-16.62-.06-1.15.1-2.46-.15-3.46-.41.25-.24,4.44-4.16,12.11-3.98,7.91.18,10.67,4.04,10.67,4.04Z"/>
              <path class="cls-8" d="m108.22,140.89c-.33,0-.63-.22-.72-.55-1.66-5.89-5.77-9.91-5.81-9.95-.3-.29-.31-.76-.02-1.06.29-.3.76-.31,1.06-.02.18.17,4.44,4.33,6.22,10.63.11.4-.12.81-.52.93-.07.02-.14.03-.2.03Z"/>
              <path class="cls-8" d="m103.94,138.51c-.34,0-.64-.23-.73-.57-.1-.4.14-.81.55-.91l3.17-.79c.41-.1.81.14.91.55.1.4-.14.81-.55.91l-3.17.79c-.06.02-.12.02-.18.02Z"/>
              <path class="cls-8" d="m176.28,140.89c-.08,0-.16-.01-.24-.04-.39-.13-.61-.56-.48-.95,1.77-5.32,5.4-9.14,5.55-9.31.29-.3.76-.31,1.06-.02.3.29.31.76.02,1.06-.04.04-3.55,3.75-5.21,8.74-.1.31-.4.51-.71.51Z"/>
              <path class="cls-8" d="m180.71,138.35s-.07,0-.11,0l-3.17-.47c-.41-.06-.69-.44-.63-.86.06-.41.45-.69.85-.63l3.17.47c.41.06.69.44.63.86-.06.37-.38.64-.74.64Z"/>
              <path class="cls-18" d="m131.01,124.93c-.3,0-.59-.14-.77-.4-.6-.85-1.3-1.52-2.08-1.98-1.54-.94-3.43-1.17-5.62-.68-2.17.48-3.84,1.48-3.86,1.49-.44.27-1.02.13-1.29-.31-.27-.44-.13-1.02.31-1.29.08-.05,1.94-1.18,4.43-1.73,2.64-.59,5.06-.28,7,.9,1,.59,1.89,1.44,2.65,2.51.3.42.2,1.01-.23,1.31-.16.12-.35.17-.54.17Z"/>
              <path class="cls-18" d="m128.95,123.52c0,2.44-1.64,4.43-3.65,4.43s-3.65-1.99-3.65-4.43c0-.95.26-1.84.68-2.56,1.92-.43,4.25-.47,6.31.79.2.54.32,1.14.32,1.77Z"/>
              <path class="cls-18" d="m155.31,124.93c-.19,0-.38-.06-.54-.17-.42-.3-.53-.88-.23-1.31.75-1.07,1.65-1.92,2.66-2.52,1.93-1.17,4.35-1.49,6.99-.9,2.48.55,4.35,1.68,4.43,1.72.44.27.58.85.31,1.29-.27.44-.85.58-1.29.31-.02-.01-1.69-1.02-3.86-1.49-2.19-.49-4.08-.26-5.62.67-.79.47-1.49,1.13-2.09,1.99-.18.26-.47.4-.77.4Z"/>
              <path class="cls-18" d="m157.36,123.52c0,2.44,1.64,4.43,3.65,4.43s3.65-1.99,3.65-4.43c0-.95-.26-1.84-.68-2.56-1.92-.43-4.25-.47-6.31.79-.2.54-.32,1.14-.32,1.77Z"/>
              <path class="cls-3" d="m153.32,160.84c-.24,0-.47-.01-.68-.03-4.07-.41-13.06-.45-17.82-.09-1.12.09-1.88-.12-2.7-.34-.2-.05-.4-.11-.62-.16-1.14-.27-2.85-1.62-3.04-1.78-.34-.27-.39-.76-.12-1.1.27-.34.76-.39,1.1-.12.62.49,1.83,1.33,2.43,1.48.24.06.45.12.66.17.74.2,1.33.36,2.17.29,4.83-.37,13.96-.32,18.1.09.63.07,1.44,0,2.41-.18.71-.13,2.14-.92,2.88-1.39.37-.23.85-.12,1.08.24.23.36.12.85-.24,1.08-.22.14-2.19,1.38-3.43,1.61-.81.15-1.54.23-2.17.23Z"/>
              <path class="cls-3" d="m127.98,159.71s-.06,0-.1,0c-.43-.05-.73-.44-.68-.87.18-1.46,1.61-2.61,1.77-2.74.34-.27.83-.2,1.1.14.26.34.2.83-.14,1.1h0c-.28.22-1.1,1-1.19,1.7-.05.4-.39.68-.77.68Z"/>
              <path class="cls-3" d="m159.16,159.79c-.36,0-.68-.25-.76-.61-.11-.49-.89-1.28-1.38-1.66-.34-.26-.41-.75-.14-1.1s.75-.41,1.1-.14c.28.21,1.68,1.34,1.95,2.56.09.42-.17.84-.59.93-.06.01-.11.02-.17.02Z"/>
            </g>
          </g>
        </g>
      </g>
    </g>
  </g>
</svg>