<?xml version="1.0" encoding="UTF-8"?>
<svg id="Layer_2" data-name="Layer 2" xmlns="http://www.w3.org/2000/svg" xmlns:xlink="http://www.w3.org/1999/xlink" viewBox="0 0 292 293">
  <defs>
    <style>
      .cls-1, .cls-2 {
        fill: #fff;
      }

      .cls-3 {
        fill: #7d92be;
      }

      .cls-4 {
        fill: #290f1a;
      }

      .cls-5 {
        fill: #f9ead9;
      }

      .cls-6 {
        fill: #e6e6e6;
      }

      .cls-7 {
        fill: #893e4c;
      }

      .cls-8 {
        fill: #6d2931;
      }

      .cls-9 {
        fill: #5f77a1;
      }

      .cls-2 {
        filter: url(#drop-shadow-1);
      }

      .cls-10 {
        fill: #591e26;
      }

      .cls-11 {
        fill: #eea489;
      }

      .cls-12 {
        clip-path: url(#clippath);
      }

      .cls-13 {
        fill: #fed0b9;
      }

      .cls-14 {
        fill: #35231f;
      }

      .cls-15 {
        fill: #db8a75;
      }
    </style>
    <filter id="drop-shadow-1" filterUnits="userSpaceOnUse">
      <feOffset dx="3" dy="3"/>
      <feGaussianBlur result="blur" stdDeviation="5"/>
      <feFlood flood-color="#000" flood-opacity=".42"/>
      <feComposite in2="blur" operator="in"/>
      <feComposite in="SourceGraphic"/>
    </filter>
    <clipPath id="clippath">
      <circle class="cls-5" cx="143.23" cy="143.46" r="112.77" transform="translate(-59.49 143.3) rotate(-45)"/>
    </clipPath>
  </defs>
  <g id="diverse_portrait_people_icons" data-name="diverse portrait people icons">
    <g>
      <circle class="cls-2" cx="143.23" cy="143.46" r="130.7"/>
      <g>
        <circle class="cls-5" cx="143.23" cy="143.46" r="112.77" transform="translate(-59.49 143.3) rotate(-45)"/>
        <g class="cls-12">
          <g>
            <g>
              <path class="cls-1" d="m196.31,264.3c-2.86,1.41-5.78,2.7-8.75,3.86-5.29,2.08-10.76,3.74-16.41,4.87-.07.03-.16.04-.24.06-.81.17-1.62.31-2.44.46-.05,0-.11.01-.15.03-5.01.85-10.16,1.29-15.41,1.25-6.7-.04-13.2-.44-19.46-1.11-2.7-.29-5.34-.63-7.95-1.02-2.99-.44-5.91-.95-8.79-1.51-2.27-.44-4.51-.92-6.7-1.42-3.23-.75-6.36-1.56-9.41-2.42-2.09-.58-4.12-1.2-6.12-1.83l-.04-1.27h0s-.79-21.26-.79-21.26l-.45-11.97-.07-1.93,1.63-1.21,9.1-6.77h.01s13.33-9.9,13.33-9.9l7.98-5.93.16-.12,5.23-3.89,19.73,1.3,29.81,1.96,7.41.48h.05s6.55.44,6.55.44l.52.03,1.66,58.82Z"/>
              <path class="cls-6" d="m171.15,273.03c-.07.03-.16.04-.24.06-.81.17-1.62.31-2.44.46-.05,0-.11.01-.15.03.08-.42.12-.65.12-.65h.08s2.64.1,2.64.1Z"/>
              <path class="cls-6" d="m133.44,273.72c-2.7-.29-5.34-.63-7.95-1.02-2.99-.44-5.91-.95-8.79-1.51-2.27-.44-4.51-.92-6.7-1.42l.32-2.69.8-6.46,2.18-17.92,3.72-30.49,7.78-3.94.16-.08-.26,8.14-.3,9.47c.05.27.12.53.18.8.77,3.52,3.97,18.14,6.32,30.13,1.57,7.99,2.74,14.83,2.57,16.43-.02.15-.04.33-.05.55Z"/>
              <path class="cls-6" d="m142.8,266.35c-.69,0-1.26-.05-1.67-.16-4.02-1.12-18.05-15.7-19.64-17.36l1.51-1.44c5.84,6.1,16.08,16.06,18.69,16.79,2.6.72,16.29-2.25,24.47-4.33l12.82-9.75,1.26,1.66-13.16,10.01-.2.05c-1.99.51-17.95,4.53-24.08,4.53Z"/>
            </g>
            <g>
              <path class="cls-13" d="m190.01,196.44s-8.57,30.6-10.38,33.65c-1.76,2.99-11.3,17.64-13.73,19.35l-.13.08c-2.19,1.24-22.97,4.76-22.97,4.76,0,0-14.44-10.23-18.39-28.47-.29-1.32-.72-4.81-.39-9.47.86-11.9,4.05-30.36,4.05-30.36l25.07-22.36,10.18-26.3,10.58.24s6.11,44.84,7.6,47.36c0,0,0,0,0,0,1.51,2.53,8.49,11.51,8.49,11.51Z"/>
              <path class="cls-11" d="m190.01,196.44s-8.57,30.6-10.38,33.65c-1.76,2.99-11.3,17.64-13.73,19.35l-.13.08s12.24-33.23,13.39-37.75c1.15-4.52,2.35-26.85,2.35-26.85,0,0,0,0,0,0,1.51,2.53,8.49,11.51,8.49,11.51Z"/>
              <path class="cls-11" d="m175.34,150.39s-7.12,25.31-9.57,31.67c-1.9,4.94-24.57,31.4-26.06,33-1.21,1.3-12.42,1.24-15.67,1.28.86-11.9,4.05-30.36,4.05-30.36l25.07-22.36,10.18-26.3,11.86,2,.14,11.06Z"/>
            </g>
            <g>
              <path class="cls-3" d="m125.5,272.7c-2.99-.44-5.91-.95-8.79-1.51-2.27-.44-4.51-.92-6.7-1.42-3.23-.75-6.36-1.56-9.41-2.42-2.09-.58-4.12-1.2-6.12-1.83-.31-.1-.63-.19-.94-.3-1.32-.43-2.64-.86-3.92-1.31-1.7-.58-3.37-1.17-5.01-1.79-5.22-1.94-10.11-4.01-14.65-6.09-7.27-3.35-13.62-6.78-18.96-9.94,3.17-4.57,6.62-8.82,9.73-12.39.15-.18.3-.35.46-.52,3.32-3.78,6.23-6.74,7.96-8.42.53-.52.96-.93,1.23-1.2.09-.08.17-.16.22-.21.12-.12.18-.18.18-.18l32.58-12.14,6.71-2.51,8.58-3.2-1.46,5.9-6.37,25.96,2.49,5.52,12.15,26.95s0,.02,0,.02c0,0,.02,1.14.02,3.03Z"/>
              <path class="cls-9" d="m125.5,272.7c-2.99-.44-5.91-.95-8.79-1.51-2.21-1.4-4.48-2.87-6.37-4.12-2.66-1.75-4.58-3.06-4.58-3.06l-5.15,3.33c-2.09-.58-4.12-1.2-6.12-1.83-.31-.1-.63-.19-.94-.3-1.32-.43-2.64-.86-3.92-1.31-1.7-.58-3.37-1.17-5.01-1.79-.3-3.7-.56-7.12-.69-8.83-.16-2.3,4.4-12.31,9.29-22.27.51-1.05,1.03-2.11,1.55-3.14,3.46-6.97,6.84-13.5,8.6-16.86l6.71-2.51,8.58-3.2-1.46,5.9-6.37,25.96,2.49,5.52,12.15,26.95s0,.02,0,.02c0,0,.02,1.14.02,3.03Z"/>
              <path class="cls-3" d="m69.97,256.03c-7.27-3.35-13.62-6.78-18.96-9.94-.03-.02-.05-.04-.09-.06,2.84-4.2,6.45-8.56,9.81-12.33.15-.18.3-.35.46-.52,4.23-4.74,8-8.47,9.19-9.63.09-.08.17-.16.22-.21.12-.12.18-.18.18-.18l-.82,32.86Z"/>
              <path class="cls-3" d="m125.47,269.67l-14.34-9.05-8.43-5.31-8.26,8.94h0s-.9.98-.9.98c-1.32-.43-2.64-.86-3.92-1.31-.05-4.18-.07-9.55.12-11.32.09-.83,1.65-4.55,3.92-9.6,2.79-6.25,6.68-14.53,10.21-21.88h.01c2.36-4.91,4.57-9.4,6.2-12.6,1.28-2.51,2.19-4.23,2.56-4.73,2.07-2.88,14.31-11.95,14.31-11.95l-.65,5.44-.95,7.88-.37,3.02-.18.29-3.82,6.13s-3.76,16.61-3.7,20.15c.06,3.49,7.94,33.93,8.19,34.88.01.01,0,.02,0,.02Z"/>
            </g>
            <g>
              <path class="cls-11" d="m92.21,155.05s7.47,3.16,9.26,2.9c1.79-.25,8.92-.81,9.62-.44.7.37-.67,2.14-2.63,2.52-1.96.38-7.08,1.45-7.08,1.45,0,0-8.14-2.34-9.18-6.43Z"/>
              <path class="cls-11" d="m143.58,150.91c-.25,0-.49-.09-.69-.26-.43-.38-.47-1.04-.09-1.47l5.53-6.26c.38-.43,1.04-.47,1.47-.09.43.38.47,1.04.09,1.47l-5.53,6.26c-.21.23-.49.35-.78.35Z"/>
              <path class="cls-11" d="m144.89,155.25c-.23,0-.47-.08-.66-.24-.45-.37-.51-1.02-.15-1.47l4.83-5.89c.37-.45,1.02-.51,1.47-.15.45.37.51,1.02.15,1.47l-4.83,5.89c-.21.25-.51.38-.81.38Z"/>
              <g>
                <path class="cls-13" d="m166.15,113.76l-12.81,48.12-22.42,14.1s-38.28-2.92-40.7-10.54c-2.42-7.62-6.19-41.31-6.43-44.57-.16-2.13,2.29-13.36,4.01-20.92.92-4.05,1.64-7.05,1.64-7.05,0,0,17.06-5.6,33.45-10.97h0c14.93-4.88,29.29-9.57,29.73-9.67.9-.2,13.53,41.51,13.53,41.51Z"/>
                <path class="cls-11" d="m148.87,83.93s-30.45,16.19-35.01,17.47c-4.25,1.19-23.46-1.14-26.06-1.46.92-4.05,1.64-7.05,1.64-7.05,0,0,17.06-5.6,33.45-10.97h0s25.98,2.01,25.98,2.01Z"/>
                <path class="cls-8" d="m186.68,120.08c-.96,3.44-4.88,9.79-4.88,9.79l-8.74-9.18-5.81,2.03s-5.52,40.65-8.09,45.39c-2.09,3.84-24.82,19.08-33.29,24.67-2.02,1.34-4.46,1.91-6.87,1.62l-12.12-1.46c-3.55-.43-6.62-2.67-8.1-5.93-3.09-6.83-8.11-18.27-8.57-21.56,0,0,2.31-5.06,5.41-6.49l6.51,2.46,7.89-2.1s16.35,4.11,18.5,6.11,4,6.61,4,6.61c0,0,19.36-12.95,20.54-15.77,1.18-2.82,7.62-35.42,7.62-35.42,0,0-5.73-7.1-6.29-10.1s-8.08-25.02-8.08-25.02c0,0-28.92,9.43-33.72,10.9-4.8,1.48-27.57-3.9-31.72-9.06,0,0-5.16,4.16-6.96,7.21,0,0-1.19-13.04.32-18.59v-.03c.18-.65.4-1.2.66-1.61,2.48-3.86,23.75-12.78,26.56-14.24,2.81-1.46,9.11-10.81,13.93-11.76,4.81-.96,20.53-1.93,25.58-2.28,5.04-.34,14.64-1.97,17.98-.14,3.34,1.83,12.92,11.4,12.92,11.4,0,0,13.96,4.44,15.59,8.44,1.64,4.01.18,50.69-.78,54.12Z"/>
                <path class="cls-14" d="m114.59,172.03c-2.62,0-13.85-.96-15.85-1.47-2.17-.55-3.86-2.27-3.93-2.34-.27-.28-.26-.72.02-.98.28-.27.72-.26.98.01.01.02,1.49,1.51,3.27,1.96,1.98.5,14.36,1.55,15.78,1.42,1.09-.1,3.05-1.14,3.71-1.54.33-.2.76-.09.95.24.2.33.09.76-.24.95-.27.16-2.7,1.58-4.3,1.73-.09,0-.23.01-.4.01Z"/>
                <path class="cls-14" d="m112.76,176.43s-.04,0-.07,0l-10.5-1.01c-.38-.04-.66-.38-.63-.76.04-.38.38-.66.76-.63l10.5,1.01c.38.04.66.38.63.76-.03.36-.34.63-.69.63Z"/>
                <path class="cls-10" d="m146.17,85.7s-28.77,9.44-33.57,10.92c-4.8,1.48-21.73-.63-31.42-6.38,0,0-5.48,4.42-7.28,7.47,0,0-1.17-15.98.34-21.53v-.03s.66-1.61.66-1.61c0,0,4.3,7.06,5.66,7.68,2.53,1.15,23.51,6.05,29.63,6.7,6.11.65,35.99-3.22,35.99-3.22Z"/>
                <path class="cls-10" d="m186.68,120.08c-.96,3.44-4.88,9.79-4.88,9.79l-8.74-9.18s5.13-9.46,6-12.02c.86-2.56,2.75-36.83,2.52-40.09-.24-3.26-9.72-11.05-9.72-11.05,0,0,13.96,4.44,15.59,8.44,1.64,4.01.18,50.69-.78,54.12Z"/>
                <path class="cls-10" d="m84.65,80.1c-.46,0-.87-.3-1-.76-.16-.55.17-1.13.72-1.29.7-.2,17.33-4.84,25.32-4.65,2.68.06,6.14.53,10.15,1.06,7.74,1.04,17.38,2.32,24.46.91,10.4-2.07,21.44-13.36,21.55-13.47.4-.41,1.06-.42,1.48-.02.41.4.42,1.06.02,1.48-.47.48-11.61,11.87-22.64,14.06-7.43,1.48-17.25.16-25.15-.89-3.95-.53-7.36-.99-9.93-1.04-7.68-.19-24.54,4.53-24.71,4.58-.09.03-.19.04-.28.04Z"/>
                <path class="cls-10" d="m172.8,113.16c-.14,0-.29-.03-.43-.09-.52-.24-.76-.86-.52-1.38.84-1.85,3.13-7,3.52-8.57.35-1.48.52-20.83.54-32.68,0-.58.47-1.04,1.04-1.04h0c.58,0,1.04.47,1.04,1.05-.01,5.19-.09,31.16-.61,33.19-.53,2.08-3.52,8.65-3.65,8.93-.18.38-.55.61-.95.61Z"/>
                <path class="cls-10" d="m172.66,100.77c-.52,0-.97-.39-1.04-.93l-1.98-17.3c-.07-.57.35-1.09.92-1.16.57-.07,1.09.35,1.16.92l1.98,17.3c.07.57-.35,1.09-.92,1.16-.04,0-.08,0-.12,0Z"/>
                <path class="cls-10" d="m83.97,87.17c-.4,0-.79-.23-.96-.63-.23-.53.01-1.14.54-1.37,2.14-.93,21.09-9.07,25.88-8.56l14.56,1.56c.57.06.99.58.93,1.15-.06.57-.58.99-1.15.93l-14.56-1.56c-3.6-.39-19.14,5.93-24.83,8.4-.14.06-.28.09-.41.09Z"/>
                <path class="cls-7" d="m133.95,66.43c-1.31-.14-20.16-5.69-26.6-3.29-6.44,2.4-26.83,11.27-26.83,11.27,0,0,29.86-6.53,38.5-4.72,8.64,1.81,14.93-3.26,14.93-3.26Z"/>
              </g>
              <g>
                <path class="cls-13" d="m163.68,147.15l4.84,1.02c2.68.56,5.44-.58,6.93-2.88l6.46-9.94c1.42-2.19,1.43-5.01.02-7.21l-2.69-4.19c-1.65-2.57-4.85-3.68-7.74-2.69l-4.25,1.46-3.57,24.44Z"/>
                <path class="cls-11" d="m165.54,142.58c-.05,0-.11,0-.17-.01-.57-.09-.96-.63-.87-1.19,1.39-8.73,8.79-14.11,9.1-14.34.47-.34,1.12-.23,1.45.24.34.47.23,1.12-.24,1.46-.07.05-7,5.12-8.25,12.97-.08.51-.53.88-1.03.88Z"/>
                <path class="cls-11" d="m167.1,137.59c-.35,0-.69-.18-.89-.49-.3-.49-.15-1.13.34-1.44,2.78-1.72,6.96-.75,8.53-.39.19.04.33.08.41.09.56.09.97.61.89,1.17-.07.56-.57.96-1.13.91-.11-.01-.33-.06-.65-.13-1.34-.31-4.91-1.14-6.96.13-.17.11-.36.16-.55.16Z"/>
              </g>
              <path class="cls-4" d="m128.71,134.65c-.28,2.65-2.01,4.65-3.86,4.45-1.85-.2-3.12-2.51-2.84-5.16.28-2.65,2.01-4.65,3.86-4.45,1.85.2,3.12,2.51,2.84,5.16Z"/>
              <path class="cls-4" d="m96.13,132.76c.32,2.65-.91,4.98-2.76,5.2-1.85.23-3.61-1.74-3.93-4.39-.32-2.65.91-4.98,2.76-5.21,1.85-.23,3.61,1.74,3.93,4.39Z"/>
              <path class="cls-10" d="m112.73,122.27s.79,2.96,2.47,3.8c1.68.84,17.9-.07,17.9-.07l5.59,1.48s-3.64-5.25-5.17-5.41c-1.53-.16-20.79.21-20.79.21Z"/>
              <path class="cls-10" d="m99,122.57s-1.5,3.71-3.08,3.98c-1.58.27-11.59-1.07-11.59-1.07l-.76-5.33,15.43,2.42Z"/>
              <path class="cls-15" d="m102.18,162.13l-.14-.02c-6.61-1.01-10.25-6.44-10.4-6.67l-.23-.34,9.01-17.25.38-5.56c.03-.38.36-.67.74-.65.38.03.67.36.65.74l-.4,5.85-8.76,16.77c.86,1.13,4.06,4.88,9.07,5.71l7.74-2.06c.37-.1.75.12.85.49.1.37-.12.75-.49.85l-8.02,2.14Z"/>
              <path class="cls-14" d="m130.05,133.87c-.27,0-.52-.15-.64-.41-1.95-4.42-7.58-2.28-7.82-2.19-.36.14-.76-.04-.9-.39-.14-.36.03-.76.39-.9,2.45-.97,7.61-1.6,9.6,2.92.16.35,0,.76-.36.92-.09.04-.19.06-.28.06Z"/>
              <path class="cls-14" d="m96.86,132.97c-.29,0-.57-.19-.66-.49-.47-1.48-1.25-2.44-2.31-2.84-2.22-.84-5.07.84-5.1.85-.33.2-.76.09-.95-.24-.2-.33-.09-.76.24-.95.14-.08,3.45-2.04,6.31-.96,1.49.56,2.55,1.81,3.15,3.72.12.37-.09.76-.45.87-.07.02-.14.03-.21.03Z"/>
              <g>
                <polygon class="cls-4" points="137.76 132.01 167.25 122.72 167.01 124.98 137.36 135.72 137.76 132.01"/>
                <path d="m110.48,133.66s-.03,0-.04,0l-11.42-.67c-.38-.02-.68-.35-.65-.74.02-.38.36-.68.74-.65l11.42.67c.38.02.68.35.65.74-.02.37-.33.66-.69.66Z"/>
                <path d="m131.71,144.74c-.14,0-.28,0-.43-.02-17.67-1.45-18.05-1.92-18.34-2.28-.61-.75-2.85-8.26-3.79-11.46-.06-.22-.02-.45.12-.62.14-.18.35-.28.58-.27l27.93,1.22c.2,0,.39.11.52.26.13.16.18.37.14.56l-1.65,8.41c-.48,2.45-2.62,4.18-5.08,4.18Zm-17.73-3.26c.95.29,5.95.92,17.41,1.86,1.92.16,3.65-1.15,4.02-3.05l1.5-7.62-26.15-1.14c1.16,3.92,2.74,8.98,3.21,9.95Z"/>
                <path d="m98.88,140.92s-.04,0-.05,0l-13.51-1.06c-1.52-.12-2.8-1.2-3.17-2.68l-2.14-8.45c-.06-.22,0-.45.15-.62.15-.17.37-.26.59-.24l18.15,1.72c.36.03.63.33.63.69l.04,9.95c0,.19-.08.38-.22.51-.13.12-.3.19-.47.19Zm-17.28-11.58l1.89,7.5c.23.9,1.01,1.56,1.93,1.63l12.75,1-.04-8.56-16.54-1.57Z"/>
              </g>
            </g>
            <g>
              <path class="cls-3" d="m249.86,220.73c-11.49,13.3-26.23,27.53-43.51,38.05-3.08,1.86-6.23,3.63-9.46,5.23-.2.1-.39.2-.59.29-2.86,1.41-5.78,2.7-8.75,3.86-5.29,2.08-10.76,3.74-16.41,4.87-.07.03-.16.04-.24.06-.81.17-1.62.31-2.44.46.02-.21.03-.41.04-.61.16-1.96.25-3.06.25-3.06l6.01-15.25,19.36-49.18,4.35-11.05.12.06.22.12.14.07.34.18c.86.42,2.34,1.16,4.31,2.14,9.31,4.66,29.55,14.88,46.26,23.76Z"/>
              <path class="cls-9" d="m206.35,258.78c-3.08,1.86-6.23,3.63-9.46,5.23-.2.1-.39.2-.59.29-2.86,1.41-5.78,2.7-8.75,3.86-5.29,2.08-10.76,3.74-16.41,4.87-.07.03-.16.04-.24.06l-2.4-.15h-.08s.33-3.06.33-3.06l6.01-15.25,19.36-49.18,4.35-11.05.12.06.22.12.14.07.34.18,4.32,2.3,3.22,1.7s3.79,34.88,3.81,38.85c0,1.78-2.03,11.19-4.29,21.11Z"/>
              <path class="cls-3" d="m196.89,264.01c-.2.1-.39.2-.59.29-2.86,1.41-5.78,2.7-8.75,3.86l-9.57-6.13-9.23,7.85,3.96-13.69h0s11.89-41.05,11.89-41.05l.44-1.51,2.49-8.61,2.02-6.91.09-.34.16-.56.06-.23.15-.53s-.11-.14-.31-.39c-.09-.13-.21-.28-.35-.45-.13-.18-.3-.37-.46-.59-.08-.1-.15-.2-.23-.3-.08-.1-.18-.2-.26-.32-.22-.29-.46-.59-.69-.91-.15-.2-.31-.4-.47-.61-.3-.38-.6-.78-.91-1.19-.01-.01-.02-.03-.02-.04-2.17-2.82-4.5-5.97-4.77-6.64-.01-.01-.02-.03-.02-.04-.01-.01,0-.02-.02-.03h0c-.18-.89-1.68-7.93-1.75-8.29.68.37,22.39,12.45,23.33,15.81.17.65.35,2.28.5,4.51,0,.05.01.11,0,.15.68,9.73,1.15,30.63,1.39,33.32.22,2.33-4.97,21.93-8.12,33.57Z"/>
            </g>
          </g>
        </g>
      </g>
    </g>
  </g>
</svg>