<?xml version="1.0" encoding="UTF-8"?>
<svg id="Layer_2" data-name="Layer 2" xmlns="http://www.w3.org/2000/svg" xmlns:xlink="http://www.w3.org/1999/xlink" viewBox="0 0 293 293">
  <defs>
    <style>
      .cls-1 {
        fill: #287056;
      }

      .cls-2, .cls-3 {
        fill: #fff;
      }

      .cls-4 {
        opacity: .2;
      }

      .cls-5 {
        fill: #f9ead9;
      }

      .cls-6 {
        clip-path: url(#clippath-1);
      }

      .cls-3 {
        filter: url(#drop-shadow-1);
      }

      .cls-7 {
        fill: #eea489;
      }

      .cls-8 {
        clip-path: url(#clippath);
      }

      .cls-9 {
        fill: none;
      }

      .cls-10 {
        fill: #fed0b9;
      }

      .cls-11 {
        fill: #3e8a72;
      }

      .cls-12 {
        fill: #39302b;
      }

      .cls-13 {
        fill: #35231f;
      }

      .cls-14 {
        fill: #db8a75;
      }
    </style>
    <filter id="drop-shadow-1" filterUnits="userSpaceOnUse">
      <feOffset dx="3" dy="3"/>
      <feGaussianBlur result="blur" stdDeviation="5"/>
      <feFlood flood-color="#000" flood-opacity=".42"/>
      <feComposite in2="blur" operator="in"/>
      <feComposite in="SourceGraphic"/>
    </filter>
    <clipPath id="clippath">
      <circle class="cls-5" cx="142.57" cy="143.91" r="112.77" transform="translate(-60.01 142.96) rotate(-45)"/>
    </clipPath>
    <clipPath id="clippath-1">
      <path class="cls-9" d="m167.61,288.91s-128.77-23.66-128.29-24.88c4.5-11.4,54.9-50.34,54.9-50.34l80.17,6.35s40.76,18.11,51.58,29.51c.84.88,1.5,1.73,1.95,2.53,5.14,9.15-60.31,36.83-60.31,36.83Z"/>
    </clipPath>
  </defs>
  <g id="diverse_portrait_people_icons" data-name="diverse portrait people icons">
    <g>
      <circle class="cls-3" cx="143.69" cy="143.43" r="130.7"/>
      <g>
        <circle class="cls-5" cx="142.57" cy="143.91" r="112.77" transform="translate(-60.01 142.96) rotate(-45)"/>
        <g class="cls-8">
          <g>
            <g>
              <path class="cls-11" d="m218.75,243.65c-.89.75-1.81,1.52-2.78,2.29-8.94,7.13-21.29,14.86-37.22,20.16-13.58,4.52-29.78,7.29-48.68,6.42-28.44-1.32-51.09-9.45-68.05-18.74-3.23-1.78-6.27-3.59-9.08-5.41,13.28-12.51,32.22-27.56,38.86-32.77.15-.12.29-.23.42-.32,1.28-1.02,2.01-1.57,2.01-1.57l19.78,1.57,32.62,2.57,16.11,1.28h.17s11.48.92,11.48.92c0,0,1.66.74,4.42,2.01.03.02.07.05.12.06,1.71.8,3.81,1.79,6.2,2.94h.01c9.79,4.71,24.13,12,33.62,18.59Z"/>
              <g class="cls-4">
                <g class="cls-6">
                  <g>
                    <path class="cls-2" d="m26.83,279.76l-1.17-1.98c10.61-6.24,18.52-10.64,31.25-14.69,57.32-18.25,123.52-36.92,183.68-27.44l-.36,2.27c-59.67-9.4-125.55,9.19-182.63,27.36-12.5,3.98-20.31,8.32-30.79,14.48Z"/>
                    <path class="cls-2" d="m19.83,315.47l-1.51-1.73c15.42-13.45,35.83-20,53.76-25.08,60.52-17.16,123.09-26.83,185.97-28.74l.07,2.3c-62.69,1.91-125.08,11.55-185.42,28.66-17.69,5.01-37.82,11.46-52.88,24.6Z"/>
                  </g>
                  <path class="cls-2" d="m22.74,347.22l-1.2-1.97c11.53-7.01,24.29-11.83,36.63-16.5l48.17-18.21c9.76-3.69,19.86-7.51,30.21-10.05,6.91-1.7,14.03-2.85,20.91-3.97l2.11-.34c34.01-5.55,68.21-12.54,101.66-20.79l.55,2.23c-33.51,8.26-67.78,15.27-101.84,20.83l-2.12.34c-6.84,1.11-13.91,2.26-20.73,3.93-10.21,2.51-20.25,6.3-29.95,9.97l-48.17,18.21c-12.24,4.63-24.9,9.41-36.25,16.31Z"/>
                  <path class="cls-2" d="m146.55,597.97c-13.44-72.29-27.34-147.05-53.32-217.22-.75-2.03-1.52-4.06-2.28-6.09-3.03-8.07-6.17-16.42-8.59-24.87-1.6-5.57-2.92-11.32-4.2-16.88-2.41-10.48-4.91-21.32-9.32-31.24-3.01-6.78-6.54-12.89-9.95-18.79-6.04-10.46-11.75-20.34-13.24-31.87l2.28-.29c1.43,11.07,7.03,20.76,12.95,31.01,3.44,5.96,7,12.11,10.06,19.01,4.5,10.13,7.02,21.08,9.46,31.66,1.27,5.53,2.59,11.25,4.17,16.76,2.4,8.36,5.52,16.67,8.54,24.7.76,2.03,1.53,4.07,2.28,6.1,26.05,70.36,39.97,145.21,53.43,217.6l-2.26.42Z"/>
                  <path class="cls-2" d="m161.71,589.14c-2.14-18.61-2.09-20.04-1.73-29.34.13-3.42.31-8.11.42-15.22l.03-1.86c.11-6.12.21-12.45-.64-18.56-.75-5.33-2.24-10.63-3.69-15.75l-51.77-183.2c-9.21-32.58-18.72-66.26-38.13-94.77l1.9-1.3c19.62,28.81,29.19,62.68,38.45,95.44l51.77,183.2c1.47,5.2,2.99,10.58,3.76,16.06.88,6.29.77,12.71.66,18.92l-.03,1.86c-.11,7.13-.29,11.84-.42,15.27-.35,9.15-.4,10.56,1.72,28.99l-2.29.26Z"/>
                  <path class="cls-2" d="m186.79,594.32c-.95-47.31-1.93-96.24-17.02-142.04-2.84-8.61-6.22-17.21-9.49-25.53-4.83-12.29-9.83-25-13.19-38.03-2.61-10.12-4.27-20.6-5.87-30.73-1.61-10.19-3.29-20.73-5.92-30.86-7.97-30.65-24.69-58.13-40.86-84.71l-17.07-28.06,1.96-1.2,17.07,28.06c16.26,26.72,33.07,54.35,41.12,85.33,2.66,10.23,4.34,20.83,5.96,31.08,1.6,10.08,3.25,20.5,5.83,30.52,3.32,12.89,8.29,25.54,13.1,37.76,3.28,8.35,6.68,16.98,9.53,25.66,15.2,46.13,16.18,95.23,17.13,142.72l-2.3.05Z"/>
                  <path class="cls-2" d="m210.01,579.18c-.31-6.53.04-12.66.38-18.6.35-6.16.72-12.54.32-19.27-2.58-43.89-12.18-86.83-28.54-127.64-2.5-6.24-5.21-12.53-7.83-18.62-4.81-11.18-9.77-22.73-13.71-34.48-3.56-10.63-6.35-21.67-9.05-32.34-1.13-4.47-2.3-9.09-3.51-13.61-10.57-39.56-25.75-77.91-45.13-113.98l2.03-1.09c19.46,36.23,34.71,74.74,45.33,114.48,1.21,4.54,2.38,9.17,3.52,13.64,2.69,10.63,5.47,21.63,9,32.18,3.9,11.66,8.85,23.17,13.64,34.3,2.62,6.1,5.33,12.4,7.85,18.67,16.45,41.04,26.11,84.22,28.7,128.36.4,6.87.03,13.31-.32,19.54-.34,5.87-.68,11.95-.38,18.35l-2.3.11Z"/>
                  <path class="cls-2" d="m227.71,494.91c-1.46-17.34-4.54-34.63-9.16-51.4-3.13-11.34-7.03-22.68-10.81-33.64l-.7-2.02c-22.71-65.99-44.68-134.7-65.3-204.25l2.21-.65c20.61,69.51,42.57,138.2,65.27,204.16l.7,2.02c3.79,10.99,7.7,22.36,10.85,33.78,4.66,16.91,7.77,34.34,9.24,51.82l-2.29.19Z"/>
                  <path class="cls-2" d="m231.21,438.68c-2.02-23.76-7.95-47.28-13.69-70.02l-39.88-158.06,2.23-.56,39.88,158.06c5.76,22.84,11.72,46.45,13.75,70.39l-2.29.19Z"/>
                  <path class="cls-2" d="m242.62,428.78c-8.42-72.09-21.98-144.26-40.3-214.49l2.23-.58c18.35,70.34,31.93,142.61,40.36,214.8l-2.29.27Z"/>
                </g>
              </g>
              <path class="cls-1" d="m218.75,243.65c-.89.75-1.81,1.52-2.78,2.29-8.12-2.89-18.07-6.31-25.9-8.99-7.57-2.59-13.13-4.48-13.13-4.48l-1.07.22-.37.07-10.8,2.19-1.15.23h-.05s-4.85.99-4.85.99h-.02l-.31.07-.2.03-6.35,1.28,5.02,20.32c-30.55,2.85-62.59-26.07-62.59-26.07-5.71,2.92-19.5,12.61-32.18,21.96-3.23-1.78-6.27-3.59-9.08-5.41,13.28-12.51,32.22-27.56,38.86-32.77.15-.12.29-.23.42-.32,1.28-1.02,2.01-1.57,2.01-1.57l19.78,1.57,32.62,2.57,16.11,1.28h.17s11.48.92,11.48.92c0,0,1.66.74,4.42,2.01.03.02.07.05.12.06,1.71.8,3.81,1.79,6.2,2.94h.01c9.79,4.71,24.13,12,33.62,18.59Z"/>
              <path class="cls-1" d="m178.75,267.25c-.49,0-.94-.31-1.1-.8-3.66-11.6-6.71-19.87-6.75-19.95-.22-.6.08-1.26.68-1.48.59-.22,1.26.08,1.48.68.03.08,3.1,8.4,6.78,20.05.19.61-.14,1.25-.75,1.44-.12.04-.23.05-.35.05Z"/>
              <path class="cls-11" d="m162.48,205.08l18.49,9.99-8.98,31.03-8.32-7.57s-1.54-27.17-1.19-33.45Z"/>
              <polygon class="cls-1" points="192.54 242.87 180.97 215.07 174.48 236.05 192.54 242.87"/>
              <polygon class="cls-1" points="158.9 226.1 171.99 246.1 157.64 242.4 158.9 226.1"/>
              <path class="cls-1" d="m171.99,247.25c-.11,0-.21-.01-.32-.05-.61-.18-.96-.81-.79-1.42l8.98-31.03c.18-.61.81-.96,1.42-.78.61.18.96.81.79,1.42l-8.98,31.03c-.15.5-.61.83-1.1.83Z"/>
            </g>
            <g>
              <path class="cls-10" d="m106.17,184.6c.35-3.33.41-12.33.38-20.22-.03-7.34-.13-13.72-.13-13.72l3.22.18,54.62,24.02s-1.74,19.96-1.81,27.06c0,.34,0,.72,0,1.16.05,8.68,1.22,35.45,1.22,35.45l-63.36-29.68s5.18-17.82,5.86-24.25Z"/>
              <path class="cls-7" d="m162.45,201.93c0,.34,0,.72,0,1.16-2.79.7-6.01,1.21-8.18.66-4.78-1.24-39.5-16.72-41.87-20.73-1.53-2.6-4.18-12.21-5.85-18.63-.03-7.34-.13-13.72-.13-13.72l3.22.18,54.62,24.02s-1.74,19.96-1.81,27.06Z"/>
            </g>
            <g>
              <path class="cls-12" d="m188,113.6l-12.83,12.87s-.32,0-.9.02c-7.29.15-56.62,1.19-59.31,1.04-.19-.01-.44-.05-.73-.09-4.07-.73-16.92-5.25-16.92-5.25l-8.88-49.91s-.01-.05-.01-.05c0,0,23.27-23.94,41.81-28.26,1.7-.4,3.44-.67,5.21-.83,22.81-2.13,50.35,13.58,50.35,13.58l2.21,56.88Z"/>
              <path d="m188,113.6l-12.83,12.87s-.32,0-.9.02l-19.16-40.9-34.12-11.74s22.44-5.39,28.84-6.99c6.39-1.58,12.32-12.42,12.32-12.42-2.97-2.49-20.02-8.87-26.7-11.31,22.81-2.13,50.35,13.58,50.35,13.58l2.21,56.88Z"/>
              <path d="m114.69,123.63s-.17,1.5-.46,3.81c-4.07-.73-16.92-5.25-16.92-5.25l-8.88-49.91c.3.96,5.21,16.34,14.43,19.66,9.51,3.43,11.84,31.69,11.84,31.69Z"/>
            </g>
            <g>
              <path class="cls-11" d="m104.71,190.51l-13.58,24.23s11.4,14.85,15.57,19.04c18.84,18.98,50.09,24.09,50.09,24.09l2.71-31.62-54.79-35.75Z"/>
              <path class="cls-1" d="m157.85,259.22l-1.24-.2c-.32-.05-31.83-5.39-50.72-24.42-4.18-4.21-14.52-18.53-14.96-19.14-.37-.52-.25-1.23.26-1.61.52-.37,1.23-.25,1.61.26.11.15,10.67,14.78,14.72,18.87,16.25,16.37,42.26,22.35,48.22,23.53l2.12-30.12c.05-.63.59-1.11,1.23-1.07.63.04,1.11.59,1.07,1.23l-2.3,32.66Z"/>
            </g>
            <g>
              <path class="cls-10" d="m180.43,163.14c-1.63,3.37-7.23,10.73-13.05,16.42h0c-3.98,3.9-8.07,6.99-11.05,7.48-7.35,1.22-30.09-8.44-36.19-12.17-6.1-3.73-14.43-37.66-14.43-37.66,0,0-3.62-39.97-2.84-45.27.77-5.29,17.48-18.12,17.48-18.12,0,0,27.63.23,33.44.55,3.68.2,8.5-2.27,11.51-4.11,1.74-1.06,2.88-1.9,2.88-1.9,0,0,8.51,3.86,10.75,7.39,2.23,3.52,3.89,26.4,3.62,31.24-.27,4.83.62,50.47-2.12,56.15Z"/>
              <path class="cls-10" d="m104.25,119.51l-8.16-.23c-2.39-.07-4.49,1.56-5.02,3.89l-2.03,8.92c-.3,1.33-.05,2.72.7,3.86l8.99,13.65c1.08,1.64,3.02,2.49,4.96,2.19l5.95-.94-5.39-31.34Z"/>
              <path class="cls-7" d="m106.61,142.45c-.35,0-.69-.16-.92-.46-4.03-5.32-8.53-7.92-8.58-7.95-.55-.31-.74-1.02-.43-1.57.32-.55,1.02-.74,1.57-.43.2.11,4.96,2.87,9.27,8.55.38.51.28,1.23-.22,1.61-.21.16-.45.23-.69.23Z"/>
              <path class="cls-7" d="m101.19,143.93c-.19,0-.39-.05-.57-.15-.55-.32-.74-1.02-.43-1.57.08-.14,1.92-3.32,4.89-3.74.64-.09,1.21.35,1.3.98.09.63-.35,1.21-.98,1.3-1.53.22-2.84,1.96-3.22,2.61-.21.37-.6.58-1,.58Z"/>
              <path class="cls-10" d="m182.55,112.81l6.24-1.78c1.4-.4,2.91.05,3.86,1.17l3.3,3.87c.77.9,1.06,2.11.79,3.26l-4.39,18.85c-.4,1.72-1.95,2.92-3.71,2.88l-6.34-.13.25-28.12Z"/>
              <path class="cls-14" d="m152.56,146.21c-3.2,0-5.37-.6-5.49-.64-.61-.17-.97-.81-.79-1.42.17-.61.81-.96,1.42-.79.03,0,3.55.97,8.11.32,3.18-.46,4.63-1.79,5.15-2.43l-7.52-24.47c-.19-.61.15-1.25.76-1.44.61-.19,1.25.15,1.44.76l7.82,25.44-.21.41c-.07.13-1.69,3.22-7.11,3.99-1.28.18-2.49.25-3.58.25Z"/>
              <path d="m142.19,105.75s-2.79,3.73-5.69,3.57c-2.9-.16-14.45-1.76-14.45-1.76l-9.29,4.34s4.63-7.83,9.5-8.21c4.87-.38,19.93,2.07,19.93,2.07Z"/>
              <path class="cls-13" d="m133.22,121.61c.14,3.34-1.47,6.12-3.61,6.22-2.14.09-3.99-2.54-4.13-5.88-.15-3.34,1.47-6.12,3.61-6.22,2.14-.09,3.99,2.54,4.13,5.88Z"/>
              <path class="cls-13" d="m123.38,121.14c-.18,0-.37-.04-.55-.14-.56-.3-.76-1-.46-1.55.08-.15,2.07-3.76,5.83-4.4,2.55-.43,5.21.6,7.9,3.05.47.43.5,1.16.07,1.62-.43.47-1.16.5-1.62.07-2.13-1.95-4.13-2.79-5.95-2.49-2.65.44-4.19,3.2-4.21,3.23-.21.38-.6.6-1.01.6Z"/>
              <path class="cls-13" d="m171.75,117.66c.14,3.34-1.47,6.12-3.61,6.22-2.14.09-3.99-2.54-4.13-5.88-.14-3.34,1.47-6.12,3.61-6.22,2.14-.09,3.99,2.54,4.13,5.88Z"/>
              <path class="cls-13" d="m161.91,117.19c-.18,0-.37-.04-.55-.14-.56-.3-.76-1-.46-1.55.08-.15,2.07-3.76,5.83-4.4,2.55-.43,5.21.6,7.9,3.05.47.43.5,1.16.07,1.62-.43.47-1.16.5-1.62.07-2.13-1.95-4.13-2.79-5.95-2.49-2.65.44-4.19,3.2-4.21,3.23-.21.38-.6.6-1.01.6Z"/>
              <path class="cls-2" d="m136.18,156.34s12.14-.3,19.45-.87c7.31-.57,14.39-2.93,14.39-2.93l-6.01,9.37s-6.27,2.24-14.97,1.76c-7.38-2.59-12.85-7.34-12.85-7.34Z"/>
              <path class="cls-7" d="m121.53,141.65c-.1,0-.2-.01-.3-.04l-9.24-2.45c-.61-.16-.98-.79-.82-1.41.16-.61.79-.98,1.41-.82l9.24,2.45c.61.16.98.79.82,1.41-.14.52-.6.86-1.11.86Z"/>
              <path class="cls-7" d="m121.94,145.88c-.1,0-.21-.01-.32-.04l-9.87-2.81c-.61-.17-.97-.81-.79-1.42.17-.61.81-.96,1.42-.79l9.87,2.81c.61.17.97.81.79,1.42-.14.51-.6.84-1.11.84Z"/>
              <polygon class="cls-7" points="104.25 119.51 96.09 119.27 106.85 151.58 109.64 150.84 104.25 119.51"/>
              <polygon class="cls-7" points="182.55 112.81 188.01 111.29 185.16 140.97 182.29 140.93 182.55 112.81"/>
              <path class="cls-7" d="m182.53,134.82c-.08,0-.17,0-.26-.03-.62-.14-1.01-.76-.86-1.38,1.66-7.24,6.47-11.38,6.68-11.55.48-.41,1.21-.35,1.62.13.41.48.35,1.21-.13,1.62-.06.05-4.44,3.86-5.92,10.31-.12.53-.6.89-1.12.89Z"/>
              <path class="cls-7" d="m189.62,133.87c-.28,0-.57-.1-.79-.32h0c-.74-.7-3.04-2.42-4.74-1.98-.61.16-1.24-.21-1.4-.83-.16-.61.21-1.24.83-1.4,3.23-.83,6.53,2.19,6.9,2.54.46.44.48,1.17.04,1.63-.23.24-.53.36-.83.36Z"/>
              <path class="cls-7" d="m177.56,137.13c-.33,0-.66-.14-.88-.41-.41-.49-.34-1.21.15-1.62l5.08-4.25c.49-.41,1.21-.34,1.62.15.41.49.34,1.21-.15,1.62l-5.08,4.25c-.21.18-.48.27-.74.27Z"/>
              <path class="cls-7" d="m177.82,141.19c-.32,0-.64-.13-.87-.4-.42-.48-.36-1.21.12-1.62l4.92-4.26c.48-.42,1.21-.36,1.62.12.42.48.36,1.21-.12,1.62l-4.92,4.26c-.22.19-.49.28-.75.28Z"/>
              <path class="cls-7" d="m136.19,157.33c-.63,0-1.15-.51-1.15-1.14,0-.64.51-1.15,1.14-1.16.09,0,9.07-.08,19.38-.71,9.77-.6,13.73-1.61,13.77-1.62.61-.16,1.24.21,1.4.82.16.61-.2,1.24-.82,1.4-.17.04-4.17,1.08-14.22,1.69-10.37.63-19.41.71-19.5.71h0Z"/>
              <path class="cls-7" d="m135.42,159.55c-.41,0-.81-.22-1.02-.61-1.41-2.66.72-5.23,2.05-6.22.51-.38,1.23-.27,1.61.24.38.51.27,1.23-.23,1.61h0s-2.23,1.71-1.39,3.3c.3.56.08,1.26-.48,1.55-.17.09-.35.13-.54.13Z"/>
              <path class="cls-7" d="m171.21,155.54c-.62,0-1.13-.49-1.15-1.11-.02-.62-1.45-1.31-2.24-1.53-.61-.16-.98-.8-.81-1.41.16-.61.79-.98,1.41-.81.39.11,3.85,1.11,3.94,3.66.02.64-.47,1.17-1.11,1.19-.01,0-.03,0-.04,0Z"/>
              <path class="cls-7" d="m180.43,163.14c-1.63,3.37-7.23,10.73-13.05,16.42,4-6.42,10.49-17.12,11.33-20.39,1.23-4.79-.74-66.01-2.3-72.88-1.46-6.42-10-14.93-11.12-16.02,1.74-1.06,2.88-1.9,2.88-1.9,0,0,8.51,3.86,10.75,7.39,2.23,3.52,3.89,26.4,3.62,31.24-.27,4.83.62,50.47-2.12,56.15Z"/>
              <path d="m157.07,105.59s1.52,1.7,5.75,1.29c4.23-.41,10.83-2.96,10.83-2.96l7.73,2.04s-3.99-5.39-6.57-5.53c-2.58-.14-17.75,5.17-17.75,5.17Z"/>
              <path class="cls-7" d="m150.02,164.96c-.93,0-1.6-.01-1.85-.02-.63-.01-1.14-.54-1.12-1.18.02-.63.56-1.14,1.18-1.12,3.16.07,11.97-.04,14.83-1.46.57-.28,1.26-.05,1.54.52.28.57.05,1.26-.52,1.54-3.08,1.53-10.5,1.72-14.05,1.72Z"/>
            </g>
          </g>
        </g>
      </g>
    </g>
  </g>
</svg>